<?xml version="1.0" encoding="utf-8"?>
<!-- Generator: Adobe Illustrator 19.1.0, SVG Export Plug-In . SVG Version: 6.00 Build 0)  -->
<!DOCTYPE svg PUBLIC "-//W3C//DTD SVG 1.1//EN" "http://www.w3.org/Graphics/SVG/1.1/DTD/svg11.dtd">
<svg version="1.1" id="Layer_1" xmlns="http://www.w3.org/2000/svg" xmlns:xlink="http://www.w3.org/1999/xlink" x="0px" y="0px"
	 viewBox="-488 239.4 102.4 170.6" style="enable-background:new -488 239.4 102.4 170.6;" xml:space="preserve">
<style type="text/css">
	.st0{fill:#FFFFFF;stroke:#BABABA;stroke-width:0.1;stroke-linecap:round;stroke-linejoin:round;stroke-miterlimit:10;}
	.st1{fill:#FFFFFF;}
	.st2{fill:#BABABA;}
</style>
<g id="SPLINE_2010_">
	<path class="st0" d="M-391.8,400.3c2.5-3,0.9-6.9-3.3-8C-393,394.6-390.7,396.8-391.8,400.3z"/>
</g>
<g id="SPLINE_2009_">
	<path class="st0" d="M-394.1,336.8c0.3-0.3,0.7-0.8,0.4-1.2c-0.4-0.6-0.8,0-1.1,0.3c-0.8,0.5-1.5,1-2.2,1.6
		c-2.6,2.2-2.8,5.8-0.4,8.4c-0.5-2.7-0.3-5.2,1.5-7.3C-395.4,337.9-394.7,337.4-394.1,336.8z"/>
</g>
<g id="SPLINE_2008_">
	<g>
		<path class="st1" d="M-393.9,256.9C-393.9,256.9-393.9,256.9-393.9,256.9c-0.1-0.3-0.2-0.6-0.2-0.9c-0.1-0.5-0.3-1-0.5-1.6
			c-0.9-3.1-1.9-6.3,1.9-8.9c-0.1,1-0.3,1.9-0.6,2.8c-0.6,2.5-1.3,5.1-0.8,7.7C-394,256.3-393.9,256.6-393.9,256.9
			C-393.8,256.9-393.8,256.9-393.9,256.9C-393.9,256.9-393.9,256.9-393.9,256.9z"/>
		<path class="st2" d="M-392.6,245.6L-392.6,245.6 M-392.6,245.6c-0.7,3.5-2.1,6.8-1.4,10.4c0.1,0.3,0.1,0.6,0.2,0.8
			c-0.1-0.3-0.1-0.6-0.2-0.8C-395,252.4-397.1,248.7-392.6,245.6 M-392.6,245.5C-392.6,245.5-392.6,245.5-392.6,245.5
			C-392.6,245.5-392.6,245.5-392.6,245.5C-392.6,245.5-392.6,245.5-392.6,245.5C-392.6,245.5-392.6,245.5-392.6,245.5
			C-392.6,245.5-392.6,245.5-392.6,245.5C-392.7,245.5-392.7,245.5-392.6,245.5c-3.9,2.7-2.9,5.9-2,9c0.2,0.5,0.3,1,0.5,1.6
			c0.1,0.3,0.1,0.6,0.2,0.8c0,0,0.1,0.1,0.1,0.1c0,0,0,0,0,0c0.1,0,0.1-0.1,0.1-0.1c-0.1-0.3-0.1-0.5-0.2-0.8
			c-0.5-2.6,0.2-5.2,0.8-7.7c0.2-0.9,0.5-1.8,0.6-2.7c0,0,0,0,0,0C-392.5,245.6-392.6,245.5-392.6,245.5L-392.6,245.5
			C-392.6,245.5-392.6,245.5-392.6,245.5L-392.6,245.5z"/>
	</g>
</g>
<g id="SPLINE_2007_">
	<path class="st0" d="M-394.4,348.1c0.7-3.2-1.1-6.6,1.4-9.5C-396.3,339.7-396.8,344.6-394.4,348.1z"/>
</g>
<g id="SPLINE_2006_">
	<g>
		<path class="st1" d="M-395.3,281.1c-0.2,0-0.4-0.1-0.5-0.3c-0.1-0.2-0.2-0.5-0.1-0.7c0.7-2.8-0.3-5.1-3-7.3
			c4.2,1.3,5.4,3.6,4.2,7.5c0,0.1,0,0.1-0.1,0.2C-394.8,280.8-394.9,281.1-395.3,281.1C-395.2,281.1-395.3,281.1-395.3,281.1z"/>
		<path class="st2" d="M-398.9,272.8c4.1,1.4,5.3,3.6,4.1,7.5c-0.1,0.3-0.1,0.8-0.5,0.8c0,0,0,0-0.1,0c-0.5-0.1-0.6-0.6-0.5-0.9
			C-395,276.9-396.5,274.7-398.9,272.8 M-398.9,272.7C-398.9,272.7-398.9,272.7-398.9,272.7c-0.1,0.1-0.1,0.1-0.1,0.2
			c2.8,2.2,3.7,4.4,3,7.2c-0.1,0.3,0,0.6,0.1,0.8c0.1,0.2,0.3,0.3,0.5,0.3c0,0,0,0,0.1,0c0.4,0,0.5-0.4,0.5-0.6c0-0.1,0-0.1,0-0.2
			C-393.4,276.4-394.7,274.1-398.9,272.7C-398.8,272.7-398.9,272.7-398.9,272.7L-398.9,272.7z"/>
	</g>
</g>
<g id="SPLINE_2005_">
	<path class="st0" d="M-395.3,375.7c1.2-3.9,0.1-6.1-4.1-7.5c2.4,1.9,3.8,4.1,3,7.3c-0.1,0.4,0.1,0.9,0.5,0.9
		C-395.4,376.5-395.4,376-395.3,375.7z"/>
</g>
<g id="SPLINE_2004_">
	<path class="st0" d="M-396.1,282.8c-0.4,0-0.6,0-0.6,0c-0.2,0.1-0.3,0.2-0.4,0.3c-1.8,1.9-4.1,2.4-6.6,2.3c-1.1,0-2.2,0.1-3.3,0.2
		c-0.5,0.1-1.2-0.1-1.3,0.6c-0.1,0.7,0.6,0.9,1.2,1c2.4,0.5,4.7,0.3,7-0.4C-398.2,286.2-397.1,284.8-396.1,282.8z"/>
</g>
<g id="SPLINE_2003_">
	<path class="st0" d="M-396.7,378.2c-0.4,0-0.6,0-0.6,0c-0.2,0.1-0.3,0.2-0.4,0.3c-1.8,1.9-4.1,2.4-6.6,2.3c-1.1,0-2.2,0.1-3.3,0.2
		c-0.5,0.1-1.2-0.1-1.3,0.6c-0.1,0.7,0.6,0.9,1.2,1c2.4,0.5,4.7,0.3,7-0.4C-398.8,381.6-397.6,380.1-396.7,378.2z"/>
</g>
<g id="SPLINE_2002_">
	<path class="st0" d="M-406.9,396c3-2.1,5.7-4.9,9.9-4.3c-3.5-2-8.8-0.5-11.1,3.1c-0.3,0.5-0.8,1.2-0.3,1.7
		C-407.8,397-407.3,396.3-406.9,396z"/>
</g>
<g id="SPLINE_2001_">
	<path class="st0" d="M-398.6,310.8c0.7-3.9-3.6-8-7.6-7.4C-402.3,304.4-400.5,307.6-398.6,310.8z"/>
</g>
<g id="SPLINE_2000_">
	<path class="st0" d="M-397.6,393.5c-3.7-0.9-5.6,2.1-8.1,3.7C-402.1,397.8-400.6,394.3-397.6,393.5z"/>
</g>
<g id="SPLINE_1999_">
	<path class="st0" d="M-400,313.6c0.6-0.3,0.5-1,0.2-1.5c-0.9-1.8-1.9-3.6-3.3-5.1c-0.6-0.6-1.2-1.2-2.5-1.2
		c0.4,1.2,0.5,2.2,1.4,2.9c1.4,1.1,2.4,2.5,3.2,4C-400.8,313.1-400.7,314-400,313.6z"/>
</g>
<g id="SPLINE_1998_">
	<path class="st0" d="M-402.3,302.1c1.9,0.9,3.1,2.5,4.6,4.3c-1.1-5.3-4.8-7.3-10.2-5.6C-406.3,301.9-404.2,301.2-402.3,302.1z"/>
</g>
<g id="SPLINE_1997_">
	<path class="st0" d="M-400.7,254.6c0.6-0.6,0.7-1.4,0.3-2.1c-0.5-0.7-1.1,0-1.6,0.3c-1.7,1-3.3,1.9-4.9,3c-2.4,1.7-4.9,2.1-7.7,1.8
		c-0.4,0-0.8-0.1-1.2-0.1c-0.3,0-0.6,0.2-0.6,0.5c0,0.4,0.2,0.5,0.5,0.6c1.6,0.4,3,1.2,4.6,1.3c2.4-0.2,4.5-0.9,6.5-2
		C-403.4,257-401.9,256-400.7,254.6z"/>
</g>
<g id="SPLINE_1996_">
	<path class="st0" d="M-404.4,402.9c2.6-1.2,5.5-4.8,5.8-7C-402.1,396.9-402.3,400.6-404.4,402.9z"/>
</g>
<g id="SPLINE_1995_">
	<path class="st0" d="M-403,248.8c1.7-0.5,2.2-2.4,0.9-3.7c-0.3-0.3-0.6-0.2-0.9,0c-1.1,0.8-2.2,1.7-2.9,2.9c-0.5,0.9-0.2,1.3,1,1.2
		C-404.4,249.1-403.7,249-403,248.8z"/>
</g>
<g id="SPLINE_1994_">
	<path class="st0" d="M-402.3,250.9c-0.1-0.2-0.1-0.3-0.2-0.5c-1.8,0.8-3.8,0.2-5.5,1.1c-2.3,1.3-4.3,2.9-6.9,3.4
		c-0.3,0.1-0.6,0.2-0.5,0.6c0.1,0.4,0.4,0.3,0.7,0.4c1.6,0.4,3.2,0.4,4.7-0.5C-407.4,253.9-404.8,252.4-402.3,250.9z"/>
</g>
<g id="SPLINE_1993_">
	<path class="st0" d="M-407.6,284.1c3.3-0.5,6.8,0.7,9.2-2.4c-1.8,0.2-3.5,0.7-5.3,0.6C-405.4,282.2-406,282.6-407.6,284.1z"/>
</g>
<g id="SPLINE_1992_">
	<path class="st0" d="M-408.2,379.5c3.3-0.5,6.8,0.7,9.2-2.4c-1.8,0.2-3.5,0.7-5.3,0.6C-406,377.6-406.6,377.9-408.2,379.5z"/>
</g>
<g id="SPLINE_1991_">
	<g>
		<path class="st1" d="M-403.6,280.9c-0.9,0-1.7-0.2-2.4-0.7c-1.4-0.8-3-1.2-4.3-1.4c0.8-0.3,1.6-0.4,2.5-0.4c2.2,0,4.4,0.6,7.2,1.8
			C-401.6,280.6-402.6,280.9-403.6,280.9L-403.6,280.9z"/>
		<path class="st2" d="M-407.9,278.5c2.5,0,4.8,0.8,7.2,1.8c-1,0.3-1.9,0.5-2.9,0.5c-0.8,0-1.6-0.2-2.4-0.7
			c-1.3-0.8-2.8-1.2-4.4-1.4C-409.5,278.6-408.7,278.5-407.9,278.5 M-407.9,278.4c-0.8,0-1.7,0.1-2.5,0.3c0,0-0.1,0.1-0.1,0.1
			c0,0,0,0.1,0.1,0.1c1.4,0.2,2.9,0.6,4.3,1.4c0.7,0.5,1.5,0.7,2.4,0.7c1,0,2-0.3,2.9-0.5c0,0,0.1,0,0.1-0.1c0,0,0-0.1-0.1-0.1
			C-403.5,279-405.7,278.4-407.9,278.4L-407.9,278.4z"/>
	</g>
</g>
<g id="SPLINE_1990_">
	<path class="st0" d="M-406.6,375.6c1.7,1.1,3.5,0.6,5.3,0.1c-3.1-1.4-6.2-2.3-9.6-1.5C-409.4,374.4-407.9,374.8-406.6,375.6z"/>
</g>
<g id="SPLINE_1989_">
	<path class="st0" d="M-405.1,362c0.6-0.2,1.2-0.8,0.9-1.5c-0.3-0.7-0.9-0.2-1.3,0c-1.7,0.5-3.5,1.1-5.3,0.8c-1.8-0.3-3,0.5-4.6,1.5
		c1.5,0.9,2.8,0.8,4,0.7C-409.2,363.4-407.1,362.8-405.1,362z"/>
</g>
<g id="SPLINE_1988_">
	<path class="st0" d="M-405.3,244.3c-2.4-0.1-7.9,5.3-8.6,8.2C-409,251.9-408,247.4-405.3,244.3z"/>
</g>
<g id="SPLINE_1987_">
	<path class="st0" d="M-405.3,316.3c0.1-3.4-0.3-6.6-2-10c-1,1.7-1.1,4.4-0.4,5.7c0.7,1.3,1.3,2.7,1.4,4.2c0,0.4-0.1,0.9,0.5,0.9
		C-405.4,317.1-405.4,316.7-405.3,316.3z"/>
</g>
<g id="SPLINE_1986_">
	<path class="st0" d="M-406,365.3c0.2-0.2,0.5-0.5,0.3-0.7c-0.3-0.5-0.7-0.2-1.1-0.1c-3.7,0.9-7.4,1.5-11-0.6
		C-415.6,367.3-408.7,368-406,365.3z"/>
</g>
<g id="SPLINE_1985_">
	<path class="st0" d="M-406.9,351.3c0.1-0.1,0.2-0.4,0.1-0.5c-0.6-0.8-1.6-0.8-2.4-1.2c-0.6-0.2-1.1-0.1-1.4,0.6
		c-0.4,0.9-0.7,1.8-1,2.7c-0.2,0.5-0.2,0.9,0.6,0.9C-409.4,353.4-408.2,352.4-406.9,351.3z"/>
</g>
<g id="SPLINE_1984_">
	<path class="st0" d="M-405.5,353c-1.9,1-3.5,2.3-5.6,2.7c-2.7,0.6-3.8,2.9-5,5C-411.8,359.1-407.9,357-405.5,353z"/>
</g>
<g id="SPLINE_1983_">
	<g>
		<path class="st1" d="M-409.5,262c-1.5,0-3.1-0.2-4.8-0.6c-1-0.2-2-0.5-2.9-1c1,0.3,2,0.6,3,0.9c0.9,0.2,1.8,0.3,2.7,0.3
			c3.3,0,6.7-1.3,10.7-4.2C-402,260.3-405.2,262-409.5,262L-409.5,262z"/>
		<path class="st2" d="M-400.7,257.4c-1.4,2.9-4.6,4.5-8.7,4.5c-1.5,0-3.1-0.2-4.8-0.6c-1-0.2-1.9-0.5-2.9-1c1,0.4,2,0.7,2.9,1
			c0.9,0.2,1.8,0.3,2.7,0.3C-407.7,261.6-404.1,259.8-400.7,257.4 M-400.7,257.3C-400.7,257.3-400.8,257.3-400.7,257.3
			c-4,2.9-7.5,4.2-10.8,4.2c-0.9,0-1.8-0.1-2.7-0.3c-1-0.3-1.9-0.6-2.9-1c0,0,0,0,0,0c0,0-0.1,0-0.1,0.1c0,0.1,0,0.1,0.1,0.1
			c1,0.4,2,0.8,2.9,1c1.7,0.4,3.3,0.6,4.8,0.6c4.2,0,7.5-1.7,8.8-4.6C-400.6,257.4-400.6,257.3-400.7,257.3
			C-400.7,257.3-400.7,257.3-400.7,257.3L-400.7,257.3z"/>
	</g>
</g>
<g id="SPLINE_1982_">
	<g>
		<path class="st1" d="M-409.4,266c-1.5,0-3-0.5-4.3-1.4c0.4-0.1,0.7-0.1,1-0.1l1.9,0c2.1,0,4.4-0.1,6.6-1.2
			C-405.5,265.1-407.3,266-409.4,266z"/>
		<path class="st2" d="M-404.2,263.5L-404.2,263.5 M-404.2,263.5c-1.3,1.7-3.2,2.5-5.2,2.5c-1.4,0-2.9-0.4-4.3-1.3c0.3,0,0.7,0,1,0
			c0.6,0,1.3,0,1.9,0C-408.6,264.6-406.4,264.5-404.2,263.5 M-404.2,263.4C-404.2,263.4-404.2,263.4-404.2,263.4
			C-404.2,263.4-404.2,263.4-404.2,263.4c-2.3,1.1-4.6,1.2-6.7,1.2c-0.3,0-0.6,0-0.9,0c-0.3,0-0.6,0-1,0c-0.3,0-0.6,0-1,0
			c0,0-0.1,0-0.1,0.1c0,0,0,0.1,0,0.1c1.3,0.9,2.8,1.4,4.3,1.4c2.1,0,4-0.9,5.3-2.5c0,0,0,0,0-0.1
			C-404.1,263.4-404.1,263.4-404.2,263.4L-404.2,263.4C-404.2,263.4-404.2,263.4-404.2,263.4L-404.2,263.4z"/>
	</g>
</g>
<g id="SPLINE_1981_">
	<path class="st0" d="M-409.9,311c0.2-2.4,0.4-4.8,1.5-7.2c-3.5,0.8-3.9,5.9-3.5,10.6C-411.5,313-410,312.3-409.9,311z"/>
</g>
<g id="SPLINE_1980_">
	<path class="st0" d="M-410,302c0.2-0.5,0-0.9-0.6-0.6c-1.6,0.8-3.4,1.4-4.3,3.3c-0.9,2-1.4,4.1-1.4,6.2c0,1.5-0.1,3.3,2,3.9
		c0.1-0.1,0.2-0.2,0.2-0.2c0.1-0.4,0.1-0.8,0.1-1.2c0.7-3.9-0.2-8.3,3.8-11C-410.1,302.2-410.1,302.1-410,302z"/>
</g>
<g id="SPLINE_1979_">
	<path class="st0" d="M-410.3,335.9c2.5-3,0.9-6.9-3.3-8C-411.5,330.2-409.3,332.4-410.3,335.9z"/>
</g>
<g id="SPLINE_1978_">
	<path class="st0" d="M-408.3,368.2c-4.4,1.2-8.2,0.5-11.3-3.2c-0.4-0.5-1.2-0.7-1.9-0.3C-418.7,370.4-413.1,371.9-408.3,368.2z"/>
</g>
<g id="SPLINE_1977_">
	<g>
		<path class="st1" d="M-412.8,390.8C-412.9,390.8-412.9,390.8-412.8,390.8c-0.4-4.4-1.4-7.3-3.4-9.7
			C-412.2,383.2-411,386.6-412.8,390.8C-412.8,390.8-412.8,390.8-412.8,390.8C-412.8,390.8-412.8,390.8-412.8,390.8z"/>
		<path class="st2" d="M-416.2,381.1c3.9,2.1,5.2,5.5,3.3,9.7C-413.1,387-413.9,383.7-416.2,381.1 M-416.2,381
			C-416.2,381-416.2,381-416.2,381c-0.1,0.1-0.1,0.1-0.1,0.2c2,2.4,2.9,5.2,3.3,9.6c0,0,0,0.1,0.1,0.1c0,0,0,0,0,0
			c0,0,0.1,0,0.1-0.1C-410.9,386.6-412.1,383.1-416.2,381C-416.1,381-416.1,381-416.2,381L-416.2,381z"/>
	</g>
</g>
<g id="SPLINE_1976_">
	<path class="st0" d="M-413.7,244.7c0.1-0.4-0.3-0.6-0.7-0.6c-0.4,0-0.8,0.1-1,0.5c-0.9,1.8-1.6,3.7-1.2,5.8
		c0.1,0.4,0.1,0.9,0.6,0.9c0.4,0,0.5-0.4,0.8-0.6C-413.5,249-414.3,246.7-413.7,244.7z"/>
</g>
<g id="SPLINE_1975_">
	<path class="st0" d="M-415.9,356.9c2.3-1.8,2.2-4.5,2.9-6.9c-2.1,2.7-4.9,4.7-6.4,7.8c-0.5,1-0.7,2.1-0.4,3.2
		c0.1,0.3,0.2,0.7,0.6,0.7c0.3,0,0.4-0.3,0.5-0.6C-418,359.5-417.2,358-415.9,356.9z"/>
</g>
<g id="SPLINE_1974_">
	<g>
		<path class="st1" d="M-415.9,394.5c-0.1,0-0.1,0-0.2,0c-0.2-0.1-0.4-0.2-0.4-0.4c0-0.2,0-0.3,0.1-0.5c0-0.1,0-0.1,0-0.2
			c0.4-1.9,0.6-3.5,0.5-5c-0.1-2.8-1-5-2.7-6.6c-0.7-0.6-1.3-1.2-1.3-2.4c3.9,3.5,5.6,6.8,5.5,10.8c0,1.2-0.3,2.4-0.8,3.5
			C-415.3,394.1-415.5,394.5-415.9,394.5L-415.9,394.5z"/>
		<path class="st2" d="M-419.8,379.5c3.3,3,5.5,6.3,5.4,10.8c0,1.2-0.3,2.4-0.8,3.5c-0.1,0.3-0.3,0.7-0.7,0.7c0,0-0.1,0-0.2,0
			c-0.6-0.2-0.3-0.7-0.2-1c0.3-1.6,0.6-3.3,0.5-5c-0.1-2.6-0.8-4.9-2.8-6.7C-419.1,381.2-419.8,380.6-419.8,379.5 M-419.8,379.4
			C-419.8,379.4-419.8,379.4-419.8,379.4c-0.1,0-0.1,0.1-0.1,0.1c0,1.2,0.6,1.8,1.2,2.3l0.1,0.1c1.8,1.7,2.7,3.8,2.7,6.6
			c0,1.5-0.1,3.1-0.5,4.9c0,0.1,0,0.1,0,0.2c-0.1,0.3-0.2,0.8,0.3,1c0.1,0,0.1,0,0.2,0c0.4,0,0.7-0.5,0.8-0.8
			c0.5-1.2,0.8-2.4,0.8-3.6C-414.2,386.3-415.9,382.9-419.8,379.4C-419.7,379.4-419.8,379.4-419.8,379.4L-419.8,379.4z"/>
	</g>
</g>
<g id="SPLINE_1973_">
	<path class="st0" d="M-414.9,349.3c0.7-0.8,0.4-1-0.4-1.2c-1.4-0.4-2.3,0.5-3.2,1.3c-2.6,2.4-4.7,5-5.2,8.3c0,1.7,0.6,2.9,0.9,4.1
		c0.1,0.4,0.3,1,0.9,0.8c0.6-0.2,0.5-0.7,0.4-1.2c-0.6-3.1,0.8-5.5,2.8-7.6C-417.4,352.3-416.2,350.8-414.9,349.3z"/>
</g>
<g id="SPLINE_1972_">
	<path class="st0" d="M-425.4,331.6c3-2.1,5.7-4.9,9.9-4.3c-3.5-2-8.8-0.5-11.1,3.1c-0.3,0.5-0.8,1.2-0.3,1.7
		C-426.3,332.6-425.8,331.9-425.4,331.6z"/>
</g>
<g id="SPLINE_1971_">
	<path class="st0" d="M-417.2,388.9c0.4-2.6-1-4.9-3.1-6.9c-0.4-0.4-0.6-1.2-1.3-0.8c-0.7,0.4-0.1,1.1,0.2,1.5
		c1.6,2.2,1.7,4.7,1.3,7.3c-0.3,1.7-0.6,3.4-0.8,5.1c-0.1,0.5-0.2,1.1,0.4,1.4c0.6,0.3,1.2,0,1.5-0.5c0.4-0.4,0.7-1,0.9-1.5
		C-417.5,392.9-417.1,391.1-417.2,388.9z"/>
</g>
<g id="SPLINE_1970_">
	<path class="st0" d="M-416.2,329.1c-3.7-0.9-5.6,2.1-8.1,3.7C-420.7,333.5-419.1,330-416.2,329.1z"/>
</g>
<g id="SPLINE_1969_">
	<path class="st0" d="M-417.7,245.3c0.1-0.4,0.3-0.8-0.2-1.1c-0.5-0.2-0.9,0.1-1.2,0.5c-2.1,2.8-1.3,7.3,2.1,9.5
		C-418.9,251.2-418.9,248.3-417.7,245.3z"/>
</g>
<g id="SPLINE_1968_">
	<g>
		<path class="st1" d="M-419,257.3c-0.3,0-0.5-0.2-0.7-0.5c-0.1-0.1-0.2-0.2-0.2-0.2c-0.7-0.6-1.4-1.2-2.2-2c-1.3-1.3-2-2.9-2-4.6
			c0-1.8,0.9-3.6,2.6-5.1l-0.2,1.1c-0.1,0.7-0.3,1.2-0.4,1.8c-0.4,2.5,0.2,4.6,2,6.4c0.1,0.1,0.2,0.2,0.3,0.3
			c0.3,0.3,0.6,0.6,0.8,0.9c0.4,0.5,0.7,1.1,0.2,1.6C-418.7,257.3-418.9,257.3-419,257.3L-419,257.3z"/>
		<path class="st2" d="M-421.4,244.9L-421.4,244.9 M-421.4,244.9c-0.3,1.2-0.5,2-0.6,2.9c-0.5,2.5,0.2,4.7,2,6.5
			c0.4,0.4,0.8,0.8,1.2,1.3c0.3,0.5,0.7,1.1,0.2,1.6c-0.1,0.1-0.3,0.2-0.4,0.2c-0.3,0-0.6-0.5-0.9-0.7c-0.7-0.6-1.5-1.3-2.2-2
			C-424.8,251.8-424.7,247.9-421.4,244.9 M-421.4,244.8C-421.4,244.8-421.4,244.8-421.4,244.8C-421.4,244.8-421.5,244.9-421.4,244.8
			C-421.5,244.9-421.5,244.9-421.4,244.8C-421.5,244.9-421.5,244.9-421.4,244.8C-421.5,244.9-421.5,244.9-421.4,244.8
			C-421.5,244.9-421.5,244.9-421.4,244.8C-421.5,244.9-421.5,244.9-421.4,244.8c-1.7,1.5-2.6,3.3-2.7,5.2c0,1.7,0.6,3.3,2,4.6
			c0.7,0.7,1.4,1.4,2.2,2c0.1,0.1,0.1,0.1,0.2,0.2c0.2,0.2,0.4,0.5,0.7,0.5c0.1,0,0.3-0.1,0.4-0.2c0.6-0.6,0.1-1.4-0.2-1.7
			c-0.2-0.3-0.5-0.6-0.8-0.9c-0.1-0.1-0.2-0.2-0.3-0.3c-1.8-1.8-2.4-4-2-6.4c0.1-0.5,0.2-1.1,0.4-1.7c0.1-0.3,0.2-0.7,0.2-1.1
			c0,0,0,0,0,0C-421.3,244.9-421.4,244.8-421.4,244.8L-421.4,244.8C-421.4,244.8-421.4,244.8-421.4,244.8L-421.4,244.8z"/>
	</g>
</g>
<g id="SPLINE_1967_">
	<path class="st0" d="M-422.9,338.6c2.6-1.2,5.5-4.8,5.8-7C-420.6,332.5-420.9,336.3-422.9,338.6z"/>
</g>
<g id="SPLINE_1966_">
	<path class="st0" d="M-420.9,287.5c0.2-0.7,0.3-1.5-0.5-2.1c-1,2.7-1.7,5.3-3.4,7.6c-1.7,2.5-4.6,2.9-6.9,4.4
		c1.5-0.4,3-0.9,4.4-1.5C-423.9,294.1-421.7,291.3-420.9,287.5z"/>
</g>
<g id="SPLINE_1965_">
	<path class="st0" d="M-421.3,388.4c0.3-1.8-0.3-3.3-1.3-4.7c-0.2-0.3-0.4-0.7-0.8-0.6c-0.5,0.2-0.4,0.7-0.3,1
		c0.5,2.1,0,4.1-0.5,6.2c-0.1,0.6-0.4,1.2,0,1.9c0.8,1.5,0.9,3.1,1.3,4.7C-422,394.1-421.8,391.2-421.3,388.4z"/>
</g>
<g id="SPLINE_1964_">
	<g>
		<path class="st1" d="M-424.7,362.9C-424.8,362.9-424.8,362.9-424.7,362.9c-1.5-4.1-1.4-8.3,0.2-11.3c1-1.9,2.5-3.1,4.4-3.6
			c-0.2,0.4-0.5,0.8-0.8,1.1c-1.5,1.9-3,3.7-3.9,5.9c-1,2.2-0.6,4.2-0.1,6.4C-424.9,361.8-424.8,362.3-424.7,362.9
			C-424.7,362.9-424.7,362.9-424.7,362.9C-424.7,362.9-424.7,362.9-424.7,362.9z"/>
		<path class="st2" d="M-420.1,348L-420.1,348 M-420.1,348c-1.9,2.3-3.7,4.4-4.8,6.9c-1.2,2.7-0.3,5.3,0.1,7.9
			C-427.2,356.1-425.1,349.3-420.1,348 M-420.1,347.9C-420.1,347.9-420.1,347.9-420.1,347.9C-420.1,347.9-420.1,347.9-420.1,347.9
			c-1.9,0.5-3.4,1.7-4.4,3.6c-1.6,3-1.7,7.3-0.3,11.4c0,0,0.1,0.1,0.1,0.1c0,0,0,0,0,0c0.1,0,0.1-0.1,0.1-0.1
			c-0.1-0.5-0.2-1-0.3-1.5c-0.4-2.2-0.8-4.2,0.1-6.3c1-2.1,2.4-3.9,3.9-5.9c0.3-0.3,0.5-0.7,0.8-1c0,0,0,0,0-0.1
			C-420,348-420,347.9-420.1,347.9L-420.1,347.9C-420.1,347.9-420.1,347.9-420.1,347.9L-420.1,347.9z"/>
	</g>
</g>
<g id="SPLINE_1963_">
	<path class="st0" d="M-423.3,380.4c0.5-0.2,0.8-0.5,0.2-1c-4.3-3.5-9.5-2.2-11.7,3.2c0.3-0.2,0.5-0.4,0.8-0.6
		c2.7-2.3,5.5-3.3,8.9-1.7C-424.5,380.6-423.9,380.7-423.3,380.4z"/>
</g>
<g id="SPLINE_1962_">
	<path class="st0" d="M-423.2,283.4c0-1-0.7-1.8-1.5-2c-0.9-0.2-0.7,1-1,1.5c0,0,0,0.1-0.1,0.2c-1.5,4.3-2,9.2-7,11.3
		c-0.3,0.1-0.5,0.5-0.3,0.9c0.2,0.4,0.6,0.2,0.9,0.1C-425.7,293.9-423.9,288.7-423.2,283.4z"/>
</g>
<g id="SPLINE_1961_">
	<path class="st0" d="M-425.1,397.7c0.8-0.2,0.6-1,0.6-1.9c-0.1-0.6-0.2-1.3-0.5-2.1c-0.2-0.7-0.6-1-1.2-0.3
		c-0.9,1.1-1.5,2.4-1.9,3.9c-0.1,0.3,0,0.7,0.3,0.7C-426.9,398.2-426,398-425.1,397.7z"/>
</g>
<g id="SPLINE_1960_">
	<path class="st0" d="M-424.9,382.2c-0.1-0.1-0.2-0.3-0.3-0.3c-3.5-1.8-8.4,0.1-10,3.7c-0.2,0.4-0.3,0.8,0,1.1
		c0.4,0.4,0.7-0.1,1-0.3C-431.6,383.9-428.9,381.7-424.9,382.2z"/>
</g>
<g id="SPLINE_1959_">
	<path class="st0" d="M-426.1,391.2c1.3-1.6,1.4-3.9,1-6c-2.8,3.5-5,7.1-4.7,11.8C-428.8,394.9-427.6,393-426.1,391.2z"/>
</g>
<g id="SPLINE_1958_">
	<g>
		<path class="st1" d="M-422.9,260.6c-4-1.3-6.1-4.7-5.4-8.9C-427.2,254.7-425.8,257.9-422.9,260.6
			C-422.8,260.5-422.8,260.5-422.9,260.6C-422.9,260.6-422.9,260.6-422.9,260.6C-422.9,260.6-422.9,260.6-422.9,260.6z"/>
		<path class="st2" d="M-428.3,251.7c1.2,3.5,2.6,6.4,5.4,8.8C-426.9,259.2-428.9,255.9-428.3,251.7 M-428.3,251.6
			C-428.3,251.6-428.3,251.6-428.3,251.6C-428.3,251.6-428.4,251.6-428.3,251.6c-0.7,4.4,1.3,7.7,5.4,9c0,0,0,0,0,0
			c0,0,0.1,0,0.1-0.1c0,0,0-0.1,0-0.1C-425.7,257.9-427.1,254.7-428.3,251.6C-428.2,251.6-428.2,251.6-428.3,251.6L-428.3,251.6z"/>
	</g>
</g>
<g id="SPLINE_1957_">
	<path class="st0" d="M-426.6,384.4c0-0.5-0.3-0.5-0.7-0.5c-1.9,0-7,3.7-7.5,5.4c-0.2,0.6-0.1,1.3,0.4,1.6c0.5,0.3,0.8-0.4,1.1-0.7
		c1.2-1.3,2.6-2.5,4.3-3.2C-427.8,386.5-427.3,385.3-426.6,384.4z"/>
</g>
<g id="SPLINE_1956_">
	<g>
		<path class="st1" d="M-428,359.4C-428,359.4-428.1,359.4-428,359.4c-2.1-3.4-1.5-6.4,1.8-8.8C-427.5,353.4-428.1,356.3-428,359.4
			C-428,359.4-428,359.4-428,359.4C-428,359.4-428,359.4-428,359.4z"/>
		<path class="st2" d="M-426.2,350.7L-426.2,350.7 M-426.2,350.7c-1.4,2.7-2,5.6-1.8,8.7C-430.1,356.1-429.5,353-426.2,350.7
			 M-426.2,350.6C-426.2,350.6-426.2,350.6-426.2,350.6C-426.2,350.6-426.2,350.6-426.2,350.6C-426.2,350.6-426.2,350.6-426.2,350.6
			C-426.2,350.6-426.2,350.6-426.2,350.6C-426.2,350.6-426.2,350.6-426.2,350.6C-426.2,350.6-426.2,350.6-426.2,350.6
			c-3.4,2.4-4,5.5-1.9,8.8c0,0,0.1,0,0.1,0c0,0,0,0,0,0c0,0,0.1-0.1,0.1-0.1c-0.2-3,0.4-5.9,1.8-8.6c0,0,0,0,0-0.1
			C-426.1,350.6-426.1,350.6-426.2,350.6L-426.2,350.6C-426.2,350.6-426.2,350.6-426.2,350.6L-426.2,350.6z"/>
	</g>
</g>
<g id="SPLINE_1955_">
	<path class="st0" d="M-427,280.8c-1.3,1.1-2.2,2.4-3.6,3.3c-0.2,0.2-0.4,0.6-0.5,0.9c-0.6,2.4-1.2,4.8-2.9,6.7
		c-0.2,0.2-0.3,0.5-0.1,0.8c0.2,0.3,0.5,0.1,0.8,0c1.6-0.8,3-1.9,3.7-3.7C-428.7,286.1-427.9,283.5-427,280.8z"/>
</g>
<g id="SPLINE_1954_">
	<path class="st0" d="M-429.1,280c0.4-0.5,1.1-1.1,0.5-1.8c-0.6-0.7-1.5-1.2-2.5-1.6c-0.9,0.6-0.8,1.6-0.8,2.4c0,1-0.4,2.4,0.7,2.8
		C-430.2,282.2-429.8,280.8-429.1,280z"/>
</g>
<g id="SPLINE_1953_">
	<path class="st0" d="M-434.7,289.8c1.1-2.1,2.2-4.1,1.7-6.1c-0.6-2.3-0.9-4.5-0.6-7.1C-435.9,278.6-436.4,286-434.7,289.8z"/>
</g>
<g id="SPLINE_1952_">
	<path class="st0" d="M-435.9,344.5c0.7,0.1,1.4,0.1,1.2-0.7c-0.2-1-0.1-2.3-1.5-2.7c-0.9-0.2-3.9,1.5-3.6,1.9
		C-438.9,344.6-437.2,344.2-435.9,344.5z"/>
</g>
<g id="SPLINE_1951_">
	<g>
		<path class="st1" d="M-437.8,296.4c-3.5,0-7.1-2.5-8-5.6c-0.2-0.8-0.4-1.6,0-2.8c1.9,4.3,4.6,6.4,8.8,6.5c0.6,0,1.2,0.4,1.4,0.6
			c0.3,0.2,0.4,0.4,0.3,0.6c0,0.1-0.1,0.3-0.6,0.5C-436.4,296.3-437.1,296.4-437.8,296.4L-437.8,296.4z"/>
		<path class="st2" d="M-445.7,288c1.7,4.2,4.5,6.4,8.7,6.5c0.5,0,1,0.3,1.4,0.6c0.4,0.3,0.5,0.8-0.2,1c-0.6,0.2-1.3,0.3-2,0.3
			c-3.4,0-7-2.3-7.9-5.6C-445.9,290-446.1,289.2-445.7,288 M-445.7,287.9C-445.7,287.9-445.7,287.9-445.7,287.9
			C-445.7,287.9-445.8,288-445.7,287.9c-0.5,1.3-0.3,2-0.1,2.9c0.9,3.2,4.5,5.7,8,5.7c0.7,0,1.4-0.1,2-0.3c0.4-0.1,0.6-0.3,0.6-0.5
			c0-0.2-0.1-0.4-0.4-0.6c-0.2-0.2-0.8-0.6-1.5-0.6C-441.1,294.4-443.8,292.3-445.7,287.9C-445.6,288-445.7,287.9-445.7,287.9
			L-445.7,287.9z"/>
	</g>
</g>
<g id="SPLINE_1950_">
	<path class="st0" d="M-438.1,289.7c0.7,0.4,1.1,0.4,1-0.6c-0.3-0.8,0-1.9-0.7-2.6c-1.6-1.6-2.5-3.4-3-5.5c-0.1-0.3-0.3-0.6-0.5-0.7
		c-0.4-0.1-0.6,0.2-0.8,0.5c-0.4,0.5-0.3,1.1-0.1,1.6c0.7,1.9,1.4,3.8,2.5,5.5C-439.3,288.6-438.8,289.2-438.1,289.7z"/>
</g>
<g id="SPLINE_1949_">
	<path class="st0" d="M-443.5,288.5c1.5,3.1,3.5,4.4,7.1,4.1c-1.1-0.6-1.9-1-2.7-1.5c-2.4-1.6-3.4-4-4.3-6.5
		c-0.1-0.3-0.2-0.9-0.7-0.8c-0.6,0.1-0.6,0.7-0.5,1.1C-444.5,286.1-444,287.3-443.5,288.5z"/>
</g>
<g id="SPLINE_1948_">
	<path class="st0" d="M-437.6,316.4c0-2.5-1.4-4-3.1-5.5c-0.5,0.6-0.1,1,0.1,1.4c1.2,2,1.1,4.1,0.6,6.2c-0.3,1.2-0.6,2.3-0.9,3.5
		c-0.1,0.5-0.7,1.3,0.1,1.6c0.6,0.2,1.3-0.3,1.7-0.9C-437.9,320.8-437.6,318.6-437.6,316.4z"/>
</g>
<g id="SPLINE_1947_">
	<path class="st0" d="M-438.4,338.1c0.5,0,1.1,0,1.1-0.7c-0.2-1-0.9-1.6-1.9-1.8c-4.9-1.2-10.7,1.3-13.2,5.8c-0.2,0.3-0.4,0.6,0,0.9
		c0.3,0.3,0.6,0.3,0.9,0.1c0.3-0.2,0.6-0.5,0.9-0.8c1.8-2.1,4.1-2.8,6.8-3C-442,338.4-440.2,338.2-438.4,338.1z"/>
</g>
<g id="SPLINE_1946_">
	<path class="st0" d="M-435.1,346.1c-1.9-0.5-3.9-0.4-5.5-1.5c-2.3-1.6-4.7-0.6-7.2,0C-444.4,347.1-437.5,347.9-435.1,346.1z"/>
</g>
<g id="SPLINE_1945_">
	<path class="st0" d="M-438.8,372.3c0.5-0.2,0.4-0.7,0.3-1.1c-0.7-2.2-1.9-4.2-3.8-5.7c-0.3-0.2-0.7-0.3-0.9-0.4
		c-0.8,0-1.2,0.3-0.7,1c1.3,2,2.6,3.9,4,5.9C-439.8,372.5-439.3,372.6-438.8,372.3z"/>
</g>
<g id="SPLINE_1944_">
	<path class="st0" d="M-439.2,265.3c0.3-0.2,0.6-0.5,0.5-1c-0.1-0.4-0.5-0.4-0.9-0.4c-1.1-0.1-2.2-0.3-3.3-0.4
		c-2.9-0.3-5.8-0.7-7.7-3.3c-0.2-0.3-0.5-0.5-0.9-0.3c0,0.1-0.1,0.2-0.1,0.3c1.4,3.9,8,6.9,11.9,5.3
		C-439.5,265.5-439.3,265.4-439.2,265.3z"/>
</g>
<g id="SPLINE_1943_">
	<path class="st0" d="M-441.3,342.1c1.4-1.1,3-1.6,4.5-2.7c-2.6,0.2-5.3,0.3-7.9,0.6c-2,0.2-3.8,1-5.1,2.7c-0.2,0.3-0.5,0.6-0.3,0.9
		c0.3,0.5,0.7,0.1,1.1,0c1.4-0.7,3-0.9,4.5-1C-443.4,342.5-442,342.6-441.3,342.1z"/>
</g>
<g id="SPLINE_1942_">
	<path class="st0" d="M-436.3,256.7c-3.5-0.7-6.8-0.4-10.4,0.9C-442.8,259.8-439.7,257.2-436.3,256.7z"/>
</g>
<g id="SPLINE_1941_">
	<path class="st0" d="M-440.4,252.3c0.3-0.1,0.7-0.2,0.6-0.7c-0.1-0.4-0.5-0.5-0.9-0.4c-2.6,1-5.1,2-6.9,4.9c1.3-0.3,2.3-0.3,3-1
		C-443.4,254-442,252.9-440.4,252.3z"/>
</g>
<g id="SPLINE_1940_">
	<path class="st0" d="M-440.2,352.3c0.1-0.5-0.5-0.6-0.8-0.7c-1.6-0.9-3-2-4-3.5c-0.7-1.1-2-1.1-3.1-1.6c-0.8,0.3-0.5,0.9-0.2,1.3
		c1.3,2.6,3.9,3.9,6.3,5.2c0.2,0.1,0.6,0.1,0.8,0C-440.8,352.9-440.3,352.8-440.2,352.3z"/>
</g>
<g id="SPLINE_1939_">
	<path class="st0" d="M-442.3,309.6c0.2-0.2-0.1-0.4-0.2-0.5c-3.2-3-7.4-2.5-10.3,1.5c3.7-2.3,5.4-2.4,9-0.9c0.3,0.1,0.7,0.2,1,0.2
		C-442.7,309.9-442.4,309.7-442.3,309.6z"/>
</g>
<g id="SPLINE_1938_">
	<path class="st0" d="M-442.8,322.1c2-3.6,2.1-7.5,0.1-9.4C-442.2,315.8-445,318.9-442.8,322.1z"/>
</g>
<g id="SPLINE_1937_">
	<path class="st0" d="M-439.8,333.8c-4.1-3-12.7,1.5-14.4,7.5c2.2-2.3,3.2-4.9,5.9-6C-445.7,334.4-443,334-439.8,333.8z"/>
</g>
<g id="SPLINE_1936_">
	<path class="st0" d="M-443.3,392.4c0.2-0.2-0.1-0.4-0.2-0.5c-3.2-3-7.4-2.5-10.3,1.5c3.7-2.3,5.4-2.4,9-0.9c0.3,0.1,0.7,0.2,1,0.2
		C-443.7,392.7-443.4,392.6-443.3,392.4z"/>
</g>
<g id="SPLINE_1935_">
	<path class="st0" d="M-442.8,250.1c-2.9-0.7-8.4,3.4-6.8,6.5c0.6-1.7,1.3-3.1,2.7-4C-445.6,251.8-444.3,251-442.8,250.1z"/>
</g>
<g id="SPLINE_1934_">
	<path class="st0" d="M-443.7,404.9c2-3.6,2.1-7.5,0.1-9.4C-443.1,398.6-446,401.7-443.7,404.9z"/>
</g>
<g id="SPLINE_1933_">
	<path class="st0" d="M-439,262.4c-2.5-1.8-6.8-3.1-10.4-3.4C-446.5,262.6-442.4,261.5-439,262.4z"/>
</g>
<g id="SPLINE_1932_">
	<g>
		<path class="st1" d="M-445,354.6c-1.9,0-3.8-1.2-5-3.2c-1.2-2-1.4-4.2-0.5-5.9c0.4,4.1,3.1,6.2,5.8,7.7l0.2,0.1
			c0.3,0.2,0.7,0.4,0.6,0.8C-444.1,354.6-444.7,354.6-445,354.6L-445,354.6z"/>
		<path class="st2" d="M-450.4,345.5c0.3,3.9,2.7,6,5.7,7.7c0.3,0.2,0.9,0.4,0.7,0.8c-0.1,0.4-0.6,0.4-1,0.4c0,0,0,0,0,0
			C-449,354.5-452.4,349.1-450.4,345.5 M-450.4,345.4C-450.5,345.4-450.5,345.4-450.4,345.4c-1,1.7-0.8,3.9,0.4,6
			c1.2,2,3.1,3.3,5,3.3c0.4,0,1,0,1.1-0.5c0.1-0.5-0.3-0.7-0.6-0.9c-0.1,0-0.1-0.1-0.2-0.1C-449.4,350.4-450.2,347.7-450.4,345.4
			C-450.3,345.5-450.4,345.4-450.4,345.4C-450.4,345.4-450.4,345.4-450.4,345.4L-450.4,345.4z"/>
	</g>
</g>
<g id="SPLINE_1931_">
	<path class="st0" d="M-447,319.9c2-1.4,2.4-3.5,2.7-6c-3,2.5-5.3,6.9-4.6,8.6C-448.2,321.7-447.9,320.5-447,319.9z"/>
</g>
<g id="SPLINE_1930_">
	<path class="st0" d="M-448,402.7c2-1.4,2.4-3.5,2.7-6c-3,2.5-5.3,6.9-4.6,8.6C-449.2,404.5-448.9,403.4-448,402.7z"/>
</g>
<g id="SPLINE_1929_">
	<path class="st0" d="M-445.9,312.6c-3.1,0-4.9,1.9-6.9,3.6c-0.4,0.3-0.3,0.9,0.1,1.2c0.5,0.4,0.7-0.2,1-0.4c0.9-1,2.1-1.7,3.4-2
		C-447.2,314.7-446.6,313.8-445.9,312.6z"/>
</g>
<g id="SPLINE_1928_">
	<path class="st0" d="M-444.6,331.4c-4.2-1.2-7.9,1.3-9.1,5.9C-451.4,334.1-448.4,332.3-444.6,331.4z"/>
</g>
<g id="SPLINE_1927_">
	<path class="st0" d="M-446.9,395.5c-3.1,0-4.9,1.9-6.9,3.6c-0.4,0.3-0.3,0.9,0.1,1.2c0.5,0.4,0.7-0.2,1-0.4c0.9-1,2.1-1.7,3.4-2
		C-448.2,397.5-447.5,396.7-446.9,395.5z"/>
</g>
<g id="SPLINE_1926_">
	<path class="st0" d="M-447.6,377.9c0.2-0.7,0.3-1.5-0.5-2.1c-1,2.7-1.7,5.3-3.4,7.6c-1.7,2.5-4.6,2.9-6.9,4.4
		c1.5-0.4,3-0.9,4.4-1.5C-450.6,384.5-448.4,381.7-447.6,377.9z"/>
</g>
<g id="SPLINE_1925_">
	<path class="st0" d="M-447.9,354.8c-0.2-0.1-0.4-0.2-0.6-0.3c-3.3-2.1-4.8-4.9-3.9-8.8c0.1-0.3,0-0.7,0-1c-0.1-0.4-0.2-1-0.8-0.9
		c-0.5,0-0.5,0.5-0.6,0.9c-0.2,0.8-0.3,1.6-0.5,2.4C-455.2,351.4-452.7,354.7-447.9,354.8z"/>
</g>
<g id="SPLINE_1924_">
	<g>
		<path class="st1" d="M-452.2,257.9c-0.6,0-0.6-0.6-0.7-1c0-0.1,0-0.2,0-0.3c-0.3-2,0-3.8,1-5.1c0.9-1.2,2.5-2,4.4-2.2l-0.6,0.6
			c-0.4,0.3-0.7,0.6-1.1,0.9c-1.8,1.4-2.6,3.3-2.5,5.7c0,0.4,0,0.9-0.2,1.1C-451.8,257.8-452,257.9-452.2,257.9
			C-452.2,257.9-452.2,257.9-452.2,257.9z"/>
		<path class="st2" d="M-447.4,249.4L-447.4,249.4 M-447.4,249.4c-0.6,0.5-1.2,0.9-1.7,1.4c-1.9,1.5-2.6,3.4-2.5,5.8
			c0,0.5,0,1.2-0.6,1.3c0,0,0,0,0,0c-0.6,0-0.6-0.7-0.6-1.2C-453.4,252.6-451.5,249.9-447.4,249.4 M-447.4,249.3L-447.4,249.3
			C-447.4,249.3-447.4,249.3-447.4,249.3c-2,0.2-3.5,1-4.5,2.2c-1,1.3-1.3,3-1,5.1c0,0.1,0,0.2,0,0.2c0,0.4,0.1,1,0.7,1l0,0
			c0.2,0,0.3-0.1,0.5-0.2c0.2-0.3,0.3-0.7,0.2-1.2c-0.1-2.4,0.6-4.3,2.4-5.7c0.3-0.3,0.7-0.6,1.1-0.9l0.6-0.5
			C-447.3,249.5-447.3,249.5-447.4,249.3C-447.3,249.4-447.4,249.3-447.4,249.3L-447.4,249.3z"/>
	</g>
</g>
<g id="SPLINE_1923_">
	<path class="st0" d="M-449.8,373.8c0-1-0.7-1.8-1.5-2c-0.9-0.2-0.7,1-1,1.5c0,0,0,0.1-0.1,0.2c-1.5,4.3-2,9.2-7,11.3
		c-0.3,0.1-0.5,0.5-0.3,0.9c0.2,0.4,0.6,0.2,0.9,0.1C-452.3,384.3-450.6,379.1-449.8,373.8z"/>
</g>
<g id="SPLINE_1922_">
	<path class="st0" d="M-453.1,286.9c1.8-4.1,0.6-7.6-3.3-9.7C-454.2,279.9-453.4,283.1-453.1,286.9z"/>
</g>
<g id="SPLINE_1921_">
	<path class="st0" d="M-454.7,286.4c0.1-4.4-2.1-7.7-5.4-10.8c0,1.2,0.7,1.8,1.3,2.3c1.9,1.8,2.7,4.1,2.8,6.7c0,1.7-0.2,3.3-0.5,5
		c-0.1,0.4-0.3,0.9,0.2,1c0.5,0.1,0.7-0.3,0.8-0.7C-455,288.8-454.7,287.6-454.7,286.4z"/>
</g>
<g id="SPLINE_1920_">
	<path class="st0" d="M-453.6,371.2c-1.3,1.1-2.2,2.4-3.6,3.3c-0.2,0.2-0.4,0.6-0.5,0.9c-0.6,2.4-1.2,4.8-2.9,6.7
		c-0.2,0.2-0.3,0.5-0.1,0.8c0.2,0.3,0.5,0.1,0.8,0c1.6-0.8,3-1.9,3.7-3.7C-455.4,376.6-454.5,373.9-453.6,371.2z"/>
</g>
<g id="SPLINE_1919_">
	<path class="st0" d="M-455.8,370.4c0.4-0.5,1.1-1.1,0.5-1.8c-0.6-0.7-1.5-1.2-2.5-1.6c-0.9,0.6-0.8,1.6-0.8,2.4
		c0,1-0.4,2.4,0.7,2.8C-456.9,372.6-456.4,371.2-455.8,370.4z"/>
</g>
<g id="SPLINE_1918_">
	<path class="st0" d="M-457.4,285c0.4-2.6-1-4.9-3.1-6.9c-0.4-0.4-0.6-1.2-1.3-0.8c-0.7,0.4-0.1,1.1,0.2,1.5
		c1.6,2.2,1.7,4.7,1.3,7.3c-0.3,1.7-0.6,3.4-0.8,5.1c-0.1,0.5-0.2,1.1,0.4,1.4c0.6,0.3,1.2,0,1.5-0.5c0.4-0.4,0.7-1,0.9-1.5
		C-457.7,289-457.4,287.2-457.4,285z"/>
</g>
<g id="SPLINE_1917_">
	<path class="st0" d="M-461.4,380.2c1.1-2.1,2.2-4.1,1.7-6.1c-0.6-2.3-0.9-4.5-0.6-7.1C-462.6,369-463.1,376.5-461.4,380.2z"/>
</g>
<g id="SPLINE_1916_">
	<path class="st0" d="M-462.3,263.3c2.2-1.6,2.9-4.3,2-6.7c-0.4-1-3-4.6-4-5.5C-461.9,254.7-460.9,258.7-462.3,263.3z"/>
</g>
<g id="SPLINE_1915_">
	<path class="st0" d="M-460.5,315.4c0.5-0.3,0.3-1.1,0-1.6c-0.9-1.8-2.1-3.5-3.8-4.7c-1.9-1.3-4.2-1.3-6,0.2
		c1.2,0.2,2.3,0.4,3.4,0.7c2.3,0.7,3.7,2.7,5.2,4.5C-461.4,314.9-461.2,315.9-460.5,315.4z"/>
</g>
<g id="SPLINE_1914_">
	<path class="st0" d="M-462.2,308.9c0.7,0.7,1.3,1.4,2,2.3c-1.1-5.7-4.8-7.8-10-5.9c-0.3,0.1-0.7,0.2-1,0.4c-0.4,0.3-1.4,0-1.1,0.9
		c0.2,0.6,0.9,0.9,1.6,0.8c0.5-0.1,0.9-0.2,1.3-0.4C-466.6,306.1-464.2,306.9-462.2,308.9z"/>
</g>
<g id="SPLINE_1913_">
	<path class="st0" d="M-461.5,284.5c0.3-1.8-0.3-3.3-1.3-4.7c-0.2-0.3-0.4-0.7-0.8-0.6c-0.5,0.2-0.4,0.7-0.3,1
		c0.5,2.1,0,4.1-0.5,6.2c-0.1,0.6-0.4,1.2,0,1.9c0.8,1.5,0.9,3.1,1.3,4.7C-462.3,290.2-462,287.3-461.5,284.5z"/>
</g>
<g id="SPLINE_1912_">
	<path class="st0" d="M-461.9,320.2c1-1.2,1-2.1,0.2-3.2c-1.1-1.4-2.1-2.9-3.4-4.1c-0.8-0.7-1.7-1.3-2.8-1.6
		c-0.5-0.1-1.1-0.1-0.7,0.6c0.5,1,0.8,2.3,1.6,2.8C-464.9,316-463.3,317.9-461.9,320.2z"/>
</g>
<g id="SPLINE_1911_">
	<g>
		<path class="st1" d="M-464.4,386.8c-3.5,0-7.1-2.5-8-5.6c-0.2-0.8-0.4-1.6,0-2.8c1.9,4.3,4.6,6.4,8.8,6.5c0.6,0,1.2,0.4,1.4,0.6
			c0.3,0.2,0.4,0.4,0.3,0.6c0,0.1-0.1,0.3-0.6,0.5C-463.1,386.8-463.7,386.8-464.4,386.8C-464.4,386.8-464.4,386.8-464.4,386.8z"/>
		<path class="st2" d="M-472.4,378.5c1.7,4.2,4.5,6.4,8.7,6.5c0.5,0,1,0.3,1.4,0.6c0.4,0.3,0.5,0.8-0.2,1c-0.6,0.2-1.3,0.3-2,0.3
			c-3.4,0-7-2.3-7.9-5.6C-472.6,380.4-472.8,379.7-472.4,378.5 M-472.4,378.4C-472.4,378.4-472.4,378.4-472.4,378.4
			C-472.4,378.4-472.4,378.4-472.4,378.4c-0.5,1.3-0.3,2-0.1,2.9c0.9,3.2,4.5,5.7,8,5.7c0.7,0,1.4-0.1,2-0.3
			c0.4-0.1,0.6-0.3,0.6-0.5c0-0.2-0.1-0.4-0.4-0.6c-0.2-0.2-0.8-0.6-1.5-0.6C-467.8,384.8-470.5,382.7-472.4,378.4
			C-472.3,378.4-472.3,378.4-472.4,378.4L-472.4,378.4z"/>
	</g>
</g>
<g id="SPLINE_1910_">
	<path class="st0" d="M-463.5,276.5c0.5-0.2,0.8-0.5,0.2-1c-4.3-3.5-9.5-2.2-11.7,3.2c0.3-0.2,0.5-0.4,0.8-0.6
		c2.7-2.3,5.5-3.3,8.9-1.7C-464.8,276.8-464.1,276.8-463.5,276.5z"/>
</g>
<g id="SPLINE_1909_">
	<path class="st0" d="M-463.4,261.4c0.8-3.5-0.4-6.6-2.3-9.5c-0.2-0.3-0.2-1.1-0.8-0.8c-0.5,0.3-0.1,0.8,0.1,1.2
		c0.2,0.3,0.3,0.6,0.5,0.9c1.9,2.7,1.8,5.6,0.8,8.6c-0.6,1.8-1.4,3.5-2.7,5.3c1.3-0.2,2-0.7,2.5-1.4
		C-464.4,264.4-463.7,263-463.4,261.4z"/>
</g>
<g id="SPLINE_1908_">
	<path class="st0" d="M-464.7,380.1c0.7,0.4,1.1,0.4,1-0.6c-0.3-0.8,0-1.9-0.7-2.6c-1.6-1.6-2.5-3.4-3-5.5c-0.1-0.3-0.3-0.6-0.5-0.7
		c-0.4-0.1-0.6,0.2-0.8,0.5c-0.4,0.5-0.3,1.1-0.1,1.6c0.7,1.9,1.4,3.8,2.5,5.5C-466,379-465.5,379.7-464.7,380.1z"/>
</g>
<g id="SPLINE_1907_">
	<path class="st0" d="M-470.2,378.9c1.5,3.1,3.5,4.4,7.1,4.1c-1.1-0.6-1.9-1-2.7-1.5c-2.4-1.6-3.4-4-4.3-6.5
		c-0.1-0.3-0.2-0.9-0.7-0.8c-0.6,0.1-0.6,0.7-0.5,1.1C-471.2,376.5-470.7,377.7-470.2,378.9z"/>
</g>
<g id="SPLINE_1906_">
	<path class="st0" d="M-465.3,293.9c0.8-0.2,0.6-1,0.6-1.9c-0.1-0.5-0.2-1.3-0.5-2.1c-0.2-0.7-0.6-1-1.2-0.3
		c-0.9,1.1-1.5,2.4-1.9,3.9c-0.1,0.3,0,0.7,0.3,0.7C-467.1,294.4-466.2,294.1-465.3,293.9z"/>
</g>
<g id="SPLINE_1905_">
	<path class="st0" d="M-465.2,278.3c-0.1-0.1-0.2-0.3-0.3-0.3c-3.5-1.8-8.4,0.1-10,3.7c-0.2,0.4-0.3,0.8,0,1.1
		c0.4,0.4,0.7-0.1,1-0.3C-471.8,280.1-469.2,277.9-465.2,278.3z"/>
</g>
<g id="SPLINE_1904_">
	<g>
		<path class="st1" d="M-470.1,293.2C-470.1,293.2-470.2,293.2-470.1,293.2c-0.4-5,2.1-8.8,4.7-11.9c0.5,1.8,0.6,4.2-0.9,6.1
			C-467.9,289.3-469.1,291.1-470.1,293.2C-470.1,293.2-470.1,293.2-470.1,293.2C-470.1,293.2-470.1,293.2-470.1,293.2z"/>
		<path class="st2" d="M-465.4,281.3c0.5,2.2,0.3,4.4-1,6c-1.5,1.8-2.7,3.7-3.7,5.8C-470.5,288.5-468.2,284.8-465.4,281.3
			 M-465.4,281.2C-465.4,281.2-465.5,281.3-465.4,281.2c-2.6,3.1-5.2,6.9-4.8,11.9c0,0,0,0.1,0.1,0.1c0,0,0,0,0,0c0,0,0.1,0,0.1-0.1
			c1-2,2.1-3.8,3.7-5.8C-464.8,285.6-464.9,283.1-465.4,281.2C-465.3,281.3-465.4,281.3-465.4,281.2
			C-465.4,281.2-465.4,281.2-465.4,281.2L-465.4,281.2z"/>
	</g>
</g>
<g id="SPLINE_1903_">
	<path class="st0" d="M-465.4,344.3c0.4-1.7,0.3-2-0.6-3.4c-3.1-4.8-7.7-6.8-13.5-6.9c0.6,0.8,1.3,0.9,2,0.9c3.8,0.1,6.6,2,8.9,4.9
		C-467.5,341.2-466.7,342.8-465.4,344.3z"/>
</g>
<g id="SPLINE_1902_">
	<path class="st0" d="M-466.4,347.6c0.2-0.4,0.1-0.8,0-1.2c-1.3-5.3-6.4-9.6-11.9-10.1c-0.4,0.2-1.3-0.6-1.5,0.4
		c-0.1,0.8,0.7,0.9,1.3,1.2c0.2,0.1,0.4,0.1,0.7,0.2c2.4,0.7,4.3,2.1,5.6,4.3c1.2,1.9,2.5,3.7,3.8,5.6c0.3,0.4,0.4,1.2,1,1.1
		C-466.7,349-466.7,348.2-466.4,347.6z"/>
</g>
<g id="SPLINE_1901_">
	<path class="st0" d="M-466.8,280.5c0-0.5-0.3-0.5-0.7-0.5c-1.9,0-7,3.7-7.5,5.4c-0.2,0.6-0.1,1.3,0.4,1.6c0.5,0.3,0.8-0.4,1.1-0.7
		c1.2-1.3,2.6-2.5,4.3-3.2C-468.1,282.6-467.6,281.4-466.8,280.5z"/>
</g>
<g id="SPLINE_1900_">
	<path class="st0" d="M-467.1,326.8c1.5-3.3-0.8-11.9-3.5-14.3c0,2.4-0.6,4.8,0.6,6.7C-468.6,321.5-467.6,323.8-467.1,326.8z"/>
</g>
<g id="SPLINE_1899_">
	<path class="st0" d="M-469.8,267.2c4-4,4.8-9.6,2-14.3c-0.3-0.5-0.4-1.2-1.2-0.8c-0.7,0.3-0.5,1-0.3,1.5c0.4,1.1,0.7,2.2,0.8,3.3
		c-0.1,1.3-0.5,2.4-1,3.5c-1,2-2,4-3,6.1c-0.6,1.2-0.1,1.6,1.1,1.5C-470.8,267.9-470.3,267.7-469.8,267.2z"/>
</g>
<g id="SPLINE_1898_">
	<path class="st0" d="M-466,338c-1-2.7-2.7-4.6-5.5-5.4c-2.1-0.6-4.3,0.1-6.4-0.1C-473.3,332.9-469.3,334.8-466,338z"/>
</g>
<g id="SPLINE_1897_">
	<path class="st0" d="M-468.9,327c0.3-0.1,0.3-0.5,0.2-1c-0.1-0.5-0.2-1.3-0.5-2c-0.3-1-0.5-2.5-1.6-2.5c-1.2,0-1,1.6-1.3,2.5
		c-0.1,0.3-0.1,0.7-0.2,1c-0.1,0.6-0.1,1.2,0.6,1.4C-470.7,326.8-469.8,327.3-468.9,327z"/>
</g>
<g id="SPLINE_1896_">
	<path class="st0" d="M-465.4,400.3c-3.5-0.7-6.8-0.4-10.4,0.9C-471.8,403.4-468.7,400.7-465.4,400.3z"/>
</g>
<g id="SPLINE_1895_">
	<path class="st0" d="M-469.4,395.8c0.3-0.1,0.7-0.2,0.6-0.7c-0.1-0.4-0.5-0.5-0.9-0.4c-2.6,1-5.1,2-6.9,4.9c1.3-0.3,2.3-0.3,3-1
		C-472.4,397.5-471.1,396.5-469.4,395.8z"/>
</g>
<g id="SPLINE_1894_">
	<path class="st0" d="M-470.2,250.7c0.4-0.2,0.8-0.5,0.2-0.9c-2.3-1.5-4.3-3.6-7.7-3.6c-1.3,0.1-2.9,0.6-4.3,1.6
		c-0.4,0.3-0.8,0.6-0.6,1.1c0.3,0.6,0.8,0.1,1.2,0c3.1-0.9,6-0.8,8.7,1.2C-471.9,250.8-471.1,251.2-470.2,250.7z"/>
</g>
<g id="SPLINE_1893_">
	<path class="st0" d="M-469.9,353.1c0.4-0.4,0.3-0.9,0-1.3c-0.8-1-1.8-1.8-2.9-2.4c-0.9-0.4-1.2-0.1-1.1,0.8c0,0.9,0.3,1.8,0.7,2.7
		c0.3,0.8,0.5,2,1.3,2.1C-471.1,355-470.6,353.8-469.9,353.1z"/>
</g>
<g id="SPLINE_1892_">
	<path class="st0" d="M-470.5,258.8c0.7-1.4,0.5-2.9-0.1-4.4c-0.2-0.4-0.2-1-0.8-1c-0.6,0-0.8,0.6-0.8,1.2c0,1.4-0.3,2.8-1.1,3.8
		c-2.3,2.8-1.2,6-1.8,9c0.1,0,0.3,0.1,0.4,0.1C-473.3,264.6-471.9,261.7-470.5,258.8z"/>
</g>
<g id="SPLINE_1891_">
	<path class="st0" d="M-468.5,350.5c-2-2.9-3.9-5.8-6-8.7c-1-1.4-2.7-1.9-4.3-2.4c-0.3-0.1-0.7-0.2-0.9,0.2
		c-0.2,0.4,0.1,0.7,0.4,0.9c2.2,1.6,3.6,3.7,4.8,6c0.2,0.3,0.5,0.7,0.8,0.9C-471.8,348.1-470.4,349.6-468.5,350.5z"/>
</g>
<g id="SPLINE_1890_">
	<path class="st0" d="M-471.6,310.9c0.1-0.3,0.1-0.6-0.2-0.8c-0.4-0.2-0.6,0.1-0.8,0.4c-1.1,1.3-1.8,2.7-1.8,4.4
		c-0.1,3.5,0.2,6.9,0.6,10.4c0.4-2,1-3.9,2-5.7c0.1-0.2,0.1-0.5,0.1-0.7C-472.1,316.2-472.3,313.5-471.6,310.9z"/>
</g>
<g id="SPLINE_1889_">
	<path class="st0" d="M-471.8,393.7c-2.9-0.7-8.4,3.4-6.8,6.5c0.6-1.7,1.3-3.1,2.7-4C-474.7,395.3-473.3,394.6-471.8,393.7z"/>
</g>
<g id="SPLINE_1888_">
	<path class="st0" d="M-473.4,308.9c0.2-0.5,0.3-0.9-0.2-1.2c-0.5-0.3-0.7,0.2-1,0.4c-3.1,2.5-4.5,5.8-4.1,9.1c0.1,2.4,0,4,0.4,5.6
		c0.2,0.7,0.4,1.3,1.1,1.7c0.4,0.3,0.8,0.6,1.3,0.5c0.6-0.2,0.4-0.8,0.4-1.2c0-0.9-0.1-1.8-0.1-2.8c-0.2-4.1-1-8.2,2.1-11.7
		C-473.5,309.1-473.4,309-473.4,308.9z"/>
</g>
<g id="SPLINE_1887_">
	<path class="st0" d="M-474.5,368.3c0-0.4-0.3-0.6-0.7-0.7c-0.4-0.2-0.9-0.2-1.2-0.3c-2.2,0.3-4.1,1.2-5.7,2.5
		c-0.6,0.4-0.6,1.1-0.5,1.8c0,0.6,0.3,1,0.9,0.5c2-1.5,4.4-2.2,6.7-3.2C-474.9,368.7-474.6,368.6-474.5,368.3z"/>
</g>
<g id="SPLINE_1886_">
	<path class="st0" d="M-473.7,355.8c-1.5-2.7-1.6-5.3-2.1-7.8c-0.3-2.1-1.8-4-3.9-5.6C-479.7,347.2-476.7,354.4-473.7,355.8z"/>
</g>
<g id="SPLINE_1885_">
	<g>
		<path class="st1" d="M-482.5,266.2C-482.5,266.2-482.5,266.2-482.5,266.2c-0.3-1.2-0.3-2,0.1-2.8c1.6-3.1,5.3-6.8,8.4-8.4
			l-0.1,0.8c-0.6,2.3-1.3,4.7-3.9,5.9c-1.6,0.7-2.6,2-3.6,3.4C-481.9,265.4-482.1,265.8-482.5,266.2
			C-482.5,266.2-482.5,266.2-482.5,266.2C-482.5,266.2-482.5,266.2-482.5,266.2z"/>
		<path class="st2" d="M-473.9,255.1L-473.9,255.1 M-473.9,255.1c-0.7,2.5-1.2,5.3-4,6.5c-2,0.9-3,2.7-4.5,4.5
			c-0.3-1.2-0.2-2,0.2-2.7C-480.8,260.5-477.2,256.7-473.9,255.1 M-473.9,255L-473.9,255C-473.9,255-474,255-473.9,255
			c-3.2,1.6-6.9,5.3-8.5,8.4c-0.4,0.8-0.5,1.7-0.2,2.8c0,0,0,0.1,0.1,0.1c0,0,0,0,0,0c0,0,0.1,0,0.1,0c0.3-0.4,0.6-0.8,0.9-1.1
			c1.1-1.4,2.1-2.7,3.6-3.4c2.6-1.2,3.2-3.6,3.9-5.9c0.1-0.2,0.1-0.5,0.2-0.7C-473.8,255.1-473.8,255.1-473.9,255
			C-473.8,255-473.9,255-473.9,255L-473.9,255z"/>
	</g>
</g>
<g id="SPLINE_1884_">
	<path class="st0" d="M-476.6,254.8c0.3-0.4,1.2-0.5,1-1.2c-0.3-0.6-1-0.3-1.6-0.4c-1.7,0.1-3.3,0.7-4.8,1.4
		c-0.7,0.3-0.8,0.9-0.7,1.6c0.1,0.5,0.4,0.7,0.9,0.6C-480.1,256.1-477.9,256.4-476.6,254.8z"/>
</g>
<g id="SPLINE_1883_">
	<path class="st0" d="M-476.6,266.1c0.1-1,1-2.4-0.2-3c-1.1-0.5-2,0.8-2.7,1.7c-0.6,0.7-1.8,1.6-1.4,2.4c0.4,0.9,1.9,0.3,2.8,0.7
		C-476.8,268-476.6,267-476.6,266.1z"/>
</g>
<g id="SPLINE_1882_">
	<path class="st0" d="M-481.7,252.8c2.8-1.2,5.6-1.4,9-0.3c-2.3-3.3-7.2-2.8-9.3-1.4c-0.5,0.4-0.8,0.9-0.5,1.5
		C-482.5,253-482,252.9-481.7,252.8z"/>
</g>
<g id="SPLINE_1881_">
	<path class="st0" d="M-478.1,394.4c0.5-0.4,1-0.8,1.7-1.4c-4.1,0.4-6,3.1-5.4,7.2c0.1,0.5,0,1.2,0.7,1.2c0.6,0,0.6-0.8,0.6-1.3
		C-480.7,397.8-480,395.9-478.1,394.4z"/>
</g>
<g id="SPLINE_1880_">
	<path class="st0" d="M-479.7,313.2c0.5-3.2,3.4-4.7,4.6-7.4c-5.9,4.6-8.4,13-4.8,16.4C-480,319.1-480.2,316.2-479.7,313.2z"/>
</g>
<g id="SPLINE_1879_">
	<path class="st0" d="M-481.4,347.8c0.6-1.3,0.6-2.5,0.3-3.9c-0.1-0.5,0-1.2-0.7-1.2c-0.6,0-0.9,0.7-0.9,1.3c0,2.1-0.1,4.1,0,6.2
		c0,1.1-0.2,2.3,0.5,3.3C-482.1,351.6-482.3,349.6-481.4,347.8z"/>
</g>
</svg>
