<?xml version="1.0" encoding="utf-8"?>
<!-- Generator: Adobe Illustrator 19.1.0, SVG Export Plug-In . SVG Version: 6.00 Build 0)  -->
<!DOCTYPE svg PUBLIC "-//W3C//DTD SVG 1.1//EN" "http://www.w3.org/Graphics/SVG/1.1/DTD/svg11.dtd">
<svg version="1.1" id="Layer_1" xmlns="http://www.w3.org/2000/svg" xmlns:xlink="http://www.w3.org/1999/xlink" x="0px" y="0px"
	 viewBox="-488 239.4 102.4 170.6" style="enable-background:new -488 239.4 102.4 170.6;" xml:space="preserve">
<style type="text/css">
	.st0{fill:#FFFFFF;stroke:#BABABA;stroke-width:0.1;stroke-linecap:round;stroke-linejoin:round;stroke-miterlimit:10;}
	.st1{fill:#FFFFFF;}
	.st2{fill:#BABABA;}
</style>
<g id="SPLINE_513_">
	<path class="st0" d="M-453.6,338.2c0.8,0.2,2.8,4.9,5.1,12.5c-0.9,0.3-1.5,1-2.1,1.8c-1.2,1.8-1.6,3.8-2,6.2
		c1.9-1.2,3.6-2.3,5.3-3.3c0.1,0.3,0.2,0.7,0.3,1c-1.6,0.9-3.2,1.8-5,2.9c2.2,0.2,4.1,0.5,5.9,0.5c0.1,0.5,0.2,1,0.3,1.5
		c-0.1,0-0.2-0.1-0.3-0.1c-1.9-0.6-3.9-0.8-6.3-1c1.6,1.9,2.9,3.4,4.2,5c1.1,1.4,2.2,1.5,3.3,0.3c2.2,11,4,24.4,4,38.3
		c1.2,0,2.2,0,2.2,0c0-16.4-2.9-32.1-6.1-44c1.3-0.2,2.4-0.6,3.2-1.5c0.9-1,0.2-1.9-0.4-2.7c-0.5-0.7-1.4-0.9-2.2-0.5
		c-0.6,0.3-1.1,0.6-1.7,0.9c-0.1-0.3-0.2-0.7-0.3-1c0.3-0.2,0.5-0.3,0.8-0.5c1.2-0.7,1-1.4,0.8-2.3s-0.9-1.5-2-1.6c-0.4,0-0.7,0-1,0
		C-450.2,342.9-452.6,338.3-453.6,338.2z"/>
</g>
<g id="SPLINE_512_">
	<path class="st0" d="M-412.4,273.6c-0.6-0.3-1.4-0.3-2.4,0.1c-1.8,0.8-2.9,1.9-1.5,3.8c1.5,2,3,4.1,4.7,6.4
		c1.9-3.1,1.8-5.9,0.7-8.6C-411.3,274.6-411.8,274-412.4,273.6z"/>
</g>
<g id="SPLINE_511_">
	<path class="st0" d="M-461.2,310.2L-461.2,310.2c-1.1-0.1-2.8,5.4-3.5,11.5c-0.5,0.2-0.8,0.7-1,1.2c-0.8,1.9-0.9,3.9,0.5,6.1
		c1.2-1.6,2.2-3.1,3.3-4.5c1-1.3,0.2-2.1-1.1-2.7c-0.2-0.1-0.4-0.1-0.5-0.2C-463.1,316-462,311-461.2,310.2z"/>
</g>
<g id="SPLINE_510_">
	<path class="st0" d="M-428.2,297c-0.7,0.2-2.3,8.1-4,20.8c-0.1-0.2-0.2-0.3-0.3-0.5c-1.2-1.8-2.9-3.1-5.6-2.8
		c-1.6,0.1-2.5,1-2.8,2.2s-0.6,2.3,1.1,3.3c2.3,1.3,4.5,2.6,6.8,4.1c-0.1,0.4-0.1,0.9-0.2,1.4c-3-1.7-5.6-3.2-8.4-4.7
		c-1.1-0.6-2.5-0.3-3.1,0.8c-0.8,1.2-1.9,2.4-0.6,3.9c1.2,1.3,2.9,2,4.8,2.2c2.3,0.2,4.6,0,7.1-0.3c0,0.4-0.1,0.8-0.1,1.2
		c-1.9,0.2-3.7,0.6-5.4,1.1c-3.1,1.1-3.9,3.4-1.9,5.7c1.7,2.1,3.3,2.1,5-0.1c0.6-0.7,1.2-1.5,1.8-2.2c-0.1,0.8-0.2,1.6-0.3,2.4
		c-0.5,0.7-1,1.3-1.5,2c-0.6,0.8,0.2,1.3,1,1.7c0,0,0.1,0,0.1,0.1c-1.8,18.3-3.3,41-3.3,64.6c0,0,0.7,0,1.5,0
		c0-23.4,1.3-46,2.8-64.3c1.7,0.3,3.4-0.5,4.3-2.2c1.4-2.8,0.3-5.7,0.2-8.7c-1.3,1.8-2.7,3.6-4,5.3c0.1-0.7,0.1-1.5,0.2-2.2
		c1-1.2,2-2.4,3.1-3.7c-1,0.1-1.9,0.2-2.8,0.3c0-0.4,0.1-0.8,0.1-1.2c0.7-0.1,1.4-0.1,2.1-0.2c-0.7-0.4-1.3-0.7-1.9-1.1
		c0-0.4,0.1-0.9,0.1-1.3c0.8,0.5,1.7,1.1,2.6,1.6c-0.5-2.8-0.9-5.2-1.9-7.4C-430.2,305.5-428.7,297.3-428.2,297z"/>
</g>
<g id="SPLINE_509_">
	<path class="st0" d="M-388.5,314.3v-6.4c-0.5,0.1-1,0.4-1.5,0.5c-3.1,1.1-6.2,2.2-9.3,3.3c-0.1-0.2-0.2-0.4-0.3-0.6
		c3-1.2,5.9-2.5,8.9-3.5c0.8-0.3,1.7-0.5,2.1-0.9v-1.9c-0.5-1.3-1.4-2.2-3.2-2.4c-1.7-0.1-3.1,0.4-4.1,1.6c-1.4,1.8-2.9,3.7-4.2,5.6
		c-1.4,2-0.5,3.4,2.1,4.1c2.8,0.8,5.6,1.7,8.7,0.8C-389,314.5-388.8,314.4-388.5,314.3z"/>
</g>
<g id="SPLINE_508_">
	<path class="st0" d="M-394,404.6c2.2,0,4,0,4,0c0-41.6-7.8-89.2-12.2-89.2h-0.6c0.9,0,2,3.4,3,9.1c-0.1,0-0.1-0.1-0.2-0.1
		c-1-0.6-2.2-0.8-2.9,0.1c-2.6,3.4-5,6.8-7.9,10.7c4.5-1.1,7.9-2.6,11-4.5c0.3-0.2,0.6-0.5,0.9-0.7c0.3,1.7,0.5,3.6,0.8,5.5
		c-1-0.7-2.3-1.1-3.9-0.7c-2.1-0.2-4.1,0.4-6,0.9c-0.6,0.2-2.9,0.2-1,1.7c0.2,0.2,0.3,0.3,0,0.5c-1.3,0.9-1.3,0.9-0.8,2.1
		c0.6,1.3,1.1,2.7,1.8,3.9c1.2,1.9,3.4,2.6,5.7,2.1c1.9-0.4,2.7-1.8,1.9-3.6c-0.4-0.9,0.5-0.6,0.9-0.7c0.8-0.3,1.5-0.8,2.1-1.2
		C-395.5,358-394,382.2-394,404.6z"/>
</g>
<g id="SPLINE_507_">
	<path class="st0" d="M-395.6,284.8c0.3-1.4-0.2-2.6-1.3-3.6c-1.2-1.1-2.4-0.5-3.5,0c-2.9,1.3-5.8,2.8-8.6,4.2
		c3.5,0.6,6.8,1.4,10.3,1.1C-397.5,286.4-395.9,286.3-395.6,284.8z"/>
</g>
<g id="SPLINE_506_">
	<path class="st0" d="M-399,301.7c0.1-1.5-0.7-3.2-3.3-4c-1.4-0.5-2.5,0.1-3.5,0.8c-1,0.7-1.1,1.5-0.7,2.5c1.2,2.9,2.3,5.8,3.4,8.7
		c0.2,0.4,0.3,0.8,0.8,0.8c0.6,0,0.9-0.4,1.1-0.9C-400.1,307.2-399.1,304.9-399,301.7z"/>
</g>
<g id="SPLINE_505_">
	<path class="st0" d="M-399.2,279.6c1.7-0.9,0.5-2.6-0.5-3.7c-1.6-1.8-3.8-2.1-5.3-0.8c-2.2,1.7-3,4.1-4,6.4
		c-0.4,0.8-0.5,1.6-0.8,2.8C-405.6,283.4-402.5,281.3-399.2,279.6z"/>
</g>
<g id="SPLINE_504_">
	<path class="st0" d="M-399.8,293.1c1.3-1,1-2.5,0.1-3.7c-1.3-1.9-8.3-3.1-10.5-2.1c-1.2,0.5-1.5,1.2-1.2,2c0.6,1.8,0.4,3.6,0.4,5.4
		c0,1.1,0.1,2.2,1.8,2.5c1.7,0.3,2.9-0.1,3.9-1.2c0.9-1,0.6-2-0.2-3c-1.3-1.5-3-2.7-3.5-4.6c1.6,1.5,3.1,3,4.7,4.4
		C-402.7,294-401.2,294.1-399.8,293.1z"/>
</g>
<g id="SPLINE_503_">
	<path class="st0" d="M-404.1,315c1.2-1.6,0.7-2.7-1.4-3.2c-2.7-0.7-5.4-1.3-8.2-1.4c-0.7,0-1.3,0-1.9,0.2
		c1.2-15.2,2.5-24.9,3.5-24.9h-0.5c-0.7,0-1.4,2.3-2.2,6.4c-0.2-0.2-0.4-0.3-0.7-0.5c-1-0.5-2.1-0.5-3.3-0.2c-3.1,0.6-5.8,2-8.7,4
		c4.1,0.4,7.6,0.8,11,1.2c0.3,0,0.6,0,0.9,0c0,0.3-0.1,0.6-0.1,1c-0.1,0-0.3-0.1-0.5-0.1c-3.7-0.4-7.4-0.8-11.9-1.2
		c2.7,2.5,4.2,4.9,7.3,6.1c1.4,0.6,3,0.8,4.4,0.3c-0.4,2.8-0.7,5.8-1.1,9.1c-0.1,0.2-0.2,0.3-0.3,0.5c-0.5,1-0.6,2.1,0,3
		c-0.1,1.1-0.2,2.3-0.3,3.5h-0.1c-1.5-0.6-2.4,0.2-3.3,1.1c-2.2,2.1-4.4,4.2-6.3,6.8c3.4,0.4,6-0.4,8.6-1.2c0.2-0.1,0.4-0.1,0.6-0.2
		c-0.1,0.7-0.1,1.3-0.2,2c-1.1-0.5-2.2-0.5-3.4,0c-1.4,0.7-2.7,1.6-2.7,3.3c0,1.7,1.3,2.3,2.8,2.8c0.9,0.3,1.8,0.5,2.7,0.8
		c0,0.3,0,0.5-0.1,0.8c-1-0.2-2-0.5-3.1-0.7c-2.4-0.5-4.3,0.3-4.7,2.1c-0.3,1.6,1.2,3.1,3.5,3.3c1.4,0.1,2.7,0,4-0.3
		c-1.4,19.9-2.3,43-2.3,64.8c0,0,1.4,0,3.2,0c0-22.1,0.7-45.5,1.7-65.6c1.3-0.5,2.6-1.2,3.9-1.9c0.3-0.2,1.5-1.8,0.7-2.8
		c-1.4-1.7-2.4-3.6-4-5.2c0.1-1.8,0.2-3.7,0.3-5.4c0.2-0.5,0.3-1,0.4-1.6c0-0.4-0.1-0.8-0.2-1.2c0-0.7,0.1-1.4,0.1-2.1h0.1
		c0,0.2,0,0.5,0.1,0.8c0.6,1.4,1.3,2.8,3.6,2.8c0.5,0,1.1,0,2,0.1c-1.9,3.4-2.6,6.7-1.7,10.3c0.1,0.5-0.1,1.3,0.7,1.4
		c0.8,0.2,0.9-0.6,1.2-1c1.8-2.5,3.5-5,5.3-7.5c1.6-2.3,0.8-3.8-2.4-4.1c-0.4,0-0.9,0.2-1.5-0.5C-406.7,319.2-405.6,317-404.1,315z"
		/>
</g>
<g id="SPLINE_502_">
	<path class="st0" d="M-403.5,311.3c-1.5-3.5-2.8-6.6-4.3-9.7c-0.4-0.9-1.3-1.6-2.6-1.4c-1.4,0.2-2.8,0.7-3.2,1.9
		c-0.5,1.4-0.6,2.8,0.4,4.1C-410.9,308.9-407.7,310.4-403.5,311.3z"/>
</g>
<g id="SPLINE_501_">
	<path class="st0" d="M-407,252.1c0.6-0.6,0.9-1.3,0.7-2.2c-0.3-1.1-0.9-1.8-2.2-2.1c-1.3-0.3-2.1,0.1-2.9,0.9
		c-1.2,1.3-2.4,2.5-3.8,3.6c0.2-1.4,1.4-2.3,2.3-3.3c1.4-1.5,1.7-2.9-0.2-4.3c-1-0.8-3.1-0.7-3.9,0c-2.6,2.9-2.3,6.3-2.3,9.6
		c0,1.4,1.8,1.6,2.4,1.6C-413.1,255.6-409.5,254.9-407,252.1z"/>
</g>
<g id="SPLINE_500_">
	<path class="st0" d="M-412.8,284.9c0.1-0.2,0.3-0.4,0.4-0.6c-1.9-2.3-3.8-4.6-5.6-6.9c-1.2-1.5-2.6-1.3-4.1-0.6
		c-1.6,0.8-1.4,2.1-0.7,3.3c0.8,1.4,2.3,2.3,3.9,2.9C-417,283.8-414.9,284.3-412.8,284.9z"/>
</g>
<g id="SPLINE_499_">
	<path class="st0" d="M-418.7,262.7c-0.3-1.2,0.2-3.4-1.1-3.7c-1.5-0.3-1.8,1.8-2.6,2.9c-1,1.1-1.6,2.5-2.5,3.6
		c-1.3,1.8-0.2,2.9,1.5,3.6s3,0.1,3.6-1.5C-419.1,266-418.7,264.5-418.7,262.7z"/>
</g>
<g id="SPLINE_498_">
	<path class="st0" d="M-421.3,286.1c0.4-1.5-0.1-2.8-2-3.1c-1.8-0.3-3.1,0.3-3.4,1.9c-0.6,3-1.3,5.9-1.9,8.9
		c0.3,0.1,0.5,0.2,0.8,0.2C-424.8,291.9-422.3,289.4-421.3,286.1z"/>
</g>
<g id="SPLINE_497_">
	<path class="st0" d="M-421.5,318.4c1.2-1.5-0.5-2.5-1.8-3.1c-1.5-0.7-3.1-0.7-3.9,1c-1.4,3-1.7,6.1-1.4,9.9
		C-426,323.2-423.5,320.9-421.5,318.4z"/>
</g>
<g id="SPLINE_496_">
	<path class="st0" d="M-421.7,255.6c-0.2-2.9-0.4-5.5-2.6-7.6c-2.1-2-5.6-1.9-7.2,0c-1,1.3-0.8,2.4,0.7,3.2
		C-427.9,252.7-425,254.1-421.7,255.6z"/>
</g>
<g>
	<path class="st1" d="M-428.7,266.8c-0.6,0-1.2-0.3-1.9-1c-0.6-0.8-0.9-1.7-0.8-2.5c0.1-0.6,0.5-1.2,1.3-1.8c2.8-1.9,5.7-3,9.3-3.5
		c-0.7,0.9-1.3,1.8-1.9,2.6l-0.3,0.4c-1.1,1.7-2.2,3.3-3.6,4.7C-427.2,266.3-428,266.8-428.7,266.8z"/>
	<g>
		<path class="st2" d="M-421,258.1c-0.6,0.9-1.2,1.8-1.8,2.6l-0.2,0.3c-1.1,1.7-2.2,3.3-3.6,4.7c-0.9,0.7-1.5,1-2.1,1
			c-0.6,0-1.2-0.3-1.8-1c-0.6-0.8-0.9-1.7-0.8-2.4c0.1-0.6,0.5-1.2,1.3-1.7C-427.4,259.8-424.5,258.7-421,258.1 M-420.8,258
			c-3.5,0.5-6.5,1.6-9.3,3.5c-0.7,0.5-1.2,1.1-1.3,1.8c-0.1,0.8,0.2,1.7,0.8,2.5c0.6,0.6,1.2,1,1.9,1s1.4-0.4,2.2-1
			c1.5-1.5,2.6-3.2,3.8-5C-422.1,259.9-421.5,259-420.8,258L-420.8,258z"/>
	</g>
</g>
<g id="SPLINE_494_">
	<path class="st0" d="M-422.4,256.1c-2.9-1.3-5.7-2.5-8.5-3.8c-1.6-0.8-2.8-0.6-3.6,0.8c-0.8,1.5-0.9,3,1.3,3.7
		C-429.7,258.2-426.1,257.7-422.4,256.1z"/>
</g>
<g id="SPLINE_493_">
	<path class="st0" d="M-428.2,284.5c0.2-0.9-0.3-1.7-1.4-2c-1.2-0.3-2.3-0.4-3.4,0.4c-1.4,1-1.8,2.4-1.5,3.8
		c0.5,2.8,2.2,5.2,4.6,7.8C-429.3,290.8-428.7,287.7-428.2,284.5z"/>
</g>
<g id="SPLINE_492_">
	<path class="st0" d="M-431.3,297c1-0.7,0.6-2.1,0-2.6c-2-1.7-3.7-3.7-6.3-4.9c-3-1.5-4.7-0.7-5.5,2c-0.7,2.3,1.3,2.5,3,2.7
		c2.5,0.2,4.9,0.5,7.8,1.5c-3.3,0.2-5.8-0.7-8.3-0.6c-2.8,0.2-4.2,1.2-4,3.3c0.2,1.8,2.1,2.7,4.6,2.4
		C-436.5,300.3-433.8,298.7-431.3,297z"/>
</g>
<g id="SPLINE_491_">
	<path class="st0" d="M-442.2,339.1c0.2-1.4-0.8-2.2-2.8-2.3c-1.8-0.1-3.5,0.5-5.9,0.4c2.1-0.7,3.8-0.9,5.5-1.1
		c1.2-0.1,2.6-0.2,2.1-1.9c-0.6-1.9-1.8-2.5-3.8-1.4c-1.8,0.9-3,2.3-4.4,3.5c-0.4,0.4-0.7,1.4,0,1.8c1.8,1.2,3.7,2.3,6,2.6
		C-443.6,341-442.3,340.4-442.2,339.1z"/>
</g>
<g id="SPLINE_490_">
	<path class="st0" d="M-448.9,367.8c0.5-0.3,1.1-0.6,0.7-1.2c-1.5-2.1-3.1-4.2-4.6-6.2c-0.1,2.1-0.8,4.2,0.1,6.1
		C-452,368-450.4,368.6-448.9,367.8z"/>
</g>
<g id="SPLINE_489_">
	<path class="st0" d="M-450.1,309.9c1.5-0.5,1.5-1.6,0.9-2.6c-0.5-1-1.4-1.1-2.5-0.6c-2,0.9-4,1.8-6,2.7
		C-455.1,310.5-452.6,310.8-450.1,309.9z"/>
</g>
<g id="SPLINE_488_">
	<path class="st0" d="M-449.2,330.9c0.2-1-0.1-2-1.1-2.7c-0.7-0.6-1.6-0.5-2.4-0.3s-1.1,0.8-1,1.4c0.4,2.2,0.8,4.5,1.3,7
		C-450.7,334.6-449.5,332.9-449.2,330.9z"/>
</g>
<g id="SPLINE_487_">
	<path class="st0" d="M-450.1,279.8c-0.6-3.4-1-6.3-2.8-8.8c-1.2-1.8-2.9-3.1-5.6-2.8c-1.6,0.1-2.5,1-2.8,2.2s-0.6,2.3,1.1,3.3
		C-456.9,275.5-453.8,277.6-450.1,279.8z"/>
</g>
<g id="SPLINE_486_">
	<path class="st0" d="M-451.8,305.9c1.1-0.5,1.2-1.3,0.5-2.2c-1.1-1.3-3.6-1.4-5,0c-1.6,1.5-1.7,3.3-1.9,5.4
		C-455.9,308-453.8,307-451.8,305.9z"/>
</g>
<g id="SPLINE_485_">
	<path class="st0" d="M-451.9,316.2c0.9-1,0.8-2.4-0.4-3.2c-1.8-1.2-3.9-2.1-6.8-2.5c1.6,2.1,2.5,4.1,4.2,5.7
		C-453.9,317.2-452.7,317.2-451.9,316.2z"/>
</g>
<g id="SPLINE_484_">
	<path class="st0" d="M-453.3,358.6c0.3-2.7,0-4.9-0.9-7c-0.5-1.2-1.7-1.2-2.7-0.7c-1,0.4-2.1,1.2-1.3,2.2
		C-456.9,355-455.2,356.6-453.3,358.6z"/>
</g>
<g id="SPLINE_483_">
	<path class="st0" d="M-453.9,336.1c0.2-0.1,0.4-0.1,0.6-0.2c-0.4-2.1-0.9-4.2-1.3-6.3c-0.2-1.2-1.2-1.6-2.4-1.4
		c-1.3,0.2-1.7,1.2-1.4,2.2C-457.8,332.8-456,334.6-453.9,336.1z"/>
</g>
<g id="SPLINE_482_">
	<path class="st0" d="M-456.7,368.2c1.6-0.1,2.7-1.2,2.5-2.3c-0.3-1.3-1.6-1.8-3.3-1.5c-0.6,0.1-1.2,0.3-1.8,0.4c0-0.2,0-0.4,0-0.6
		c0.5-0.1,1.1-0.3,1.6-0.5c1-0.3,2-0.8,2-2s-0.9-1.8-1.9-2.3c-0.7-0.3-1.4-0.4-2.1-0.1c0-0.4-0.1-0.8-0.1-1.2c0,0,0,0,0.1,0
		c1.8,0.5,3.7,1.1,6,0.8c-1.4-1.8-2.9-3.3-4.4-4.8c-0.6-0.6-1.2-1.1-2.1-0.8c-0.1-1-0.2-1.9-0.3-2.9c0.1-0.4,0-0.9-0.2-1.4
		c-0.3-2.5-0.6-4.8-0.8-6.9c1,0.3,1.9,0.1,2.9-0.3c2.2-0.8,3.2-2.6,5.1-4.3c-3.1,0.3-5.8,0.6-8.4,0.9c-0.1,0-0.1,0-0.2,0
		c0-0.2-0.1-0.4-0.1-0.6c0.1,0,0.3,0,0.4,0c2.4-0.3,4.9-0.5,7.8-0.8c-2-1.4-3.9-2.4-6.1-2.8c-0.8-0.2-1.6-0.2-2.3,0.2
		c-0.2,0.1-0.3,0.2-0.4,0.2c-0.6-2.8-1.2-4.4-1.7-4.4h-0.4c0.4,0,0.9,2,1.4,5.6c0,0.4,0.1,0.8,0.1,1.3c0,0.1,0,0.2,0.1,0.3
		c0.1,0.8,0.2,1.6,0.3,2.4c0,0.6-0.2,1.2,0.2,1.8c0.2,1.9,0.4,4,0.6,6.2c-0.4-0.2-0.9-0.2-1.5-0.2c-2,0-3.9,0.5-5.8,1
		c-1.5,0.4-1.8,1.1-1,2.3c1,1.4,1.8,3,3.3,4.1c-0.4,0.5-0.8,0.3-1.1,0.3c-2.3,0.2-2.9,1.3-1.7,2.9c1.2,1.8,2.5,3.5,3.7,5.3
		c0.2,0.3,0.3,0.9,0.9,0.7c0.5-0.1,0.4-0.6,0.5-1c0.6-2.5,0.1-4.9-1.2-7.2c0.6,0,1-0.1,1.4-0.1c1.6,0.1,2.1-0.9,2.5-1.9
		c0.5-1.1-0.7-1.3-1.6-1.7c-2-0.9-4.3-1.3-6.4-2.7c2.5,0.5,4.5,1.2,6.5,2c0.5,0.2,1.1,0.5,1.7,0.5c0.1,0.8,0.1,1.7,0.2,2.5
		c-0.2,0.3-0.3,0.7-0.3,1.2c0,0.6,0.2,1.1,0.5,1.5c0.1,1.1,0.1,2.1,0.2,3.2c-1.3,1.1-2,2.5-3.1,3.8c-0.6,0.7,0.3,1.8,0.5,1.9
		c1,0.5,1.9,1,2.9,1.4c0.6,11.4,0.9,24.1,0.9,36.2c1.2,0,2.2,0,2.2,0c0-11.9-0.5-24.4-1.3-35.7
		C-458.4,368.2-457.6,368.2-456.7,368.2z"/>
</g>
<g id="SPLINE_481_">
	<path class="st0" d="M-457,318.6c1.2-0.5,2-1.3,1.1-2.5c-0.6-0.8-1.1-1.8-1.8-2.6c-0.6-0.7-0.8-2.3-1.8-2c-0.9,0.2-0.6,1.7-0.8,2.6
		c0,1.3,0.3,2.4,0.8,3.5C-459.1,318.6-458.2,319-457,318.6z"/>
</g>
<g id="SPLINE_480_">
	<path class="st0" d="M-450.8,280.7c-4.1-2.3-7.5-4.4-11.1-6.2c-1.1-0.6-2.5-0.3-3.1,0.8c-0.8,1.2-1.9,2.4-0.6,3.9
		c1.2,1.3,2.9,2,4.8,2.2C-457.8,281.6-454.7,281-450.8,280.7z"/>
</g>
<g id="SPLINE_479_">
	<path class="st0" d="M-457.4,326.3c0.5-0.8,0.6-1.8-0.5-2.3c-1-0.5-2-0.6-2.9,0.4c-1.3,1.6-2.6,3.2-4,4.8c0.1,0.1,0.2,0.3,0.3,0.4
		c1.4-0.4,2.9-0.8,4.3-1.3C-459,327.9-458,327.3-457.4,326.3z"/>
</g>
<g id="SPLINE_478_">
	<path class="st0" d="M-458.7,260.4c0.7-2.4,1.3-4.3,0.9-6.4c-0.2-1.4-0.9-2.7-2.8-3.1c-1.1-0.3-1.9,0.1-2.6,0.8
		c-0.6,0.7-1.1,1.4-0.3,2.4C-461.8,256.1-460.4,258.1-458.7,260.4z"/>
</g>
<g id="SPLINE_477_">
	<path class="st0" d="M-459.9,308.1c0-2.3,0.3-4.7-1.6-6.8c-0.5-0.4-1.4-0.7-2.8,0c-1.3,1-1.1,2-0.1,3.1c0.6,0.7,1.5,1.4,1.6,2.3
		c-1-0.8-1.8-1.7-2.6-2.6c-0.5-0.6-1.1-0.8-2-0.6c-1,0.2-1.4,0.7-1.6,1.5c-0.1,0.6,0.1,1.1,0.5,1.5c1.7,2,4.3,2.5,6.9,2.6
		C-461.1,309.2-459.9,309.1-459.9,308.1z"/>
</g>
<g id="SPLINE_476_">
	<path class="st0" d="M-459.4,260.8c-2-2.4-3.6-4.5-5.3-6.5c-0.5-0.6-1.5-0.7-2.3-0.2c-0.9,0.6-2,1.2-1.6,2.4
		c0.4,1.1,1.3,1.9,2.4,2.5C-464.2,259.9-462,260.2-459.4,260.8z"/>
</g>
<g id="SPLINE_475_">
	<path class="st0" d="M-464.2,344.6c0.7-0.9,0.6-1.9,0.3-2.9c-0.3-0.9-1.3-1.2-2.3-1.3c-0.9-0.1-1.5,0.3-1.8,1c-1,2.2-1.9,4.4-3,6.8
		C-468,347.6-465.8,346.6-464.2,344.6z"/>
</g>
<g id="SPLINE_474_">
	<path class="st0" d="M-465.3,365.2h-0.2c-0.3,0-0.6,0.8-0.9,2.2c-0.1-0.1-0.3-0.2-0.6-0.4c-0.2-0.1-0.2-0.2,0-0.4
		c1.3-1-0.3-1.1-0.7-1.2c-1.4-0.3-2.7-0.8-4.2-0.6c-1.6-0.3-2.7,0.3-3.4,1.1c0.2-1.9,0.5-3.6,0.7-5.3c0.2,0.5,0.5,0.9,1.1,1.3
		c2.2,1.4,4.6,2.4,7.7,3.2c-2-2.7-3.7-5.2-5.5-7.5c-0.5-0.7-1.4-0.5-2.1-0.1c-0.3,0.2-0.6,0.5-0.8,0.8c1-5.9,2-9.6,2.9-9.6h-0.5
		c-3.1,0-8.6,29.6-8.6,55.4c0,0,1.3,0,2.8,0c0-12.2,0.9-25.3,2-35.7c0.4,0.6,1.2,1,1.9,1.4c0.2,0.1,0.9-0.1,0.6,0.5
		c-0.6,1.2,0,2.2,1.3,2.5c1.6,0.3,3.2-0.1,4-1.5l0.1-0.3l0.1-0.3l0.1-0.3l0.1-0.3l0.2-0.5l0.2-0.5c-1.2,6.8-2.5,21.5-2.5,34.7
		c0,0,0.6,0,1.3,0C-468.1,385.8-466.4,365.2-465.3,365.2z"/>
</g>
<g id="SPLINE_473_">
	<path class="st0" d="M-465.5,332.8c0.2-0.6,0-1-0.8-1.4c-1.6-0.7-6.5,0.1-7.4,1.5c-0.6,0.9-0.9,1.9,0.1,2.6s2.1,0.7,3.1-0.2
		c1.2-1,2.2-2,3.3-3.1c-0.3,1.3-1.5,2.2-2.5,3.2c-0.6,0.7-0.8,1.4-0.2,2.1c0.7,0.8,1.6,1.1,2.8,0.9s1.2-1,1.3-1.8
		C-465.7,335.3-465.9,334-465.5,332.8z"/>
</g>
<g id="SPLINE_472_">
	<path class="st0" d="M-466.6,329.2c-0.2-0.8-0.3-1.4-0.6-2c-0.7-1.6-1.3-3.3-2.8-4.5c-1.1-0.9-2.6-0.7-3.7,0.6
		c-0.7,0.8-1.5,2-0.4,2.6C-471.7,327.1-469.5,328.6-466.6,329.2z"/>
</g>
<g id="SPLINE_471_">
	<path class="st0" d="M-468.9,340.9c0.3-0.7,0.2-1.3-0.5-1.7c-0.7-0.5-1.5-0.9-2.5-0.6c-1.8,0.6-2.4,1.8-2.3,2.8
		c0,2.3,0.8,3.9,1.5,5.6c0.1,0.3,0.4,0.6,0.8,0.6s0.5-0.3,0.6-0.6C-470.5,345-469.7,343-468.9,340.9z"/>
</g>
<g id="SPLINE_470_">
	<path class="st0" d="M-467.1,330c-2-1-4-2-6.1-2.9c-0.8-0.4-1.7-0.8-2.5,0c-0.8,0.7-1.2,1.6-0.9,2.6c0.3,1.1,1.3,1.1,2.3,1.2
		C-471.9,330.9-469.5,330.4-467.1,330z"/>
</g>
<g id="SPLINE_469_">
	<path class="st0" d="M-475,349.9c1.9-0.5,2.5-1.5,1.5-2.9c-0.9-1.3-1.9-2.6-2.9-3.9c-0.7-0.9-1.7-1.2-2.9-1.1
		c-1.5,0.1-2.1,1-2.4,2.1c-0.3,1.2,0.7,1.3,1.6,1.6c2.1,0.8,4.2,1.6,6.3,2.5c-0.1,0.1-0.1,0.3-0.2,0.4c-2.2-0.8-4.3-1.6-6.5-2.3
		c-0.6-0.2-1.4-0.8-1.9-0.1c-0.7,0.8-1.4,1.7-1,2.7c0.3,0.9,1.3,1.3,2.4,1.6C-478.9,351.1-476.9,350.5-475,349.9z"/>
</g>
<g id="SPLINE_468_">
	<path class="st0" d="M-479.1,258.4c1.1-1,1.8-2.2,2.9-3.6c-2.4,0.7-4.5,1.2-6.5,1.9c-0.6,0.2-0.9,0.8-0.6,1.3
		c0.3,0.7,0.6,1.4,1.7,1.4C-480.6,259.3-479.8,259-479.1,258.4z"/>
</g>
<g id="SPLINE_467_">
	<path class="st0" d="M-476.4,254.2c-1.8-0.9-3.4-1.6-5.1-1.8c-1.2-0.1-2.4,0-3.1,1c-0.4,0.6-0.3,1.2,0.2,1.7s1,0.9,1.9,0.6
		C-480.6,255.2-478.6,254.8-476.4,254.2z"/>
</g>
</svg>
