<svg xmlns="http://www.w3.org/2000/svg" viewBox="0 0 2604.96 4350.96"><defs><style>.cls-1{fill:#fff;stroke:#1d1d1b;stroke-linecap:round;stroke-linejoin:round;}</style></defs><title>27</title><g id="_0" data-name="0"><path id="_Path_" data-name="&lt;Path&gt;" class="cls-1" d="M277.85,1450.06c83.2-21.58,170.09-53.93,260.72-65,96.24-11.71,151.27,27.7,191.19,108.81,29.75,60.37,5.48,105.47-50.64,149.25-78.69,61.37-55.31,162.1,40.51,202,147.72,61.56,310.34,1.38,352.38-132.44,50.69-161.4-5.46-298.06-161-398.55C683.09,1166.82,353.46,1266.35,277.85,1450.06Z"/><path id="_Path_2" data-name="&lt;Path&gt;" class="cls-1" d="M294.77,3499.12c48.61-19.6,80.68-36.38,115.63-45.57,38.28-10.07,79-14.71,119.07-19,78.66-8.28,159.43,27.08,193.78,87.52,35,61.72,22.23,115.91-38.16,166.21-85.73,71.34-59.14,178.22,49.36,217.09,131,46.9,284.81-9.44,331.85-122.6,29.89-71.91,36.15-143.58,10.73-219.24C1024.7,3408,901.35,3315,710.33,3296.28,547.14,3280.32,389.7,3353.68,294.77,3499.12Z"/><path id="_Path_3" data-name="&lt;Path&gt;" class="cls-1" d="M1508.87,3867.46c28.78,11.8,41.58,19.15,55.75,22.55,287.34,69,630.17-77.58,729.79-311.6,72.31-169.89-101.9-356.87-317.08-340.33-146.41,11.26-208.59,118.44-129.78,224.38,10,13.4,23.76,24.85,33.84,38.21,78.33,104,67,207.12-32.52,298C1759.84,3879.9,1644.17,3879.06,1508.87,3867.46Z"/><path id="_Path_4" data-name="&lt;Path&gt;" class="cls-1" d="M1551.8,1833.74c221.33,48,415.66,8.46,585.65-111,130.89-92,159.47-217.21,138.77-351.89-18.8-122.34-138.33-207.75-273.08-196.61-67.33,5.58-138.71,12-168.69,75.83-29.72,63.35-22.56,122.6,27.69,179.38,116.34,131.44,87.13,287.85-76.86,360.19C1719.79,1818.5,1636.11,1818.84,1551.8,1833.74Z"/><path id="_Path_5" data-name="&lt;Path&gt;" class="cls-1" d="M1413.19,2391.54c9.57,53.33,21,106.51,28.33,160.07,18.68,135.73-52.75,233.63-204,282.32-30.44,9.79-61.68,18-91.81,28.31-84.9,29.26-123.39,108.14-95.77,194.53,20,62.75,117,118.85,192.57,111.45,161-15.81,301.47-120.78,327.35-257.71C1605.61,2721.66,1536.77,2550.51,1413.19,2391.54Z"/><path id="_Path_6" data-name="&lt;Path&gt;" class="cls-1" d="M1438.17,361.13c50.87,234.27-33.82,365.75-296.09,454.1-81.51,27.48-119.73,94.49-98.13,172,22,78.72,101.92,131.8,191.91,127.38,139.77-6.87,284.62-97.83,319.13-210.67C1614.66,708.94,1551.33,530.65,1438.17,361.13Z"/><path id="_Path_7" data-name="&lt;Path&gt;" class="cls-1" d="M1437.55,262.41C1469,353,1541.7,422.15,1630.69,484.1c137.92,96,287.81,111.78,426.56,39.11,119.39-62.56,177.87-199.34,137.37-329.42-6.08-19.58-23.23-45-43.21-52-117.07-40.92-231.68,5.46-270.51,105.1-4.2,10.7-8.54,21.5-14.33,31.64-51.41,90.27-138.48,119.74-246.44,76.48C1555.76,329.18,1497.33,293.17,1437.55,262.41Z"/><path id="_Path_8" data-name="&lt;Path&gt;" class="cls-1" d="M1486.83,2346.31c96.7,181.32,228.78,255.89,418.45,248.61,185.77-7.14,322.3-101.63,324.07-240.14.71-53.87-26-118.91-67.93-158.56-30.3-28.61-107.92-35.47-161.68-30.7-67.4,6-99,55.23-113.61,110.33-35.39,133.9-163,181-307.8,114.94C1553.16,2379.3,1528.71,2366.73,1486.83,2346.31Z"/><path id="_Path_9" data-name="&lt;Path&gt;" class="cls-1" d="M1256.45,2093.13c-14.48,33.65-26.41,68.28-43.9,100.85-57.91,107.85-231.26,222.72-440.49,169.35C680.46,2340,589.5,2381,566.22,2446c-22.78,63.59,20.61,151.67,94.09,159.73,86.28,9.44,183.42,17.21,262.34-6.06C1160.61,2529.55,1305.11,2307.09,1256.45,2093.13Z"/><path id="_Path_10" data-name="&lt;Path&gt;" class="cls-1" d="M1275.68,150.48q-11.85-9.4-23.66-18.83c-22.27,17.63-48.47,32.87-66.08,53.26-82.11,95-187.45,149.64-332.33,138.9-37.6-2.78-74.69-10.6-112.3-13.22-94.55-6.59-167.14,38.23-177.7,107.9-11,72.49,39.95,133,131.38,147.83,132.18,21.45,254-3.06,360.57-71.33C1191.59,407.88,1235.39,279.63,1275.68,150.48Z"/><path id="_Path_11" data-name="&lt;Path&gt;" class="cls-1" d="M470.68,2346.13c54.21-76.34,140.52-96,234.28-107.73,66.86-8.36,132.83-22.2,198.76-35.1,68.63-13.45,106.92-51.34,112.56-109.07,5.79-59.29-19.7-107.2-90.19-129.28-90.79-28.41-183.1-27.29-264.87,17.6C506.76,2067.33,451.2,2192.24,470.68,2346.13Z"/><path id="_Path_12" data-name="&lt;Path&gt;" class="cls-1" d="M1188,1509.89c77.17,190.22,394,275,582.16,160.47,63.9-38.92,84.35-126.75,42.67-183.26-41.31-56-120.48-74.16-198.71-43.17-39,15.46-75.94,34.63-113.38,52.75-78.52,38.07-159.64,54.78-248.39,25.22C1233.24,1515.52,1211.69,1514.16,1188,1509.89Z"/><path id="_Path_13" data-name="&lt;Path&gt;" class="cls-1" d="M1188.18,3561.25c69.35,173,336.49,258.32,537.63,176.34,97.92-39.89,135.81-119.52,89.65-188.4-50.21-74.91-152.15-94.81-243.75-39.15C1453.76,3581.67,1330.3,3607.7,1188.18,3561.25Z"/><path id="_Path_14" data-name="&lt;Path&gt;" class="cls-1" d="M1010.93,3350.35c94.2,62,195.24,122.21,320.31,128.13,71.37,3.36,148.27-15.47,216.21-37.85,66-21.76,94.12-70.58,74.15-133.7-20.61-65.08-73.85-99.44-148.55-90.89-75.82,8.67-149.78,32.47-222.67,54C1172.47,3293.13,1096.74,3321.32,1010.93,3350.35Z"/><path id="_Path_15" data-name="&lt;Path&gt;" class="cls-1" d="M1012.49,1297c17.44,11.74,40.46,29.43,66,44.1,138.2,79.39,283.81,125.25,450.72,63.42,76.65-28.38,110.78-89.88,87.86-156.08-21.09-60.84-78-89.85-163.23-82-26.89,2.44-55,3.89-79.89,11.8C1254.57,1216.15,1136.16,1256.12,1012.49,1297Z"/><path id="_Path_16" data-name="&lt;Path&gt;" class="cls-1" d="M338.59,1986.34c13.57,0,27.28,1.11,40.68-.18,89.16-8.54,182.27-80.68,175.18-135.17-11.11-85.3-131.44-182.27-234.81-189.21-98-6.6-192.15,59.62-201.27,141.65C106.06,1913.77,192.74,1985.89,338.59,1986.34Z"/><path id="_Path_17" data-name="&lt;Path&gt;" class="cls-1" d="M116.07,3855c15.7,41.32,18.49,91.74,49.55,122.2,82.78,81.12,250.1,87,338.2,11.54,29.83-25.56,47.48-78.41,39.39-113.83-21-91.94-126.17-146.48-258.66-149.09C150.36,3723.25,130,3739.78,116.07,3855Z"/><path id="_Path_18" data-name="&lt;Path&gt;" class="cls-1" d="M335.61,3281.21c58-15.83,108.52-33.8,161.28-42.9,55.5-9.59,113.07-11,169.8-15.44,43.08-3.4,86.73-3.65,129.28-9.51,87.47-12.08,112-38.66,106.58-108.82-4.94-63.56-54.73-107.72-126-111.77C582.61,2981.78,384.93,3109.35,335.61,3281.21Z"/><path id="_Path_19" data-name="&lt;Path&gt;" class="cls-1" d="M332,1242.37c137.36-68.32,275.33-74.53,418-71.29,118.07,2.66,169.55-47.64,152.62-131.35C889.66,976,838.11,951.62,766,945.17,612.35,931.43,377,1049.37,332,1242.37Z"/><path id="_Path_20" data-name="&lt;Path&gt;" class="cls-1" d="M1313.34,1852.23c28,205.72,144.38,343.36,351.15,423.64,31.29,12.15,88.92-2.57,122.78-20.24,42.82-22.35,46.91-62.93,18.76-102.11-48.49-67.5-107-122.33-204.34-144-51-11.37-101.4-31-145.63-55.1C1409.39,1929,1370.37,1893.82,1313.34,1852.23Z"/><path id="_Path_21" data-name="&lt;Path&gt;" class="cls-1" d="M457.31,790.13c63.58-138.32,45.59-272.63-59.74-390.08C338,333.64,247.2,293.49,136.83,305.33V595.11c83-15.74,168.52-46.17,224.08,20C403.6,665.92,424.86,729.23,457.31,790.13Z"/><path id="_Path_22" data-name="&lt;Path&gt;" class="cls-1" d="M453,2852.12c61.92-152.49,53.75-288-64.14-405.26-61.78-61.45-142.37-109.06-253.74-91.74v281.25C361.68,2623.38,363.87,2603.25,453,2852.12Z"/><path id="_Path_23" data-name="&lt;Path&gt;" class="cls-1" d="M1626.14,561.29c81.06,193.31,393.92,288.4,584.19,192.77,49.51-24.86,74.72-57.45,67.12-106.06-10.71-68.42-107.76-102.76-208.61-58.5C1917.7,655.85,1778.67,645.57,1626.14,561.29Z"/><path id="_Path_24" data-name="&lt;Path&gt;" class="cls-1" d="M501,4219.13c149.57,0,298.74.6,447.86-.89,16-.16,37.24-9.19,46.93-19.84,50.21-55.27,14.8-160.16-64.52-184.28C715.2,3948.44,513.85,4088.76,501,4219.13Z"/><path id="_Path_25" data-name="&lt;Path&gt;" class="cls-1" d="M1644.34,2632.54c61.16,116.78,174.63,179.27,316.13,205.57,98.25,18.25,199.48,8.81,273.89-52.53,28.46-23.48,38.66-72.62,34.82-108.41-1.84-17.06-55.54-41.64-86.7-42.66-60.83-2-128.82-1.58-182.25,18.85C1874.27,2701.54,1760.78,2697.22,1644.34,2632.54Z"/><path id="_Path_26" data-name="&lt;Path&gt;" class="cls-1" d="M475.38,2983.42c86.24-20.92,168-39.66,249-60.65,66.1-17.12,137.1-29,194.42-58.65,31.88-16.5,56.56-65,55.13-98.25-1.94-44.62-45.83-70.37-106.45-75.94C663.56,2671.18,451,2851.37,475.38,2983.42Z"/><path id="_Path_27" data-name="&lt;Path&gt;" class="cls-1" d="M477.28,944.54c49-20,90.89-42.35,136.69-54.5s96.17-12.92,143.82-21.36c39.69-7,79.27-16,117.39-27.6,72-21.91,111.6-61.64,95.6-129.87-16.1-68.65-83.14-71.52-144.51-74.32C657.26,629.16,496.47,770.08,477.28,944.54Z"/><path id="_Path_28" data-name="&lt;Path&gt;" class="cls-1" d="M2455.06,4219.56c25.67-115.45,3.44-154.74-101.36-212.82-153.52-85.06-317.91-70.65-501.45-42,43,9.25,70.68,16.31,98.94,21.09,108.14,18.41,193.39,69.82,237.21,149.85,38.17,69.66,87,95.65,173.78,84.5C2391.12,4216.42,2421.31,4219.56,2455.06,4219.56Z"/><path id="_Path_29" data-name="&lt;Path&gt;" class="cls-1" d="M2022.93,1863.92c144.73,14.23,252.86-50.21,359.21-117.15,103.42-65.08,87-159.86,82.15-249.43-1.41-26-24.79-51.12-38.09-76.68-24.5,20.91-55.73,38.78-71.66,63.48-17.46,27.15-24,60.17-29.72,91.33-24.28,132.1-128.39,209.43-260.64,268.39C2050.16,1850.11,2036.66,1857.22,2022.93,1863.92Z"/><path id="_Path_30" data-name="&lt;Path&gt;" class="cls-1" d="M1671.6,2771.65c-5.31,87-12.63,166.9-14.1,246.91-.85,47.05,3.5,94.82,13.93,141,4,17.82,29.17,42.26,48.72,45.2,24.43,3.72,64.33-4.91,77.42-20.17,25.64-29.83,47.53-66.93,52.92-102.88C1870.53,2948.24,1776.51,2858.65,1671.6,2771.65Z"/><path id="_Path_31" data-name="&lt;Path&gt;" class="cls-1" d="M1341.69,2360.42c-59.28,54.28-119.61,99.32-164,153.4-36.4,44.3-66.64,97.76-76.3,150.13-11.14,60.3,67.29,96.65,133.72,67.41,27.75-12.24,57.18-30.73,72-52.83C1376.06,2575.51,1379.94,2467.13,1341.69,2360.42Z"/><path id="_Path_32" data-name="&lt;Path&gt;" class="cls-1" d="M1338,312.93c-62,57.55-122.8,110.46-178.12,167.05a255,255,0,0,0-55.3,87.37c-20,53.69-7,97.61,69.69,113.85,60.8,12.87,130.6-11.65,151.7-63.7C1367.07,516,1384.32,412.75,1338,312.93Z"/><path id="_Path_33" data-name="&lt;Path&gt;" class="cls-1" d="M2429.45,2308.7q18-6.93,36-13.9c0-85,.89-170-1.06-255-.26-11.19-11.8-26.42-23.55-32.56-123.21-64.2-252.68-102.19-407.08-59.06,16.2,6.72,25,12.23,34.86,14.16,151.88,29.61,245.21,103.27,277.73,234.4C2356.37,2237.09,2400.78,2271.54,2429.45,2308.7Z"/><path id="_Path_34" data-name="&lt;Path&gt;" class="cls-1" d="M1671.87,725.37c-5.26,80.93-11,156.61-14.69,232.31-2,40.67-8.37,83,2.5,121.67,7.91,28.19,38.9,70.77,62.92,72.38,32.66,2.16,76.13-23.18,100.59-47,20.4-19.8,25.77-54,27.93-82.45C1860.86,894.7,1771.78,808.32,1671.87,725.37Z"/><path id="_Path_35" data-name="&lt;Path&gt;" class="cls-1" d="M1888.5,863.79c41.35,101.72,121.36,173.08,244.39,197.93,40.2,8.14,100.27-12.21,134.42-36.16,25.16-17.66,43.15-73.59,28.12-92.31-22-27.39-74.68-46.4-117.38-51.74C2085.47,870,1991,869.36,1888.5,863.79Z"/><path id="_Path_36" data-name="&lt;Path&gt;" class="cls-1" d="M1894.86,2922.23c1.73,87.06,159.9,188.64,236.44,188.43,46.67-.13,101.74-25,136.45-53,18.6-15,16.88-70.19-2-89.3-27-27.4-76.82-50.73-119.18-53.75C2065.84,2908.81,1983.47,2918.61,1894.86,2922.23Z"/><path id="_Path_37" data-name="&lt;Path&gt;" class="cls-1" d="M1811.67,4219.25c4.69-7.72,9.35-15.41,14-23.14-42.94-31.84-80.91-71.11-129.92-94.06-108.93-51.08-223.39-94-333.71-139.43,29.08,68.08,60.58,146.69,97.33,223.57,7,14.54,34.37,31,53,31.6C1612.06,4220.88,1711.88,4219.25,1811.67,4219.25Z"/><path id="_Path_38" data-name="&lt;Path&gt;" class="cls-1" d="M2465.63,3420.42q-16.74-4.55-33.49-9c-94.93,149.81-80.43,351.45-290.3,451.18,79.4-20,152.5-43.91,214.53-80.79,44.14-26.23,96.76-66.73,104.4-106.35C2476.78,3592.35,2465.63,3505.63,2465.63,3420.42Z"/><path id="_Path_39" data-name="&lt;Path&gt;" class="cls-1" d="M137.64,659.52c-21.32,133.39-14.88,139.26,87.31,233,34.73,31.88,49.38,79,72.69,119.35,8,13.82,14.44,28.24,26.43,51.94C384.61,816.51,327.7,696,137.64,659.52Z"/><path id="_Path_40" data-name="&lt;Path&gt;" class="cls-1" d="M323.39,3098.69c95.27-236.24-32.88-370.65-187.09-387.36-9.11,84.48-27.47,163.38,77.09,229.27C267.36,2974.63,288.07,3045.23,323.39,3098.69Z"/><path id="_Path_41" data-name="&lt;Path&gt;" class="cls-1" d="M2463.65,2381.82c-116.75,15-171.91,85.92-156.21,191.22,8.62,57.78,74.4,94.3,156.21,84.62Z"/><path id="_Path_42" data-name="&lt;Path&gt;" class="cls-1" d="M239.62,3600.05c89.26,21.94,173.17,40.84,255.61,63.47,51.32,14.07,96.89,22.28,118.36-32.14,17.48-44.34-17.06-97.74-73.19-104.17C425.43,3514.06,322.58,3539.09,239.62,3600.05Z"/><path id="_Path_43" data-name="&lt;Path&gt;" class="cls-1" d="M1183.33,3776.09c-27.56,44.16-53.64,81-73.94,120-18.65,35.79-42,73.73-42.46,110.91-.34,25.8,34.55,51.92,53.69,77.9,30.68-17.76,73.12-29.88,89.94-54.23C1270.21,3944.29,1227.3,3861.63,1183.33,3776.09Z"/><path id="_Path_44" data-name="&lt;Path&gt;" class="cls-1" d="M239.49,1562.36c44.7,3.66,92.39,3.61,137.58,12.4,46.93,9.14,91.21,27.4,137.07,40.66,40.7,11.73,92,19.17,96-26.92,2.88-33.55-17.78-84.64-48.53-100.87C481.78,1445.54,294.28,1496.63,239.49,1562.36Z"/><path id="_Path_45" data-name="&lt;Path&gt;" class="cls-1" d="M1182.07,1731.42c-28,42.24-58.07,79.69-78.22,120.54-18.73,38-35.6,79.5-36.19,119.63-.35,21.73,31.07,56.73,55.44,61.9,21.53,4.56,62.69-18.72,78.73-38.8C1273.89,1904.46,1222.29,1818.59,1182.07,1731.42Z"/><path id="_Path_46" data-name="&lt;Path&gt;" class="cls-1" d="M367.66,2337.15c-12.05-74-18.89-147.11-38.45-217.76-6.19-22.31-53.92-57-69.49-52.76-29.81,8.16-69.14,39.15-70.93,62.47C183.68,2195.22,254.7,2323.69,367.66,2337.15Z"/><path id="_Path_47" data-name="&lt;Path&gt;" class="cls-1" d="M2459.47,598.63V312.89C2363.12,363,2310,429,2319,512.92,2324.71,565.41,2386.29,589.5,2459.47,598.63Z"/><path id="_Path_48" data-name="&lt;Path&gt;" class="cls-1" d="M138.84,949.69c-27.43,165.73-.52,305.63,90.54,450.75C266,1236.39,261.1,1093.16,138.84,949.69Z"/><path id="_Path_49" data-name="&lt;Path&gt;" class="cls-1" d="M140.75,3003.8c-37.63,151.44,5.12,282.12,87.84,403.9C280.18,3307.06,239.28,3101.1,140.75,3003.8Z"/><path id="_Path_50" data-name="&lt;Path&gt;" class="cls-1" d="M466.21,321.56c100.66-174.82,311.55-121.64,461.73-183.2-47.43-5.67-93.15-6.41-138.8-5.48-48.82,1-97.58,4.88-146.36,5.14C445.49,139.07,444.75,139.42,466.21,321.56Z"/><path id="_Path_51" data-name="&lt;Path&gt;" class="cls-1" d="M1502.37,142.65c66,65.12,137.22,103,224.29,91.08,38.8-5.31,70.46-46.64,105.36-71.63q-8.1-9.72-16.2-19.45Z"/><path id="_Path_52" data-name="&lt;Path&gt;" class="cls-1" d="M346.86,299.51l20.74-10.06c-5.73-25.27-12.18-50.45-17-75.85-17.89-93.68-21.14-95.38-163.19-61.34C245.22,205.65,296.05,252.57,346.86,299.51Z"/><path id="_Path_53" data-name="&lt;Path&gt;" class="cls-1" d="M2258.35,132.58c30.75,69.76,104,107.61,165.24,83.2,24.73-9.83,34.14-46.29,59-83.2H2258.35Z"/><path id="_Path_54" data-name="&lt;Path&gt;" class="cls-1" d="M360.67,4173.94c-51.14-30.48-79.44-60.28-107.42-60-23.66.15-68.42,38-65.33,54,4.66,24.33,39,55.69,67.82,62.11C276.36,4234.66,308.57,4203.36,360.67,4173.94Z"/><path id="_Path_55" data-name="&lt;Path&gt;" class="cls-1" d="M2452.73,1283.43c.36-77.93-63.12-145-135.15-143.94-16.66.23-33.1,10.16-49.66,15.64,7.09,13.09,9.88,31.17,22,38.45C2342,1224.88,2396.79,1253,2452.73,1283.43Z"/><path id="_Path_56" data-name="&lt;Path&gt;" class="cls-1" d="M1982.83,2085.51c-23.26-92-201.73-155.05-293.73-116.2C1785.74,2007.53,1878.15,2044.1,1982.83,2085.51Z"/><path id="_Path_57" data-name="&lt;Path&gt;" class="cls-1" d="M1744.72,4003.38q1.08,8.07,2.13,16.2c52.38,31.34,102.93,65.26,158.19,92.57,18.49,9.12,49,1.37,74,1.33-9.82-18.52-14.15-48-30.39-53.61C1882.69,4037.05,1813,4021.58,1744.72,4003.38Z"/><path id="_Path_58" data-name="&lt;Path&gt;" class="cls-1" d="M2461.63,3912.59V3774.2c-58.16,40.84-104.51,73.37-161.91,113.69C2371.48,3898.82,2412,3905,2461.63,3912.59Z"/><path id="_Path_59" data-name="&lt;Path&gt;" class="cls-1" d="M2428.11,2902.09q15.81-4.22,31.58-8.45V2752.83q-10.64-4.65-21.28-9.32c-16.94,20.59-48.38,41.61-47.56,61.7C2392.15,2837.8,2414.59,2869.82,2428.11,2902.09Z"/><path id="_Path_60" data-name="&lt;Path&gt;" class="cls-1" d="M2462.2,2999.34l-31.81-11.92c-14,25.21-37.42,49.83-39.67,75.74-3,34.51,12.85,68.27,71.48,74.12Z"/><path id="_Path_61" data-name="&lt;Path&gt;" class="cls-1" d="M2460,3321.57c7.07-99-45.72-129.31-161.84-96.83C2353.18,3257.64,2401.68,3286.67,2460,3321.57Z"/><path id="_Path_62" data-name="&lt;Path&gt;" class="cls-1" d="M2455.86,946l-20.36-12.7c-16,21.24-44.74,42.41-44.94,63.74-.23,27.57,22.33,55.29,35.05,82.94q15.12-3.32,30.25-6.63Z"/></g></svg>