<?xml version="1.0" encoding="utf-8"?>
<!-- Generator: Adobe Illustrator 19.1.1, SVG Export Plug-In . SVG Version: 6.00 Build 0)  -->
<svg version="1.1" id="_x33_4" xmlns="http://www.w3.org/2000/svg" xmlns:xlink="http://www.w3.org/1999/xlink" x="0px" y="0px"
	 viewBox="137 164.5 2605 4350.8" style="enable-background:new 137 164.5 2605 4350.8;" xml:space="preserve">
<style type="text/css">
	.st0{fill:#FFFFFF;stroke:#000000;stroke-miterlimit:10;}
</style>
<g id="SPLINE_8794_">
	<path id="XMLID_11734_" class="st0" d="M1828.8,2171.9c-6.3-5.8-12.7-11.6-19-17.4c-62.8,33.2-129.2,62.6-187.7,100.3
		c-140.3,90.4-245.3,306.8-156.2,435.6c84.5,122.1,186,236.2,292.6,369.5c42.1-140.2,31.2-255.5-17.7-371.1
		c-26.7-63.2-54.6-128.5-61.2-194.3C1667.1,2370.6,1717.5,2260.6,1828.8,2171.9z"/>
</g>
<g id="SPLINE_8795_">
	<path id="XMLID_11733_" class="st0" d="M1908,1990.2c-62.9-119.4-199.3-206.4-338.2-190.8c-132.8,14.8-271.2,33.1-391.5,78.4
		c-155.4,58.6-307.8,104.7-481.6,92.4c3.2,9.2,3,14.5,6.1,16.7c10.3,7.3,20.8,14.8,32.7,19.8c210.1,89,418.1,91.1,631.4,1.3
		c71.8-30.3,157.3-51.7,236.9-52.6C1706.5,1954.3,1809.6,1977.8,1908,1990.2z"/>
</g>
<g id="SPLINE_8796_">
	<path id="XMLID_11732_" class="st0" d="M1904.5,4330.6c-37.1-88-182.9-186.2-284-190.9c-124.3-5.7-243.9,8.2-356.5,54.1
		c-177.7,72.4-355.7,143.9-567.6,129.3c56.1,27,113.8,53,173.6,56.8c113.5,7.4,228.6,6.3,342.3,0.3c57.3-3,113.2-24.1,169.6-37.3
		c66.5-15.6,133-44.6,199.4-44.4C1687.7,4299,1794.1,4318.7,1904.5,4330.6z"/>
</g>
<g id="SPLINE_8797_">
	<path id="XMLID_11731_" class="st0" d="M619.1,2274.4c-7.5,6.1-15,12.3-22.5,18.4c54.4,44.3,110,87.6,162.3,133.4
		c14.9,13.1,27.9,33.6,27.5,50.4c-0.2,8.8-30.7,22.6-49,24.5c-57.4,6-115.5,7.4-173.2,10.7c59.9,168,411.6,329.1,680.7,220.3
		c-27.2-12.3-50.6-17.3-63.8-29.6c-62.7-58.5-130.2-114.9-181.9-179.8C904.5,2403.5,778.8,2322,619.1,2274.4z"/>
</g>
<g id="SPLINE_8798_">
	<path id="XMLID_11730_" class="st0" d="M984,1604.4c-108.3,5.3-212.5,7.7-316,16.1c-109.4,8.8-218.6,21.2-326.8,36.8
		c-19,2.7-44.4,27.4-47.1,44.2c-6.8,41.4-2.2,84.1-2.2,124.4C726.1,1905.2,919,1764.5,984,1604.4z"/>
</g>
<g id="SPLINE_8799_">
	<path id="XMLID_11729_" class="st0" d="M291.7,4167.7c427.6,78.5,599.5-41.1,682.8-210c-132.3,0-271.1-4.5-409,1.8
		c-74.3,3.4-149.1,21.4-220,41.6c-23.7,6.7-45.5,39-51.6,62.6C285.3,4097.4,291.7,4133.9,291.7,4167.7z"/>
</g>
<g id="SPLINE_8800_">
	<path id="XMLID_11728_" class="st0" d="M2383,1086.5c-179.3-82.7-359.3-131.3-560.7-135.2c-153.5-3-224.1,74.7-314.4,176.4
		c201.1-34.7,369.3,7.3,540.5,41.7C2169.6,1193.9,2283.6,1166.2,2383,1086.5z"/>
</g>
<g id="SPLINE_8801_">
	<path id="XMLID_11727_" class="st0" d="M1520.3,3473.6c156.8-25.6,300.8-20.5,442.2,22.4c42.8,13,88.6,20.2,133.8,26.1
		c93.9,12.3,233.9-38.3,269.4-94.8c-63.9-18.3-128.1-36.3-191.9-55c-66.5-19.5-134.7-36.1-198.8-60.2
		C1760.1,3231.2,1620.9,3311.3,1520.3,3473.6z"/>
</g>
<g id="SPLINE_8802_">
	<path id="XMLID_11726_" class="st0" d="M1323.9,3109.7c-222.8-18.7-458.9,230.4-568.2,504.8c10.5,1.8,20.4,4.7,30.5,5.1
		c142.1,5.1,262.4-69.6,336.7-197.5C1184.7,3316,1256.5,3213.8,1323.9,3109.7z"/>
</g>
<g id="SPLINE_8803_">
	<path id="XMLID_11725_" class="st0" d="M401.9,3735.9c-0.4,6.2-0.7,12.5-1.1,18.7c55.7,34.7,109.7,71.5,167.6,103.4
		c35.9,19.7,76.9,43.6,117.1,45.6c166.9,8.3,314.6-39.9,441.4-127.8c50.4-34.9,90.7-79.8,135.6-120.1c-5.8-5.4-11.7-10.8-17.6-16.2
		c-157.6,63.6-323.8,80-496.9,76.8C633,3714.1,517.3,3728.8,401.9,3735.9z"/>
</g>
<g id="SPLINE_8804_">
	<path id="XMLID_11724_" class="st0" d="M1271.2,1292.8c-35.5,8.9-50.1,11.3-63.5,16.1c-161.3,57.4-328.8,65.8-502.8,58.1
		c-98-4.3-197.7,19.5-300.2,31c127.7,116.3,254.1,189.9,452.3,146.6C1034,1505.9,1160.8,1429.5,1271.2,1292.8z"/>
</g>
<g id="SPLINE_8805_">
	<path id="XMLID_11723_" class="st0" d="M1322.6,766.1c-216.7-26.6-472.6,247.4-565.4,509.9c161-5.3,281.1-58.4,354.8-180.1
		C1180.3,983.3,1254.1,872.9,1322.6,766.1z"/>
</g>
<g id="SPLINE_8806_">
	<path id="XMLID_11722_" class="st0" d="M1927.1,3223.3c178.5,49.5,338.3,104.7,504.5,136.4c129.7,24.7,175.8-20.5,170.8-114.9
		c-3.3-63.2-68.6-48.1-105.3-64.2C2308.4,3097.9,2123.6,3105.9,1927.1,3223.3z"/>
</g>
<g id="SPLINE_8807_">
	<path id="XMLID_11721_" class="st0" d="M1927.7,880.4c165.5,46.9,313.9,94,466.3,129.4c49.9,11.6,111.5-2.7,164.9-14.4
		c18.7-4.1,39.5-35.9,39.7-55.2c0.3-27.3-7.6-69.9-29.3-79.7C2360.9,765.7,2150.6,743.2,1927.7,880.4z"/>
</g>
<g id="SPLINE_8808_">
	<path id="XMLID_11720_" class="st0" d="M1328.9,3733.7c-54.5,38.1-116.7,77.7-173,122.4c-30.1,23.9-51.4,56-74,85.8
		c-39.8,52.7-69.7,111.9-118.1,158.3c-54.4,52.2-124.5,93.1-187.6,138.8C1195.3,4254.3,1377,3979.6,1328.9,3733.7z"/>
</g>
<g id="SPLINE_8809_">
	<path id="XMLID_11719_" class="st0" d="M1058.6,1255.6c185-62.7,322.4-141.3,438.1-237.4c63.8-53.1,134.6-100.4,202.6-150.6
		c-104.3-77.2-260.6-83.3-323.1-9.1C1270.6,983.7,1172,1113,1058.6,1255.6z"/>
</g>
<g id="SPLINE_8810_">
	<path id="XMLID_11718_" class="st0" d="M1330.7,1376.6c-52.3,40.5-104.3,76.1-149.2,117c-35.1,31.9-68,67.9-90.3,106.6
		c-62.4,108-145,200.3-269.3,264.4c-16.8,8.7-32.6,18.7-57.8,33.3C1173.6,1900.2,1366,1676,1330.7,1376.6z"/>
</g>
<g id="SPLINE_8811_">
	<path id="XMLID_11717_" class="st0" d="M1693,3211.5c-100.3-88-251.6-81.6-330.7,14.1c-58.2,70.3-116.7,140.5-174.1,211.2
		c-40.1,49.4-78.6,99.7-120.1,152.5C1335.4,3522.2,1504.4,3359.2,1693,3211.5z"/>
</g>
<g id="SPLINE_8812_">
	<path id="XMLID_11716_" class="st0" d="M1065.8,2164.2c103.1,62.2,221.6,97.7,341.5,67c153.8-39.4,298.8-102.3,456.7-158.3
		c-141.1-64.2-319.3-64.2-468.7-12.1C1290.7,2097.3,1183,2127.7,1065.8,2164.2z"/>
</g>
<g id="SPLINE_8813_">
	<path id="XMLID_11715_" class="st0" d="M1927.6,782.9c223.1-106.4,444.2-85.1,664,4c13.8-81-11.5-127.3-96.6-186.6
		c-59.4-41.4-120.3-76.7-206-57.8C2128.2,578.1,2013.1,660.9,1927.6,782.9z"/>
</g>
<g id="SPLINE_8814_">
	<path id="XMLID_11714_" class="st0" d="M2549,2200.2c-22,6.4-44.3,12.3-66.1,19.3c-119.5,38.5-235.5,25.5-344.2-24
		c-141.1-64.2-341.6,31.9-342.7,158.4c130.7,0,261.7-5.4,391.7,1.4C2345.7,2363.6,2464.2,2314.6,2549,2200.2z"/>
</g>
<g id="SPLINE_8815_">
	<path id="XMLID_11713_" class="st0" d="M999.2,691.9C867.5,589.6,714,575.4,571.8,646.8c-81.1,40.7-163.9,79-244.9,119.9
		c-13.9,7-33.1,23.5-30.7,31.9c3.3,11.6,23,23.2,38.7,28.8c110.7,38.7,223,33.9,320.2-20.7C759.8,747.8,866.2,699.6,999.2,691.9z"/>
</g>
<g id="SPLINE_8816_">
	<path id="XMLID_11712_" class="st0" d="M1928.7,3123.3c222.9-101,443.9-82.7,668.5,9.3c16.8-127.2-87.4-173.4-173.1-227.5
		c-24-15.1-61.3-27.6-89.6-24.3C2151.2,2901.9,2024.4,2992.1,1928.7,3123.3z"/>
</g>
<g id="SPLINE_8817_">
	<path id="XMLID_11711_" class="st0" d="M290.7,3138.7c104.1,62.3,212.1,73.1,317,28.7c127.7-54,242.1-131.2,398.6-145.9
		c-73.5-33-147.3-65.2-223.3-69.4C582.6,2941,457.8,3076.9,290.7,3138.7z"/>
</g>
<g id="SPLINE_8818_">
	<path id="XMLID_11710_" class="st0" d="M2214.7,1831.3c-7.9,0.9-15.8,1.7-23.7,2.6c-23.9,41.7-52.4,82.2-70.9,125.5
		c-46.6,109.4-2.4,174.2,133.9,202.6c20.9,4.3,42.5,6.7,64,8.9c115.7,11.7,243.5-45.8,277.5-129.7
		C2406,2051.8,2291.5,1965.2,2214.7,1831.3z"/>
</g>
<g id="SPLINE_8819_">
	<path id="XMLID_11709_" class="st0" d="M2086.6,1514c5.1,83.8,46.6,157.3,143.5,203.8c104.1,50,237.7,36.3,323.6-21.7
		c-86.8-81.5-174-163.4-263.7-247.5C2237.2,1465.5,2169.6,1487.3,2086.6,1514z"/>
</g>
<g id="SPLINE_8820_">
	<path id="XMLID_11708_" class="st0" d="M2561.4,4044c-88.3-82-176-163.5-269-249.8c-55,17.3-129.3,40.6-202,63.5
		C2118.7,4075.1,2335.6,4153.8,2561.4,4044z"/>
</g>
<g id="SPLINE_8821_">
	<path id="XMLID_11707_" class="st0" d="M2266.5,3711.1c-195.6-152.7-539-218.3-688.4-149.7c100.3,50.8,208.2,103.7,314,159.5
		C2012.7,3784.4,2148.1,3782.9,2266.5,3711.1z"/>
</g>
<g id="SPLINE_8822_">
	<path id="XMLID_11706_" class="st0" d="M1566.7,1215.8c111.3,54.7,228.5,113.2,346.8,170.1c115.4,55.6,256.9,47.3,351.1-22
		C2057.1,1211.1,1822,1161.7,1566.7,1215.8z"/>
</g>
<g id="SPLINE_8823_">
	<path id="XMLID_11705_" class="st0" d="M302.7,901.4c-25.5,102.8-14.2,123.2,94.7,154.3c114,32.6,212,3,299.8-59.4
		c84.1-59.7,168.7-118.9,253.1-178.3c17.5-12.3,34.7-24.9,65.5-47c-111.4-6.6-189.7,21.6-261.5,67.3
		c-116.3,73.9-244.7,102.4-389.3,72.4C344.6,906.5,323.4,904.5,302.7,901.4z"/>
</g>
<g id="SPLINE_8824_">
	<path id="XMLID_11704_" class="st0" d="M269,3243c26,53,31.9,109.6,67.3,128.7c92.7,49.9,198.9,60,298.3,2.6
		c42.1-24.3,81.8-51.6,121-79.1c82.6-58,164.1-117,255.5-182.3c-116.9,4.3-202.8,41.6-290.4,84.8c-67.6,33.3-147.4,56.6-225.2,66.8
		C434.3,3272.5,368,3253.7,269,3243z"/>
</g>
<g id="SPLINE_8825_">
	<path id="XMLID_11703_" class="st0" d="M1751.5,696.2c37.2-128.1,28.6-253.9-14.3-378.2c-3.7-10.7-26.8-23.5-41.4-23.9
		c-80.4-2.3-160.9-1.1-249.8-1.1C1489.9,463.2,1662.8,556.3,1751.5,696.2z"/>
</g>
<g id="SPLINE_8826_">
	<path id="XMLID_11702_" class="st0" d="M773.9,1050.5c-122.1,72.9-250.5,106.1-399.4,73.4c-14.7-3.2-48.5,13-53.1,25.4
		c-15,39.8-25,81.9-27.1,123.4c-0.7,14.5,24.6,39.9,42.8,43.4c89,17,173.8,13.4,255.6-32.3C694.5,1226.9,726.3,1136.7,773.9,1050.5z
		"/>
</g>
<g id="SPLINE_8827_">
	<path id="XMLID_11701_" class="st0" d="M2602.7,2294c-101.2,60.9-202.5,110.5-285.6,176c-53.4,42.1-82,106.7-117,163.2
		c-5.8,9.4,6.8,35.6,19.8,42.4c40.7,21.2,85.7,36.8,118.5,50.3c56.9-68.5,101-139.4,165.1-194.4
		C2585.1,2461.4,2583.6,2378.2,2602.7,2294z"/>
</g>
<g id="SPLINE_8828_">
	<path id="XMLID_11700_" class="st0" d="M781.8,3379.9c-152.8,86.6-208,127.8-408.9,90.5c-13.6-2.5-41.2,1.2-42.4,5.7
		c-14.3,53.9-33.9,108.9-29.8,162.4c1,13.1,82.9,22.3,128,32.4c7.2,1.6,15.9-2,24-2.7C653.6,3651.1,714.9,3524.2,781.8,3379.9z"/>
</g>
<g id="SPLINE_8829_">
	<path id="XMLID_11699_" class="st0" d="M825,2135.4c-101.9-60.3-201.1-121.7-304.1-178.6c-39.7-21.9-86.2-38.8-132.5-47.6
		c-28.5-5.4-85.3,3-89.8,15.2c-13.1,35.6-23,76.9,38.5,102.6c57.5,24,109.2,58.4,160.5,91.4C604.6,2187.3,715.1,2192.4,825,2135.4z"
		/>
</g>
<g id="SPLINE_8830_">
	<path id="XMLID_11698_" class="st0" d="M1847.8,719.9c124.8-116.3,258.5-215.4,441.3-275.6c-74.1-29.6-148.9-60.2-225-62.5
		c-97.4-3-184.3,18.4-186.2,133C1876.8,583.3,1858.4,651.6,1847.8,719.9z"/>
</g>
<g id="SPLINE_8831_">
	<path id="XMLID_11697_" class="st0" d="M1965.9,3837.4c-84.7-46-163.2-93.8-247.5-132.8c-82.4-38.2-170.6-68.3-273.1-68
		C1519.6,3837.8,1759.8,3971.9,1965.9,3837.4z"/>
</g>
<g id="SPLINE_8832_">
	<path id="XMLID_11696_" class="st0" d="M1443.4,1288.2c56.7,183.5,307.2,355.1,521.9,199.8
		C1792.8,1421.8,1655.4,1296,1443.4,1288.2z"/>
</g>
<g id="SPLINE_8833_">
	<path id="XMLID_11695_" class="st0" d="M2285,2800.6c1.8-8.3,3.5-16.6,5.3-25c-81.9-17.4-162.7-41.5-245.9-50.1
		c-66.3-6.9-138.2,14.5-154.2,74.9c-23.1,87.5-28.8,178.1-42,267.4C1969.8,2946.1,2105.9,2850.2,2285,2800.6z"/>
</g>
<g id="SPLINE_8834_">
	<path id="XMLID_11694_" class="st0" d="M2239.1,1252.3c62,92.7,220.5,151,361.8,123.9c0-55.9,2.6-113.9-0.8-171.6
		c-2.7-45.2-110.3-85.3-158.2-60.4C2374,1179.5,2307.1,1216,2239.1,1252.3z"/>
</g>
<g id="SPLINE_8835_">
	<path id="XMLID_11693_" class="st0" d="M1683.5,741.5c-84-95.6-167-190.1-254.8-289.9c-102.9,70.5-166.3,142.5-190.9,223.3
		C1388.1,697.3,1529,718.4,1683.5,741.5z"/>
</g>
<g id="SPLINE_8836_">
	<path id="XMLID_11692_" class="st0" d="M1995.7,3920.7c-172,153.1-148.8,280.4,23.1,393.2c36.2-58.9,74.3-117.7,107.9-178.2
		c7.1-12.9,4-34.9-4.9-47.7C2082.8,4032.5,2040,3978.8,1995.7,3920.7z"/>
</g>
<g id="SPLINE_8837_">
	<path id="XMLID_11691_" class="st0" d="M1224.1,3014.8c162.2,25.2,304.3,47.3,461.9,71.9c-80.4-88.8-157.3-176.5-239.4-260.8
		c-8.5-8.7-59.6-5-70.1,6.2C1321.6,2891.2,1273.3,2954.5,1224.1,3014.8z"/>
</g>
<g id="SPLINE_8838_">
	<path id="XMLID_11690_" class="st0" d="M2600.7,3726.4c0-64.6,2-122.8-0.8-180.9c-1.6-32.9-104.2-84.2-137.1-68
		c-76.9,37.8-151.2,79.3-230.7,121.6C2333.5,3672.8,2450.7,3716.8,2600.7,3726.4z"/>
</g>
<g id="SPLINE_8839_">
	<path id="XMLID_11689_" class="st0" d="M302.8,2462c-60.4,185.2,58.3,307.5,212.3,437.9c-6.6-56.9-13.1-95.9-15.3-135
		c-2.4-42.3,4.3-85.4-2-127.2C482.7,2537.4,405.2,2469.5,302.8,2462z"/>
</g>
<g id="SPLINE_8843_">
	<path id="XMLID_11685_" class="st0" d="M781.7,2241.5c93.6-58.3,133.7-57,241.4-9.1c61.2,27.2,127.8,46.3,193.4,66.8
		c-54.2,53.8-107.9,107.1-154.9,153.7C976.3,2388.5,877.9,2314.2,781.7,2241.5z"/>
</g>
<g id="SPLINE_8844_">
	<path id="XMLID_11684_" class="st0" d="M2012.3,1970.9c39.3-60.7,77.5-116.9,111.7-174.7c8-13.4,10-36.1,1.5-48.1
		c-41.3-58.5-87-114.7-131.1-171.6C1840.1,1700.2,1844.3,1812.1,2012.3,1970.9z"/>
</g>
<g id="SPLINE_8845_">
	<path id="XMLID_11683_" class="st0" d="M292,2100.4c0,76.5-0.6,149.8,0.7,223.1c0.2,9.9,7.4,21.6,15.8,29.1
		c53.6,47.9,209.8,83.5,298.3,69.3C492.1,2240.2,395.3,2139.4,292,2100.4z"/>
</g>
<g id="SPLINE_8846_">
	<path id="XMLID_11682_" class="st0" d="M1395.5,2357.4c-97.9,18-210.8,84.2-245.2,155.9c-11.1,23.3-6.8,62.2,10.4,82.2
		c46.6,54.3,111.9,88.6,184.9,84.9C1362.8,2570.1,1378.9,2465.1,1395.5,2357.4z"/>
</g>
<g id="SPLINE_8847_">
	<path id="XMLID_11681_" class="st0" d="M709.1,293.1c76,132.6,399.5,181.7,521.9,96.3c-55.4-32.6-105.8-84.7-164.4-92.1
		C951.3,282.8,831.4,293.1,709.1,293.1z"/>
</g>
<g id="SPLINE_8848_">
	<path id="XMLID_11680_" class="st0" d="M1438.9,3792.2c-34.5,105.1-65.8,200.1-97.8,297.3c103.8-15.9,219.7-13.2,227.3-135.1
		C1573.5,3871.4,1475.7,3851.6,1438.9,3792.2z"/>
</g>
<g id="SPLINE_8849_">
	<path id="XMLID_11679_" class="st0" d="M1435.4,1452.4c-31.1,98.9-60.8,193.2-95.9,304.5c75.3-44.8,167.5-1.7,211.3-88.9
		C1608.9,1552.3,1496.7,1515.1,1435.4,1452.4z"/>
</g>
<g id="SPLINE_8850_">
	<path id="XMLID_11678_" class="st0" d="M2314.7,1834.2c43.7,80.8,143.3,136.2,237,131.4c16.5-0.8,44.8-15.9,45.6-25.7
		c4.5-53.8,2.1-108,2.1-165.3C2497,1796.1,2408.8,1814.5,2314.7,1834.2z"/>
</g>
<g id="SPLINE_8851_">
	<path id="XMLID_11677_" class="st0" d="M2319.2,4180.9c53.4,97.7,153.6,142.8,274.2,121.9c0-62.4,0-125.2,0-184.4
		C2499.4,4139.8,2411.7,4159.8,2319.2,4180.9z"/>
</g>
<g id="SPLINE_8852_">
	<path id="XMLID_11676_" class="st0" d="M1254.9,499.3c-95.7,0-191.4-1.4-287,1.3c-16.7,0.5-42.1,16.1-46.2,28.7
		c-3.8,11.8,10.4,34.8,24.8,42.4c63,33.5,128.9,63.3,195.4,95.3C1182.4,606.9,1222.6,547.2,1254.9,499.3z"/>
</g>
<g id="SPLINE_8853_">
	<path id="XMLID_11675_" class="st0" d="M2412,4376.3c-71.1-64.7-141.9-129.1-222.4-202.4c-33.4,65.9-66.6,131.2-102.6,202.4
		C2211.5,4376.3,2315.5,4376.3,2412,4376.3z"/>
</g>
<g id="SPLINE_8854_">
	<path id="XMLID_11674_" class="st0" d="M1253.9,2831.6c-96.6,5.7-192.6,10.7-288.4,17.9c-13.1,1-33.5,11.3-35.3,19.7
		c-2.8,12.5,2.5,33.6,13.5,39.8c64.2,36.1,131,68.9,198.4,103.6c38.2-57.8,73.2-110.5,107.6-163.5
		C1253.1,2843.6,1252.7,2836.4,1253.9,2831.6z"/>
</g>
<g id="SPLINE_8855_">
	<path id="XMLID_11673_" class="st0" d="M2049.3,2639.9c-40.5-83.5-153.1-139.3-288.4-135.9c29.7,69.6,57.9,136,84,197.2
		C1924.9,2677.2,1987.2,2658.5,2049.3,2639.9z"/>
</g>
<g id="SPLINE_8856_">
	<path id="XMLID_11672_" class="st0" d="M597.1,2877.2c79.8,0,137.7,1.3,195.5-0.8c15.9-0.6,39-8.4,44.8-18.4
		c6.4-11.1,3.1-35.7-7.1-42.1c-76.2-47.8-155.2-92.5-250.6-148.3C586.5,2749.6,592.1,2816.5,597.1,2877.2z"/>
</g>
<g id="SPLINE_8857_">
	<path id="XMLID_11671_" class="st0" d="M597.2,532.8c76.6,0,131.7,1.2,186.7-0.7c18.9-0.7,51.6-7.3,53.1-14.6
		c3.6-17.3-0.4-45.4-14.6-53.8c-74.6-44-153.4-83.2-243.1-130.6C586.1,408.4,591.9,473.5,597.2,532.8z"/>
</g>
<g id="SPLINE_8858_">
	<path id="XMLID_11670_" class="st0" d="M631.1,4382c-106.1-82.7-192.8-157.9-335.9-121.5c-7.2,101.7,12.7,120.1,128.3,121.4
		C485.8,4382.6,548.1,4382,631.1,4382z"/>
</g>
<g id="SPLINE_8859_">
	<path id="XMLID_11669_" class="st0" d="M287,314.8c77.4,87,140.8,158.4,215.6,242.5c0-101.6,0-178.9,0-264
		C432.2,300.3,372.3,306.3,287,314.8z"/>
</g>
<g id="SPLINE_8860_">
	<path id="XMLID_11668_" class="st0" d="M2223.5,2427.3c-120.1,0-226,0-338.5,0c87.4,51.4,163.7,96.3,242.9,142.8
		C2155,2529.6,2183.5,2487.1,2223.5,2427.3z"/>
</g>
<g id="SPLINE_8861_">
	<path id="XMLID_11667_" class="st0" d="M1839.6,1619.8c-67.2-3.9-122.4-7.1-182.7-10.6c-11.7,35.2-22.8,68.6-35.2,105.8
		c59.4,17.6,111.1,32.9,169.9,50.3C1808.9,1712.9,1823.4,1669,1839.6,1619.8z"/>
</g>
<g id="SPLINE_8862_">
	<path id="XMLID_11666_" class="st0" d="M1794.4,4109.6c13.3-52.4,24.5-96.6,35.9-141.3c-61.6-6.1-111.8-11.1-170.1-16.9
		c-12.2,34.6-24.5,70-37.5,106.9C1681.6,4075.8,1733.9,4091.5,1794.4,4109.6z"/>
</g>
<g id="SPLINE_8863_">
	<path id="XMLID_11665_" class="st0" d="M2567.9,3953.5c56.1-143.4,19-176.7-171-163.6C2460.5,3850.8,2514.2,3902.1,2567.9,3953.5z"
		/>
</g>
<g id="SPLINE_8864_">
	<path id="XMLID_11664_" class="st0" d="M2597.5,1464.2c-62.3-10.3-118-19.6-179.1-29.7c20.5,90.2,84,136.2,179.1,172.5
		C2597.5,1554.3,2597.5,1512.6,2597.5,1464.2z"/>
</g>
<g id="SPLINE_8865_">
	<path id="XMLID_11663_" class="st0" d="M2595.2,2701.1c0-41.8,0-80.5,0-124.2c-92,25.6-118.8,80.2-132.6,154.7
		C2513.5,2719.9,2554.2,2710.5,2595.2,2701.1z"/>
</g>
<g id="SPLINE_8866_">
	<path id="XMLID_11662_" class="st0" d="M2596.1,2926c0-56,0-97,0-153.5c-53.4,17.2-96.6,31.1-155.4,50
		C2499.1,2861.4,2540.2,2888.7,2596.1,2926z"/>
</g>
<g id="SPLINE_8867_">
	<path id="XMLID_11661_" class="st0" d="M2597.9,429.9c-55.1,15.2-97.5,26.9-157.9,43.6c61.2,42.6,104,72.4,157.9,109.8
		C2597.9,527.2,2597.9,487.4,2597.9,429.9z"/>
</g>
<g id="SPLINE_8868_">
	<path id="XMLID_11660_" class="st0" d="M452.8,1546.7c2.5-5.4,4.9-10.8,7.4-16.2c-51.1-28.4-102.2-56.8-163.4-90.9
		c0,52.7,0,87.6,0,126C352.8,1558.9,402.8,1552.8,452.8,1546.7z"/>
</g>
<g id="SPLINE_8869_">
	<path id="XMLID_11659_" class="st0" d="M483.2,3886.8C412.4,3848,359.4,3819,297.3,3785c0,50.5,0,84.5,0,123.4
		C356,3901.6,408,3895.5,483.2,3886.8z"/>
</g>
<g id="SPLINE_8870_">
	<path id="XMLID_11658_" class="st0" d="M2200.7,296.9c56,33.6,100.5,60.4,153.5,92.3c16-31.3,29.8-58.2,47.2-92.3
		C2330.5,296.9,2272.5,296.9,2200.7,296.9z"/>
</g>
<g id="SPLINE_8871_">
	<path id="XMLID_11657_" class="st0" d="M2594.9,297.9c-108.7-3.1-118.8,4-122.4,80.9c41.3-7,82.6-14.1,128.8-22
		C2598.9,335,2596.9,316.1,2594.9,297.9z"/>
</g>
<g id="SPLINE_8872_">
	<path id="XMLID_11656_" class="st0" d="M1851,362.3c45.4-23.2,80.2-41.1,125.5-64.3c-59.8,0-105.2,0-159.5,0
		C1829.9,322.6,1839,339.7,1851,362.3z"/>
</g>
<g id="SPLINE_8873_">
	<path id="XMLID_11655_" class="st0" d="M301.9,2797c-29.4,82.3,20.8,99.5,103.3,117.6C365.8,2869.8,338.5,2838.7,301.9,2797z"/>
</g>
<g id="SPLINE_8874_">
	<path id="XMLID_11654_" class="st0" d="M302.2,455.4c-16,86.2-10.2,92,91.8,102.8C364.2,524.9,336.6,493.8,302.2,455.4z"/>
</g>
<g id="SPLINE_8875_">
	<path id="XMLID_11653_" class="st0" d="M298.6,617.7c0,29.2,0,51.6,0,84c35.5-18.4,60.4-31.4,98.8-51.3
		C354.2,636.1,328.2,627.5,298.6,617.7z"/>
</g>
</svg>
