<svg xmlns="http://www.w3.org/2000/svg" viewBox="0 0 2604.96 4350.96"><defs><style>.cls-1{fill:#fff;stroke:#1d1d1b;stroke-linecap:round;stroke-linejoin:round;stroke-width:0.98px;}</style></defs><title>37</title><g id="_0" data-name="0"><path id="_Path_" data-name="&lt;Path&gt;" class="cls-1" d="M2369.47,2890.05c47.06-20.56,83.65-32.53,113.92-51.5,14.71-9.22,24.27-31.5,24.58-48,.93-51.46-2.63-103-6.35-154.47-10.31-142.35-26.83-284.52-31.15-427-5.46-180.53-3-361.29-.58-541.91,1.23-88.77,11.05-177.44,15.33-266.21,1.33-27.89,1.46-56.67-5.25-83.78-11.22-45.41-39.72-63.94-85.77-63.36-50.18.61-86.09,22.68-90.92,66.55s-.2,88.4,3,132.51c1.88,25.5,12.42,50.61,13.6,76.06,6.78,145,13.25,290.08,17.25,435.18,4.94,180.37,7.29,360.78,10.93,541.18,2,100.76,3.73,201.53,7.17,302.27C2356.09,2831.46,2363.26,2855.2,2369.47,2890.05Z"/><path id="_Path_2" data-name="&lt;Path&gt;" class="cls-1" d="M747.53,2268.6c135.59,6,172.34-20.39,171.18-117.2-.66-56.19-6.36-112.35-6-168.51,1.16-180.49,2.08-361,6.86-541.45,6-224.77-18.29-450,16.06-674.36,5.67-37.12-5.12-73-42.55-94-22.92-12.85-58.65-21.92-83.9-16.72-32.72,6.73-35.36,37-33.22,64.61,5.57,72.35,11.18,144.77,12.72,217.24,4.49,213.21,13.7,426.57,8.28,639.65-4.7,184.49-27.07,368.64-41.23,553C752.21,2176.78,750.21,2222.78,747.53,2268.6Z"/><path id="_Path_3" data-name="&lt;Path&gt;" class="cls-1" d="M1901.66,2257.53c86.67,15.17,143.79-9,148.28-65.8,7.54-95.63,11.16-191.59,12-287.45.54-65.32-10.13-130.72-9.49-196,1.42-142.75,9.52-285.47,9.82-428.21.24-119.29-8.31-238.58-9.79-357.9-.63-51.23,6.16-102.57,10.81-153.79,4-44-20-76.59-57.81-104-45.28-32.78-93.17-21.58-106,27.8-7.55,29.08-7.86,60.27-5.47,90.19,11.38,142.24,26.88,284.27,36.6,426.59,5.12,74.8-4.33,150.41,2.74,225,15.54,164.09,8.39,327.53-10.28,490.76C1910.51,2034.08,1885.09,2142.69,1901.66,2257.53Z"/><path id="_Path_4" data-name="&lt;Path&gt;" class="cls-1" d="M1457.41,2963.75l-.7,0c0,35.21-.86,70.45.2,105.65,1.63,53.91,2.95,107.89,7.52,161.65,3.17,37.48,30,56.25,71,55.2,39.09-1,54.94-15.68,58.23-55.27a321.8,321.8,0,0,0,.23-42.24c-11-222.4-26.27-444.7-32.29-667.19-6.24-229.68-4.42-459.52,22.68-688.67,3-25.26,2.84-52.52-5.55-76.49-10.48-30-35.76-55.32-76.78-57.65-42.42-2.41-71.36,21.13-79.7,52.09-9.57,35.57-11.68,73.68-8.74,110.22,5.43,67.59,22.9,134.74,24.79,202.25C1446.71,2363.43,1451.39,2663.61,1457.41,2963.75Z"/><path id="_Path_5" data-name="&lt;Path&gt;" class="cls-1" d="M2049.2,2379.05c-1.3-.13-2.59-.29-3.89-.43,0-11.72,1-23.51-.18-35.15-4.8-47-20.77-56.8-75.32-47.32-75.35,13.08-107.17,42.88-105.55,123,4.4,218-12.4,435-29.17,652.17-9.91,128.22-21.42,256.35-32.71,384.47-5.74,65.19-16,130.24-17.74,195.47-1.21,44,25.55,57.77,76.25,48.81s75.87-32.8,79.39-78c2-25.69.19-51.58,1.58-77.31,11.21-207.89,21.49-415.82,34.67-623.63,9.17-144.43,1.88-290.26,51.59-431.66C2040.59,2454,2042.46,2415.94,2049.2,2379.05Z"/><path id="_Path_6" data-name="&lt;Path&gt;" class="cls-1" d="M652.48,3672.61c45.44,0,83.45,2.49,120.74-.73,33.56-2.91,42.21-23.22,42.33-50.89.41-97.9,1.65-195.91,7-293.68q10.74-196.17,28.5-392,20-216.48,47.34-432.45c6.44-50.86,25.82-100.51,34.61-151.27,7.09-41.07-14.27-56.37-62.58-51.79-70.76,6.73-114.09,46.75-116,108.16-1.65,51.5,0,103.16-4.06,154.5-9.26,116.54-22.21,232.86-31.71,349.37-8.37,102.58-12.32,205.42-21.38,307.95C684.3,3366.09,668.48,3512.26,652.48,3672.61Z"/><path id="_Path_7" data-name="&lt;Path&gt;" class="cls-1" d="M1428.62,1678.39c136.52-18,152.74-37.08,143.52-141-5.59-63-4.74-126.68-2.37-189.92,6.89-185,20.27-369.83,22.65-554.79,1.49-115.52,17.14-228.77,38.95-342.27,5.54-28.82.14-60.29-7.65-89.15-3.36-12.51-23.84-28.08-39.47-30.91-67.28-12.12-128.74,14.74-121.15,72.19,2.15,16.24.31,32.84.28,49.27-.47,363.32,8.6,726.81-34.05,1089.26C1424.18,1584.77,1428.62,1629.3,1428.62,1678.39Z"/><path id="_Path_8" data-name="&lt;Path&gt;" class="cls-1" d="M2339.94,4039.74l-2.28,0c0,28.12.75,56.27-.19,84.36-1.18,34.49,18.29,51.51,59.08,55.08,68.83,6,89.31-8.33,89.45-69.1.51-217.95-.87-435.92.93-653.87.51-63,9-125.86,14.43-188.75,8.31-95.55,18.95-191,25.07-286.61,3.35-52.24-17.79-70.8-73.07-76.11-58.3-5.59-97.44,11.91-108.91,56-8.79,33.79-11.38,69.48-10.09,104.16,5.44,147.25,18.48,294.41,19,441.62C2354.06,3684.23,2344.85,3862,2339.94,4039.74Z"/><path id="_Path_9" data-name="&lt;Path&gt;" class="cls-1" d="M486.84,3474.68c0-40.89-.06-73.09,0-105.29.37-210.8-1.25-421.64,1.8-632.41,2.63-182.67,11.67-365.27,14.94-547.93.41-23.77-12.1-50-27-71-17.31-24.42-49.91-28.68-82.53-21.93-32.81,6.77-42.14,29.1-45.24,53.24-2.36,18.59-1.71,37.51-1.28,56.25,5.6,248.3,13.73,496.58,16.36,744.9,1.77,168.12-4.12,336.3-6.69,512.14Z"/><path id="_Path_10" data-name="&lt;Path&gt;" class="cls-1" d="M1056.57,2576.47c128.7-19.57,144.55-36.82,149.11-124.29,6.56-126.25,13.84-252.62,27.07-378.48,19.08-181.53,22.62-364.74,82.92-542.3,12.69-37.35,9.94-79.28,8.08-118.9-2-42-25.62-58.07-75-60.37-52.2-2.43-99.7,27.14-109.29,71.13-4.48,20.52-3.87,42.11-2.83,63.14,10.56,213.79-19.12,425.53-44.68,637.56-14,116.33-24.38,233-34.92,349.56C1054.12,2505.46,1056.57,2537.75,1056.57,2576.47Z"/><path id="_Path_11" data-name="&lt;Path&gt;" class="cls-1" d="M1179.32,2682.67l8.77.16c2.31-16.21,11-34.24,5.22-48.15-6.23-15.08-23.19-33.5-40.14-37.84-46.73-12-108.14,18.94-116.21,59.66a657.12,657.12,0,0,0-12.17,139.38c1.08,58.33,15.35,116.7,13.41,174.8-8.86,264.43-21.32,528.75-32.73,793.11-2.2,50.64,37.3,79.95,95.55,70.11,46.28-7.84,52.5-35.84,52.91-69.05,2-161.74,3.91-323.52,7.84-485.23C1166.61,3080.61,1173.38,2881.65,1179.32,2682.67Z"/><path id="_Path_12" data-name="&lt;Path&gt;" class="cls-1" d="M227,4174.74c0-28.38,0-49.18,0-70,.16-63.34-2-126.75,1-190,7.91-165.89,21.09-331.65,26.3-497.58,3.31-105.54,6.38-210.42,33.48-314.12,7.08-27,7.43-56,5.36-83.81-2.23-29.72-19.19-56.22-56.89-62.74-39.3-6.79-75.85,7.8-92,36.76-15.94,28.68-25.8,62.41-26,94-.76,119.06,7.77,238.21,4.92,357.22-5.55,231.72-16.53,463.36-24.68,695-.4,11.06,4.88,22.27,7.94,35.21,19.19,1.61,35.55,4.09,51.92,4.09C177.55,4178.84,196.74,4176.67,227,4174.74Z"/><path id="_Path_13" data-name="&lt;Path&gt;" class="cls-1" d="M272.53,2906.94c0-29.09-.37-52.36.06-75.61,6.4-363-15.49-726.29,16.92-1089,1.65-18.63,2.27-37.86-1.44-56.14-5.72-28.24-37-45.76-66.43-40.44-54.74,9.88-97.78,55.81-93.65,103.14,8.57,97.86,24.71,195.52,26.8,293.44,3.84,180.35,1,360.84-1.47,541.24-1.34,95.9-9.32,191.71-11.33,287.6-.93,44.3,15.23,55.3,65.32,51.16C226.15,2920.77,244.37,2913.81,272.53,2906.94Z"/><path id="_Path_14" data-name="&lt;Path&gt;" class="cls-1" d="M1258.29,144.23c-6.53,133-8.93,259.16-19.78,384.81-16.28,188.69-38.36,377-58.17,565.51-5.87,55.82-15.72,111.51-17.67,167.41-1.65,47.67,21.22,62.25,77.47,59.79,54.33-2.39,75.76-20.58,78.55-72.8,6.81-128.41,12.26-256.88,17.71-385.33,3-70.15,1.69-140.54,7.81-210.48,12.6-144.24,29.41-288.24,43.12-432.42,2.36-24.64-2.12-49.73-3.8-81.34Z"/><path id="_Path_15" data-name="&lt;Path&gt;" class="cls-1" d="M2457.9,146c-123.31-27.84-137.35-19.55-137.45,71.29-.17,150.1.89,300.2-.32,450.28-1,126.51-5,253-6.75,379.51-.87,60.14.32,120.29.58,178.8,117.8,13.87,156.09-10.71,154.67-94.89-1.86-112.29-9.19-224.52-10.24-336.79-1.78-190-.49-379.94-.49-569.89Z"/><path id="_Path_16" data-name="&lt;Path&gt;" class="cls-1" d="M497,2079.42c3.64-30.26,8.12-48.25,7.54-66.11-1.85-56.1-8-112.17-8.23-168.26-.93-267.32-.42-534.66-.47-802,0-18.76.08-37.53-.68-56.27-1.33-31.9-26.74-39.31-57.86-35.22-36.19,4.76-61.93,24.14-72,53-9.29,26.68-17.82,55.08-16.85,82.48,3.7,105.08,7.41,210.36,18.47,315,18,170.66,24.23,340.82-.9,511.33-6,41-5.68,82.68-8.38,126Z"/><path id="_Path_17" data-name="&lt;Path&gt;" class="cls-1" d="M288.05,587.3c-96.2,4-136.46,27.15-144,89.49-8.21,67.33-8.06,135.53-8.41,203.35-.82,164,1.41,328-.08,492-.67,74.84-8.67,149.61-10.55,224.46-1,39.21,22.13,50,65.63,35,53.36-18.46,68.41-43,68.57-92.55.83-245.73-23.71-491.81,26.71-736.84C300.2,732.56,288.05,659.14,288.05,587.3Z"/><path id="_Path_18" data-name="&lt;Path&gt;" class="cls-1" d="M1594,4180.5c0-29.94,0-55.24,0-80.56,0-196.67-.81-393.32.84-590,.32-39.51,12-78.86,15.06-118.47,3.69-48.16-17.54-71.35-64-75.73-55.42-5.21-92,16.16-99.86,62.94-5,29.89-5.45,60.71-3.59,90.92,2.57,42,12,83.67,13.66,125.61,6.91,177.82,12,355.67,17.77,533.52.22,7,.25,14.07.53,21.1,1,25.78,17.81,39.07,47.9,38.31C1543.73,4187.62,1565,4183.73,1594,4180.5Z"/><path id="_Path_19" data-name="&lt;Path&gt;" class="cls-1" d="M353.33,946.44c58.91-11.89,110.65-11.69,122.61-57.5,9.44-36.19,15.76-75.32,9.64-111.51-31.5-186.5-22.64-373.89-24.1-561.09-.11-14.06,1.38-28.37-1.2-42.12-6.13-32.7-36.72-45.78-74.36-34.42-37.08,11.18-38.46,36.06-38.68,62.94-1.74,203.84-4.61,407.68-5.43,611.52C341.65,855.4,348.77,896.58,353.33,946.44Z"/><path id="_Path_20" data-name="&lt;Path&gt;" class="cls-1" d="M434,4164.78c8-15.39,12.28-19.67,12-23.75-9-154.7,5.94-308,29.7-461.46,8.67-56,28.92-115.05.06-172.69H353.31c-15.56,51.61-40.8,577.91-31.4,652.22C358.28,4160.93,396,4162.86,434,4164.78Z"/><path id="_Path_21" data-name="&lt;Path&gt;" class="cls-1" d="M1874.38,4173.73c2-11.2,5.06-20.33,5.12-29.46.59-102.57-2.57-205.4,40.62-304.07,3.68-8.44,2.76-18.46,2.94-27.75,1.06-59.24-21.22-79.45-86.3-78.74-60.6.66-90.32,27-87.58,80.27,1.9,37.07,10.79,74.11,9.7,111-1.92,65.06-4.8,130.51-15.36,194.87-8.94,54.38,30.75,70.33,84.73,67.64C1843.83,4186.75,1858.89,4178.57,1874.38,4173.73Z"/><path id="_Path_22" data-name="&lt;Path&gt;" class="cls-1" d="M826.89,4159.89c-3.8-95.45-8.55-181.36-10.11-267.3-.77-41.93,8-84.06,5.91-125.88-2.4-48.57-38.13-68.57-97.62-60.76-59.71,7.82-75.5,32.07-65.37,83.68,11.7,59.58,18.57,119.94,24.37,180.17,5.58,57.62,7.1,115.53,10.65,177.39Z"/><path id="_Path_23" data-name="&lt;Path&gt;" class="cls-1" d="M903.88,140.27c-97-12.42-119.24,3.36-113.8,73.69,7,90.77,10.89,181.72,16.59,272.57,1.61,25.54,5.27,51,7.28,76.53,2.36,29.87,18.65,48,56.44,50,38,2,59.5-17.87,66.11-43.81a291.76,291.76,0,0,0,8.21-96.78c-9-102.22-21.65-204.23-33.32-306.27C910.37,157.2,906.32,148.43,903.88,140.27Z"/><path id="_Path_24" data-name="&lt;Path&gt;" class="cls-1" d="M289.38,167.36C182.58,127.9,142.61,149.46,141,243c-1.51,86.2-7.18,172.39-6.8,258.58.09,20.83,10,48,27.43,61,26.24,19.54,61.73,6.91,83.13-11.79,19.84-17.33,41.75-41.91,42.67-63.88C291.81,382.21,289.38,277.39,289.38,167.36Z"/><path id="_Path_25" data-name="&lt;Path&gt;" class="cls-1" d="M2035.92,521.27c-12.52-115.61-23.32-225-36.75-334.19-5.26-42.79-21.08-51.29-72.18-48.49-43.53,2.4-49.5,9.33-48.13,56.13,3.21,109.55,5.9,219.1,10.21,328.62.73,18.38,2.92,39.76,14.56,54,12.63,15.43,37.95,34.24,56.22,33.19,23.16-1.34,51.52-17.39,65.13-34.16C2037.54,560.84,2033.57,536,2035.92,521.27Z"/><path id="_Path_26" data-name="&lt;Path&gt;" class="cls-1" d="M1149.94,4159.67c4.07-85.34,9.83-162.18,10.63-239,.48-46.41-15.88-57.2-69.61-58.77-62.58-1.8-85.14,11.89-89.12,69.11-5.52,79.3,18.33,155.73,38.05,235Z"/><path id="_Path_27" data-name="&lt;Path&gt;" class="cls-1" d="M2220.56,2710.07c-5.17,94.85-11.57,186.88-14.41,279-.94,31.14,9.53,62.86,53.85,70.26,27.92,4.63,50.29-24.34,41.92-71.43-16-89.92-40.08-178.85-61.45-268.08C2239.79,2717,2231.88,2715.42,2220.56,2710.07Z"/><path id="_Path_28" data-name="&lt;Path&gt;" class="cls-1" d="M657.64,663.72c9.53-91.34-.17-180.19-37.93-265.57-10.4-23.51-27.49-46.46-47.87-64.73-10.34-9.25-38.38-14-51.94-8.87-14.12,5.34-25.3,24.26-28.63,38.71-2.79,12.1,3.28,29.25,12.85,39.14C578.92,479.74,618,571.43,657.64,663.72Z"/><path id="_Path_29" data-name="&lt;Path&gt;" class="cls-1" d="M1620.47,281.72c22.64-145,18.93-148.94-121.27-132.57-4.51.52-8.28,5.44-16.39,11.11-2.51,38.61-5.23,80.12-7.8,119.45C1526.19,310.68,1571.32,296.53,1620.47,281.72Z"/><path id="_Path_30" data-name="&lt;Path&gt;" class="cls-1" d="M1003.64,869.48c18.69-18.6,47.29-34.66,53.24-55.27,19.49-67.49,31.51-136.54,44.39-205.25,2.14-11.4-5.85-24.13-12.57-48.85-12.39,15.73-17.92,20.95-21,27C1035.88,649.2,1003.34,711,973.49,773.7,958.21,805.8,959.17,837.63,1003.64,869.48Z"/><path id="_Path_31" data-name="&lt;Path&gt;" class="cls-1" d="M2116.5,868.56c53.35-2.54,66.5-31.65,74.33-60.89,16.41-61.31,32-122.95,42.33-185.1,4.43-26.69,9.8-57-15-83.08C2180.62,648.06,2104.34,747.41,2116.5,868.56Z"/><path id="_Path_32" data-name="&lt;Path&gt;" class="cls-1" d="M2283.77,2109.65c-61.92,70.09-124.15,140-185.6,210.36-21.3,24.39-24.22,51.09-3.78,88,23.51-12.27,52.89-19.27,65.11-35.35C2220.47,2292.47,2268.76,2207.08,2283.77,2109.65Z"/><path id="_Path_33" data-name="&lt;Path&gt;" class="cls-1" d="M1280.31,2755.06c51.76-49.62,102.16-277.41,71.27-336.58-37.63,94.34-75.18,184.6-109,275.84C1232.85,2720.6,1243.14,2745.52,1280.31,2755.06Z"/><path id="_Path_34" data-name="&lt;Path&gt;" class="cls-1" d="M2081.84,3633.06l-16.49-4.38c-39.57,88.08-80.75,175.71-117.09,264.72-5.92,14.49,9.56,35,15.15,52.8,7.44-.23,14.89-.43,22.33-.65C2078.9,3854.58,2063.52,3740.19,2081.84,3633.06Z"/><path id="_Path_35" data-name="&lt;Path&gt;" class="cls-1" d="M535.53,2335.46c23.38-8.23,45.21-9.93,51-18.86,56.49-87.57,93.09-182,151.18-286C629.28,2087.75,548.14,2214,535.53,2335.46Z"/><path id="_Path_36" data-name="&lt;Path&gt;" class="cls-1" d="M2282.17,3157.93c-87.24,39-138.18,172.1-117.87,307.59C2207.13,3358.58,2303.11,3278.52,2282.17,3157.93Z"/><path id="_Path_37" data-name="&lt;Path&gt;" class="cls-1" d="M1690.41,851l13.1-1.1c7.26-66.63,15.38-133.2,21.47-199.9,4-44.16-8.86-61.62-42.89-64.6-30.7-2.69-57.31,28.11-56.3,65.41a48.09,48.09,0,0,0,2.28,13.9Q1659.06,757.89,1690.41,851Z"/><path id="_Path_38" data-name="&lt;Path&gt;" class="cls-1" d="M999.06,999.8c-75.18,69.67-58.2,183,38.6,259.79C1020,1170.8,1059.14,1085.62,999.06,999.8Z"/><path id="_Path_39" data-name="&lt;Path&gt;" class="cls-1" d="M2222.73,3868.84c-101.64,41.51-173.5,92-240.87,146.5-11.1,9-5.84,32-8.13,48.6,20.49-.9,49.59,5.17,60-3.83C2098.45,4004.37,2167.39,3950.86,2222.73,3868.84Z"/><path id="_Path_40" data-name="&lt;Path&gt;" class="cls-1" d="M1713.48,1497c-73.65,140.46-86.81,227.13-46.11,276C1744.6,1736.32,1736.09,1646.79,1713.48,1497Z"/><path id="_Path_41" data-name="&lt;Path&gt;" class="cls-1" d="M1964.18,4115.51c-4.75,40.77,16.82,57.15,61.44,60.47,50.14,3.76,149.49-27.66,216.42-74.58C2147.15,4110.32,2058,4076.67,1964.18,4115.51Z"/><path id="_Path_42" data-name="&lt;Path&gt;" class="cls-1" d="M1783.09,210.79C1719.77,273.41,1704,349,1682,422.1c-2.5,8.33,7.44,26.52,15.19,28.13,13.57,2.82,38.9.29,43.51-7,17.56-27.65,36.17-57.32,40.66-87.65C1788,310.35,1783.09,263.92,1783.09,210.79Z"/><path id="_Path_43" data-name="&lt;Path&gt;" class="cls-1" d="M2105.44,2810.32l14.92-4c0-27.34-.63-54.68.14-82,1.17-41.57,6.81-83.3,3.72-124.6-1.93-26-4.55-64.62-50-60.77-42.14,3.56-44.41,41.59-37.46,66.82C2055.71,2674.68,2082,2742.22,2105.44,2810.32Z"/><path id="_Path_44" data-name="&lt;Path&gt;" class="cls-1" d="M1677.11,3391.72c65.38-33.44,90-152.19,60.93-269.47C1679.62,3204.35,1653.3,3314.79,1677.11,3391.72Z"/><path id="_Path_45" data-name="&lt;Path&gt;" class="cls-1" d="M1356.19,3050.39l18.51-4.26c-20.23-81.43-48.2-160.83-104.39-231.39-7.1-8.93-27.09-10.73-41.1-15.84-6.09,13.55-12.92,26.91-17.75,40.75-1.16,3.34,4,8.44,6.8,12.46Q1287.14,2951.3,1356.19,3050.39Z"/><path id="_Path_46" data-name="&lt;Path&gt;" class="cls-1" d="M735.77,331.08c-21.53-40-102.86-104.79-157.56-122.74-22.76-7.47-49.8-5.8-87.6-9.54C543.74,298.25,631.76,321.45,735.77,331.08Z"/><path id="_Path_47" data-name="&lt;Path&gt;" class="cls-1" d="M1245,3904.51c25.83-86.91,51-171.42,79.89-268.81-72,65.46-101.49,133.11-124.13,203.1C1190.43,3870.56,1194.08,3899.51,1245,3904.51Z"/><path id="_Path_48" data-name="&lt;Path&gt;" class="cls-1" d="M591.75,2689.54c26.49-81.62,1.41-150.26,3.07-218.11.45-18.18-23.49-36.78-45.24-68.2C505.58,2512.16,545.52,2593.82,591.75,2689.54Z"/><path id="_Path_49" data-name="&lt;Path&gt;" class="cls-1" d="M2056.58,3202.1c63.13-13.51,132.26-13.12,172-62.13,10.5-12.95,7.88-33.28,11.29-50.23-22.85-1.49-52.38-11.32-67.31-3C2122.28,3114.93,2078.7,3150.64,2056.58,3202.1Z"/><path id="_Path_50" data-name="&lt;Path&gt;" class="cls-1" d="M2127.12,1010.3c-59.53,57.46-42.33,151,37.27,229.49C2185.7,1129.08,2177.89,1077.27,2127.12,1010.3Z"/><path id="_Path_51" data-name="&lt;Path&gt;" class="cls-1" d="M1679.88,2152.84c0-62.52.1-113.18-.06-163.87,0-18.65,2.53-37.91-2.18-55.77-3.1-11.67-17.15-21.31-26.3-31.86-14,9.38-29.93,17.4-41.15,28.68-6.1,6.14-6.72,18.08-5.49,27C1613.83,2023.53,1629.71,2088.36,1679.88,2152.84Z"/><path id="_Path_52" data-name="&lt;Path&gt;" class="cls-1" d="M1841.54,648.31c-11-136-68.58-185.26-162.23-139.68C1719.09,564.82,1776.48,604.84,1841.54,648.31Z"/><path id="_Path_53" data-name="&lt;Path&gt;" class="cls-1" d="M1150.05,888.06c-42-2-80-4.59-118.07-5.42-34.21-.75-58.68,13.76-73.8,38.81C942,948.22,963,980.61,996.23,974.22,1058.27,962.31,1119.94,945.2,1150.05,888.06Z"/><path id="_Path_54" data-name="&lt;Path&gt;" class="cls-1" d="M1719.24,3682.2c8.58-74.8,2.69-147.91-35.37-216.79-10-18.19-22.6-32.45-56.54-15.44C1636.65,3531.61,1671.86,3607.77,1719.24,3682.2Z"/><path id="_Path_55" data-name="&lt;Path&gt;" class="cls-1" d="M1840.31,1972.2c-16.51-132.89-46-165.8-127.75-153.76C1686.79,1904.83,1775,1925.22,1840.31,1972.2Z"/><path id="_Path_56" data-name="&lt;Path&gt;" class="cls-1" d="M2282.56,2420c-45.52,4.26-90.94,9.42-136.57,12.57-65.75,4.53-74,16.29-47.41,80.62C2170.29,2501.65,2227.09,2466.33,2282.56,2420Z"/><path id="_Path_57" data-name="&lt;Path&gt;" class="cls-1" d="M2291.27,897.39c-57.82,0-103.41-2.11-148.48,1.07-17.32,1.22-37.33,11.75-48.78,23.15-8.3,8.26-9,26.21-4.55,37.44,3.05,7.65,23.28,17.63,31.84,15.49C2180.29,959.73,2239.39,943.66,2291.27,897.39Z"/><path id="_Path_58" data-name="&lt;Path&gt;" class="cls-1" d="M1379.72,4149.29c-22.64-28.11-38.57-51.94-59.28-72.36a254.17,254.17,0,0,0-62.25-45.06c-10.76-5.49-29.73.26-45,.91,1,14.51-5,35.56,4.19,42.42C1262.11,4108.54,1309.11,4140.85,1379.72,4149.29Z"/><path id="_Path_59" data-name="&lt;Path&gt;" class="cls-1" d="M566.32,2379.86c19.54,28.89,43.6,40.09,82.2,21.84,51.43-24.34,64.51-43.64,56.18-92.21C646.9,2316.31,596.63,2333.29,566.32,2379.86Z"/><path id="_Path_60" data-name="&lt;Path&gt;" class="cls-1" d="M646.36,3973.76c-15.93-67.52-29.7-135.81-104.58-200.11C546.81,3862.36,581.91,3923.2,646.36,3973.76Z"/><path id="_Path_61" data-name="&lt;Path&gt;" class="cls-1" d="M1397.11,3936.52c-46.4,0-95.86-2.62-144.53,1.39-17.48,1.45-45,17.48-47,29.34-4.24,24.67,25,26.65,47.55,25.51C1313.69,3989.71,1365.82,3972.18,1397.11,3936.52Z"/><path id="_Path_62" data-name="&lt;Path&gt;" class="cls-1" d="M668.65,4103.13c-70.46-17.59-120.84-7-176.78,24.6C557.72,4144.94,612.81,4159.39,668.65,4103.13Z"/><path id="_Path_63" data-name="&lt;Path&gt;" class="cls-1" d="M647,4056.86c-28.54-55.05-38.87-60.85-114-64C559.71,4050.94,570.14,4056.8,647,4056.86Z"/></g></svg>