<?xml version="1.0" encoding="utf-8"?>
<!-- Generator: Adobe Illustrator 19.1.0, SVG Export Plug-In . SVG Version: 6.00 Build 0)  -->
<!DOCTYPE svg PUBLIC "-//W3C//DTD SVG 1.1//EN" "http://www.w3.org/Graphics/SVG/1.1/DTD/svg11.dtd">
<svg version="1.1" id="Layer_1" xmlns="http://www.w3.org/2000/svg" xmlns:xlink="http://www.w3.org/1999/xlink" x="0px" y="0px"
	 viewBox="-488 239.4 102.4 170.6" style="enable-background:new -488 239.4 102.4 170.6;" xml:space="preserve">
<style type="text/css">
	.st0{fill:#FFFFFF;stroke:#BABABA;stroke-width:0.25;stroke-linecap:round;stroke-linejoin:round;stroke-miterlimit:10;}
	.st1{fill:#FFFFFF;}
	.st2{fill:#BABABA;}
</style>
<g id="SPLINE_1135_">
	<path class="st0" d="M-414.9,279.7c1.6,3,2.8,6.1,3.2,9.2c0.1,0.1,0.2,0.2,0.4,0.3c0-0.3,0.1-0.6,0.2-0.9c-0.1-0.3-0.2-0.6-0.2-0.9
		c0-0.5,0.2-1,0.4-1.5c0-0.5,0-1,0-1.6c0-0.4,0-0.7,0-1.1c-1.3-0.3-2.3-1.5-2.3-3c0-1.7,1.3-3.1,3-3.1c0.7,0,1.3,0.2,1.8,0.6
		c3.8-5.9,13.1-10.6,19-15.6v-19.4h-22.5c-3,2-4,3.4-4.7,4.8c-1,1.7-1.6,3.3-3,5.6c-1.1,2-2.7,4.5-4.7,6.7c0.4,0.7,0.6,1.6,0.6,2.5
		c0,2.8-2.2,5-4.9,5c-1.2,0-2.2-0.4-3.1-1.1c-1.4,4.8-3.4,9.7-8,12c-1.1,0.6-3.2,1-5.3,1.3c2.7,0.3,5.3,1,8.1,0.3
		c2.1-0.5,4.2-1.8,5.8-3.4c-0.7-0.7-1.1-1.6-1.1-2.7c0-2.1,1.7-3.8,3.7-3.8c2,0,3.7,1.7,3.7,3.8c0,2.1-1.7,3.8-3.7,3.8
		c-0.8,0-1.4-0.2-2.1-0.6c-5.7,6.2-10.9,3.4-16.9,3.1c-0.9,0-1.7-0.1-2.5-0.2l-1.8,3.7c-1.8,3.4-3.8,6.6-5.8,9.8
		c2.2,2.3,6.2,6.6,8,9.8c1,0.3,1.6,1.3,1.6,2.4c0,1.2-0.8,2.2-1.8,2.4c0,0.3,0,0.6,0,0.9c0,0.4,0,0.9,0,1.3c0.2,0.3,0.4,0.7,0.4,1.2
		c0,0.3-0.1,0.5-0.1,0.7c0,0.2,0.1,0.5,0.1,0.7c0.1-0.1,0.2-0.1,0.3-0.2c0.4-2.5,1.3-5,2.6-7.4v-0.1c-0.3-0.3-0.5-0.8-0.5-1.2
		c0-1,0.8-1.7,1.7-1.7c0.9,0,1.7,0.8,1.7,1.7c0,1-0.8,1.7-1.7,1.7c-0.3,0-0.5-0.1-0.8-0.2c-1.2,2.3-2.1,4.6-2.5,6.9
		c0.4-0.1,0.8-0.2,1.2-0.2c1,0,1.9,0.5,2.5,1.3c0-0.5-0.1-0.9-0.1-1.4c-0.1,0-0.2,0-0.3,0c-0.7,0-1.2-0.6-1.2-1.2
		c0-0.7,0.5-1.2,1.2-1.2c0.6,0,1.2,0.6,1.2,1.2c0,0.4-0.2,0.7-0.5,1c0.2,2.5,0.6,5.4,1,7.8c0,0.2,0.1,0.4,0.1,0.7
		c0.2-0.7,0.4-1.3,0.5-2.1c0.5-2.5,0.5-5.1,0.6-7.8c-1.3,0-2.3-1.1-2.3-2.5c0-1.4,1.1-2.5,2.4-2.5c1.3,0,2.4,1.1,2.4,2.5
		c0,1.2-0.9,2.2-2,2.4c-0.1,2.8-0.1,5.8-0.8,8.5c-0.2,1-0.4,1.8-0.8,2.5c0,1-0.1,1.6-0.5,2.1c1.2-0.6,2.5-1.3,3.3-4.5
		c0.1-0.3,0.1-0.6,0.2-0.9c-0.6-0.5-0.9-1.3-0.9-2.1c0-1.1,0.5-2,1.4-2.5c0.1-0.9,0.2-1.8,0.4-2.7c0.3-1.2,0.5-2.4,0.8-3.5
		c-0.4-0.3-0.7-0.8-0.7-1.4c0-1,0.8-1.8,1.7-1.8c0.9,0,1.7,0.8,1.7,1.8c0,1-0.8,1.7-1.7,1.7c-0.2,0-0.4,0-0.5-0.1
		c-0.3,1.1-0.6,2.3-0.8,3.4c-0.2,0.8-0.3,1.6-0.4,2.4c0.3-0.1,0.6-0.1,0.9-0.1c1.5,0,2.8,1.2,2.8,2.8c0,1.2-0.8,2.3-1.9,2.7
		c-0.1,0.3-0.1,0.5-0.2,0.7c-0.8,3.1-1.8,4.4-2.9,5c0.5-0.1,1-0.3,1.3-0.4c2.9-1.4,4.1-4.6,5-7.7c-0.5-0.6-0.8-1.3-0.8-2.1
		c0-1.8,1.4-3.3,3.2-3.3c1.8,0,3.2,1.5,3.2,3.3c0,1.8-1.4,3.2-3.2,3.2c-0.8,0-1.4-0.3-2-0.7c-0.9,3.1-2.2,6.3-5.2,7.8
		c-0.7,0.4-2,0.7-3.4,0.8c1.8,0.2,3.5,0.6,5.2,0.2c1.4-0.3,2.7-1.1,3.8-2.2c-0.5-0.4-0.7-1.1-0.7-1.8c0-1.4,1.1-2.5,2.4-2.5
		c1.3,0,2.4,1.1,2.4,2.5s-1.1,2.5-2.4,2.5c-0.5,0-0.9-0.1-1.3-0.4c-3.7,4-7,2.2-10.9,2c-0.6,0-1.1-0.1-1.6-0.1l-1.2,2.4
		c-1.1,2.2-2.4,4.3-3.8,6.3c0.7-0.3,1.4-0.6,2-0.9c4.9-2.2,9.7-4,14-6.2s7.9-4.7,12.3-7.4c3.1-2,6.7-4.1,11.3-5.6
		c-1.2-2-2.5-4-3.6-6.1l-1.5-3c-0.6,0-1.3,0.1-2,0.1c-4.8,0.2-8.9,2.5-13.5-2.5c-0.5,0.3-1,0.5-1.6,0.5c-1.6,0-2.9-1.4-2.9-3
		c0-1.7,1.3-3,2.9-3c1.6,0,3,1.4,3,3c0,0.9-0.3,1.6-0.9,2.2c1.3,1.3,3,2.4,4.7,2.7c2.2,0.5,4.3,0,6.5-0.3c-1.7-0.2-3.4-0.6-4.2-1
		c-3.7-1.8-5.2-5.7-6.4-9.6c-0.7,0.5-1.5,0.9-2.4,0.9c-2.2,0-4-1.8-4-4c0-2.2,1.8-4,4-4c2.2,0,4,1.8,4,4c0,1-0.4,2-1,2.6
		c1.1,3.8,2.6,7.8,6.2,9.6c0.4,0.2,1,0.4,1.6,0.5c-1.4-0.7-2.7-2.4-3.6-6.2c-0.1-0.2-0.1-0.5-0.2-0.8c-1.4-0.5-2.4-1.8-2.4-3.3
		c0-2,1.6-3.5,3.4-3.5c0.4,0,0.7,0,1.1,0.1c-0.1-1-0.2-2-0.4-3c-0.3-1.4-0.6-2.8-1-4.2c-0.2,0.1-0.4,0.1-0.7,0.1
		c-1.2,0-2.1-1-2.1-2.1c0-1.2,0.9-2.2,2.1-2.2c1.2,0,2.1,1,2.1,2.2c0,0.7-0.4,1.3-0.9,1.7c0.4,1.5,0.7,2.9,1,4.4
		c0.2,1.2,0.4,2.3,0.4,3.4c1.1,0.6,1.7,1.8,1.7,3.1c0,1-0.4,2-1.1,2.6c0,0.4,0.1,0.7,0.2,1.1c1,4,2.6,4.9,4.1,5.6
		c-0.5-0.6-0.7-1.3-0.6-2.5c-0.4-0.9-0.7-2-0.9-3.1c-0.8-3.4-0.8-7-0.9-10.5c-1.4-0.3-2.4-1.5-2.4-3c0-1.7,1.3-3,3-3
		c1.6,0,3,1.4,3,3s-1.3,3-2.9,3c0.1,3.2,0.2,6.6,0.8,9.6c0.2,1,0.4,1.8,0.6,2.6c0-0.3,0.1-0.5,0.1-0.8c0.4-3,1-6.5,1.2-9.6
		c-0.4-0.3-0.6-0.7-0.6-1.2c0-0.9,0.7-1.5,1.5-1.5c0.8,0,1.5,0.7,1.5,1.5c0,0.8-0.6,1.5-1.5,1.5c-0.1,0-0.2,0-0.3,0
		c0,0.6-0.1,1.1-0.1,1.7c0.7-1,1.8-1.6,3.1-1.6c0.5,0,1,0.1,1.4,0.3c-0.5-2.8-1.6-5.7-3.1-8.6c-0.3,0.1-0.6,0.2-0.9,0.2
		c-1.2,0-2.1-1-2.1-2.1c0-1.2,0.9-2.1,2.1-2.1c1.2,0,2.1,1,2.1,2.1C-414.2,278.7-414.5,279.2-414.9,279.7L-414.9,279.7z"/>
</g>
<g id="SPLINE_1134_">
	<path class="st0" d="M-415.7,295.8c-0.9,2.5-1.2,4.7,0.1,7.1c0,0,0,0,0,0c0-0.7,0.1-1.2,0.3-1.6c-0.1-1.6,0.6-3.4,1.2-4.9
		C-414.6,296.3-415.2,296.1-415.7,295.8z"/>
</g>
<g id="SPLINE_1133_">
	<path class="st0" d="M-417.4,325L-417.4,325c1.1,2,1.8,4,2.1,6c0.1,0.1,0.1,0.1,0.2,0.2c0-0.2,0.1-0.4,0.1-0.6
		c-0.1-0.2-0.1-0.4-0.1-0.6c0-0.4,0.1-0.7,0.3-0.9c0-0.3,0-0.7,0-1c0-0.3,0-0.5,0-0.7c-0.8-0.2-1.5-1-1.5-1.9c0-1.1,0.9-2,2-2
		c1.1,0,2,0.9,2,2c0,1.1-0.9,2-2,2c0,0-0.1,0-0.1,0c0,0.2,0,0.4,0,0.6c0,0.2,0,0.4,0,0.6c0.3-0.2,0.6-0.3,0.9-0.3
		c0.9,0,1.6,0.8,1.6,1.7c0,0.8-0.5,1.5-1.3,1.6c-0.3,2.4-0.7,3.7-2.7,5.7l-0.1,0.1c-0.1,0.4-0.3,0.9-0.5,1.4
		c0.3-0.2,0.8-0.4,1.8-0.8c1.5-0.6,2.4-1.9,3.3-3.2c0.1-0.2,0.3-0.5,0.5-0.8c-0.5-0.2-0.8-0.7-0.8-1.3c0-0.8,0.6-1.4,1.4-1.4
		c0.3,0,0.5,0.1,0.7,0.2c0.1-0.6,0.1-1.3,0.2-1.9c0.1-1.1,0.1-2.1,0.2-3.2c-0.6-0.1-1.1-0.7-1.1-1.4c0-0.8,0.6-1.4,1.4-1.4
		c0.7,0,1.4,0.6,1.4,1.4c0,0.7-0.5,1.3-1.2,1.4c0,0.5,0,1-0.1,1.5c-0.1,1.4-0.2,2.7-0.4,4c0.2,0.2,0.3,0.5,0.3,0.8
		c0,0.6-0.3,1.1-0.8,1.3c-0.5,1.4-1.3,2.7-2.5,3.9c-0.5,0.6-1.2,0.9-1.8,1.3c0.1,0,0.1,0,0.1,0c0.4-0.1,0.7-0.3,1.1-0.5
		c2.3-1.4,3.9-4.4,5-7.2c-0.4-0.4-0.7-1.1-0.7-1.7c0-1.4,1.1-2.5,2.5-2.5c1.4,0,2.5,1.1,2.5,2.5s-1.1,2.5-2.5,2.5
		c-0.6,0-1.1-0.2-1.5-0.5c-1.1,2.9-2.8,5.8-5.1,7.2c-0.3,0.2-0.5,0.3-0.7,0.4c0.5,0.2,0.9,0.4,1.2,0.5c0.1,0,0.1,0,0.2,0
		c2.8-0.4,3.3-1.3,4.7-3.2c-0.4-0.4-0.6-0.9-0.6-1.5c0-1.1,0.9-2,2-2c1.1,0,2,0.9,2,2c0,1.1-0.9,2-2,2c-0.4,0-0.7-0.1-1-0.3
		c-0.9,1.1-1.7,2.3-2.8,2.8c-0.5,0.2-1,0.4-1.5,0.5c0.4,0.1,0.8,0.1,1.4,0.1c0.4,0,0.9-0.1,1.4-0.3c0-0.7,0.6-1.4,1.4-1.4
		c0.7,0,1.4,0.6,1.4,1.4s-0.6,1.4-1.4,1.4c-0.6,0-1.1-0.4-1.3-1c-0.7,0.2-1.5,0.3-2.2,0.2c-0.8-0.1-1.2-0.2-1.6-0.3
		c-0.7,0.1-1.4,0.1-2.1,0.1c1.2,0.3,2.4,0.9,3.5,1.2c2.4,0.8,4.4,0.7,6.2-0.6c-0.4-0.5-0.6-1-0.6-1.7c0-1.4,1.1-2.6,2.5-2.6
		c1.2,0,2.3,0.9,2.5,2.1c0,0.2,0.1,0.3,0.1,0.5c0,1.4-1.1,2.6-2.6,2.6c-0.6,0-1.2-0.3-1.7-0.6c-2.2,1.5-4.4,1.5-7.1,0.6
		c-1.4-0.5-2.8-1.2-4.2-1.2c-0.5,0-0.9,0.1-1.5,0.1l0.8,2.2c0.8,2.1,2.7,4.5,4.1,6.5c0.9,1.3,1.6,2.7,2.3,4.2c1.8-1.4,4-2.8,6.8-4.7
		c1.3-0.9,2.7-1.8,4.2-2.8c-0.3-2.5-0.7-4.9-1.2-7.3c-1.4-7.1-3.8-14-7.6-20.2c-0.7-1.1-1.4-2.2-2.1-3.3c-4.3,1.5-7.7,3.5-10.7,5.4
		c-4.4,2.8-8,5.2-12.3,7.4c-4.2,2.2-9.1,4-14,6.2c-2,0.9-4.1,1.9-6.3,3.2c-5.6,9.9-6.9,21.7-7.3,33.4c3,1.5,6.9,3.4,11.8,6.6
		c0.9-2.3,2.1-4.5,3.5-6.6c1.4-2.1,3.5-4.6,4.4-6.9l0.9-2.3c-0.6-0.1-1.1-0.2-1.6-0.2c-1.5,0-3,0.8-4.5,1.3c-2.9,1-5.3,1-7.6-0.6
		c-0.5,0.4-1.1,0.7-1.8,0.7c-1.5,0-2.8-1.3-2.8-2.8c0-1.5,1.2-2.8,2.8-2.8c1.5,0,2.7,1.2,2.7,2.8c0,0.7-0.2,1.3-0.6,1.8
		c2,1.3,4.2,1.4,6.7,0.6c1.3-0.4,2.5-1,3.8-1.3c-0.7-0.1-1.5-0.1-2.3-0.2c-0.4,0.2-0.9,0.3-1.7,0.3c-0.8,0.1-1.6,0-2.4-0.2
		c-0.2,0.6-0.7,1-1.4,1c-0.8,0-1.5-0.7-1.5-1.5s0.7-1.5,1.5-1.5c0.8,0,1.5,0.7,1.5,1.4c0.5,0.2,1.1,0.3,1.5,0.3c0.7,0,1.1,0,1.6-0.1
		c-0.5-0.1-1.1-0.3-1.6-0.5c-1.2-0.5-2.1-1.8-3-2.9c-0.3,0.2-0.7,0.3-1.1,0.3c-1.1,0-2.1-0.9-2.1-2.1c0-1.2,1-2.1,2.1-2.1
		c1.1,0,2.1,0.9,2.1,2.1c0,0.6-0.3,1.2-0.7,1.6c1.5,2,2.1,3,5.1,3.4c0.1,0,0.2,0,0.2,0c0.4-0.2,0.8-0.3,1.3-0.5
		c-0.2-0.1-0.5-0.3-0.8-0.4c-2.5-1.5-4.3-4.6-5.5-7.7c-0.5,0.4-1,0.6-1.6,0.6c-1.5,0-2.7-1.2-2.7-2.7c0-1.5,1.2-2.7,2.7-2.7
		c1.5,0,2.7,1.2,2.7,2.7c0,0.7-0.3,1.3-0.7,1.8c1.2,3,2.9,6.1,5.4,7.6c0.4,0.3,0.8,0.4,1.2,0.6c0.1,0,0.1,0,0.2,0
		c-0.7-0.3-1.4-0.8-2-1.3c-1.4-1.3-2.2-2.7-2.7-4.2c-0.5-0.2-0.9-0.8-0.9-1.3c0-0.3,0.1-0.6,0.3-0.9c-0.2-1.3-0.3-2.7-0.4-4.2
		c0-0.5,0-1-0.1-1.6c-0.7-0.1-1.3-0.7-1.3-1.5c0-0.8,0.7-1.5,1.5-1.5c0.8,0,1.5,0.7,1.5,1.5c0,0.7-0.5,1.3-1.2,1.5
		c0,1.1,0.1,2.3,0.2,3.4c0.1,0.7,0.2,1.4,0.2,2.1c0.2-0.2,0.5-0.3,0.8-0.3c0.8,0,1.5,0.7,1.5,1.5c0,0.6-0.3,1.1-0.9,1.3
		c0.2,0.3,0.3,0.6,0.5,0.8c0.9,1.4,2,2.8,3.5,3.4c1.1,0.4,1.6,0.6,1.9,0.8c-0.2-0.5-0.4-1-0.6-1.5l-0.1-0.1
		c-2.1-2.2-2.5-3.6-2.9-6.1c-0.8-0.2-1.4-0.9-1.4-1.7c0-1,0.8-1.8,1.7-1.8c0.4,0,0.7,0.1,1,0.3v-0.6c0-0.3,0-0.5,0-0.7h-0.1
		c-1.1,0-2.1-0.9-2.1-2.1c0-1.2,1-2.1,2.1-2.1c1.2,0,2.1,1,2.1,2.1c0,1-0.7,1.8-1.6,2.1c0,0.2,0,0.5,0,0.8c0,0.4,0,0.8,0,1.1
		c0.2,0.3,0.3,0.6,0.3,1c0,0.2-0.1,0.4-0.1,0.6c0,0.2,0.1,0.4,0.1,0.6c0.1-0.1,0.2-0.1,0.2-0.2c0.3-2.1,1.1-4.2,2.3-6.3v-0.1
		c-0.3-0.2-0.5-0.7-0.5-1.1c0-0.8,0.7-1.5,1.5-1.5c0.8,0,1.5,0.7,1.5,1.5c0,0.8-0.7,1.5-1.5,1.5c-0.2,0-0.5-0.1-0.7-0.2
		c-1.1,2-1.8,3.9-2.1,5.9c0.3-0.1,0.7-0.2,1-0.2c0.9,0,1.7,0.4,2.2,1.1c0-0.4-0.1-0.8-0.1-1.2c-0.1,0-0.2,0-0.2,0c-0.6,0-1-0.5-1-1
		c0-0.6,0.4-1.1,1-1.1c0.6,0,1,0.5,1,1.1c0,0.3-0.2,0.6-0.4,0.8c0.2,2.2,0.6,4.6,0.9,6.6c0,0.2,0.1,0.4,0.1,0.6
		c0.2-0.6,0.3-1.1,0.4-1.8c0.4-2.1,0.5-4.4,0.5-6.6c-1.1,0-2-0.9-2-2.1c0-1.2,0.9-2.1,2.1-2.1c1.1,0,2.1,0.9,2.1,2.1
		c0,1-0.7,1.9-1.7,2.1c-0.1,2.4-0.1,4.9-0.7,7.2c-0.2,0.8-0.4,1.5-0.7,2.2c0,0.9-0.1,1.3-0.4,1.8c1.1-0.5,2.1-1.1,2.9-3.8
		c0.1-0.3,0.1-0.5,0.2-0.8c-0.5-0.4-0.8-1.1-0.8-1.8c0-0.9,0.5-1.7,1.2-2.1c0.1-0.8,0.2-1.5,0.3-2.3c0.2-1,0.5-2,0.7-3
		c-0.4-0.3-0.6-0.7-0.6-1.2c0-0.8,0.7-1.5,1.5-1.5c0.8,0,1.5,0.7,1.5,1.5c0,0.8-0.7,1.5-1.5,1.5c-0.2,0-0.3,0-0.5-0.1
		c-0.2,1-0.5,1.9-0.7,2.9c-0.2,0.7-0.2,1.4-0.3,2c0.2-0.1,0.5-0.1,0.7-0.1c1.3,0,2.4,1.1,2.4,2.4c0,1.1-0.7,2-1.7,2.3
		c-0.1,0.2-0.1,0.4-0.2,0.6c-0.7,2.6-1.6,3.8-2.5,4.3c0.5-0.1,0.9-0.3,1.1-0.4c2.5-1.2,3.6-3.9,4.3-6.6c-0.4-0.5-0.7-1.1-0.7-1.8
		c0-1.5,1.2-2.8,2.8-2.8c1.5,0,2.8,1.3,2.8,2.8c0,1.5-1.2,2.8-2.8,2.8c-0.7,0-1.2-0.2-1.7-0.6c-0.8,2.7-1.9,5.3-4.5,6.6
		c-0.6,0.3-1.8,0.6-2.9,0.7c1.5,0.2,3,0.5,4.5,0.2c1.2-0.2,2.3-1,3.3-1.9c-0.4-0.4-0.6-0.9-0.6-1.5c0-1.2,0.9-2.1,2.1-2.1
		c1.1,0,2,0.9,2,2.1c0,1.2-0.9,2.1-2,2.1c-0.4,0-0.8-0.1-1.1-0.3c-3.2,3.4-6.1,1.8-9.4,1.7c-0.5,0-1-0.1-1.4-0.1l-1,2
		c-1.4,2.8-3.2,5.2-4.7,7.7c-1.3,2.1-2.3,4.3-3.2,6.5c0.9,0.6,1.8,1.3,2.8,2c5.7,4.2,12.6,10.2,19.5,21c2.3-4.1,4.3-7,6.3-9.3
		c-0.4-0.7-0.7-1.4-1.1-2c-1.3-2-2.7-4-3.8-6.2l-0.8-1.6c-0.3,0-0.7,0.1-1.1,0.1c-2.7,0.1-5,1.4-7.5-1.4c-0.3,0.2-0.6,0.3-0.9,0.3
		c-0.9,0-1.6-0.8-1.6-1.7s0.7-1.7,1.6-1.7c0.9,0,1.7,0.7,1.7,1.7c0,0.5-0.2,0.9-0.5,1.2c0.7,0.7,1.7,1.3,2.6,1.5
		c1.2,0.3,2.4,0,3.6-0.1c-0.9-0.1-1.9-0.3-2.4-0.6c-2.1-1-2.9-3.2-3.6-5.3c-0.4,0.3-0.8,0.5-1.4,0.5c-1.2,0-2.2-1-2.2-2.2
		c0-1.2,1-2.2,2.2-2.2c1.2,0,2.2,1,2.2,2.2c0,0.6-0.2,1.1-0.6,1.5c0.6,2.1,1.5,4.3,3.5,5.3c0.2,0.1,0.5,0.2,0.9,0.3
		c-0.8-0.4-1.5-1.3-2-3.4c0-0.1-0.1-0.3-0.1-0.4c-0.8-0.3-1.3-1-1.3-1.8c0-1.1,0.9-1.9,1.9-1.9c0.2,0,0.4,0,0.6,0.1
		c-0.1-0.5-0.1-1.1-0.2-1.6c-0.1-0.8-0.3-1.6-0.5-2.3c-0.1,0.1-0.2,0.1-0.4,0.1c-0.6,0-1.2-0.5-1.2-1.2c0-0.7,0.5-1.2,1.2-1.2
		c0.6,0,1.2,0.5,1.2,1.2c0,0.4-0.2,0.7-0.5,1c0.2,0.8,0.4,1.6,0.6,2.4c0.1,0.7,0.2,1.3,0.2,1.9c0.6,0.4,1,1,1,1.7
		c0,0.6-0.2,1.1-0.6,1.4c0,0.2,0.1,0.4,0.1,0.6c0.6,2.2,1.4,2.7,2.3,3.1c-0.3-0.3-0.4-0.7-0.3-1.4c-0.2-0.5-0.4-1.1-0.5-1.7
		c-0.4-1.9-0.5-3.9-0.5-5.8c-0.8-0.1-1.4-0.8-1.4-1.7c0-0.9,0.7-1.7,1.7-1.7c0.9,0,1.7,0.8,1.7,1.7c0,0.9-0.7,1.7-1.6,1.7
		c0,1.8,0.1,3.6,0.4,5.3c0.1,0.5,0.2,1,0.3,1.4c0-0.2,0-0.3,0.1-0.5c0.2-1.6,0.6-3.6,0.7-5.3c-0.2-0.1-0.3-0.4-0.3-0.7
		c0-0.5,0.4-0.9,0.8-0.9c0.5,0,0.8,0.4,0.8,0.9c0,0.5-0.3,0.8-0.8,0.8c0,0-0.1,0-0.2,0c0,0.3,0,0.6-0.1,1c0.4-0.5,1-0.9,1.7-0.9
		c0.3,0,0.5,0,0.8,0.1c-0.3-1.6-0.9-3.1-1.7-4.7c-0.1,0.1-0.3,0.1-0.5,0.1c-0.6,0-1.2-0.5-1.2-1.2s0.5-1.2,1.2-1.2
		c0.6,0,1.2,0.5,1.2,1.2c0,0.3-0.1,0.7-0.4,0.9v0c0.9,1.7,1.5,3.4,1.8,5.1c0.1,0,0.1,0.1,0.2,0.2c0-0.2,0.1-0.3,0.1-0.5
		c0-0.1-0.1-0.3-0.1-0.5c0-0.3,0.1-0.6,0.2-0.8c0-0.3,0-0.6,0-0.9c0-0.2,0-0.4,0-0.6c-0.7-0.2-1.3-0.9-1.3-1.7
		c0-0.9,0.7-1.7,1.7-1.7c0.2,0,0.4,0,0.6,0.1c2-4.1,4.4-7.3,7-9.9c1-1,2.1-2,3.3-2.9c-0.6-1.4-1.3-2.8-2.1-4.1
		c-1.5-2.4-3.1-4.7-4.4-7.3l-0.9-1.9c-0.4,0-0.8,0.1-1.3,0.1c-3.1,0.1-5.8,1.6-8.7-1.6c-0.3,0.2-0.7,0.3-1.1,0.3c-1,0-1.9-0.9-1.9-2
		c0-1.1,0.9-2,1.9-2c1.1,0,1.9,0.9,1.9,2c0,0.6-0.2,1.1-0.6,1.4c0.9,0.9,1.9,1.5,3,1.8c1.4,0.3,2.8,0,4.2-0.2
		c-1.1-0.1-2.2-0.4-2.7-0.7c-2.4-1.2-3.4-3.7-4.1-6.2c-0.4,0.4-1,0.6-1.6,0.6c-1.4,0-2.6-1.1-2.6-2.6c0-1.4,1.1-2.6,2.6-2.6
		c1.4,0,2.6,1.2,2.6,2.6c0,0.6-0.3,1.3-0.7,1.7c0.7,2.5,1.7,5.1,4,6.2c0.2,0.1,0.6,0.2,1.1,0.4c-0.9-0.5-1.7-1.5-2.4-4
		c-0.1-0.1-0.1-0.3-0.1-0.5c-0.9-0.3-1.6-1.1-1.6-2.1c0-1.3,1-2.3,2.2-2.3c0.2,0,0.5,0,0.7,0.1c-0.1-0.6-0.1-1.3-0.3-1.9
		c-0.2-0.9-0.4-1.8-0.6-2.7c-0.1,0.1-0.3,0.1-0.4,0.1c-0.7,0-1.4-0.6-1.4-1.4c0-0.8,0.6-1.4,1.4-1.4c0.7,0,1.4,0.6,1.4,1.4
		c0,0.4-0.2,0.9-0.6,1.1c0.2,0.9,0.5,1.9,0.7,2.8c0.1,0.8,0.2,1.5,0.3,2.2c0.7,0.4,1.1,1.1,1.1,2c0,0.6-0.3,1.3-0.7,1.7
		c0,0.2,0.1,0.5,0.1,0.7c0.7,2.6,1.7,3.2,2.6,3.6c-0.3-0.4-0.4-0.8-0.4-1.6c-0.3-0.6-0.4-1.3-0.6-2c-0.5-2.2-0.5-4.5-0.6-6.8
		c-0.9-0.2-1.6-1-1.6-1.9c0-1.1,0.9-2,1.9-2c1.1,0,1.9,0.9,1.9,2c0,1.1-0.8,1.9-1.9,2c0.1,2.1,0.1,4.2,0.5,6.2
		c0.1,0.6,0.2,1.1,0.4,1.7c0-0.2,0.1-0.4,0.1-0.5c0.3-1.9,0.7-4.2,0.8-6.2c-0.2-0.2-0.4-0.5-0.4-0.8c0-0.6,0.4-1,0.9-1
		c0.5,0,0.9,0.4,0.9,1c0,0.5-0.4,1-0.9,1c-0.1,0-0.1,0-0.2,0c0,0.4-0.1,0.7-0.1,1.1c0.5-0.6,1.2-1,2-1c0.3,0,0.6,0.1,0.9,0.2
		c-0.3-1.8-1-3.7-2-5.5c-0.2,0.1-0.4,0.1-0.6,0.1c-0.7,0-1.4-0.6-1.4-1.4c0-0.8,0.6-1.4,1.4-1.4c0.7,0,1.4,0.6,1.4,1.4
		C-417,324.4-417.1,324.7-417.4,325z"/>
</g>
<g id="SPLINE_1132_">
	<path class="st0" d="M-389.2,407.2v-35.1c-1.4,1.5-2.7,2.5-4,3.5c-0.6,0.5-1.3,1-1.9,1.4c0,3.4,0.1,6.6,0.1,9.8
		c0.1,6.5-0.3,13-0.5,19.5c0,0.3,0,0.5,0,0.8H-389.2z"/>
</g>
<g id="SPLINE_1131_">
	<path class="st0" d="M-389.2,369v-28.4c-3,2.1-5.5,3.9-7.6,5.5c1.4,9.4,1.6,19.2,1.7,28.5c0.2-0.1,0.3-0.3,0.5-0.4
		C-392.9,372.9-391.1,371.4-389.2,369z"/>
</g>
<g id="SPLINE_1130_">
	<path class="st0" d="M-389.2,339.4v-26.8c-4.6,0.3-9.4,0.5-13.5,1.2c-2.1,0.4-4,0.8-5.8,1.4c0.6,0.9,1.3,1.8,1.8,2.6
		c5.2,8,8.1,17.4,9.6,27.4C-394.2,343.2-391.4,341.2-389.2,339.4z"/>
</g>
<g id="SPLINE_1129_">
	<path class="st0" d="M-389.2,310.8v-5.8c-0.7,0.7-1.6,1.1-2.7,1.1c-1,0-1.9-0.4-2.6-1c-3.3,2.3-6.8,2.3-10.9,0.9
		c-2.1-0.7-4.4-1.9-6.4-1.9c-0.7,0-1.5,0.1-2.3,0.2l1.2,3.4c0.7,1.8,1.9,3.7,3.2,5.6c1.6-0.5,3.3-0.9,5.2-1.2
		C-399.9,311.4-394.4,311.1-389.2,310.8z"/>
</g>
<g id="SPLINE_1128_">
	<path class="st0" d="M-389.2,299.2v-34.1c-4.1,3-7.2,5.4-10.1,7.6c-3,2.3-5.9,4.4-7.8,6.7c0.1,0.3,0.1,0.6,0.1,0.9
		c0,1.7-1.4,3.1-3,3.1c0,0-0.1,0-0.1,0c0,0.3,0,0.6,0,1c0,0.3,0,0.6,0,0.9c0.4-0.3,0.9-0.5,1.4-0.5c1.4,0,2.5,1.2,2.5,2.6
		c0,1.2-0.8,2.3-2,2.5c-0.5,3.7-1.1,5.7-4.1,8.9l-0.1,0.1c-0.2,0.7-0.5,1.4-0.8,2.1c0.4-0.3,1.2-0.5,2.8-1.2c2.3-1,3.8-2.9,5.1-5
		c0.2-0.4,0.4-0.8,0.7-1.2c-0.8-0.3-1.2-1.1-1.2-2c0-1.2,0.9-2.1,2.1-2.1c0.4,0,0.8,0.1,1.2,0.4c0.1-1,0.2-2,0.4-3
		c0.1-1.6,0.2-3.3,0.3-4.9c-1-0.2-1.7-1.1-1.7-2.1c0-1.2,0.9-2.1,2.1-2.1c1.2,0,2.1,1,2.1,2.1c0,1.1-0.8,2-1.8,2.1
		c0,0.8,0,1.5-0.1,2.3c-0.1,2.2-0.3,4.2-0.6,6.1c0.3,0.4,0.4,0.8,0.4,1.3c0,0.9-0.5,1.6-1.2,2c-0.8,2.2-2,4.2-3.9,6.1
		c-0.8,0.9-1.8,1.5-2.8,2c0.1,0,0.1,0,0.2,0c0.6-0.2,1.2-0.5,1.7-0.8c3.6-2.2,6-6.7,7.7-11.1c-0.6-0.7-1-1.6-1-2.6
		c0-2.2,1.7-3.9,3.8-3.9c2.1,0,3.9,1.7,3.9,3.9s-1.7,3.9-3.9,3.9c-0.9,0-1.7-0.3-2.4-0.8c-1.7,4.5-4.3,9-7.8,11.2
		c-0.4,0.3-0.8,0.5-1.1,0.6c0.8,0.3,1.3,0.5,1.9,0.8c0.1,0,0.2,0,0.3,0c4.3-0.5,5.2-2,7.3-4.9c-0.6-0.5-1-1.4-1-2.3c0-1.7,1.4-3,3-3
		c1.6,0,3,1.4,3,3c0,1.7-1.4,3.1-3,3.1c-0.6,0-1.1-0.1-1.6-0.4c-1.3,1.7-2.6,3.5-4.3,4.3c-0.8,0.4-1.5,0.6-2.3,0.7
		c0.6,0.1,1.3,0.2,2.2,0.1c0.6,0,1.3-0.2,2.1-0.4c0-1.1,0.9-2.1,2.1-2.1c1.2,0,2.1,1,2.1,2.1s-0.9,2.1-2.1,2.1c-0.9,0-1.7-0.6-2-1.5
		c-1.1,0.3-2.3,0.4-3.5,0.3c-1.2-0.1-1.9-0.3-2.5-0.5c-1.1,0.1-2.2,0.1-3.2,0.2c1.8,0.4,3.6,1.3,5.5,1.9c3.6,1.2,6.8,1,9.6-0.9
		c-0.6-0.7-0.9-1.6-0.9-2.6c0-2.2,1.7-4,3.9-4C-390.8,298.1-389.9,298.5-389.2,299.2z"/>
</g>
<g id="SPLINE_1127_">
	<path class="st0" d="M-397.1,407.2c0.1-4.9,0.5-20.3,0.5-20.3c-0.2-2.7-0.4-5.5-0.5-8.3c-2.5,1.7-5,3.4-7.5,5
		c0.1,3.7,0.1,7.4,0.1,10.8c0.1,4-0.2,8-0.3,12c0,0.3,0,0.5,0,0.8H-397.1z"/>
</g>
<g id="SPLINE_1126_">
	<path class="st0" d="M-397.2,376.2c-0.3-9.5-0.3-19.3-1.4-28.8c-2.9,2.1-5.1,3.6-6.9,4.8c-1.5,1.1-2.7,1.9-3.7,2.7
		c3.4,7.9,4.2,17.3,4.5,26.3C-402.2,379.6-399.7,378-397.2,376.2z"/>
</g>
<g id="SPLINE_1125_">
	<path class="st0" d="M-403.8,293.8c0,0-0.1,0-0.1,0c-0.1,0-0.2,0-0.3,0c-0.2,0.5-0.5,0.9-0.8,1.3c-1.4,2.2-2.9,4.3-5.3,5.3
		c-0.2,0-4.4,1.6-3.7,2.6c0.2-0.1,0.4-0.2,0.6-0.2c2-1.1,4.4-1.7,6.5-4C-405.4,297.1-404.4,295.5-403.8,293.8z"/>
</g>
<g id="SPLINE_1124_">
	<path class="st0" d="M-405.9,407.2c0.1-4.7,0.3-12.8,0.3-12.8c-0.2-3.2-0.3-6.5-0.4-9.9c-1,0.6-1.9,1.2-2.9,1.9
		c-0.1,0.1-0.3,0.2-0.4,0.3c-2.5,1.7-5.1,3.5-7.9,6.7c1.9,4,2.9,8.5,3.5,13.1c0,0.3,0.1,0.5,0.1,0.8H-405.9z"/>
</g>
<g id="SPLINE_1123_">
	<g>
		<path class="st1" d="M-418.2,391.2c-0.4-0.6-0.7-1.2-1.1-1.8c-0.3-0.4-0.6-0.9-0.9-1.3c-1-1.3-2-2.8-2.6-4.2l-0.6-1.7
			c0.4-0.1,0.8-0.1,1.1-0.1c0.8,0,1.7,0.3,2.6,0.7c0.3,0.1,0.7,0.3,1,0.4c1.1,0.4,2,0.5,2.9,0.5c1.2,0,2.2-0.3,3.2-1
			c0.4,0.3,0.9,0.5,1.4,0.5c1.3,0,2.3-1.1,2.3-2.4c0-1.3-1-2.3-2.3-2.3c-1.3,0-2.3,1-2.3,2.3c0,0.5,0.1,1,0.4,1.4
			c-0.9,0.6-1.8,0.8-2.8,0.8c-0.7,0-1.5-0.1-2.4-0.4c-0.4-0.1-0.9-0.3-1.3-0.4c-0.4-0.1-0.7-0.3-1.1-0.4c0.1,0,0.1,0,0.2,0
			c0.3,0,0.6,0,0.9-0.1c0.3,0.1,0.7,0.2,1.4,0.3c0.1,0,0.3,0,0.4,0c0.5,0,0.9-0.1,1.4-0.2c0.2,0.5,0.7,0.8,1.2,0.8
			c0.7,0,1.3-0.6,1.3-1.3c0-0.7-0.6-1.3-1.3-1.3c-0.7,0-1.2,0.5-1.3,1.2c-0.5,0.1-0.8,0.2-1,0.2c-0.1,0-0.2,0-0.3,0
			c-0.1,0-0.2,0-0.2,0c0.2-0.1,0.4-0.1,0.6-0.2c0.9-0.4,1.6-1.3,2.3-2.1l0.1-0.2c0.2,0.1,0.5,0.2,0.8,0.2c1,0,1.8-0.8,1.8-1.8
			c0-1-0.8-1.8-1.8-1.8s-1.8,0.8-1.8,1.8c0,0.5,0.2,0.9,0.5,1.3l-0.1,0.2c-1.1,1.4-1.6,2.1-3.8,2.4c0,0,0,0,0,0c0,0-0.1,0-0.1,0
			l-0.2-0.1c-0.2-0.1-0.3-0.1-0.5-0.2c0.1-0.1,0.2-0.1,0.4-0.2c2.1-1.3,3.5-4,4.4-6.1c0.4,0.2,0.8,0.4,1.3,0.4c1.3,0,2.3-1,2.3-2.3
			c0-1.3-1-2.3-2.3-2.3c-1.2,0-2.3,1-2.3,2.3c0,0.5,0.2,1.1,0.6,1.5c-1.1,2.7-2.3,4.5-3.7,5.6c0,0,0.1-0.1,0.1-0.1
			c1-0.9,1.7-2,2.2-3.3c0.4-0.2,0.7-0.7,0.7-1.2c0-0.3-0.1-0.5-0.2-0.7c0.2-1.1,0.3-2.2,0.3-3.3c0-0.2,0-0.4,0-0.6
			c0-0.2,0-0.3,0-0.5c0.6-0.1,1-0.7,1-1.3c0-0.7-0.6-1.3-1.3-1.3s-1.3,0.6-1.3,1.3c0,0.6,0.4,1.1,1,1.3c0,0.9-0.1,1.7-0.1,2.6
			c0,0.2-0.1,0.5-0.1,0.7c0,0.2-0.1,0.5-0.1,0.7c-0.2-0.1-0.4-0.1-0.5-0.1c-0.7,0-1.3,0.6-1.3,1.3c0,0.5,0.2,0.9,0.6,1.1
			c-0.1,0.1-0.3,0.5-0.3,0.5c-0.6,1-1.5,2.2-2.8,2.7c-0.3,0.1-0.5,0.2-0.7,0.3c-0.2,0.1-0.4,0.2-0.5,0.2c0.1-0.3,0.2-0.6,0.3-0.9
			c1.8-1.8,2.1-2.9,2.4-4.9c0.7-0.2,1.1-0.8,1.1-1.5c0-0.9-0.7-1.6-1.5-1.6c-0.2,0-0.5,0.1-0.7,0.2V371c0-0.2,0-0.3,0-0.4
			c1-0.1,1.7-0.9,1.7-1.8c0-0.3-0.1-0.6-0.2-0.9c1.5-2.9,4.5-6.7,6.7-9.1c1.1-1.2,2-2.1,3-2.9c3.1,7.9,3.6,16.6,3.8,26.3
			c-1.4,0.9-2.8,1.8-4.2,2.7l-0.4,0.2C-413.3,386.7-415.7,388.4-418.2,391.2z"/>
		<path class="st2" d="M-410.1,356c3,7.8,3.5,16.4,3.7,26c-1.4,0.9-2.7,1.8-4.1,2.7l-0.4,0.3c-2.4,1.6-4.8,3.3-7.3,6
			c-0.3-0.6-0.7-1.1-1-1.7c-0.3-0.4-0.6-0.9-0.9-1.3c-1-1.3-2-2.8-2.6-4.2l-0.6-1.6c0.4-0.1,0.7-0.1,0.9-0.1c0.8,0,1.7,0.3,2.5,0.7
			c0.3,0.1,0.7,0.3,1,0.4c1.1,0.4,2.1,0.6,3,0.6c1.2,0,2.2-0.3,3.2-1c0.4,0.3,0.9,0.5,1.5,0.5c1.4,0,2.5-1.1,2.5-2.5
			c0-1.4-1.1-2.5-2.5-2.5c-1.4,0-2.4,1.1-2.4,2.5c0,0.5,0.1,1,0.4,1.4c-0.8,0.5-1.7,0.7-2.6,0.7c-0.7,0-1.5-0.1-2.3-0.4
			c-0.4-0.1-0.8-0.3-1.3-0.4c-0.2-0.1-0.3-0.1-0.5-0.2c0.1,0,0.3,0,0.4,0c0.4,0.1,0.8,0.2,1.4,0.3c0.1,0,0.3,0,0.4,0
			c0.4,0,0.9,0,1.4-0.1c0.2,0.5,0.7,0.8,1.3,0.8c0.8,0,1.4-0.6,1.4-1.4c0-0.8-0.6-1.4-1.4-1.4c-0.3,0-0.5,0.1-0.7,0.2
			c0.3-0.3,0.5-0.6,0.8-1l0.1-0.1c0.2,0.1,0.5,0.2,0.8,0.2c1.1,0,1.9-0.9,1.9-2c0-1.1-0.9-1.9-1.9-1.9c-1.1,0-1.9,0.9-1.9,1.9
			c0,0.5,0.2,0.9,0.5,1.3l-0.1,0.1c-1,1.4-1.6,2.1-3.7,2.4c-0.1,0-0.1,0-0.1,0l-0.2-0.1c-0.1,0-0.2-0.1-0.3-0.1
			c0.1,0,0.1-0.1,0.2-0.1c2.1-1.3,3.5-3.9,4.4-6c0.4,0.2,0.8,0.3,1.2,0.3c1.3,0,2.4-1.1,2.4-2.4s-1.1-2.4-2.4-2.4
			c-1,0-1.8,0.6-2.2,1.5c0-0.2,0-0.4,0-0.7c0-0.2,0-0.4,0-0.6c0-0.1,0-0.3,0-0.4c0.6-0.2,1-0.7,1-1.4c0-0.8-0.6-1.4-1.4-1.4
			c-0.8,0-1.4,0.6-1.4,1.4c0,0.6,0.4,1.2,1,1.4c0,0.8-0.1,1.7-0.1,2.5c0,0.3-0.1,0.5-0.1,0.7c0,0.2,0,0.4-0.1,0.6
			c-0.1-0.1-0.3-0.1-0.4-0.1c-0.8,0-1.4,0.6-1.4,1.4c0,0.5,0.2,0.9,0.6,1.2c0,0.1-0.1,0.1-0.1,0.2c0,0.1-0.1,0.2-0.1,0.2
			c-0.6,1-1.5,2.1-2.7,2.7c-0.3,0.1-0.5,0.2-0.7,0.3c-0.1,0-0.2,0.1-0.3,0.1c0.1-0.2,0.1-0.4,0.2-0.5l0,0c1.7-1.7,2.1-2.9,2.4-4.9
			c0.7-0.2,1.1-0.8,1.1-1.6c0-0.9-0.7-1.7-1.6-1.7c-0.2,0-0.4,0-0.5,0.1V371c0-0.1,0-0.2,0-0.3c1-0.1,1.7-0.9,1.7-1.9
			c0-0.3-0.1-0.6-0.2-0.9c1.5-2.9,4.5-6.7,6.7-9C-411.9,357.7-411.1,356.8-410.1,356 M-416.6,373.1c0.1,0.4,0.2,0.7,0.5,1
			c-0.1,0.4-0.3,0.7-0.4,1c0,0,0,0,0,0c0-0.3-0.1-0.5-0.2-0.8C-416.7,373.9-416.6,373.5-416.6,373.1 M-417.1,376.2
			c-0.2,0.3-0.4,0.7-0.6,1c0.1-0.3,0.2-0.5,0.3-0.8C-417.2,376.3-417.1,376.2-417.1,376.2 M-416.3,380.7c-0.1,0.1-0.1,0.3-0.1,0.5
			c-0.3,0.1-0.6,0.1-0.8,0.2C-416.9,381.1-416.6,380.9-416.3,380.7 M-410,355.6c-1,0.9-2,1.8-3.1,3.1c-2.3,2.5-5.3,6.3-6.8,9.2
			c0.2,0.3,0.3,0.6,0.3,0.9c0,1-0.8,1.7-1.7,1.7h-0.1c0,0.2,0,0.4,0,0.6v0.5c0.2-0.2,0.5-0.3,0.8-0.3c0.8,0,1.4,0.6,1.4,1.4
			c0,0.7-0.5,1.3-1.1,1.4c-0.3,2-0.6,3.1-2.3,4.9l0,0.1c-0.1,0.4-0.3,0.8-0.5,1.2c0.2-0.2,0.7-0.3,1.5-0.7c1.3-0.5,2.1-1.6,2.8-2.8
			c0.1-0.2,0.2-0.4,0.4-0.7c-0.4-0.2-0.7-0.6-0.7-1.1c0-0.6,0.5-1.2,1.2-1.2c0.2,0,0.4,0.1,0.6,0.2c0.1-0.5,0.1-1.1,0.2-1.7
			c0.1-0.9,0.1-1.8,0.1-2.7c-0.5-0.1-1-0.6-1-1.2c0-0.7,0.5-1.2,1.2-1.2s1.2,0.5,1.2,1.2c0,0.6-0.4,1.1-1,1.2c0,0.4,0,0.9,0,1.3
			c-0.1,1.2-0.1,2.3-0.3,3.4c0.1,0.2,0.2,0.5,0.2,0.7c0,0.5-0.3,0.9-0.7,1.1c-0.4,1.2-1.1,2.3-2.2,3.4c-0.5,0.5-1,0.8-1.6,1.1
			c0,0,0.1,0,0.1,0c0.3-0.1,0.6-0.2,1-0.5c2-1.2,3.4-3.7,4.3-6.1c-0.3-0.4-0.6-0.9-0.6-1.5c0-1.2,1-2.2,2.1-2.2c1.2,0,2.2,1,2.2,2.2
			c0,1.2-1,2.2-2.2,2.2c-0.5,0-0.9-0.1-1.3-0.4c-0.9,2.5-2.4,4.9-4.4,6.2c-0.2,0.2-0.4,0.3-0.6,0.4c0.4,0.1,0.7,0.3,1,0.4
			c0,0,0.1,0,0.2,0c2.4-0.3,2.9-1.1,4.1-2.7c-0.3-0.3-0.5-0.8-0.5-1.3c0-0.9,0.8-1.7,1.7-1.7c0.9,0,1.7,0.8,1.7,1.7
			c0,1-0.8,1.7-1.7,1.7c-0.3,0-0.6-0.1-0.9-0.2c-0.7,1-1.5,2-2.4,2.4c-0.4,0.2-0.8,0.3-1.3,0.4c0.3,0,0.6,0.1,1,0.1
			c0.1,0,0.2,0,0.3,0c0.3,0,0.7-0.1,1.2-0.2c0-0.6,0.5-1.2,1.2-1.2c0.6,0,1.2,0.5,1.2,1.2c0,0.7-0.5,1.2-1.2,1.2
			c-0.5,0-1-0.4-1.1-0.8c-0.5,0.1-1,0.2-1.5,0.2c-0.1,0-0.3,0-0.4,0c-0.7,0-1-0.1-1.4-0.3c-0.6,0-1.2,0.1-1.8,0.1c1,0.2,2,0.7,3.1,1
			c0.8,0.3,1.6,0.4,2.4,0.4c1.1,0,2-0.3,3-0.9c-0.3-0.4-0.5-0.9-0.5-1.4c0-1.2,1-2.2,2.2-2.2c1.2,0,2.2,1,2.2,2.2
			c0,1.2-1,2.2-2.2,2.2c-0.5,0-1-0.2-1.4-0.6c-1,0.7-2.1,1-3.2,1c-0.9,0-1.9-0.2-2.9-0.5c-1.2-0.4-2.4-1.1-3.6-1.1
			c-0.4,0-0.8,0.1-1.3,0.1l0.7,1.9c0.7,1.8,2.4,3.9,3.5,5.5c0.4,0.6,0.8,1.3,1.2,2c2.7-2.9,5.1-4.6,7.5-6.2c0.1-0.1,0.3-0.2,0.4-0.3
			c1.4-0.9,2.8-1.9,4.2-2.8C-406.4,373.1-406.8,363.8-410,355.6L-410,355.6z"/>
	</g>
</g>
<g id="SPLINE_1122_">
	<path class="st0" d="M-408.1,303c-0.4-0.2-0.8-0.4-1.3-0.5c0,0,0,0-0.1,0c-0.5,0.1-1,0.2-1.9,0.4c-0.6,0.1-1,0.3-1.5,0.4
		c-0.1,0.1-0.2,0.1-0.3,0.2C-411.4,303.1-409.8,303.1-408.1,303z"/>
</g>
<g id="SPLINE_1121_">
	<path class="st0" d="M-412,297.4c2.2-2.5,2.7-4.4,3.2-7.5c-0.7,0-1.3-0.4-1.7-0.9c0,0.2-0.1,0.4-0.2,0.6c0.6,0.7,1,1.6,1,2.6
		c0,1.4-0.8,2.7-1.9,3.4C-411.7,296.3-411.9,296.8-412,297.4z"/>
</g>
<g id="SPLINE_1120_">
	<path class="st0" d="M-410.2,334.2C-410.3,334.2-410.3,334.2-410.2,334.2c-0.1,0-0.2,0-0.3,0c-0.1,0.3-0.3,0.6-0.5,0.9
		c-0.9,1.4-1.9,2.8-3.4,3.4c-0.1,0-2.8,1.1-2.4,1.7c0.1-0.1,0.3-0.1,0.4-0.1c1.3-0.7,2.8-1.1,4.2-2.6
		C-411.3,336.3-410.6,335.2-410.2,334.2z"/>
</g>
<g id="SPLINE_1119_">
	<path class="st0" d="M-413,298.5c0.3-0.8,0.5-1.6,0.7-2.5c-0.3,0.1-0.6,0.2-1,0.3c-0.5,1.2-1.1,2.5-1.2,3.8
		C-414.2,299.7-413.7,299.2-413,298.5z"/>
</g>
<g id="SPLINE_1118_">
	<path class="st0" d="M-413,340.1c-0.2-0.1-0.5-0.2-0.9-0.4c0,0,0,0-0.1,0c-0.3,0.1-0.7,0.1-1.2,0.3c-0.4,0.1-0.7,0.2-0.9,0.3
		c-0.1,0.1-0.1,0.1-0.2,0.1C-415.2,340.2-414.1,340.2-413,340.1z"/>
</g>
<g id="SPLINE_1117_">
	<path class="st0" d="M-414.5,301.9c0.4-0.7,0.7-1.4,1-2c-0.5,0.5-0.9,0.9-1.1,1.4C-414.6,301.5-414.5,301.7-414.5,301.9z"/>
</g>
<g id="SPLINE_1116_">
	<path class="st0" d="M-415.6,336.5c1.4-1.6,1.8-2.8,2-4.9c-0.5,0-0.9-0.2-1.1-0.6c0,0.1-0.1,0.3-0.1,0.4c0.4,0.5,0.6,1.1,0.6,1.7
		c0,0.9-0.5,1.7-1.2,2.2C-415.4,335.8-415.5,336.1-415.6,336.5z"/>
</g>
<g id="SPLINE_1115_">
	<path class="st0" d="M-421.6,407.2h6.8c0-0.3-0.1-0.5-0.1-0.8c-0.5-4.3-1.3-8.5-3-12.4c-1.9,2.3-3.9,5.2-6.1,9.1
		C-423.2,404.4-422.4,405.8-421.6,407.2z"/>
</g>
<g id="SPLINE_1114_">
	<path class="st0" d="M-416.2,337.2c0.2-0.5,0.3-1.1,0.4-1.6c-0.2,0.1-0.4,0.1-0.6,0.2c-0.3,0.8-0.7,1.6-0.8,2.5
		C-417,338-416.6,337.7-416.2,337.2z"/>
</g>
<g id="SPLINE_1113_">
	<path class="st0" d="M-416.7,242.8h-68.2v51.8c7.1,5.8,12.2,10.9,16.8,15.6c1.8-4.9,4.1-9.6,6.9-13.9c2.6-3.8,6.3-8.4,7.8-12.6
		l1.6-4.2c-1-0.2-1.9-0.3-2.8-0.3c-2.6,0-5.4,1.5-8.1,2.4c-5.1,1.8-9.5,1.8-13.7-1.1c-0.9,0.7-2,1.3-3.2,1.3c-2.7,0-4.9-2.3-4.9-5.1
		s2.2-5,4.9-5c2.7,0,4.9,2.2,4.9,5c0,1.3-0.4,2.3-1.1,3.2c3.6,2.4,7.5,2.6,12.1,1.1c2.3-0.7,4.6-1.8,6.8-2.3
		c-1.3-0.1-2.7-0.2-4.1-0.3c-0.8,0.3-1.6,0.5-3.1,0.6c-1.5,0.1-2.9-0.1-4.3-0.4c-0.3,1.1-1.3,1.9-2.5,1.9c-1.4,0-2.6-1.2-2.6-2.7
		c0-1.5,1.2-2.7,2.6-2.7c1.4,0,2.6,1.2,2.6,2.6c0.9,0.3,1.9,0.5,2.6,0.5c1.2,0.1,2.1-0.1,2.8-0.2c-0.9-0.2-1.9-0.5-2.8-0.9
		c-2.1-0.9-3.7-3.2-5.4-5.3c-0.6,0.3-1.2,0.5-1.9,0.5c-2.1,0-3.8-1.7-3.8-3.9c0-2.1,1.7-3.8,3.8-3.8c2.1,0,3.8,1.7,3.8,3.8
		c0,1.1-0.5,2.2-1.2,2.8c2.7,3.6,3.8,5.5,9.1,6.1c0.2,0,0.3,0.1,0.4,0.1c0.7-0.3,1.4-0.6,2.3-1c-0.4-0.2-0.8-0.5-1.4-0.8
		c-4.4-2.8-7.7-8.4-9.8-14c-0.8,0.7-1.8,1-2.9,1c-2.7,0-4.8-2.2-4.8-4.9s2.2-4.9,4.8-4.9c2.6,0,4.8,2.2,4.8,4.9
		c0,1.3-0.5,2.4-1.3,3.3c2.1,5.5,5.2,11.1,9.7,13.9c0.7,0.5,1.4,0.8,2.2,1c0.1,0,0.2,0,0.3-0.1c-1.2-0.6-2.4-1.4-3.5-2.4
		c-2.4-2.3-3.9-4.9-4.9-7.6c-0.9-0.4-1.6-1.4-1.6-2.4c0-0.6,0.2-1.1,0.5-1.6c-0.4-2.4-0.6-4.9-0.8-7.7c-0.1-0.9-0.1-1.9-0.1-2.8
		c-1.3-0.2-2.3-1.3-2.3-2.7c0-1.5,1.2-2.7,2.6-2.7c1.4,0,2.6,1.2,2.6,2.7c0,1.3-0.9,2.4-2.2,2.7c0.1,2,0.2,4.1,0.3,6.1
		c0.2,1.3,0.3,2.6,0.4,3.8c0.4-0.3,0.9-0.5,1.4-0.5c1.4,0,2.6,1.2,2.6,2.7c0,1.1-0.6,2-1.6,2.4c0.3,0.5,0.6,1,0.9,1.5
		c1.6,2.6,3.5,5.1,6.3,6.3c1.9,0.8,2.9,1.1,3.4,1.5c-0.4-0.9-0.8-1.8-1.1-2.7l-0.1-0.1c-3.8-4-4.6-6.5-5.2-11.1
		c-1.4-0.3-2.5-1.6-2.5-3.1c0-1.8,1.4-3.2,3.1-3.2c0.7,0,1.3,0.2,1.8,0.6c0-0.3,0-0.7,0-1.1c0-0.5,0-0.9,0.1-1.3c-0.1,0-0.1,0-0.2,0
		c-2.1,0-3.8-1.7-3.8-3.9c0-2.1,1.7-3.9,3.8-3.9c2.1,0,3.8,1.8,3.8,3.9c0,1.8-1.2,3.4-2.8,3.8c-0.1,0.5-0.1,0.9-0.1,1.4
		c0,0.7,0,1.4,0.1,2c0.3,0.5,0.6,1.1,0.6,1.8c0,0.4-0.1,0.8-0.2,1.1c0.1,0.3,0.2,0.7,0.2,1.1c0.2-0.1,0.3-0.2,0.4-0.3
		c0.6-3.8,2-7.7,4.1-11.5v-0.1c-0.5-0.5-0.8-1.2-0.8-1.9c0-1.5,1.2-2.7,2.7-2.7c1.4,0,2.6,1.2,2.6,2.7c0,1.5-1.2,2.7-2.6,2.7
		c-0.4,0-0.8-0.1-1.2-0.3c-1.9,3.6-3.2,7.2-3.8,10.7c0.6-0.2,1.2-0.3,1.8-0.3c1.6,0,3,0.8,3.9,2c-0.1-0.7-0.1-1.4-0.2-2.2
		c-0.1,0.1-0.3,0.1-0.4,0.1c-1.1,0-1.8-0.9-1.8-1.9c0-1.1,0.8-1.9,1.8-1.9c1,0,1.8,0.9,1.8,1.9c0,0.6-0.3,1.1-0.7,1.5
		c0.3,3.9,1,8.3,1.6,12c0.1,0.3,0.1,0.7,0.2,1c0.3-1,0.6-2,0.8-3.2c0.7-3.8,0.8-8,0.9-12c-2-0.1-3.6-1.7-3.6-3.8
		c0-2.1,1.7-3.8,3.7-3.8c2.1,0,3.7,1.7,3.7,3.8c0,1.9-1.3,3.4-3.1,3.8c-0.1,4.4-0.2,8.9-1.2,13.1c-0.3,1.5-0.7,2.8-1.2,3.9
		c0.1,1.6-0.2,2.4-0.8,3.2c1.9-0.9,3.8-2,5.1-7c0.1-0.5,0.2-0.9,0.3-1.4c-0.9-0.8-1.4-2-1.4-3.2c0-1.6,0.8-3.1,2.2-3.9
		c0.1-1.4,0.3-2.7,0.6-4.2c0.4-1.8,0.8-3.6,1.3-5.5c-0.7-0.5-1.1-1.3-1.1-2.2c0-1.5,1.2-2.7,2.7-2.7s2.6,1.2,2.6,2.7
		c0,1.5-1.2,2.7-2.6,2.7c-0.3,0-0.6-0.1-0.8-0.2c-0.4,1.8-0.9,3.5-1.2,5.3c-0.3,1.3-0.4,2.5-0.6,3.7c0.4-0.1,0.9-0.2,1.3-0.2
		c2.3,0,4.3,1.9,4.3,4.4c0,1.9-1.3,3.6-3,4.1c-0.1,0.4-0.2,0.7-0.3,1c-1.2,4.8-2.8,6.8-4.6,7.7c0.8-0.2,1.6-0.5,2.1-0.7
		c4.5-2.2,6.4-7.2,7.8-11.9c-0.8-0.9-1.3-2-1.3-3.3c0-2.8,2.2-5.1,4.9-5.1c1.2,0,2.3,0.4,3.2,1.2
		C-421.2,252.6-417.4,248-416.7,242.8z"/>
</g>
<g id="SPLINE_1112_">
	<path class="st0" d="M-417.2,339.4c0.2-0.4,0.5-0.9,0.6-1.3c-0.3,0.4-0.6,0.6-0.7,0.9C-417.2,339.2-417.2,339.3-417.2,339.4z"/>
</g>
<g id="SPLINE_1111_">
	<path class="st0" d="M-416.2,295.4c-0.5-0.4-0.9-1-1.2-1.6c-0.2,1.3-0.4,2.5-0.6,3.7c-0.1,0.8-0.2,1.5-0.2,2c0.4,1,0.9,1.9,1.6,2.7
		C-417.4,300-417.1,297.9-416.2,295.4z"/>
</g>
<g id="SPLINE_1110_">
	<path class="st0" d="M-416.8,335.8c-0.4,0-0.8-0.1-1.1-0.3c-0.6,1.6-0.8,3,0.1,4.6c0,0,0,0,0,0c0-0.5,0.1-0.8,0.2-1.1
		C-417.7,337.9-417.3,336.8-416.8,335.8z"/>
</g>
<g id="SPLINE_1109_">
	<path class="st0" d="M-417.9,376.2h-0.2c-0.1,0.3-0.3,0.5-0.4,0.7c-0.8,1.2-1.6,2.4-3,2.9c-0.1,0-2.5,0.9-2.1,1.4
		c0.1-0.1,0.2-0.1,0.3-0.1c1.1-0.6,2.5-1,3.6-2.2C-418.8,378-418.2,377.2-417.9,376.2z"/>
</g>
<g id="SPLINE_1108_">
	<path class="st0" d="M-418.3,335.2c-0.3-0.3-0.6-0.6-0.8-1c-0.1,0.8-0.3,1.6-0.4,2.4c-0.1,0.5-0.1,1-0.1,1.3
		c0.3,0.6,0.6,1.2,1.1,1.8C-419.1,338.2-418.8,336.8-418.3,335.2z"/>
</g>
<g id="SPLINE_1107_">
	<path class="st0" d="M-416.8,303.5c-1.8-1.1-4.3-0.9-5.8-6c-0.2-0.5-0.3-1-0.4-1.6c-0.5,0.3-1.1,0.5-1.8,0.5c-0.1,0-0.2,0-0.4,0
		c0.1,0.5,0.3,1,0.4,1.5C-422.7,304.4-420,302.8-416.8,303.5z"/>
</g>
<g id="SPLINE_1106_">
	<path class="st0" d="M-418.7,340.5c-1.1-0.7-2.8-0.6-3.8-3.9c-0.1-0.4-0.2-0.7-0.3-1c-0.3,0.2-0.7,0.3-1.1,0.3c-0.1,0-0.1,0-0.2,0
		c0.1,0.3,0.2,0.6,0.3,0.9C-422.5,341-420.7,340-418.7,340.5z"/>
</g>
<g id="SPLINE_1105_">
	<path class="st0" d="M-420.2,381.3c-0.2-0.1-0.4-0.2-0.7-0.3c0,0,0,0,0,0c-0.3,0.1-0.6,0.1-1,0.2c-0.3,0-0.6,0.2-0.8,0.2
		c0,0.1-0.1,0.1-0.2,0.1C-422.1,381.4-421.2,381.3-420.2,381.3z"/>
</g>
<g id="SPLINE_1104_">
	<path class="st0" d="M-422.5,378.2c1.2-1.4,1.5-2.4,1.8-4.1c-0.4,0-0.7-0.2-1-0.5c0,0.1,0,0.2-0.1,0.3c0.3,0.4,0.5,0.9,0.5,1.5
		c0,0.8-0.4,1.5-1,1.9C-422.3,377.6-422.4,377.9-422.5,378.2z"/>
</g>
<g id="SPLINE_1103_">
	<path class="st0" d="M-423,378.8c0.2-0.5,0.3-0.9,0.4-1.4c-0.2,0.1-0.3,0.1-0.5,0.2c-0.3,0.7-0.6,1.4-0.7,2.1
		C-423.7,379.5-423.4,379.2-423,378.8z"/>
</g>
<g id="SPLINE_1102_">
	<path class="st0" d="M-423.8,380.7c0.2-0.4,0.4-0.8,0.5-1.1c-0.3,0.3-0.5,0.5-0.6,0.8C-423.9,380.5-423.9,380.6-423.8,380.7z"/>
</g>
<g id="SPLINE_1101_">
	<path class="st0" d="M-426,407.2h2.2c-0.4-0.7-0.8-1.4-1.2-2C-425.3,405.8-425.7,406.5-426,407.2z"/>
</g>
<g id="SPLINE_1100_">
	<path class="st0" d="M-423.5,377.6c-0.3,0-0.7-0.1-0.9-0.3c-0.5,1.4-0.7,2.6,0.1,3.9c0,0,0,0,0,0c0-0.4,0-0.7,0.1-0.9
		C-424.3,379.4-423.9,378.5-423.5,377.6z"/>
</g>
<g id="SPLINE_1099_">
	<path class="st0" d="M-424.8,377.1c-0.3-0.2-0.5-0.5-0.7-0.9c-0.1,0.7-0.2,1.4-0.3,2c-0.1,0.5-0.1,0.8-0.1,1.1
		c0.2,0.6,0.5,1,0.9,1.5C-425.5,379.7-425.3,378.5-424.8,377.1z"/>
</g>
<g id="SPLINE_1098_">
	<path class="st0" d="M-425.1,381.6c-1-0.6-2.4-0.5-3.3-3.3c-0.1-0.3-0.2-0.6-0.2-0.9c-0.3,0.2-0.6,0.3-1,0.3c-0.1,0-0.1,0-0.2,0
		c0.1,0.3,0.1,0.5,0.2,0.8C-428.4,382.1-426.9,381.2-425.1,381.6z"/>
</g>
<g id="SPLINE_1097_">
	<path class="st0" d="M-428.1,407.2c0.7-1.4,1.3-2.7,2-3.9c-7-11.2-14-17.3-19.8-21.6c-0.7-0.5-1.4-1-2.1-1.5
		c-1.5,4.6-2.2,9.5-2.7,14.5c2.2,3,4.6,7,7.2,12.4H-428.1z"/>
</g>
<g id="SPLINE_1096_">
	<path class="st0" d="M-431.8,356.4c-0.1,0-0.2,0-0.2,0c-0.5,0-0.9-0.1-1.2-0.3c-0.1,0.4-0.2,0.7-0.3,1.1c-1.1,3.5-2.8,3.4-4.1,4.1
		c2.2-0.5,4.1,0.6,5.6-3.9C-432,357-431.9,356.7-431.8,356.4z"/>
</g>
<g id="SPLINE_1095_">
	<path class="st0" d="M-436.7,358.5c0-0.3-0.1-0.8-0.2-1.4c-0.1-0.8-0.3-1.7-0.4-2.5c-0.2,0.4-0.5,0.8-0.8,1.1
		c0.6,1.7,0.9,3.2,0.2,4.7C-437.4,359.8-437,359.2-436.7,358.5z"/>
</g>
<g id="SPLINE_1094_">
	<path class="st0" d="M-437.8,318.5c-0.1,0-0.2,0-0.3,0c-0.5,0-1-0.1-1.4-0.4c-0.1,0.4-0.2,0.8-0.3,1.3c-1.3,4.1-3.3,4-4.7,4.9
		c2.6-0.6,4.8,0.7,6.4-4.6C-438,319.3-437.9,318.9-437.8,318.5z"/>
</g>
<g id="SPLINE_1093_">
	<path class="st0" d="M-437.9,269.6c-0.2,0.1-0.3,0.1-0.4,0.1c-0.8,0-1.6-0.2-2.2-0.6c-0.1,0.7-0.3,1.3-0.5,2
		c-1.9,6.4-5.1,6.1-7.3,7.5c4-0.9,7.4,1.1,9.9-7.1C-438.2,270.8-438.1,270.2-437.9,269.6z"/>
</g>
<g id="SPLINE_1092_">
	<path class="st0" d="M-438.6,360.8c0.9-1.7,0.7-3.1,0.1-4.9c-0.3,0.2-0.7,0.3-1.2,0.3c0.5,1.1,0.9,2.3,0.9,3.4
		C-438.7,360-438.6,360.3-438.6,360.8C-438.6,360.8-438.6,360.8-438.6,360.8z"/>
</g>
<g id="SPLINE_1091_">
	<path class="st0" d="M-439.3,360.2c0-0.2,0.1-0.3,0.1-0.4c-0.1-0.3-0.4-0.6-0.7-0.9C-439.8,359.2-439.5,359.7-439.3,360.2z"/>
</g>
<g id="SPLINE_1090_">
	<path class="st0" d="M-439.2,358.9c-0.1-0.9-0.5-1.8-0.9-2.6c-0.2,0-0.5-0.1-0.7-0.2c0.1,0.6,0.2,1.1,0.5,1.7
		C-439.9,358.3-439.5,358.6-439.2,358.9z"/>
</g>
<g id="SPLINE_1089_">
	<path class="st0" d="M-439.6,360.9c0.5-0.7-2.5-1.8-2.6-1.8c-1.7-0.7-2.8-2.1-3.7-3.6c-0.2-0.3-0.4-0.6-0.6-0.9h-0.3
		c0.4,1.2,1.1,2.3,2.2,3.4c1.5,1.6,3.1,2,4.5,2.8C-439.9,360.8-439.8,360.8-439.6,360.9z"/>
</g>
<g id="SPLINE_1088_">
	<path class="st0" d="M-440.2,361.2c-0.1-0.1-0.2-0.1-0.2-0.2c-0.3-0.1-0.6-0.2-1-0.3c-0.6-0.1-1-0.2-1.3-0.3c0,0,0,0-0.1,0
		c-0.4,0.1-0.7,0.3-0.9,0.4C-442.6,361-441.4,361-440.2,361.2z"/>
</g>
<g id="SPLINE_1087_">
	<path class="st0" d="M-441,357.1c-0.1-0.4-0.2-0.8-0.2-1.2c-0.8-0.5-1.3-1.4-1.3-2.3c0-0.7,0.2-1.3,0.7-1.8
		c-0.1-0.1-0.1-0.3-0.1-0.4c-0.3,0.3-0.7,0.6-1.2,0.6C-442.9,354.1-442.6,355.3-441,357.1z"/>
</g>
<g id="SPLINE_1086_">
	<path class="st0" d="M-443.5,321c0-0.4-0.1-1-0.2-1.6c-0.1-0.9-0.3-1.9-0.5-3c-0.2,0.5-0.5,1-1,1.3c0.7,2,1,3.7,0.3,5.5
		C-444.2,322.5-443.8,321.8-443.5,321z"/>
</g>
<g id="SPLINE_1085_">
	<path class="st0" d="M-445.6,323.7c1.1-1.9,0.9-3.7,0.1-5.7c-0.4,0.3-0.9,0.4-1.4,0.4c0.5,1.3,1.1,2.7,1,4
		C-445.7,322.7-445.7,323.1-445.6,323.7C-445.7,323.7-445.6,323.7-445.6,323.7z"/>
</g>
<g id="SPLINE_1084_">
	<g>
		<path class="st1" d="M-451.1,407l0-0.7c0.1-2.7,0.1-5.4,0.3-8.1c1.6,2.5,3.3,5.4,5,8.8H-451.1z"/>
		<path class="st2" d="M-450.7,398.6c1.5,2.4,3.1,5.1,4.7,8.3h-4.9l0-0.6C-450.9,403.9-450.8,401.2-450.7,398.6 M-450.9,397.9
			c-0.2,2.8-0.2,5.7-0.3,8.5c0,0.3,0,0.5,0,0.8h5.6C-447.5,403.4-449.2,400.3-450.9,397.9L-450.9,397.9z"/>
	</g>
</g>
<g id="SPLINE_1083_">
	<path class="st0" d="M-446.5,323c0-0.2,0.1-0.3,0.1-0.5c-0.1-0.4-0.4-0.7-0.9-1.1C-447,321.9-446.7,322.4-446.5,323z"/>
</g>
<g id="SPLINE_1082_">
	<path class="st0" d="M-446.6,273.5c-0.1-0.6-0.1-1.5-0.3-2.5c-0.2-1.4-0.5-3-0.7-4.6c-0.3,0.8-0.8,1.5-1.5,2
		c1.1,3.1,1.6,5.7,0.4,8.5C-447.8,275.8-447.1,274.7-446.6,273.5z"/>
</g>
<g id="SPLINE_1081_">
	<path class="st0" d="M-447.8,327.6l1-2.7c-0.6-0.1-1.3-0.2-1.8-0.2c-1.7,0-3.5,1-5.2,1.5c-3.3,1.1-6.1,1.2-8.8-0.7
		c-0.6,0.5-1.3,0.8-2.1,0.8c-1.8,0-3.2-1.5-3.2-3.3s1.4-3.2,3.2-3.2c1.8,0,3.2,1.4,3.2,3.2c0,0.8-0.3,1.5-0.7,2.1
		c2.3,1.6,4.9,1.7,7.8,0.7c1.5-0.4,2.9-1.2,4.4-1.5c-0.9-0.1-1.8-0.1-2.6-0.2c-0.5,0.2-1,0.3-2,0.4c-1,0.1-1.9,0-2.8-0.3
		c-0.2,0.7-0.9,1.2-1.6,1.2c-0.9,0-1.7-0.8-1.7-1.7s0.8-1.7,1.7-1.7c0.9,0,1.7,0.8,1.7,1.7c0.6,0.2,1.2,0.3,1.7,0.3
		c0.8,0,1.3,0,1.8-0.1c-0.6-0.1-1.2-0.3-1.8-0.6c-1.4-0.6-2.4-2.1-3.5-3.5c-0.4,0.2-0.8,0.3-1.3,0.3c-1.3,0-2.4-1.1-2.4-2.5
		c0-1.4,1.1-2.5,2.4-2.5s2.4,1.1,2.4,2.5c0,0.7-0.3,1.4-0.8,1.8c1.7,2.3,2.4,3.5,5.9,4c0.1,0,0.2,0,0.3,0c0.4-0.2,0.9-0.4,1.5-0.6
		c-0.3-0.1-0.5-0.3-0.9-0.5c-2.9-1.8-5-5.4-6.3-9c-0.5,0.4-1.2,0.7-1.9,0.7c-1.7,0-3.1-1.4-3.1-3.2c0-1.8,1.4-3.2,3.1-3.2
		c1.7,0,3.1,1.4,3.1,3.2c0,0.8-0.3,1.6-0.8,2.1c1.4,3.5,3.4,7.2,6.3,9c0.5,0.3,0.9,0.5,1.4,0.7c0.1,0,0.1,0,0.2,0
		c-0.8-0.4-1.6-0.9-2.3-1.6c-1.6-1.5-2.6-3.2-3.2-4.9c-0.6-0.3-1-0.9-1-1.6c0-0.4,0.1-0.7,0.3-1c-0.3-1.5-0.4-3.2-0.5-5
		c0-0.6,0-1.2-0.1-1.8c-0.8-0.1-1.5-0.8-1.5-1.7c0-1,0.8-1.7,1.7-1.7c0.9,0,1.7,0.8,1.7,1.7c0,0.8-0.6,1.6-1.4,1.7
		c0,1.3,0.1,2.6,0.2,4c0.1,0.8,0.2,1.7,0.3,2.4c0.3-0.2,0.6-0.3,0.9-0.3c0.9,0,1.7,0.8,1.7,1.7c0,0.7-0.4,1.3-1,1.6
		c0.2,0.3,0.4,0.7,0.6,1c1,1.7,2.3,3.3,4.1,4c1.3,0.5,1.9,0.7,2.2,1c-0.3-0.6-0.5-1.2-0.7-1.7l-0.1-0.1c-2.4-2.6-2.9-4.2-3.3-7.2
		c-0.9-0.2-1.6-1-1.6-2c0-1.1,0.9-2.1,2-2.1c0.4,0,0.8,0.1,1.2,0.4c0-0.2,0-0.5,0-0.7c0-0.3,0-0.6,0-0.8c0,0-0.1,0-0.1,0
		c-1.3,0-2.4-1.1-2.4-2.5c0-1.3,1-2.3,2.2-2.5c-1.9-2.8-4.5-5.5-7.9-8.2c-0.6,0.9-1.2,1.9-1.8,2.8c-9.9,16.2-11.7,35.7-12.4,55
		c2.7-3.5,5.1-6.1,7.3-8.2c5.2-5,9.2-7.7,12.9-9.6C-450.5,332.5-448.6,329.9-447.8,327.6z"/>
</g>
<g id="SPLINE_1080_">
	<path class="st0" d="M-446.4,321.5c-0.1-1-0.6-2.1-1-3.1c-0.3,0-0.5-0.1-0.8-0.2c0.1,0.7,0.3,1.3,0.5,2
		C-447.1,320.8-446.7,321.2-446.4,321.5z"/>
</g>
<g id="SPLINE_1079_">
	<path class="st0" d="M-446.9,323.8c0.6-0.8-2.8-2.1-3-2.1c-1.9-0.8-3.2-2.5-4.3-4.3c-0.3-0.3-0.5-0.7-0.6-1.1c-0.1,0-0.1,0-0.2,0
		c0,0-0.1,0-0.1,0c0.5,1.4,1.3,2.6,2.5,4c1.7,1.8,3.6,2.4,5.2,3.2C-447.2,323.7-447,323.7-446.9,323.8z"/>
</g>
<g id="SPLINE_1078_">
	<path class="st0" d="M-447.6,324.2c-0.1-0.1-0.2-0.1-0.3-0.2c-0.4-0.1-0.7-0.3-1.2-0.3c-0.7-0.1-1.1-0.2-1.5-0.3c0,0,0,0-0.1,0
		c-0.4,0.1-0.8,0.3-1.1,0.4C-450.3,323.9-448.9,323.9-447.6,324.2z"/>
</g>
<g id="SPLINE_1077_">
	<path class="st0" d="M-448.5,319.3c-0.1-0.5-0.2-0.9-0.3-1.4c-0.9-0.6-1.5-1.6-1.5-2.8c0-0.8,0.3-1.5,0.8-2.1
		c-0.1-0.1-0.1-0.3-0.1-0.5c-0.3,0.4-0.8,0.7-1.4,0.7C-450.7,315.8-450.3,317.3-448.5,319.3z"/>
</g>
<g id="SPLINE_1076_">
	<path class="st0" d="M-450,277.7c1.7-3,1.3-5.7,0.2-8.9c-0.6,0.4-1.3,0.6-2.1,0.6c0.8,1.9,1.7,4.2,1.6,6.1
		C-450.1,276.1-450,276.7-450,277.7C-450,277.7-450,277.7-450,277.7z"/>
</g>
<g id="SPLINE_1075_">
	<g>
		<path class="st1" d="M-452,392.8c-3-3.7-5.8-5.7-8.3-7.4c0.1-2.3,0.2-4.7,0.2-7.1c0-1.6,0.1-3.2,0.1-4.8l0,0
			c2.9,1.5,6.5,3.3,10.9,6.2C-450.5,383.4-451.4,387.7-452,392.8z"/>
		<path class="st2" d="M-459.9,373.6c2.8,1.4,6.4,3.2,10.6,6.1c-1.3,3.7-2.2,7.9-2.8,12.8c-2.9-3.5-5.6-5.5-8.1-7.2
			c0.1-2.3,0.2-4.7,0.2-7.1C-460,376.7-460,375.1-459.9,373.6 M-460.2,373.2c-0.1,4.1-0.2,8.2-0.4,12.2c2.7,1.8,5.5,3.8,8.6,7.7
			c0.6-4.7,1.5-9.3,3-13.5C-453.5,376.5-457.2,374.7-460.2,373.2L-460.2,373.2z"/>
	</g>
</g>
<g id="SPLINE_1074_">
	<path class="st0" d="M-451.2,276.5c0.1-0.3,0.1-0.5,0.1-0.8c-0.2-0.6-0.7-1-1.3-1.7C-452.1,274.8-451.7,275.6-451.2,276.5z"/>
</g>
<g id="SPLINE_1073_">
	<path class="st0" d="M-451.2,274.2c-0.2-1.6-0.9-3.3-1.6-4.8c-0.4-0.1-0.8-0.2-1.2-0.3c0.2,1,0.4,2,0.8,3.1
		C-452.3,273.1-451.6,273.7-451.2,274.2z"/>
</g>
<g id="SPLINE_1072_">
	<path class="st0" d="M-451.9,277.8c0.9-1.2-4.4-3.2-4.6-3.2c-3-1.3-4.9-3.8-6.7-6.6c-0.4-0.5-0.7-1.1-1-1.6c-0.1,0-0.2,0-0.3,0
		c-0.1,0-0.1,0-0.2,0c0.8,2.1,2,4.1,3.9,6.2c2.6,2.8,5.6,3.6,8.1,5C-452.4,277.6-452.1,277.7-451.9,277.8z"/>
</g>
<g id="SPLINE_1071_">
	<path class="st0" d="M-452.8,406.3c0.1-3.4,0.2-6.9,0.5-10.4c-3-4.1-5.7-6.4-8.4-8.2c-0.1,1.3-0.1,2.6-0.2,3.9
		c0,0,0.3,10.1,0.4,15.5h7.7C-452.8,406.9-452.8,406.6-452.8,406.3z"/>
</g>
<g id="SPLINE_1070_">
	<path class="st0" d="M-453,278.4c-0.1-0.1-0.3-0.2-0.4-0.3c-0.6-0.2-1.1-0.4-1.8-0.5c-1.1-0.2-1.7-0.3-2.3-0.5
		c-0.1,0-0.1,0-0.1,0.1c-0.7,0.2-1.2,0.5-1.7,0.7C-457.1,277.9-455.1,278-453,278.4z"/>
</g>
<g id="SPLINE_1069_">
	<path class="st0" d="M-454.4,270.9c-0.2-0.7-0.3-1.4-0.4-2.2c-1.4-0.9-2.3-2.5-2.3-4.3c0-1.3,0.4-2.4,1.2-3.3
		c-0.1-0.2-0.2-0.5-0.2-0.7c-0.5,0.6-1.3,1-2.2,1.1C-457.7,265.4-457.1,267.7-454.4,270.9z"/>
</g>
<g id="SPLINE_1068_">
	<path class="st0" d="M-454.8,339c-2.5,1.7-5.2,3.9-8.4,7c-2.7,2.6-5.7,5.9-9.3,10.9c0,1.2-0.1,2.4-0.1,3.6c1.2,1.5,2.4,2.9,3.6,4.1
		c2.1,2.2,3.9,3.8,7.2,5.7C-461.2,359.2-459.6,348.1-454.8,339z"/>
</g>
<g id="SPLINE_1067_">
	<g>
		<path class="st1" d="M-472.8,407c-0.1-6.9-0.6-24.4-0.6-24.4c0.1-1,0.1-2,0.2-3c2,1.4,4.1,2.7,6.1,4c1.4,0.9,2.9,1.9,4.4,2.8
			l0.4,0.3c0,1.7,0,3.3-0.1,4.9c-0.1,3.6,0.1,7.3,0.2,10.9c0.1,1.3,0.1,2.5,0.1,3.8l0,0.7H-472.8z"/>
		<path class="st2" d="M-473.1,379.8c2,1.3,4,2.6,5.9,3.9c1.4,0.9,2.9,1.9,4.4,2.8l0.4,0.3l0,0c0,1.6,0,3.2-0.1,4.8
			c-0.1,3.7,0.1,7.4,0.2,10.9c0.1,1.3,0.1,2.5,0.1,3.8l0,0.6h-10.6c-0.1-6.9-0.6-24.1-0.6-24.2
			C-473.2,381.7-473.1,380.8-473.1,379.8 M-473.3,379.4c-0.1,1.1-0.1,2.2-0.2,3.3c0,0,0.4,17.7,0.6,24.5h11.1c0-0.3,0-0.5,0-0.8
			c-0.2-4.9-0.5-9.8-0.4-14.7c0-1.6,0.1-3.3,0.1-5c0,0-0.1-0.1-0.1-0.1c-0.1-0.1-0.3-0.2-0.4-0.3
			C-466.3,384-469.8,381.8-473.3,379.4L-473.3,379.4z"/>
	</g>
</g>
<g id="SPLINE_1066_">
	<path class="st0" d="M-462.2,384.3c0-3.9,0.1-8,0.3-12c-0.2-0.1-0.5-0.2-0.7-0.4c-3.7-2-5.6-3.6-7.8-6c-0.7-0.8-1.5-1.6-2.3-2.5
		c-0.1,4.6-0.2,9.2-0.5,13.7C-469.5,379.6-465.9,381.9-462.2,384.3z"/>
</g>
<g id="SPLINE_1065_">
	<path class="st0" d="M-475.3,356.5c0.4-14.6,1.7-29.6,6.1-43c-3.2-4.8-8.4-10-15.6-15.4v37.7c1.5,4.4,2.6,7.4,3.6,9.8
		c2,5,3.4,7.7,5.3,10.6c0.1,0.2,0.3,0.4,0.4,0.6C-475.4,356.7-475.3,356.6-475.3,356.5z"/>
</g>
<g id="SPLINE_1064_">
	<path class="st0" d="M-475.1,407.2c0-0.3,0-0.5,0-0.8c-0.2-7.9-0.7-15.8-0.6-23.7c0-1.6,0.1-3.2,0.1-4.9c-1-0.7-1.9-1.4-2.9-2.1
		c-1.2-0.9-2.4-1.9-3.6-3.2c-0.9,1.6-1.8,3.4-2.7,5.2v29.5H-475.1z"/>
</g>
<g id="SPLINE_1063_">
	<g>
		<path class="st1" d="M-475.7,375.1c-0.4-0.3-0.9-0.6-1.3-1c-1.2-0.9-2.5-2-3.9-3.5c1.8-3.3,3.6-6.3,5.4-9.1
			c-0.1,3.7-0.1,7.3-0.1,10.8L-475.7,375.1z"/>
		<path class="st2" d="M-475.7,362c-0.1,3.5-0.1,7-0.1,10.4l0,2.4c-0.4-0.3-0.7-0.5-1.1-0.8c-1.1-0.9-2.5-1.9-3.9-3.4
			C-479.1,367.5-477.3,364.6-475.7,362 M-475.4,361.1L-475.4,361.1L-475.4,361.1z M-475.4,361.1c-1.8,2.7-3.7,5.9-5.7,9.5
			c1.4,1.5,2.7,2.6,4,3.6c0.5,0.4,1,0.8,1.5,1.1C-475.5,370.7-475.5,365.9-475.4,361.1L-475.4,361.1z"/>
	</g>
</g>
<g id="SPLINE_1062_">
	<path class="st0" d="M-476.6,358.5c-0.2-0.3-0.4-0.6-0.7-0.9c-2-2.9-3.3-5.6-5.3-10.6c-0.7-1.6-1.4-3.5-2.2-5.8v24.5
		c0.7,1.1,1.4,2.1,2.1,3C-480.5,364.7-478.5,361.4-476.6,358.5z"/>
</g>
<g id="SPLINE_1061_">
	<path class="st0" d="M-483.8,370.6c-0.3-0.4-0.7-0.9-1-1.4v3.3C-484.5,371.8-484.1,371.2-483.8,370.6z"/>
</g>
</svg>
