<svg xmlns="http://www.w3.org/2000/svg" viewBox="0 0 2604.96 4350.96"><defs><style>.cls-1,.cls-2{fill:#fff;stroke-linecap:round;stroke-linejoin:round;}.cls-1{stroke:#1d1d1b;}.cls-2{stroke:#000;}</style></defs><title>25</title><g id="_0" data-name="0"><path id="_Path_" data-name="&lt;Path&gt;" class="cls-1" d="M527.08,4208.25c37.28,8.83,63.88,21.35,89.64,20.21,153-6.59,307-9.56,458.6-26.59,247-27.77,472.88-98.45,643.65-257.92,14.4-13.46,33.15-41.41,26.69-48.76-14.05-15.93-43.11-31.33-66-31.33-27.13,0-56.48,13.53-81.08,26.17-251,128.71-516.95,219.13-818.46,220.28C684.17,4110.66,606.1,4143,527.08,4208.25Z"/><path id="_Path_2" data-name="&lt;Path&gt;" class="cls-1" d="M507.66,2893.66c-84.19,23.38-78.52,66.13-52.53,110.93,29.51,50.88,62.21,100.63,96.11,149.65,128.63,186.07,287.32,350.73,493.9,483.85,77.64,50,109.87-3.88,148.37-34.07,52.62-41.3-12.81-60.41-37.71-76.14-193.29-122.07-353.74-269.21-493.47-432C607.3,3031.74,560.31,2963,507.66,2893.66Z"/><path id="_Path_3" data-name="&lt;Path&gt;" class="cls-1" d="M1372.49,3441.21c-25.88-17.67-44.11-31.12-63.59-43.23-246.86-153.44-465.7-328.22-627-548.47-13.44-18.34-57.55-38.78-77-33.27-46,13-49.31,44.05-25.14,82.44C733.83,3143.51,942,3349.84,1213.44,3512c38.59,23,75.1,23.85,105.22-12.06C1334,3481.68,1351.08,3464.46,1372.49,3441.21Z"/><path id="_Path_4" data-name="&lt;Path&gt;" class="cls-1" d="M112.59,2221.16C225.22,2186,286,2145.87,299.73,2042.26c36.08-271.6,109.55-536.78,360-740,44-35.69,14.92-62.16-14.1-86.31-45-37.44-59.4,3.89-79.07,24.88-219.34,233.87-353.39,499-421.19,787.72C131,2089.56,124.2,2151.74,112.59,2221.16Z"/><path id="_Path_5" data-name="&lt;Path&gt;" class="cls-1" d="M387.61,2986.72c-71.81,28.57-90.19,64.31-52.75,117.4,17.8,25.17,29.06,53.47,43.68,80.2,109.24,199.62,262.52,375,441.71,535.1,95.52,85.3,152.79,79.25,234.52-21.94C753.61,3514.41,549.44,3266.75,387.61,2986.72Z"/><path id="_Path_6" data-name="&lt;Path&gt;" class="cls-1" d="M1208.39,743.49c100.36,26.87,168.06,8,205.93-68.74,39.08-79.14,76-160.06,100.25-242.86,29.81-101.5,45.5-205.81,67.29-308.89C1398.93,98.68,1396.93,99.86,1372,230.29a325.1,325.1,0,0,1-9.75,39.55C1311.65,426,1260.84,582.11,1208.39,743.49Z"/><path id="_Path_7" data-name="&lt;Path&gt;" class="cls-1" d="M2476.37,1277.19l25.8-19.29c-12.47-47.89-5-114.84-40.89-140.44-165.56-118-306.32-251.7-427.1-400.85-26.21-32.37-61.08-45.55-94.36-17.54-18.14,15.25-30,53.65-19.41,71.2,103.23,170.57,220.92,334,408.15,452.61C2370.15,1249.21,2426.71,1259.51,2476.37,1277.19Z"/><path id="_Path_8" data-name="&lt;Path&gt;" class="cls-1" d="M1071.46,1805c58.63-14.41,100.81-24.5,142.77-35.13C1454,1709.19,1673.4,1620,1844.46,1463.47c31.49-28.84,66.68-54.14,20-97.82-46.12-43.15-76.74-20.58-116.72,4.51-100.09,62.81-197.38,130.46-305.79,181.9-115.67,54.91-244.05,91.43-363.87,140.88-23.43,9.67-42.65,40.9-45.87,63.87C1030,1772.4,1059.16,1791,1071.46,1805Z"/><path id="_Path_9" data-name="&lt;Path&gt;" class="cls-1" d="M1092.34,1916.37c92.4-11.82,174.26-19.74,254.78-33.07,266.52-44.13,479.81-159,649.28-333,40.34-41.44,14.94-70.86-22.35-88.42-18.19-8.57-65.59,4.1-83.93,19.75-209.72,179-459.63,298.15-754,354.1-18.56,3.52-41.66,3.6-54,13-13.37,10.21-23.78,30.11-21.84,44.53C1061.69,1903.66,1085.6,1911.91,1092.34,1916.37Z"/><path id="_Path_10" data-name="&lt;Path&gt;" class="cls-1" d="M1087.25,2476.17c-94.39-33.34-166.38-38.14-239.32-7.3-233,98.59-442.86,223.55-643.77,362.39-98.49,68-112.34,139-91.06,239.39C386.49,2817.18,704.42,2623.23,1087.25,2476.17Z"/><path id="_Path_11" data-name="&lt;Path&gt;" class="cls-1" d="M267.4,3090.77c-66.07,28.54-61.86,66.68-43.44,108.29,104.5,236.06,250,451.18,468.42,630,82.81,67.8,104.82,67.8,180.32-14.87C613.45,3607.57,409.49,3366.75,267.4,3090.77Z"/><path id="_Path_12" data-name="&lt;Path&gt;" class="cls-1" d="M709.11,3903.51c-253.66-197.44-422.19-443.58-545.75-713.7-13.82,3.41-27.64,6.82-41.45,20.79-9.15,24.07-9.39,60.87,1.51,93,76.22,224.48,207.44,426.1,380.92,610C575.62,3989.19,624.5,3990.16,709.11,3903.51Z"/><path id="_Path_13" data-name="&lt;Path&gt;" class="cls-1" d="M1507.4,3295.36c-24-12.11-47.8-26.66-74-36.9-176.15-68.67-328-163.77-453.36-286.19-68.77-67.12-130.27-139.28-198.72-206.63-12.94-12.73-43.16-13.54-65.43-19.85-3.74,19.5-11.48,39.25-9.76,58.43,1.08,11.84,16.36,22.91,25.62,34.14,159.85,193.28,339.78,370.43,574.56,506.83C1419.48,3410.9,1443.77,3408.76,1507.4,3295.36Z"/><path id="_Path_14" data-name="&lt;Path&gt;" class="cls-1" d="M958.92,1566c39.57,27.7-10.42,105.84,85.14,84.65,250.87-55.65,470.61-160.81,664.59-302,27.68-20.16,66.72-49.83,19.17-84.58-37.7-27.5-72-50.35-126-8.83-160.34,123.1-345.46,214.93-552.65,275.84C1021.34,1539.26,995.4,1551.76,958.92,1566Z"/><path id="_Path_15" data-name="&lt;Path&gt;" class="cls-1" d="M1359.76,123.32c-169-19.14-168.31-19.07-186.39,86.88-5.7,33.36-13.42,66.95-25.6,99.05-53,139.39-107.92,278.28-162.3,417.78C1092.28,771.57,1135,765.39,1170.06,674,1239.06,494.3,1295.75,311.43,1359.76,123.32Z"/><path id="_Path_16" data-name="&lt;Path&gt;" class="cls-1" d="M1599.18,1194.82c-35.11-24-64.71-51.06-101.49-66.66-20.85-8.83-60.19-7-79.63,4-90.2,50.94-176.36,106.72-263.93,160.83-70.12,43.26-142.31,84.53-208.78,131.31-17.15,12.06-21.41,41.66-20.46,62.89.3,6.43,41.36,20.57,57.91,16.2,218.9-57.74,418.45-144.41,586.08-276.3C1578.21,1219.73,1584.91,1210.19,1599.18,1194.82Z"/><path id="_Path_17" data-name="&lt;Path&gt;" class="cls-1" d="M2488.58,2968.08c-241.71,91.67-483.15,175.87-714.8,275.52-71.12,30.58-115.48,53.26-166.72,141.33,1.25,20.81,7.87,26,14.48,31.28,283.2-80.43,547.11-192.79,799.11-326.38C2483,3056.78,2508.7,3019.73,2488.58,2968.08Z"/><path id="_Path_18" data-name="&lt;Path&gt;" class="cls-1" d="M338,2111c74.25,1.09,104.26-25.21,116.13-74.36,53.91-223,114.66-443.78,311.82-618.19,10.41-9.2,14.56-31.53,8.51-43.14-10-19.27-33.88-50.52-46.08-48.78-29.13,4.11-62.77,19.6-80.78,39.13C446.89,1583.38,364.73,1834.92,338,2111Z"/><path id="_Path_19" data-name="&lt;Path&gt;" class="cls-1" d="M1452.28,731.86c75.63,3.65,148.11,6.43,176.19-53.29,75.45-160.44,124.59-326.76,126.51-500.4.4-36.44-4.37-65.38-65.51-65.86-57.22-.43-73.12,17.74-80.82,62-19.06,109.11-42.39,217.94-71.72,325.44C1516.22,575.76,1482.85,649.43,1452.28,731.86Z"/><path id="_Path_20" data-name="&lt;Path&gt;" class="cls-1" d="M1595.3,3193.38c-52.13-27.45-103.51-52.58-152.43-80.63-195.32-112-364.41-246-500.78-407.36-22.19-26.24-43.39-55.11-92.3-32.5-59,27.26-32.86,59.68-8.3,90.8,163.88,208,384,363.26,654,471.71C1548.66,3256.76,1576.57,3239.05,1595.3,3193.38Z"/><path id="_Path_21" data-name="&lt;Path&gt;" class="cls-1" d="M952.1,121.74c-144.53-18.29-144-18.13-185.85,82.62-20.43,49.1-41.71,98.09-65.87,146C665.69,419.25,627,486.73,591.91,555.48c-24.94,48.94-11.84,91.59,49.36,112.78,60.15,20.83,98.45-2.76,118.57-52.36C807.5,498.2,857.9,381.28,905.11,263.47,923.6,217.3,936.41,169.6,952.1,121.74Z"/><path id="_Path_22" data-name="&lt;Path&gt;" class="cls-1" d="M1884.23,2741.28c6-6.32,15.78-12.4,18.31-20.08,72-219.32,143.82-438.67,214-658.38,13.93-43.59-13.38-72.21-65.4-76.2-58.13-4.46-84.89,26.38-84.52,71.21.26,33.46,14.4,67.56,9.75,100.17-22.11,155.8-79.7,303.42-162,444.65C1769,2680.67,1778.3,2699.85,1884.23,2741.28Z"/><path id="_Path_23" data-name="&lt;Path&gt;" class="cls-1" d="M2019.19,3995.44c-76.38-79.81-167.38-87.71-248-19.61-116.88,98.73-250.93,175-410.6,219.35-21.24,5.9-40.35,17-59.51,25.32C1599.06,4267.93,1847.43,4211.77,2019.19,3995.44Z"/><path id="_Path_24" data-name="&lt;Path&gt;" class="cls-1" d="M1160.22,122.88c-154.42-18-150.25-16.95-186,83.45Q899,417.52,811.32,625.58c-20,47.4-3,64.57,48.44,79.26,53,15.2,81.25-4.35,95.14-40.25C1023.77,486.73,1090.24,308.22,1160.22,122.88Z"/><path id="_Path_25" data-name="&lt;Path&gt;" class="cls-1" d="M1701.9,694.22c97.12-14.05,195.23-35.68,216.46-135.12,20.73-97.15,33.35-195.76,42.66-294.18,8-84.31-70-105-135.3-121.27C1784.25,328,1743.44,509.63,1701.9,694.22Z"/><path id="_Path_26" data-name="&lt;Path&gt;" class="cls-1" d="M1802.24,3174.9c228.28-55,425.89-139.19,616.7-237.14,69.13-35.51,89.67-78.65,63.5-147.67-29.82,12.39-57.66,24.86-86.38,35.8-116.64,44.45-229.45,99.7-351.4,129.62C1909.81,2988.56,1833.28,3051.66,1802.24,3174.9Z"/><path id="_Path_27" data-name="&lt;Path&gt;" class="cls-1" d="M513.62,2044c8,6,16.08,12.06,33.68,7.46,35.23-17.8,109.42-40.37,119.8-75.68,43.66-148.38,98.76-290.14,202.13-418.82,13.1-16.29-13.77-54.35-22.11-82.34-33,8.18-79.93,7.83-96.26,26.08a966.61,966.61,0,0,0-124.77,174.72C561.26,1792.21,510.43,1913.13,513.62,2044Z"/><path id="_Path_28" data-name="&lt;Path&gt;" class="cls-1" d="M1677.33,3076.73c-9.52-7.32-23.88-19.42-39.57-30.19-168.15-115.47-337-230.27-504.31-346.55-29-20.18-48.13-50.81-78.74-68.5-21.76-12.59-55.12-11.56-83.3-16.6,4.17,22,.41,48.35,14,65.26,37.7,47,80.47,91.55,125.11,134.3,133.41,127.77,284.49,238.31,468.62,315.09C1626.71,3149.4,1675.87,3127.08,1677.33,3076.73Z"/><path id="_Path_29" data-name="&lt;Path&gt;" class="cls-1" d="M111,158C82.38,382,82.38,382,315.69,478.47c2.44,1,5.06,1.81,7.52,2.82,119.86,49.2,162.94,35.21,199.23-71.39,5.76-16.87-8.86-49.59-26.53-58.91C371.66,285.42,244.12,224,111,158Z"/><path id="_Path_30" data-name="&lt;Path&gt;" class="cls-1" d="M2496.37,3944.73c-4.82-71.58,12.81-146.79-18.36-203.95-69.07-126.72-160.86-245.22-247.39-365.13-22.83-31.65-61.43-44.56-98.4-8.16,103.73,146,176,300.91,198,469.67C2344.21,3944.83,2343.68,3946.14,2496.37,3944.73Z"/><path id="_Path_31" data-name="&lt;Path&gt;" class="cls-1" d="M1704.36,2619.57c18.26,4.15,30.17-1.83,38.72-10.17s16.73-18.59,20.39-29.09c51.8-149.14,104.94-298,152.41-448.12,10.66-33.73,11.33-75.21-3.36-106.83-10.15-21.81-54.62-32.81-75.31-26.65-22.18-2-44.77,17-48,38.07-10.19,66.72-2.5,136.34-21.5,200.93-28.07,95.51-70.17,188.57-112.17,280.84C1632.17,2569.94,1639.82,2605.47,1704.36,2619.57Z"/><path id="_Path_32" data-name="&lt;Path&gt;" class="cls-1" d="M2257.45,1239.7c-48.26-46.26-90.59-79.24-121.84-118.27q-135.5-169.11-262.94-342.59c-26.05-35.32-50.44-48.64-99.31-29.57-50.91,19.83-43,44.24-20.84,76.14,66.62,96.12,129.74,193.94,198.13,289.15C2015.83,1205.28,2113,1249.23,2257.45,1239.7Z"/><path id="_Path_33" data-name="&lt;Path&gt;" class="cls-1" d="M117,1970.61c30.1-91.21,52.37-179.28,88.3-263.33,79.8-186.57,191.63-359.74,338.28-517.29,11.9-12.8,8.89-35,12.81-52.87-21.22,4.85-49.53,4.21-62.43,15.52-52.45,45.95-104.51,93-148.84,144.28C172.81,1496.35,50.4,1708.64,117,1970.61Z"/><path id="_Path_34" data-name="&lt;Path&gt;" class="cls-1" d="M1689.05,3028.8c20.51,10.16,0,0,45,19.55,11-23.28,28.46-46.16,30.78-70,1.81-18.16-8.82-45-25.47-55.37Q1457.6,2747.74,1171,2577.65c-19.77-11.75-51.2-10.27-77.26-14.9,7.64,19.27,8.15,45.08,24,56.85,172.48,128.09,347,254.25,522,380Z"/><path id="_Path_35" data-name="&lt;Path&gt;" class="cls-1" d="M804.16,2426.17c-85.16-33-172-18-245.44,23-133.47,74.45-257.53,160.26-389.64,236.46C91.26,2730.51,98.4,2786,108.82,2835.86,339,2700.24,569.42,2564.5,804.16,2426.17Z"/><path id="_Path_36" data-name="&lt;Path&gt;" class="cls-1" d="M1193.49,1005.24q-6.26-15.84-12.54-31.66c-49.2-17-97.21-37.5-148.19-49-19.87-4.48-55.33,5.58-68.57,19.06-77.31,78.79-153.15,158.89-221.69,242.8-12.54,15.35,4.06,53.84,20,75.14,8.47,11.33,54.94,18.86,66.34,10.84C952.44,1185.31,1072.48,1094.8,1193.49,1005.24Z"/><path id="_Path_37" data-name="&lt;Path&gt;" class="cls-1" d="M1585.82,3827.65c-87.79-73.2-93.82-69.21-189.86-26.53-85.42,38-178.2,65.62-269.85,93-111.06,33.22-204.75,85.27-300.21,158C1061.65,4053.29,1358.35,3964,1585.82,3827.65Z"/><path id="_Path_38" data-name="&lt;Path&gt;" class="cls-1" d="M2492.32,1072.73c0-70.34,1.51-123.76-1-177.05-.68-13.92-9.46-31.83-22-40.41-105-71.73-210.94-142.6-319-211.12-14.63-9.24-55.9-11.28-62-3.9-12.26,14.86-20,44.2-10,57.67C2183,839.06,2314.8,960.67,2492.32,1072.73Z"/><path id="_Path_39" data-name="&lt;Path&gt;" class="cls-1" d="M1742.25,2090.26c.62-3.24,0,0-1-25.28-2.28-20.32-3.79-37.41-19.63-58.79-14.25-19.27-47-29.24-70.69-27.24-18.41,6.54-53.63,30.86-50.66,51.42,22.57,156-14.23,299.54-107.78,436.06-11.39,16.61-14.61,45.12,19.24,74.62,41,13.52,79.86-11.71,86.31-27.1C1656.67,2373.94,1707.74,2231.79,1742.25,2090.26Z"/><path id="_Path_40" data-name="&lt;Path&gt;" class="cls-1" d="M1536.82,1991.72c-44.37-44.33-129.23-49.66-130,37.53-1.08,123.05-19.82,242-87.66,354.85-11.44,19.06-10,58.42,32.75,84.53,37.77,19.19,81.48-16.21,91.5-35.31C1518.49,2290.13,1582.08,2143.7,1536.82,1991.72Z"/><path id="_Path_41" data-name="&lt;Path&gt;" class="cls-1" d="M2068,3816.64a33.35,33.35,0,0,0,1.65-10.77c-2.74-35.81.69-72.87-9.54-107.16-22.65-75.89-48.41-151.53-81.73-224.57-7.52-16.52-51-35.93-77.87-32.48-9.7,9.87-27.07,39.25-27.8,59.2-3.22,91.3.73,182.81-2.93,274.1-2.28,56.85,47.9,101.38,148,105.79C2038.53,3881.67,2062.15,3839.15,2068,3816.64Z"/><path id="_Path_42" data-name="&lt;Path&gt;" class="cls-1" d="M1399.57,1087.47C1294,1009,1255.1,1000,1200.94,1041.94c-113.3,87.69-226.18,175.89-334.61,267.6-16.59,14-8.68,47.8-12.07,72.46,28-2.29,61.49,2.72,82.93-8.26,57.76-29.6,110.57-65.77,165-99.77C1199.57,1213.14,1296.69,1152,1399.57,1087.47Z"/><path id="_Path_43" data-name="&lt;Path&gt;" class="cls-1" d="M2281.18,3932.94c0-39.94,2.67-71-.43-101.66-14.44-143.25-86.67-269.8-174.24-390.78-13.34-18.41-46.87-49.29-71.08-40-13,22.21-6,47.11,3.92,66.11,57,109.57,98.54,222.33,73.86,341.67-14,67.74,3.46,102.87,89.16,109C2223.44,3918.72,2244,3925.33,2281.18,3932.94Z"/><path id="_Path_44" data-name="&lt;Path&gt;" class="cls-1" d="M100.42,3448.33l-10.9-2.41c4.07,69.44,26.29,143,59.61,207.39,56.75,109.67,129.36,213.77,196.2,319.85,53,84,69.2,87.11,165.19,36.63Q305.53,3729.13,100.42,3448.33Z"/><path id="_Path_45" data-name="&lt;Path&gt;" class="cls-1" d="M1583.89,1884.3c5.63.77,15.86,3.29,26,3.23,16.34-.1,32.63-2,49-3,174.25-10.37,308.6-84.79,431-180,77.49-60.29,74.63-94.33-4.3-139.85Z"/><path id="_Path_46" data-name="&lt;Path&gt;" class="cls-1" d="M2298.12,4039.27c-70.49-19.25-144-64.09-212.94-21.51-91.92,56.76-169.2,129.62-261.13,202.14C2087.07,4254.44,2219.12,4202.76,2298.12,4039.27Z"/><path id="_Path_47" data-name="&lt;Path&gt;" class="cls-1" d="M108.8,1510.31c117.26-130.07,240.29-265.67,361.14-402.58,7.52-8.5,3.84-34.63-5.07-39.5-14.74-8-43.47-12.55-56.69-5.77-39.06,20-74.49,45.23-109.43,70.23C155.13,1235.43,67.1,1356.76,108.8,1510.31Z"/><path id="_Path_48" data-name="&lt;Path&gt;" class="cls-1" d="M168.64,114.25q-4.09,9.69-8.16,19.41C282.88,192.35,405,251.53,528.32,308.87c11,5.12,41.06,1.94,44.11-3.85,22.4-42.65,54.8-87.37,53.06-130.58-.84-21-66.85-54.85-105.85-57.44C403.31,109.33,285.72,114.25,168.64,114.25Z"/><path id="_Path_49" data-name="&lt;Path&gt;" class="cls-1" d="M104.89,433.43c0,68.39-1.38,126.74,1,185,.55,13.5,9.59,30.89,21.92,39.3,120.94,82.54,171.76,74.3,250.57-38.24,4.12-5.89,14.06-12.43,12.68-16.85-6.14-19.94-8.38-49.19-24.77-57.09C286.28,507.05,202.16,474.33,104.89,433.43Z"/><path id="_Path_50" data-name="&lt;Path&gt;" class="cls-1" d="M2486.63,1820.73l14.31-.43c-10.08-47.52-2.34-105.89-33.51-140.58-105.51-117.46-222.34-228.34-340.46-337.64-32.7-30.25-84.87-46.24-128.08-68.77q-5.09,7.11-10.17,14.25Q2237.69,1554.17,2486.63,1820.73Z"/><path id="_Path_51" data-name="&lt;Path&gt;" class="cls-1" d="M2507.84,2671.2c-145.57,35.38-267.46,68.05-391.36,94.23-124.81,26.38-147.47,44.46-164.32,160.83,10.66,0,22.4,2.7,31-.39,158.13-56.83,317-112.38,472.47-173.79C2479.34,2742.73,2486.78,2705.54,2507.84,2671.2Z"/><path id="_Path_52" data-name="&lt;Path&gt;" class="cls-1" d="M1921.62,1195.79l10.33-13.91c-82.5-126.42-164-253.28-249.18-378.44-8.32-12.18-48.69-23.79-58.77-17.87-18.45,10.82-39.22,37.58-34.87,53.12,31.47,113,76.22,222.85,193.16,297.4C1823.05,1162.05,1874.86,1176.25,1921.62,1195.79Z"/><path id="_Path_53" data-name="&lt;Path&gt;" class="cls-1" d="M694,1165c68.39-71,134.94-138.69,199.25-207.77,21.89-23.5,60.62-55.57,4.52-76.4-41.05-15.26-94.07-46.79-135.21,10.35-31.82,44.24-69,86.26-108.22,126.37C579.57,1094,578.93,1097,694,1165Z"/><path id="_Path_54" data-name="&lt;Path&gt;" class="cls-1" d="M1246.87,2009.81c-17,84.38-27,166.18-43.35,247.14-6.57,32.72-32.16,62.82-38.94,95.54-3.68,17.75-3.07,34.7,25.45,49.14,17.14,11.17,47.22-5.88,57.39-20.41,66.47-94.95,106.75-196.8,106-308C1361.85,1966,1278.18,1964.32,1246.87,2009.81Z"/><path id="_Path_55" data-name="&lt;Path&gt;" class="cls-1" d="M1966.82,610.05C2102.25,601.22,2192.14,374,2128,283.12c-19.39-27.46-60.19-44.68-95.63-69.76C2008.39,358.51,1987.56,484.6,1966.82,610.05Z"/><path id="_Path_56" data-name="&lt;Path&gt;" class="cls-1" d="M1210.75,2529.43c187.11,129.07,379.11,251.66,596.4,344C1647,2712.79,1459,2585.2,1210.75,2529.43Z"/><path id="_Path_57" data-name="&lt;Path&gt;" class="cls-1" d="M2027.05,2708.72q10.64,14.1,21.28,28.26,185-47.86,370-95.73c71.55-18.56,90-57.86,66.65-114.34-122.7,34.25-243.77,68-364.8,101.87-5.15,1.45-11.65,2.34-16.93,4C2052.64,2638.51,2034,2667.74,2027.05,2708.72Z"/><path id="_Path_58" data-name="&lt;Path&gt;" class="cls-1" d="M520.8,2418.49c-235.39-32.34-492.74,85-403.29,233.59C248.19,2576.39,379.3,2500.47,520.8,2418.49Z"/><path id="_Path_59" data-name="&lt;Path&gt;" class="cls-1" d="M2485.78,2388.46c-107,25.65-208.6,50-310.18,74.4-68.32,16.38-84.4,54.64-67.78,122.53,106.64-28.77,206.56-55.72,306.43-82.7C2482.63,2484.23,2511.06,2448.38,2485.78,2388.46Z"/><path id="_Path_60" data-name="&lt;Path&gt;" class="cls-1" d="M2186.64,1327.34l296,299.17C2538.58,1418.93,2380.8,1307.69,2186.64,1327.34Z"/><path id="_Path_61" data-name="&lt;Path&gt;" class="cls-1" d="M724.33,1975.43c9.38,6,18.79,12,42.82,5.3,14.75-6.41,58.45-20.84,70.81-45.77,32.81-66.29,55.85-136.39,75.11-206.44,9.37-34,1.64-71.28,1.64-107.06-10.06-.94-20.13-1.84-30.19-2.78C773.12,1720,750.69,1848.3,724.33,1975.43Z"/><path id="_Path_62" data-name="&lt;Path&gt;" class="cls-1" d="M2485,3616.45c21-126.29,14.43-228.3-106.47-306.36-51.33-33.14-85.9-38.76-127.43-1.13C2328,3410.11,2402.55,3508.08,2485,3616.45Z"/><path id="_Path_63" data-name="&lt;Path&gt;" class="cls-1" d="M2179.59,604.05c100.65,71.26,197.08,139.57,297,210.35,66.3-140-60.06-172.49-150.07-224.67C2281.66,563.67,2240.29,552,2179.59,604.05Z"/><path id="_Path_64" data-name="&lt;Path&gt;" class="cls-1" d="M1822.36,3812.5c5-97.24,13-185.1,11.26-272.84-.38-20.39-32.39-56.32-52-57.34-48.28-2.49-54.22,31.25-53.83,66.7.52,53.31,5.46,109.35-12.08,159.34C1692.79,3773.83,1728.83,3793.25,1822.36,3812.5Z"/><path id="_Path_65" data-name="&lt;Path&gt;" class="cls-1" d="M732.15,854.78q-10.77-15.56-21.56-31.12c-48.3,5.26-109.58-2.63-141.76,19-43.94,29.48-70.6,79.59-94.52,124.53-9,16.84,3,49.69,19.62,64.33,11.18,9.86,58.9,9,70.2-1.57C623.64,974.08,676.78,913.63,732.15,854.78Z"/><path id="_Path_66" data-name="&lt;Path&gt;" class="cls-1" d="M2488.11,4052.4c-151.16-3.07-169,118.13-281.09,171.88h281.09Z"/><path id="_Path_67" data-name="&lt;Path&gt;" class="cls-1" d="M2155.47,2419.09,2421,2357.58c70.64-16.35,85.62-53.73,62.6-109.62-77.13,18-149.31,43.71-223.91,50C2177.1,2304.89,2152,2337.47,2155.47,2419.09Z"/><path id="_Path_68" data-name="&lt;Path&gt;" class="cls-1" d="M1019.82,2158.7c4.88-24.91,5.95-46.27-.39-74.93-2.72-12.37-6.92-39.72-63.71-33.89-54.48,5.59-62.13,30.41-61.05,70.64,1.51,55.47-10.81,111.15-11.4,166.78-.24,21.86-6.27,45.16,23.52,65.79,30.87,3.85,58.45-20.52,66-37.39C996.48,2263.22,1009.46,2207.48,1019.82,2158.7Z"/><path id="_Path_69" data-name="&lt;Path&gt;" class="cls-1" d="M2484.19,2101.05c-83,16.42-162.42,25.95-235,49.66-28.38,9.27-41.37,50.48-61.36,77.14,26.87,7.35,54.29,21.83,80.49,20.44,45.87-2.41,91.66-12.62,136.29-23.08C2480.07,2207.48,2513.6,2168.72,2484.19,2101.05Z"/><path id="_Path_70" data-name="&lt;Path&gt;" class="cls-1" d="M812.47,2091.09c-62.22-14-97.35,30.61-111,63.48-16.45,39.45-1.55,89.25,7.09,133.58,3.48,17.81,24.25,44.37,41.06,46.54,20.25,2.6,57-12,65.07-26.93C851.68,2238.56,863.76,2166,812.47,2091.09Z"/><path id="_Path_71" data-name="&lt;Path&gt;" class="cls-1" d="M1686.55,3517.72c-81.82,16.76-180.35,134.88-159.34,162.82,22.8,30.21,69.53,48.16,105.81,71.46l31.44-9.4Q1675.49,3630.18,1686.55,3517.72Z"/><path id="_Path_72" data-name="&lt;Path&gt;" class="cls-1" d="M89.28,1230.24c9,2.41,18.1,4.81,45-9.5,29.55-26.62,76.24-70.56,124.8-113,20.6-18,52.28-29.78,65.83-50.26,14.46-21.85,13.46-50.62,19.2-76.38-29.18,6.93-66.3,6.94-85.84,22.2-39.38,30.84-73.56,67.79-101.81,106.27C128.83,1147.15,111.28,1189.81,89.28,1230.24Z"/><path id="_Path_73" data-name="&lt;Path&gt;" class="cls-1" d="M114.86,4224.49c75.12-26.11,141.19-49.06,214.51-74.56-38-39.7-32-101.11-109.45-84.66C101.79,4090.37,93.28,4104.21,114.86,4224.49Z"/><path id="_Path_74" data-name="&lt;Path&gt;" class="cls-1" d="M2263.18,2109.06c61.77-15.39,115.55-25.24,165.08-43,17.84-6.4,40.63-38.9,34.87-47.28-12.47-18.19-43.43-41.34-64-39.61-51,4.27-102.95,17-149.24,35.34-20.93,8.29-37.57,37.47-39.83,58.36C2208.91,2083.46,2244,2096.71,2263.18,2109.06Z"/><path id="_Path_75" data-name="&lt;Path&gt;" class="cls-1" d="M1566.23,1016.48q10.9-9.15,21.8-18.27c-15.76-49.69-33.21-99.07-46.82-149.16-14.44-53.16-55.44-44.28-100.71-33.91-55.5,12.71-42.47,47.49-22.85,68.33C1462.34,930.89,1516.13,972.5,1566.23,1016.48Z"/><path id="_Path_76" data-name="&lt;Path&gt;" class="cls-1" d="M2155.68,519c77.65-18.22,145.84-93.21,136.83-158.43-3.59-26-38.9-49-59.78-73.39q-12.12,5.5-24.25,11C2191.42,369.5,2174.37,440.87,2155.68,519Z"/><path id="_Path_77" data-name="&lt;Path&gt;" class="cls-1" d="M542.38,807c-46.9-5.3-86.22-18.46-96.47-9.37C405.71,833.27,372.84,875,342,916.87c-5.16,7,10.58,28,22.12,38.42,6.23,5.63,30.93,7.23,35.57,2.65C442.77,915,483.22,870.36,542.38,807Z"/><path id="_Path_78" data-name="&lt;Path&gt;" class="cls-1" d="M1872.86,1885.88c157.59,20.29,247.86-29.1,270.14-149.82C2050.49,1787.38,1965,1834.78,1872.86,1885.88Z"/><path id="_Path_79" data-name="&lt;Path&gt;" class="cls-1" d="M256,786q-4.67-12.63-9.32-25.3l-139-54.46c-1.59,21.89-5.29,33.55-2.71,44.17,8.95,36.9,20,73.44,30.32,110.1Z"/><path id="_Path_80" data-name="&lt;Path&gt;" class="cls-1" d="M2221.55,1894.34q-1.23,14.82-2.47,29.66c29.17,17,58.75,47.45,87.44,46.92,23.29-.45,62.11-37.52,63.19-59.34.86-18.52-39.9-50.13-67-54.2C2279.14,1853.87,2248.85,1880.86,2221.55,1894.34Z"/><path id="_Path_81" data-name="&lt;Path&gt;" class="cls-1" d="M2484.67,622.48c17-68.94,15.3-120.76-66.51-133.58-30.52-4.78-65.61,10.38-98.63,16.43.52,8,1,15.95,1.51,23.92Z"/><path id="_Path_82" data-name="&lt;Path&gt;" class="cls-1" d="M1176.78,3812.24c5.12,6.84,10.19,13.69,15.31,20.53,57.25-23.48,116.45-44.37,170.47-72.13,14.57-7.49,28.32-35.74,19.56-54.5-23.52-19.07-54.77-8.53-69,.8C1264.4,3738.68,1221.76,3776.64,1176.78,3812.24Z"/><path id="_Path_83" data-name="&lt;Path&gt;" class="cls-1" d="M507.36,2200.26c-52.58-8.22-117,13.08-96.57,77.46,9.37,29.6,14.7,74,68.43,55.7C554.49,2307.76,541.72,2241.34,507.36,2200.26Z"/><path id="_Path_84" data-name="&lt;Path&gt;" class="cls-1" d="M2487.81,3189.1l-107,55.84c37.33,34.45,67.82,62.53,107,98.72Z"/><path id="_Path_85" data-name="&lt;Path&gt;" class="cls-1" d="M2161.88,120c115.55,47.32,215,37.06,315.35,0Z"/><path id="_Path_86" data-name="&lt;Path&gt;" class="cls-1" d="M932.24,1784.76c-15.71,62.84-26.87,107.46-38.35,153.49C988.69,1941.14,999.87,1904.27,932.24,1784.76Z"/><path id="_Path_87" data-name="&lt;Path&gt;" class="cls-1" d="M1531.39,3556.88c-78.29-10-100.35,33.16-127.33,72.32C1471.89,3677,1481.73,3671.66,1531.39,3556.88Z"/><path id="_Path_88" data-name="&lt;Path&gt;" class="cls-1" d="M117.53,4070.71c39.3-33.19,68.88-58.17,98.41-83.15-16.47-7.81-34.13-23.53-49.25-22C106.7,3971.53,93.8,4004.21,117.53,4070.71Z"/><path id="_Path_89" data-name="&lt;Path&gt;" class="cls-1" d="M374.9,2315.67c-15.67-19-38.06-37.77-51.39-34.12-23.82,6.52-42.18,26.62-62.81,41,16.76,11.63,34.82,33.78,50,32.5C334.39,2353.12,356.09,2335.26,374.9,2315.67Z"/><g id="SPLINE"><path id="_Path_90" data-name="&lt;Path&gt;" class="cls-2" d="M1185.2,2154.29c4.83-24.73,5.9-45.94-.4-74.39-2.7-12.29-6.87-39.44-63.26-33.65-54.08,5.55-61.69,30.2-60.62,70.14,1.5,55.07-10.73,110.36-11.31,165.59-.23,21.71-6.23,44.84,23.35,65.33,30.66,3.82,58-20.38,65.57-37.13C1162,2258.07,1174.9,2202.74,1185.2,2154.29Z"/></g><g id="SPLINE-2" data-name="SPLINE"><path id="_Path_91" data-name="&lt;Path&gt;" class="cls-2" d="M609,2318.11c-13.06-3-33.6-14.15-37.57-28.39-7.81-27.88-10.71-57.9-7.13-86.31,2.05-16.33,20.79-31.24,32-38.09,19.38,3.07,45.46,11.7,56.33,27.45s6.89,38.83,9.39,58.68c-3.35,13.59,2.63,30.11-4.76,39.69C646,2305.82,625.57,2315.69,609,2318.11Z"/></g></g></svg>