<?xml version="1.0" encoding="utf-8"?>
<!-- Generator: Adobe Illustrator 19.1.1, SVG Export Plug-In . SVG Version: 6.00 Build 0)  -->
<svg version="1.1" id="_x33_8" xmlns="http://www.w3.org/2000/svg" xmlns:xlink="http://www.w3.org/1999/xlink" x="0px" y="0px"
	 viewBox="137 164.5 2605 4350.8" style="enable-background:new 137 164.5 2605 4350.8;" xml:space="preserve">
<style type="text/css">
	.st0{fill:#FFFFFF;stroke:#000000;stroke-miterlimit:10;}
</style>
<g id="SPLINE_9328_">
	<path id="XMLID_12223_" class="st0" d="M1301.4,2031.6c5.9,9.4,7.8,16.7,13.2,20.5c181.8,126.7,310.6,285.3,412.3,462.1
		c109.5,190.5,310.7,278.5,545.4,325.4c64.1,12.8,97.1-14.6,91.1-64.1c-6.9-57.2-17-116.6-43-169.1
		c-64.3-129.9-183.2-225.6-308.5-316C1808.2,2143.6,1574.7,2055,1301.4,2031.6z"/>
</g>
<g id="SPLINE_9329_">
	<path id="XMLID_12222_" class="st0" d="M781.9,3398.6c119.9-124.7,254.8-221.3,427.7-279.3c117.5-39.4,230.8-87.5,345.7-132.2
		c92.3-35.9,156.6-97,196.2-172c11.8-22.3-2.5-72.4-24.9-84.9c-39.7-22.2-97.1-39.6-142.8-34.2
		C1152.5,2747,818.9,3094.6,781.9,3398.6z"/>
</g>
<g id="SPLINE_9330_">
	<path id="XMLID_12221_" class="st0" d="M2599.5,4267.7c1.9-28.9,4.6-50.6,4.7-72.4c0.4-177.9-5.6-356,2.7-533.6
		c4.8-102.7-19.8-185.4-113.7-258c-161.7-124.9-315.5-256.9-486.4-397.3c10.7,28.1,14.4,42.9,21.7,56.4
		c80.6,149.7,161.4,299.3,242.6,448.7c109,200.6,232.9,396.6,229.4,626.8C2499.5,4186.6,2512,4243.6,2599.5,4267.7z"/>
</g>
<g id="SPLINE_9331_">
	<path id="XMLID_12220_" class="st0" d="M285.7,1058.1c440.9-18.4,875,10.9,1285.2,169.3c-6-12.9-12.5-23.6-22.9-28.9
		c-184.7-92.6-364.4-193.7-556.8-273.5c-146.1-60.6-306.5-100.6-476.1-94.8c-226.5,7.8-256.1,33.4-239.3,211.3
		C276,1043.5,278,1045.4,285.7,1058.1z"/>
</g>
<g id="SPLINE_9332_">
	<path id="XMLID_12219_" class="st0" d="M1668.2,1969.8c137,80.8,277.7,148.6,395.9,237.3c161.1,120.9,329.8,242.5,395.3,426.3
		c13.2,36.9,31.1,55.4,78.1,48c45.4-7.2,72-24.8,67.8-68.3c-3.8-40.2-6-81.5,0.2-121.3c23.8-150.8-79.5-238.1-216.5-309.9
		c-184.8-96.9-387.2-156.5-598.8-196.1C1749.3,1978,1707.4,1974.8,1668.2,1969.8z"/>
</g>
<g id="SPLINE_9333_">
	<path id="XMLID_12218_" class="st0" d="M703.4,3219.1c29.5-50,54.9-102,89.1-149.6c161.2-224,380.3-389.1,687.5-463.8
		c31.3-7.6,58.8-25.8,88-39.1c-21.7-29.4-35.8-68.7-67.2-85.6c-35.1-19-87.9-28.5-129.7-23.4c-174.6,21.2-327,83.9-433.5,204
		C792,2825.8,713.2,3012.4,703.4,3219.1z"/>
</g>
<g id="SPLINE_9334_">
	<path id="XMLID_12217_" class="st0" d="M1844.7,3277.9c8.8,46.1,17.6,92.2,26.3,138.2c39.1,206.2,84.6,411.6,20.3,620.9
		c-21.1,68.5-38.2,141.2-33.9,211.1c7.8,126.2,15.2,123.1,167.3,125.5c70.5,1.1,89.3-19.5,82.3-75c-16.7-133.8-29-267.9-42.2-402
		C2043.4,3677.5,1990.8,3465.8,1844.7,3277.9z"/>
</g>
<g id="SPLINE_9335_">
	<path id="XMLID_12216_" class="st0" d="M1554.3,1426.8c-341.8-105.1-683.9-92.3-1028.3-15.1c18,71,34.3,135.3,52.2,206
		C919.3,1615.2,1206.2,1410.4,1554.3,1426.8z"/>
</g>
<g id="SPLINE_9336_">
	<path id="XMLID_12215_" class="st0" d="M2039.1,1270.3c6.9,0.5,13.8,1,20.7,1.5c5.8-6.8,13.8-12.9,16.9-20.4
		c76.7-189.4,75-378.2,1.6-568.8c-40.3-104.6-66.5-212.8-103.3-318.4c-8-23.1-29.1-52.5-53.1-60.3c-40.4-13.3-85.8-0.2-92.4,41.6
		c-9.7,60.5-26.9,125.4-10.9,182.6C1888.3,776.1,2061.7,1001.8,2039.1,1270.3z"/>
</g>
<g id="SPLINE_9337_">
	<path id="XMLID_12214_" class="st0" d="M1397.3,3440.9c-309.8,2.4-707.3,214-619.1,533.1c117.1-76.4,236.1-159.2,361.8-234.5
		C1266.7,3663.7,1324.6,3552.1,1397.3,3440.9z"/>
</g>
<g id="SPLINE_9338_">
	<path id="XMLID_12213_" class="st0" d="M2065.3,3399.5c-1.7,12.3-4.1,17.2-2.6,20.9c7.7,19.1,16.7,37.9,24.6,57
		c84.3,204.1,114.5,413,106,629.3c-3.1,78.3,40.6,159.9,74.8,236.4c18.7,41.8,89.4,44.3,107.8,6.9c19.7-39.8,31.3-85.5,30.2-128.4
		c-1.2-48.6-24.2-96.6-31-145.5C2341.5,3831.4,2220.2,3615,2065.3,3399.5z"/>
</g>
<g id="SPLINE_9339_">
	<path id="XMLID_12212_" class="st0" d="M598.7,1737c39.6,31,66.4,62.9,103.2,78.6c91.9,39.2,190,35.5,281.1-1.9
		c216.1-88.8,429.9-181.3,656.7-277.5c-89.9,4.3-177.1-2.8-256.7,14.5C1128.5,1605.9,876.8,1670.1,598.7,1737z"/>
</g>
<g id="SPLINE_9340_">
	<path id="XMLID_12211_" class="st0" d="M1582.6,3354c-69.6,113.7-134.1,209.7-188.1,309.6c-63.3,117.1-96.6,240.3-46,367.3
		c11,27.6,47.2,48.3,71.8,72.2c20.7-21,50.7-39.3,60.5-63.3C1568.9,3823.1,1613.2,3601.1,1582.6,3354z"/>
</g>
<g id="SPLINE_9341_">
	<path id="XMLID_12210_" class="st0" d="M2354.9,304.7c14,72.9,25.7,136.3,38.5,199.7c19.2,95,50.1,189.5,56.2,285
		c9,141.8-23.5,280.9-99.2,428.4c238-210.4,271.8-649.2,179.1-913.1C2479.4,304.7,2428.9,304.7,2354.9,304.7z"/>
</g>
<g id="SPLINE_9342_">
	<path id="XMLID_12209_" class="st0" d="M1770.4,1867.1c306,53.2,579.8,160.7,834,337.3c0-78.5-3.6-140.6,1.1-202.3
		c3.7-48.8-17.6-70.1-74-85.4C2282.7,1849.2,2027.1,1859.9,1770.4,1867.1z"/>
</g>
<g id="SPLINE_9343_">
	<path id="XMLID_12208_" class="st0" d="M1532.5,1766.8c357.7-37.7,711.2-4.5,1064.8,54.2c0-65.4,0-128.6,0-196.2
		C2229.7,1629.8,1878.5,1678.4,1532.5,1766.8z"/>
</g>
<g id="SPLINE_9344_">
	<path id="XMLID_12207_" class="st0" d="M1731.1,3273.3c-10.7-0.1-21.4-0.2-32-0.3c3.9,46.7,13.6,93.6,10.6,140
		c-8.5,131.4-15.1,263.4-36.7,393.5c-13.2,79.2-54.3,155-79.8,233c-26,79.3-14.5,156.5,35.9,227.2c10.5,14.8,37.8,27.8,58.2,28.7
		c13,0.6,37.2-21.3,39.9-35.3c26.2-135.1,69.7-270.9,67.5-406.1C1791.3,3660.1,1753.9,3466.8,1731.1,3273.3z"/>
</g>
<g id="SPLINE_9345_">
	<path id="XMLID_12206_" class="st0" d="M706.8,2749.3c11.8-2.5,15.6-2.4,16.7-3.8c6.1-7.3,11.6-15.1,17.4-22.6
		c116.9-152.6,258.5-281.4,471.5-342.4c35.2-10.1,72.1-19.7,102.6-36.5c44.3-24.4,80.2-55.6,45.7-106.5
		c-31.5-46.4-77.6-53.3-130.9-33.3c-56.3,21.2-114.2,41.8-165.3,70.2C862.3,2387.2,748.2,2546.7,706.8,2749.3z"/>
</g>
<g id="SPLINE_9346_">
	<path id="XMLID_12205_" class="st0" d="M1266.5,1254c-212-87.1-789.1-131.2-988.8-79.3c9,111.7,81.1,166.2,197.5,143
		C735.6,1265.9,997.5,1230.7,1266.5,1254z"/>
</g>
<g id="SPLINE_9347_">
	<path id="XMLID_12204_" class="st0" d="M2230.6,1145.8c10.4,0.9,20.9,1.8,31.4,2.8c19.2-57.3,40.4-114.1,57.1-171.9
		c66.9-230.9-62.8-445.8-73.2-671.9c-54.9,0-102.4,0-169,0C2152,586.3,2317.8,850.8,2230.6,1145.8z"/>
</g>
<g id="SPLINE_9348_">
	<path id="XMLID_12203_" class="st0" d="M839.7,3518.5c17-3.6,25.2-3.5,30.5-6.7c162.2-99.1,327.3-190.9,543.3-174.7
		c15.5,1.1,42.4-7.5,46.9-17.1c30.2-65.2,55.9-131.9,88.8-212.1C1277.2,3218,980.3,3266.6,839.7,3518.5z"/>
</g>
<g id="SPLINE_9349_">
	<path id="XMLID_12202_" class="st0" d="M1174.1,2096.9c-131.4-107-194.4-108.6-316.2,9.1c-154.2,148.9-202.1,337-262.3,519.5
		C788.1,2333.1,688.5,2383.2,1174.1,2096.9z"/>
</g>
<g id="SPLINE_9350_">
	<path id="XMLID_12201_" class="st0" d="M1838.2,1234.5c-30.4-97.8-96.3-185.6-178.2-267.6c-67.1-67.1-125.6-140.2-190.8-208.7
		c-18.5-19.4-47.2-32-71.3-47.7c-11.1,28.7-35.6,59-31,85.8c17.1,100.4,85.6,176.2,180.9,238.3
		C1646.9,1099.2,1742.1,1168,1838.2,1234.5z"/>
</g>
<g id="SPLINE_9351_">
	<path id="XMLID_12200_" class="st0" d="M966.3,4372.2c-113.9-119.7-221.8-209.6-390.8-224.3c-20-1.8-50.5,7.9-61.8,20.9
		c-50.4,58.4,30.9,198.6,118.9,202.4C734.9,4375.5,837.7,4372.2,966.3,4372.2z"/>
</g>
<g id="SPLINE_9352_">
	<path id="XMLID_12199_" class="st0" d="M307.3,306.2c-51.3,59.9-50.3,103.3,9.5,144.5c43.1,29.7,88.5,59.9,138.7,79.3
		C602,586.7,751.3,638.1,899.8,691.3c14.3,5.1,29.9,7.5,44.8,11.2c3.7-5.7,7.3-11.4,11-17.2C741,559.8,526.4,434.3,307.3,306.2z"/>
</g>
<g id="SPLINE_9353_">
	<path id="XMLID_12198_" class="st0" d="M1863.2,1036.1c6.4-4,12.9-8,19.3-12.1c-56.4-137.5-112-275.2-170.3-412.2
		c-7.6-17.9-24.8-38.4-44.2-46.2c-31.9-12.8-71.9-25.5-103.3-19.5c-15.4,3-24.5,47.9-26.2,74.4c-1.4,21.1,6.3,46.5,20.8,63.7
		C1659,802.5,1761.6,919.1,1863.2,1036.1z"/>
</g>
<g id="SPLINE_9354_">
	<path id="XMLID_12197_" class="st0" d="M280.3,2946.3c-16.5,164.9-22.4,302,105.9,424.3c69.1,65.8,102.3,157.6,151.7,237.7
		C523.4,3374.3,431.7,3162.5,280.3,2946.3z"/>
</g>
<g id="SPLINE_9355_">
	<path id="XMLID_12196_" class="st0" d="M273.7,1841.9c206.2-86.3,213.2-313.4,105.5-417c-15.3-14.7-50.8-28.2-69.8-23.2
		c-17,4.4-33.7,34.9-34.1,54.2C272.3,1581.7,273.7,1707.5,273.7,1841.9z"/>
</g>
<g id="SPLINE_9356_">
	<path id="XMLID_12195_" class="st0" d="M273,2205.5c184.7-47.7,298.3-251.8,236.9-397c-69.9,50.8-142.8,102.2-212.9,156
		c-13.6,10.4-22.3,30.5-23,46.4C271.5,2073.7,273,2136.5,273,2205.5z"/>
</g>
<g id="SPLINE_9357_">
	<path id="XMLID_12194_" class="st0" d="M882.8,1952.3c-125.3-23.9-204.5-7.6-247.4,78.4c-55.1,110.5-83.9,230.2-121.4,346.5
		c-5.9,18.3,1.9,39.6,3.4,59.5C599.9,2252.9,684.1,2076.7,882.8,1952.3z"/>
</g>
<g id="SPLINE_9358_">
	<path id="XMLID_12193_" class="st0" d="M993.1,581.1c-85.7-224-237.4-312.2-472.6-269.9C680.3,402.4,837.6,492.2,993.1,581.1z"/>
</g>
<g id="SPLINE_9359_">
	<path id="XMLID_12192_" class="st0" d="M283.6,2501.8c-51.3,177.9,21.4,325.5,160.5,460.2C461.5,2823.2,371.6,2568.5,283.6,2501.8z
		"/>
</g>
<g id="SPLINE_9360_">
	<path id="XMLID_12191_" class="st0" d="M1209.1,3830.4c-129.2,41.4-277.1,150.5-306.7,223.7
		C1098.7,4065.5,1211.7,3985,1209.1,3830.4z"/>
</g>
<g id="SPLINE_9361_">
	<path id="XMLID_12190_" class="st0" d="M956.1,306.8c80.1,127.9,158.5,253.1,236.9,378.3c-12.9-98.5-37-194.7-68.7-289.1
		C1088.8,290.5,1085.8,291.3,956.1,306.8z"/>
</g>
<g id="SPLINE_9362_">
	<path id="XMLID_12189_" class="st0" d="M1564.6,4356.9c-31.9-23-63.2-64.7-95.9-65.5c-118.4-2.9-237.2,8-349.1,13.3
		C1240.2,4407.5,1402.8,4364.8,1564.6,4356.9z"/>
</g>
<g id="SPLINE_9363_">
	<path id="XMLID_12188_" class="st0" d="M1699.9,307c-111.3,0-218.2,0-325.2,0c55.7,37.2,114.5,63.2,176.2,82.4
		C1664,424.8,1680.9,414.7,1699.9,307z"/>
</g>
<g id="SPLINE_9364_">
	<path id="XMLID_12187_" class="st0" d="M2320.8,1416.7c-3.8,0.5,2.2,1.1,6.1-1c56.3-30.8,112.6-61.6,168.3-93
		c121.1-68.3,134.6-99.9,98.9-214.5C2504.1,1209.8,2410.5,1315.5,2320.8,1416.7z"/>
</g>
<g id="SPLINE_9365_">
	<path id="XMLID_12186_" class="st0" d="M275,4357.6c95.4-84.6,90.9-305,0-376.6C275,4104,275,4225.6,275,4357.6z"/>
</g>
<g id="SPLINE_9366_">
	<path id="XMLID_12185_" class="st0" d="M1323.5,4214.2c1.6-6.4,3.1-12.8,4.7-19.1c-32.6-39.5-65.2-79-95.9-116.1
		c-67.6,26.9-131,52.1-194.3,77.3c0.2,5.9,0.3,11.9,0.5,17.8C1133.5,4187.4,1228.5,4200.8,1323.5,4214.2z"/>
</g>
<g id="SPLINE_9367_">
	<path id="XMLID_12184_" class="st0" d="M1254,375.7c6.1,113.4,37.8,163.3,120.2,167.1c28.2,1.3,58.9-34.3,97.6-58.9
		C1388.2,442.3,1322.7,409.8,1254,375.7z"/>
</g>
<g id="SPLINE_9368_">
	<path id="XMLID_12183_" class="st0" d="M2607.5,3107c-98.9-30.8-181.4-27.2-274.8,31.5c55.9,13.4,55.2,89.5,133.3,50.4
		C2511.5,3166.1,2553.4,3138.5,2607.5,3107z"/>
</g>
<g id="SPLINE_9369_">
	<path id="XMLID_12182_" class="st0" d="M288.3,565.4c-8.3,3-16.6,6.1-24.9,9.1c13.1,29.8,19,80.2,40.8,85.5
		c69.3,17,144.5,17.2,217.4,23.8c1.2-4.6,2.4-9.2,3.5-13.8C446.2,635.2,367.2,600.3,288.3,565.4z"/>
</g>
<g id="SPLINE_9370_">
	<path id="XMLID_12181_" class="st0" d="M301.1,3431c-8.9,2.7-17.8,5.4-26.6,8.1c-21.2,125.6,127.4,184,157.1,289.4
		c8.5-3.3,17-6.6,25.5-9.8C405.2,3622.8,353.2,3526.9,301.1,3431z"/>
</g>
<g id="SPLINE_9371_">
	<path id="XMLID_12180_" class="st0" d="M2515.3,2847.6c29.5,32.3,51.5,56.5,82.7,90.7c0-50.8,0-84.6,0-126.1
		C2568.5,2824.9,2548.3,2833.5,2515.3,2847.6z"/>
</g>
<g id="SPLINE_9372_">
	<path id="XMLID_12179_" class="st0" d="M2598.3,3343.3c0-40.7,0-72.2,0-106.1C2508.8,3272.9,2508.5,3282.3,2598.3,3343.3z"/>
</g>
</svg>
