<?xml version="1.0" encoding="utf-8"?>
<!-- Generator: Adobe Illustrator 19.1.1, SVG Export Plug-In . SVG Version: 6.00 Build 0)  -->
<svg version="1.1" id="_x33_9" xmlns="http://www.w3.org/2000/svg" xmlns:xlink="http://www.w3.org/1999/xlink" x="0px" y="0px"
	 viewBox="137 164.5 2605 4350.8" style="enable-background:new 137 164.5 2605 4350.8;" xml:space="preserve">
<style type="text/css">
	.st0{fill:#FFFFFF;stroke:#000000;stroke-miterlimit:10;}
</style>
<g id="SPLINE_9374_">
	<path id="XMLID_12328_" class="st0" d="M639,1165.5c12.5-2.4,26.2-3.3,37.7-0.5c144.5-14.1,272.8-25.6,400.7-39.6
		c79.5-8.7,127.9-65.6,135.3-146c12.1-40.7,18.1-69.3,27.2-103.9c2.6-27,25.1-104.5,20.2-189.6c-5-86.3,6.5-173.9-7.2-258.9
		c-16.6-102.9-41.2-110.7-168.4-89.7c1.1,8.7,0,18.2,3.6,26.3c87.1,199-12.2,376.4-106,548.5c-26.9,29.7-63.9,32.6-106.5,48.8
		c-48.4,22.1-81.9,37.6-112.3,50.9c-135,66.7-267.8,131-398.1,198.6c-14.8,7.7-15.4,34.4-30.5,72.1c84.3-32.6,145.6-54.1,204.5-79.6
		C600.3,1176.4,639,1165.5,639,1165.5z"/>
</g>
<g id="SPLINE_9375_">
	<path id="XMLID_12327_" class="st0" d="M1242.4,3125.5c27.6,19.6,48.7,41.6,76.2,52.9c127.3,52.3,205.5,126.3,214.7,252.9
		c6.5,89.6,43,177.7,71.3,286.4c55.3-62.3,104.4-102.9,132.5-151.8c106.9-186,21.3-422.7-188.6-531.8c-22.1-11.5-60-20-80.6-12
		C1395.4,3049.8,1327.4,3085.6,1242.4,3125.5z"/>
</g>
<g id="SPLINE_9376_">
	<path id="XMLID_12326_" class="st0" d="M1239,3970.5c174.4,14.3,312.8-160.9,276.1-295.3c-20.3-74.3-59.6-147.5-62.3-221.9
		c-3.5-97.1-69.4-150.4-150-200c-151.9-93.4-370.8-94.5-477,19.6c76.6,21.9,156,45,235.8,67c22.8,6.3,47.1,14.5,70.3,13.6
		c95.4-3.8,136,48.2,159,110.8c25,68.4,44.2,138.8,57.6,209.4C1369.4,3784.1,1397,3898.5,1239,3970.5z"/>
</g>
<g id="SPLINE_9377_">
	<path id="XMLID_12325_" class="st0" d="M2049,2285.4c-107,0-202.7-10.5-293.7,2.4c-145.6,20.6-250.4-20-336.3-113.4
		c-17.5-19-46.2-30.8-71.1-46.9c-22,68.3-43.3,125.3-57.4,183.6c-5.4,22.2-4.8,58.4,11.4,69.2c71.9,47.8,144.4,102.5,228.4,128
		c74,22.4,172.6,53.4,237.3-31.8c7.1-9.4,27.8-15.5,42.7-16.3C1938.5,2453.9,1986,2371.7,2049,2285.4z"/>
</g>
<g id="SPLINE_9378_">
	<path id="XMLID_12324_" class="st0" d="M1791.5,4363.1c40-99.1,87.4-181.4,104-267.8c17.9-93.3,81.9-152.3,158.5-209.4
		c20.9-15.6,43.9-29.2,67.4-44.8c-77.1-74.4-163.3-90.2-266.2-60.2c-164.3,47.9-293.4,219-267,362.1c3.5,19.2,21,47.3,39.3,52.1
		C1718.5,4219.1,1754.8,4279.2,1791.5,4363.1z"/>
</g>
<g id="SPLINE_9379_">
	<path id="XMLID_12323_" class="st0" d="M1409.5,1755.8c-103.2,130.3-13.9,293.1,88.2,387.7c67.8,62.8,141.4,100.5,252.8,75.9
		c62.4-13.8,133.5-4.2,200.2,0c191.2,11.9,337.2-123.9,287.2-277.9c-6.1,80.6-82.7,99.8-150,127.5
		c-122.3,50.3-249.6,12.4-374.5,14.6c-83.1,1.4-137.3-31.3-149.5-105.2c-3.5-21.3-18.3-42.2-32.1-61.2
		C1492.2,1862.9,1450.6,1809.7,1409.5,1755.8z"/>
</g>
<g id="SPLINE_9380_">
	<path id="XMLID_12322_" class="st0" d="M1421.3,4006.7c-95.1,5.7-190.7,9.6-285.7,18.2c-33.3,3-69.5,12-96.6,27.7
		c-76,43.9-155.9,50.9-236,18.5c-93-37.6-181.5-82.8-273.5-125.4c-35.2,37.7-41.1,112.6-0.8,151.9c95,92.6,214,144.4,363.1,152.9
		c241,13.7,374.2-129.8,528.9-242.9C1424.8,4004.7,1423,3996.3,1421.3,4006.7z"/>
</g>
<g id="SPLINE_9381_">
	<path id="XMLID_12321_" class="st0" d="M2321.3,2073.2c3.7-4.2,16.8-14.7,23.9-27.5c32.3-58.8,57-121,95-177.1
		c123.1-181.8,2.8-428.4-188.8-520.6c-85.9-41.3-126.7-36.8-199.5,24.2c37.1,29,76.9,56,110.8,87.3
		c97.5,90.2,184.5,183.9,122.1,317.9c-8.2,17.6-5.3,40.2-2.3,59.9C2294.4,1916.8,2308.4,1996.2,2321.3,2073.2z"/>
</g>
<g id="SPLINE_9382_">
	<path id="XMLID_12320_" class="st0" d="M2562.8,2173c-153.8,13.6-249.3,84.9-332.5,167.1c-84.8,83.8-93.4,273.1,74.1,330
		c46.6-102.1,113.1-191.6,234.4-245c12.5-5.5,22.5-24.8,22.9-37.9C2564,2320.3,2562.8,2253.3,2562.8,2173z"/>
</g>
<g id="SPLINE_9383_">
	<path id="XMLID_12319_" class="st0" d="M1181,3142.2c-79.1-87.5-271.2-130.9-373.9-96.5c-97.4,32.6-193.8,67.4-289.5,103.1
		c-68.9,25.7-83.5,100.2-27.2,142.6c54.9,41.4,113.4,79.5,182.4,127.4C728.4,3199,883.5,3088.5,1181,3142.2z"/>
</g>
<g id="SPLINE_9384_">
	<path id="XMLID_12318_" class="st0" d="M2105.3,2475.9c-10.3-0.3-20.7-0.5-31-0.8c-7.9,27-16.1,54-23.5,81.1
		c-8.8,32.3-10.6,67.1-26.5,96.7c-65.3,121.4-38.2,241.1,83.7,326.7c59.6,41.9,131,52.8,228.3,41.3
		C2256.6,2832.6,2181,2654.2,2105.3,2475.9z"/>
</g>
<g id="SPLINE_9385_">
	<path id="XMLID_12317_" class="st0" d="M1299.4,2074.6c13.2-6.4,26.4-12.9,39.7-19.3c-87.8-199.1-48-360.8,196.3-455.3
		c-66.1-46.3-117.9-87.3-175.5-121.6c-66.6-39.7-131.4-11.3-138.3,54.5c-2.2,21.4-10.4,43.7-22.1,63
		c-90.1,148.8-24.3,282.1,57,414.1C1269.9,2031.8,1285,2053.1,1299.4,2074.6z"/>
</g>
<g id="SPLINE_9386_">
	<path id="XMLID_12316_" class="st0" d="M987.7,712.8c9.5,0.7,19,1.4,28.5,2c13.3-100.5,34.4-200.9,36.5-301.6
		c1.1-50.4-42.5-88.8-118.4-85c-69.6,3.5-139.8,0.8-209.7,0.8c-72.5,0-145,0-217.4,0c-4.7,8.5-9.5,17-14.2,25.5
		C753.5,388.8,853.9,565.7,987.7,712.8z"/>
</g>
<g id="SPLINE_9387_">
	<path id="XMLID_12315_" class="st0" d="M1989.3,1318.6c-43.6-72.9-99.2-99-193.4-77.3c-50.8,11.7-111.6,3.3-165.3-6.1
		c-95.5-16.7-158.6-0.7-201.5,61.8c-37.4,54.5-24.7,143.3,36.2,184.8c22.1,15.1,78.7,24.6,93.2,13.3
		c113.6-88.5,231.9-163.7,398.1-160.6C1965.4,1334.6,1974.6,1326,1989.3,1318.6z"/>
</g>
<g id="SPLINE_9388_">
	<path id="XMLID_12314_" class="st0" d="M837.4,2475.4c-1.3,211.7,299.7,299,449.8,177.5c46.5-37.7,116-55.8,174.9-82.8
		c-0.6-7.5-1.2-14.9-1.8-22.4C1253.6,2523.6,1046.9,2499.7,837.4,2475.4z"/>
</g>
<g id="SPLINE_9389_">
	<path id="XMLID_12313_" class="st0" d="M458.8,3897c3.2-19,10.5-32.7,6.8-43.8c-42.1-125.5,19.3-237.2,65.6-351
		c12.3-30.3,71.4-56.6,20.1-92.3c-33.6-23.4-74.9-44-116.8-53.1c-59.7-12.9-94.9,6-92.5,66.7c4.7,116.4,6.3,233.2-0.2,349.5
		C337.9,3842.7,374.6,3876.7,458.8,3897z"/>
</g>
<g id="SPLINE_9390_">
	<path id="XMLID_12312_" class="st0" d="M2523.1,3801.9c-10.8-2.9-22-5.1-32.5-8.8c-136.9-48.3-218-124.1-168.1-255.8
		c12-31.7,29.1-62.2,38.3-94.3c3.9-13.8-0.1-37.3-11.5-44.6c-53.6-34.1-141.9-14.1-169.8,37.6c-50.8,94.3-50.8,187.5,22.9,274.4
		C2281,3803.1,2396.8,3815.7,2523.1,3801.9z"/>
</g>
<g id="SPLINE_9391_">
	<path id="XMLID_12311_" class="st0" d="M346.1,953.8c-1.5,9.9-2.9,19.9-4.4,29.8c35.3,6.6,70.6,18.9,105.9,18.8
		c147.2-0.2,285.2-26.7,414.2-91.8c61.5-31.1,101.2-66.3,101.9-123.9c0.8-64-44.9-108.6-100.2-148c-64.7,89.8-115,180.5-188.1,255.7
		C593,979.1,464.7,962.2,346.1,953.8z"/>
</g>
<g id="SPLINE_9392_">
	<path id="XMLID_12310_" class="st0" d="M1290.3,332.9c1.3,23.4-1,53.2,11.6,94.4c0,0,4,15.5,5.6,32c1.8,12.3,1.8,21.6,2.8,38.8
		c0,59,0,118.1,0,180.2c22.3-4.3,37.8-9.8,53.2-9.9c93.2-0.5,138.6-43.2,142.5-116.2c3.9-72.5,0.9-145.3,0.9-219.4
		C1421,332.9,1355.1,332.9,1290.3,332.9z"/>
</g>
<g id="SPLINE_9393_">
	<path id="XMLID_12309_" class="st0" d="M983.9,1868.3c-135.1,5.9-282.1,161.1-315.4,332.9C849.2,2229.1,1025.1,2043.4,983.9,1868.3
		z"/>
</g>
<g id="SPLINE_9394_">
	<path id="XMLID_12308_" class="st0" d="M587.2,3507.2c-4.7,2.3-16.4,5.2-16.6,8.5c-4.3,102.2-8.2,204.4-10,306.7
		c-0.1,9.2,11.5,21.2,21.7,27.5c89.4,55.5,175.4,116.2,271.3,162.7c63.2,30.6,128.8,9.2,191.4-61c-64.5-13.5-114.8-32-165.7-33.2
		c-110.6-2.6-188.3-48.3-214.2-138.5C639,3689.6,613.5,3599.1,587.2,3507.2z"/>
</g>
<g id="SPLINE_9395_">
	<path id="XMLID_12307_" class="st0" d="M420.9,1810.2c-56.2,2.2-82.3,21.7-78.5,71.3c4.6,60.4,1,121.3,1,181.9
		c0,93.1,0,186.2,0,287c106.8-37.1,154.8-99.9,146.1-178.1C475.9,2051.2,444.7,1931.4,420.9,1810.2z"/>
</g>
<g id="SPLINE_9396_">
	<path id="XMLID_12306_" class="st0" d="M1000.7,3858.7c75.4,57.6,161,70.5,241.1,38.2c68.5-27.7,59.4-84.9,51.6-129.3
		c-16.9-96.2-49.1-190.5-73.2-285.9c-10.4-41.1-34.7-62.6-87.9-61.2c-56.7,1.5-102.9,12.3-122.2,64.8
		c161.5,28.8,225.6,78.6,230,174.1C1244.9,3765.6,1184.9,3816.8,1000.7,3858.7z"/>
</g>
<g id="SPLINE_9397_">
	<path id="XMLID_12305_" class="st0" d="M1606,1507.4c88.2,0,175.1,1.9,261.9-0.5c133.9-3.6,210,45.5,245.4,154
		c12.2,37.3,41.7,70.7,63.3,105.8c57.4-59.6,77.6-111.2,21-164c-41.1-38.4-76.9-82.1-124.2-114.1c-46.7-31.6-108.1-75.9-157.4-71.5
		c-102.9,9.2-202.1,46.7-302.5,73.5C1609.1,1491.9,1608.2,1502.1,1606,1507.4z"/>
</g>
<g id="SPLINE_9398_">
	<path id="XMLID_12304_" class="st0" d="M889.2,1829.5c-4-6.1-8-12.1-12-18.2c-50.7,0-101.9-3.5-152.1,0.7
		c-91,7.6-183.4,86.1-177.2,158.3c6,71.2,27.9,141.4,42.9,212.1C673.2,2050.9,717,1905.2,889.2,1829.5z"/>
</g>
<g id="SPLINE_9399_">
	<path id="XMLID_12303_" class="st0" d="M2119.7,697c-67.4,170.9-28.6,381.6-302.4,458.8c126.1,19.1,258.4-22.4,303.6-85.3
		C2193.5,969.6,2194.5,781,2119.7,697z"/>
</g>
<g id="SPLINE_9400_">
	<path id="XMLID_12302_" class="st0" d="M1702.1,3083.3c2.8-92.7-18-176.7,57.3-253.5c17.8-18.2-33.9-83.6-53.6-127.3
		c-36.7,13.5-86.7,19-106.6,42.4c-23.7,27.7-26.3,70.5-28.9,107.2c-2,28.2,17.2,57.5,14.6,85.5
		C1578.4,3009.4,1624.3,3048.8,1702.1,3083.3z"/>
</g>
<g id="SPLINE_9401_">
	<path id="XMLID_12301_" class="st0" d="M2066.5,1752.1c23.7,120.1-1,210.6-130.2,246.1c-139.6,38.4-209.8-42-264.5-135.9
		c-72.8,92.7-39.7,165.8,76.1,168.4c117.5,2.7,235.7-8.1,352.9-18.7c22.3-2,55.8-28.3,59.1-46.6
		C2173.4,1891,2166.5,1818.3,2066.5,1752.1z"/>
</g>
<g id="SPLINE_9402_">
	<path id="XMLID_12300_" class="st0" d="M726.2,2964.2c-11.1-49.7-21.2-102.2-34.7-154c-36.4-139.5-186-214-333.7-160.3
		C482.8,2756.4,605.6,2861.2,726.2,2964.2z"/>
</g>
<g id="SPLINE_9403_">
	<path id="XMLID_12299_" class="st0" d="M2452.1,3016.8c-12.5-64.5-24.4-119-33.3-173.8c-13.7-85-15.4-176,81.1-223.9
		c71.7-35.5,67.3-72.5,57.9-124.2C2313.1,2568.8,2246.4,2869.9,2452.1,3016.8z"/>
</g>
<g id="SPLINE_9404_">
	<path id="XMLID_12298_" class="st0" d="M2452.6,1150.3c-14.6-19.7-27.9-40.2-44-59c-59.2-69-69.7-143.8-41.8-224.1
		c14.1-40.7,35.6-48.4,81.9-24c29.7,15.7,70.3,17,114,26.6c0-55.7,4.9-92.2-2.3-127c-3-14.5-39.2-38.8-47.6-35.6
		c-60.4,23-132.5,41.5-172.5,81.2C2251.7,876.3,2315.9,1094,2452.6,1150.3z"/>
</g>
<g id="SPLINE_9405_">
	<path id="XMLID_12297_" class="st0" d="M895.8,1211.6c-6.1-2.1-12.3-4.3-18.4-6.4c-33.4,61.2-68.8,121.6-98.8,183.9
		c-8.3,17.2-10.7,47.7,1.5,58.5c85.1,75.4,174.3,147.7,263.8,219.7c8,6.4,27.2,3.3,37,4.2c-34.8-57.2-66.8-112.2-101.7-165.9
		c-12.5-19.2-35-33.9-47.5-53.1c-21.8-33.6-51.4-68.2-55.6-104.2C871,1303.8,888.3,1257.3,895.8,1211.6z"/>
</g>
<g id="SPLINE_9406_">
	<path id="XMLID_12296_" class="st0" d="M2336.2,3896.4c-69.5-74.9-98.9-82.6-172.2-26.2c-64.7,49.7-123.2,107.1-173,167.6
		c-64.2,78-16.5,146.9,99.7,155.8C2120.4,3950.6,2121.5,3949.3,2336.2,3896.4z"/>
</g>
<g id="SPLINE_9407_">
	<path id="XMLID_12295_" class="st0" d="M2237.3,355.6c13.3,39.2,14,90.6,44.5,122.1c85.3,88.2,184.5,33.3,275.6,8.5
		c0-39.5,0-74.4,0-103.9C2454.3,373.6,2357.5,365.6,2237.3,355.6z"/>
</g>
<g id="SPLINE_9408_">
	<path id="XMLID_12294_" class="st0" d="M649.7,1511.8c-12.6,117.2,65.7,221.4,176,231.5c80.4,7.4,162.6,1.4,244.3,1.4
		C930.6,1667.5,793.5,1591.5,649.7,1511.8z"/>
</g>
<g id="SPLINE_9409_">
	<path id="XMLID_12293_" class="st0" d="M1705.2,1566.5c-15.6-5.6-31.2-11.3-46.7-16.9c-55.6,59.8-119.4,115.9-162,181.5
		c-13.7,21,17.7,80.4,48.3,97.5c22.2,12.4,106.1-9.1,112.6-27.5C1683.7,1725.4,1690.9,1645.1,1705.2,1566.5z"/>
</g>
<g id="SPLINE_9410_">
	<path id="XMLID_12292_" class="st0" d="M650.9,3578.2c96-27.3,175-36.9,233.9-70.8c43.7-25.2,61.2-81.9,90.4-124.5
		c-44.6-10.8-88.6-26.4-134.1-30.1c-19.4-1.6-46.4,18.6-61.7,34.4c-32.1,33-60.6,68.7-86.8,105.1
		C677.7,3512.8,670.4,3537.1,650.9,3578.2z"/>
</g>
<g id="SPLINE_9411_">
	<path id="XMLID_12291_" class="st0" d="M1840.6,3249.9c18.2,22.7,46,57.6,74.2,92.2c7.5,9.2,15.6,18.3,25,26.1
		c42.6,35.1,119,40.4,153.5,11.3c30.6-25.9,27-203-5.3-232.7c-2-1.8-9.9,0.7-16.3,1.3c-28.3,33.6-48.8,80.1-88.2,98.1
		C1946.6,3263.2,1889.7,3249.9,1840.6,3249.9z"/>
</g>
<g id="SPLINE_9412_">
	<path id="XMLID_12290_" class="st0" d="M1996.9,577.1c-84.3-89.7-184.7-91.5-298.4-45c-98.9,40.5-66.2,101.2-68.8,178.4
		c33.4-3.4,80.3-12.8,82.4-26.7c9.2-61.1,62.6-66.2,114.8-76.1C1883.3,596.9,1939.9,587.2,1996.9,577.1z"/>
</g>
<g id="SPLINE_9413_">
	<path id="XMLID_12289_" class="st0" d="M407.6,1600.1c5,2.7,10,5.5,14.9,8.2C476,1496,529.5,1383.7,586,1265
		c-161.7-3.4-217.4,51.3-194.9,158.5C403.2,1481.4,402.5,1541.2,407.6,1600.1z"/>
</g>
<g id="SPLINE_9414_">
	<path id="XMLID_12288_" class="st0" d="M1492.4,881.4c-8.9-0.4-17.8-0.9-26.6-1.3c-17.7,22.1-31.2,47.8-53.8,65.6
		c-64.8,51.1-62.5,103.4-23.1,165.6c50,78.8,67.4,84.5,166.5,30.4c-18.1-43.7-41.9-87.1-53.2-132.6
		C1491.8,967.8,1495.1,924.1,1492.4,881.4z"/>
</g>
<g id="SPLINE_9415_">
	<path id="XMLID_12287_" class="st0" d="M2558.9,4108.4c-107.1,63.8-193.3,124.7-197.8,238.9c67.7,0,130.6,0,197.8,0
		C2558.9,4270.3,2558.9,4197.2,2558.9,4108.4z"/>
</g>
<g id="SPLINE_9416_">
	<path id="XMLID_12286_" class="st0" d="M1932.4,887.8c4.8,3.4,9.6,6.8,14.5,10.2c26.7-31.7,65.4-60.5,77.9-95.7
		c51.5-144.7,19.4-184.3-138.2-152.1c-20.4,4.2-46.9-4-63.1,4c-22.8,11.2-38.8,32.1-57.6,48.9c23.2,8.8,47.1,26.3,69.4,24.9
		c90.2-5.5,112.9,8.1,110.9,82C1945.4,836.1,1937.2,861.9,1932.4,887.8z"/>
</g>
<g id="SPLINE_9417_">
	<path id="XMLID_12285_" class="st0" d="M1706.9,459.7c167.3-92.4,272,28.5,401.3,86.2c-11.9-109.8-66.7-171.8-156.4-191.4
		C1856.9,333.7,1783.2,361.3,1706.9,459.7z"/>
</g>
<g id="SPLINE_9418_">
	<path id="XMLID_12284_" class="st0" d="M1587,974.9c-22.1,57.8-7.3,112,46.2,132.9c109.8,42.9,294.2-37.2,334.5-135.3
		c1.8-4.4-5.2-11.4-8.1-17.1C1733.1,1025.2,1733.1,1025.2,1587,974.9z"/>
</g>
<g id="SPLINE_9419_">
	<path id="XMLID_12283_" class="st0" d="M1222.7,2097.2c27.5,109.7,23.8,203.7-95.4,242.2c-95.9,31-203.1,37.7-299,54.1
		c122.9,73.9,247.7,74.9,341.5-1.9C1258.6,2318.9,1292.8,2179.9,1222.7,2097.2z"/>
</g>
<g id="SPLINE_9420_">
	<path id="XMLID_12282_" class="st0" d="M2253.4,946.2c-37.8-202.9,113-268.2,304.3-300.6c0-33.7,0-64.2,0-120
		c-52.1,27-89.4,42.7-121.3,63.9c-37.3,24.7-66.1,59.3-105.5,80.7C2232.4,723.5,2192,842.1,2253.4,946.2z"/>
</g>
<g id="SPLINE_9421_">
	<path id="XMLID_12281_" class="st0" d="M1689.5,4343.8c-38.7-101.7-168.4-150-300.3-111.8
		C1481.4,4352.7,1523.9,4368.6,1689.5,4343.8z"/>
</g>
<g id="SPLINE_9422_">
	<path id="XMLID_12280_" class="st0" d="M1703.7,971.2c19.4-77.9,34.1-136.9,52.6-211.3c-36.6,2.2-85.8-6.2-116.6,9.9
		c-39,20.3-94.8,81.9-88.3,88.7C1592.8,901.2,1649.4,933.6,1703.7,971.2z"/>
</g>
<g id="SPLINE_9423_">
	<path id="XMLID_12279_" class="st0" d="M2170.3,3326c53.3,0,98.9,4.1,142.9-1.3c36.3-4.4,86.9-11.8,101.6-32.5
		c16-22.5-1.9-61.8-6.3-105.9c-83,33.6-146.1,69.6-226.8-6.6C2176.6,3245.9,2173.4,3285.9,2170.3,3326z"/>
</g>
<g id="SPLINE_9424_">
	<path id="XMLID_12278_" class="st0" d="M1931,2854.9c-24.2-111.3-47.4-217.7-73.9-338.9c-58.5,51.6-74.7,108.7-83.6,162.3
		C1765.7,2726.1,1873.6,2843.6,1931,2854.9z"/>
</g>
<g id="SPLINE_9425_">
	<path id="XMLID_12277_" class="st0" d="M1776.6,3050.6c47-63.9,88.5-111.7,149.2-62.3c37.1,30.2,50.3,80.9,80.5,133.2
		c41.4-74.2,20.7-138.6-31.3-175.2c-47.4-33.4-124.4-39.5-189.9-51.7c-10.5-1.9-42.4,27.6-41.7,41.9
		C1744.9,2968.3,1760.6,2999.7,1776.6,3050.6z"/>
</g>
<g id="SPLINE_9426_">
	<path id="XMLID_12276_" class="st0" d="M654.5,3004c-58-116-189.9-146.9-305.9-200.7c-12.5,123.9-8.7,125.1,132.4,149.8
		C537.3,2963,590.5,2984.8,654.5,3004z"/>
</g>
<g id="SPLINE_9427_">
	<path id="XMLID_12275_" class="st0" d="M1066.9,2983.5c43.3,19,84.4,37.8,126.3,55.2c55.7,23.2,90.5-6.5,108-41.5
		c12-24,12.2-74.5-3.1-81.4c-41.7-18.9-93.1-52.2-143.9-8.5C1127,2930.7,1100.2,2954.4,1066.9,2983.5z"/>
</g>
<g id="SPLINE_9428_">
	<path id="XMLID_12274_" class="st0" d="M2137.6,3751.3c-24.8-51.4-52.3-108.3-79.9-165.4c-77.9,34.5-156.6,69.4-244.1,108.1
		C1937.6,3715.9,2042.9,3734.5,2137.6,3751.3z"/>
</g>
<g id="SPLINE_9429_">
	<path id="XMLID_12273_" class="st0" d="M1475.3,2750c-135.7,9.2-251.4,17.1-369.6,25.1c23,42.2,159.3,94.6,220,78.2
		C1383.5,2837.7,1441.6,2811.9,1475.3,2750z"/>
</g>
<g id="SPLINE_9430_">
	<path id="XMLID_12272_" class="st0" d="M937.6,2919.9c5.3,9,10.6,17.9,16,26.9c41.3-8.8,91.4-8.4,121.7-28.6
		c41-27.4,7.9-59.3-20.5-85.2c-10.5-9.6-18.1-22.2-24-34.4c-37.5-77.7-129.7-93.5-221.4-32.2c54.7,12.3,114.7,13.1,153.4,37.5
		C1020.9,2840.3,993.7,2885.6,937.6,2919.9z"/>
</g>
<g id="SPLINE_9431_">
	<path id="XMLID_12271_" class="st0" d="M2178.4,4183.2c97.4-23,188.5-43.1,278.2-67.2c16.6-4.5,39.6-27,37.2-37.7
		c-3.5-15.6-24.6-34.3-43.4-40.1c-23.1-7.2-55.8-9.9-76.9-1.4C2293.9,4068.8,2213.9,4103,2178.4,4183.2z"/>
</g>
<g id="SPLINE_9432_">
	<path id="XMLID_12270_" class="st0" d="M809.5,1222.6c-114.2-8.9-136.8-1.8-157.9,44.9c-37.9,83.8-23,135.6,40.1,172.2
		C729.6,1369.6,768.3,1298.5,809.5,1222.6z"/>
</g>
<g id="SPLINE_9433_">
	<path id="XMLID_12269_" class="st0" d="M1594.2,3859.6c-69.6,127.7-148.6,243.4-285.1,327.3c65.5-8.3,131.1-16.6,175.2-22.2
		C1523.2,4056.7,1558.7,3958.1,1594.2,3859.6z"/>
</g>
<g id="SPLINE_9434_">
	<path id="XMLID_12268_" class="st0" d="M1141.3,2108.9c-88,63.6-234.6,25.7-307.2,126.5C983.2,2267.7,1089.8,2226.3,1141.3,2108.9z
		"/>
</g>
<g id="SPLINE_9435_">
	<path id="XMLID_12267_" class="st0" d="M538.6,424c-33.2,69.6-9.5,154.9,47.5,160.1c24.5,2.2,65.7-21.3,77.1-41.8
		C692.4,490.2,645.5,447.6,538.6,424z"/>
</g>
<g id="SPLINE_9436_">
	<path id="XMLID_12266_" class="st0" d="M342.6,1069c2.1,33.9,4,64.9,7.1,114.7c106.8-50,195.4-91.4,283.8-132.8
		c-3.2-4.1-6.5-8.1-9.7-12.2C534.1,1048.4,444.4,1058,342.6,1069z"/>
</g>
<g id="SPLINE_9437_">
	<path id="XMLID_12265_" class="st0" d="M1933.4,4211.1c-50,121-5.8,152.5,170.6,134.9C2120.8,4236.9,1990,4263.1,1933.4,4211.1z"/>
</g>
<g id="SPLINE_9438_">
	<path id="XMLID_12264_" class="st0" d="M1014.1,4340.7c2.4,7.7,4.7,15.3,7.1,23c104.4-18.5,208.8-37,324.3-57.4
		C1255.3,4242,1096.2,4264.3,1014.1,4340.7z"/>
</g>
<g id="SPLINE_9439_">
	<path id="XMLID_12263_" class="st0" d="M464.2,759.2c26.3-45.6,53.7-75.9,60-109c5.2-27.5-14.5-58.2-23.1-87.5
		c-26.7,13.9-54.9,26.2-79.5,42.3c-18.4,12-32.4,28.7-52.5,47.2C396.3,682.9,422.5,712.3,464.2,759.2z"/>
</g>
<g id="SPLINE_9440_">
	<path id="XMLID_12262_" class="st0" d="M588.5,1462.2c-77.4,94.2-152.7,185.9-211.2,257.1c55.6-25,136.8-61.5,211.2-95
		C588.5,1566.8,588.5,1512.1,588.5,1462.2z"/>
</g>
<g id="SPLINE_9441_">
	<path id="XMLID_12261_" class="st0" d="M1992.4,3554.3c-72.2-37.9-126.8-29-168.2,19.4c-43.7,51-87.7,101.8-131,153
		c-13.9,16.5-26.1,34-45.2,59.1c107.5-14.8,97.6-97.5,148.8-133.5C1851.6,3613.8,1920.8,3589.2,1992.4,3554.3z"/>
</g>
<g id="SPLINE_9442_">
	<path id="XMLID_12260_" class="st0" d="M2409.4,3873.4c-5,8.1-10.1,16.2-15.1,24.3c48.7,41.1,97.4,82.2,146.1,123.3
		c5.4-4.4,10.7-8.9,16.1-13.3c0-47.1,0-94.2,0-144.4C2502.9,3867,2456.2,3870.2,2409.4,3873.4z"/>
</g>
<g id="SPLINE_9443_">
	<path id="XMLID_12259_" class="st0" d="M882.6,3860.9c-58-80.7-111.6-155.4-163.5-227.7C659.3,3726,746.2,3858.3,882.6,3860.9z"/>
</g>
<g id="SPLINE_9444_">
	<path id="XMLID_12258_" class="st0" d="M2488.8,1936.8c-57.9,81.4-113.8,159.8-162.7,228.5c47-14.5,131.7-19.6,162.7-56.1
		c31-36.5,8.3-104.6,8.7-158.9C2497.4,1946.8,2493.1,1943.3,2488.8,1936.8z"/>
</g>
<g id="SPLINE_9445_">
	<path id="XMLID_12257_" class="st0" d="M1085.4,1880.2c-10.9,2.5-21.9,4.9-32.8,7.4c-2.4,28.1-4.6,56.3-7.3,84.4
		c-7.7,80.8,23.4,99.7,136.7,68.9C1149.1,1986,1117.3,1933.1,1085.4,1880.2z"/>
</g>
<g id="SPLINE_9446_">
	<path id="XMLID_12256_" class="st0" d="M2566.3,1433c-75.5-87.6-144.5-167.8-218.5-253.6C2343.6,1300.4,2436.4,1408.8,2566.3,1433z
		"/>
</g>
<g id="SPLINE_9447_">
	<path id="XMLID_12255_" class="st0" d="M2047.7,1666.9c-5.4-55.6-31.3-87.9-88.4-98c-65.4-11.6-132.4-26.2-198.5,21.5
		c55.7,13.3,99.3,22.8,142,34.2C1947.8,1636.6,1992.1,1650.6,2047.7,1666.9z"/>
</g>
<g id="SPLINE_9448_">
	<path id="XMLID_12254_" class="st0" d="M696.9,4352.4c-108.2-118.9-204.6-147.7-320.4-97.3C482.9,4287.4,583.7,4318,696.9,4352.4z"
		/>
</g>
<g id="SPLINE_9449_">
	<path id="XMLID_12253_" class="st0" d="M1525,739c-119-29.4-187.5,54.8-168.4,198.2C1413.5,870.1,1468.4,805.6,1525,739z"/>
</g>
<g id="SPLINE_9450_">
	<path id="XMLID_12252_" class="st0" d="M504.4,2397.8c-61.9,65.7-114.2,121.3-166.6,176.9c5.3,4.2,10.6,8.4,16,12.6
		c44-3.8,88.1-7.6,127.5-11C488.8,2517.9,495.7,2465.2,504.4,2397.8z"/>
</g>
<g id="SPLINE_9451_">
	<path id="XMLID_12251_" class="st0" d="M1184.4,2178.8c-132,128.2-274.6,182.7-455.7,93c111.8,75.3,236.3,63.6,356.9,38.4
		C1144.8,2297.9,1190.1,2257.9,1184.4,2178.8z"/>
</g>
<g id="SPLINE_9452_">
	<path id="XMLID_12250_" class="st0" d="M2552.1,3022.6c-17.7-63.9-49.1-126.1-48-187.9c1.1-61.9,34.7-123.4,56-191.5
		C2436.9,2710.5,2438.4,2926.1,2552.1,3022.6z"/>
</g>
<g id="SPLINE_9453_">
	<path id="XMLID_12249_" class="st0" d="M352.2,3010.6c35.2,37.4,48.6,64.9,71.9,73.2c29.9,10.7,69,11.3,101.6,5.8
		c17.6-3,29.8-27.9,44.4-43c-26.3-12-51.2-30-79.2-34.6C453.7,3006.1,414.1,3010.6,352.2,3010.6z"/>
</g>
<g id="SPLINE_9454_">
	<path id="XMLID_12248_" class="st0" d="M2308.6,4348.7c-9.8-34.5-7.2-74.3-29.2-89.7c-22.4-15.6-69-7-105.1-9.1
		c0,32.9,0,65.9,0,98.8C2220.4,4348.7,2254.7,4348.7,2308.6,4348.7z"/>
</g>
<g id="SPLINE_9455_">
	<path id="XMLID_12247_" class="st0" d="M2116.8,3050.2c-6.1,9.4-12.2,18.8-18.3,28.2c64.1,30.4,127.5,61.7,192.9,89.9
		c7.5,3.2,35.3-9.9,37.2-18.1c2.7-11.7-5.9-33.6-16.7-37.5C2248,3089.6,2182,3070.5,2116.8,3050.2z"/>
</g>
<g id="SPLINE_9456_">
	<path id="XMLID_12246_" class="st0" d="M1088.2,1603.3c16.4-0.8,32.9-1.7,49.3-2.6c3.3-36.3,18.4-75.8,5.8-107.8
		c-9-23.1-54.9-36.2-84.3-53.7c-9.9,6-19.9,12-29.8,18C1048.9,1506,1068.6,1554.7,1088.2,1603.3z"/>
</g>
<g id="SPLINE_9457_">
	<path id="XMLID_12245_" class="st0" d="M2140.4,4105.7c70.7-47.6,140.4-94.5,214-144.1C2210.1,3952.4,2141,4000.2,2140.4,4105.7z"
		/>
</g>
<g id="SPLINE_9458_">
	<path id="XMLID_12244_" class="st0" d="M2343.7,595c-69.8-56.9-74.3-56.2-191,24.5C2205.8,675.7,2247.4,671,2343.7,595z"/>
</g>
<g id="SPLINE_9459_">
	<path id="XMLID_12243_" class="st0" d="M1613.5,462.1c43.1-47.1,80.2-87.5,118.1-128.9c-58.5,0-113.1,0-177.6,0
		C1575.4,379.5,1593.6,419,1613.5,462.1z"/>
</g>
<g id="SPLINE_9460_">
	<path id="XMLID_12242_" class="st0" d="M2395.3,3517.8c-23.7,70.7-32.3,126.9,30.5,165.2c15.4,9.4,56.5-10.3,94.7-18.6
		C2474.5,3610.5,2439.9,3570,2395.3,3517.8z"/>
</g>
<g id="SPLINE_9461_">
	<path id="XMLID_12241_" class="st0" d="M2555.4,1156.4c0-77.6,0-156.9,0-242.4C2458.9,992,2490.1,1042.6,2555.4,1156.4z"/>
</g>
<g id="SPLINE_9462_">
	<path id="XMLID_12240_" class="st0" d="M841,2664.5c-65.2-41.9-29.4-142.8-136.6-161.9C676.3,2556.1,735.5,2630.6,841,2664.5z"/>
</g>
<g id="SPLINE_9463_">
	<path id="XMLID_12239_" class="st0" d="M2169.5,465.3c6.6-1.4,13.3-2.8,19.9-4.3c-9.3-41.6-9.3-87.4-32.4-122.8
		c-9.4-14.4-68.6-6.4-119.8-9.5C2090.4,383.7,2130,424.5,2169.5,465.3z"/>
</g>
<g id="SPLINE_9464_">
	<path id="XMLID_12238_" class="st0" d="M2100.6,1256.4c131.4,1.4,172.2-52.6,109.3-147.5C2173,1158.6,2136.9,1207.3,2100.6,1256.4z
		"/>
</g>
<g id="SPLINE_9465_">
	<path id="XMLID_12237_" class="st0" d="M2016.2,2443.9c-97.1,79-108.6,119.4-47.2,202.2C1986.4,2571.9,1999.7,2514.5,2016.2,2443.9
		z"/>
</g>
<g id="SPLINE_9466_">
	<path id="XMLID_12236_" class="st0" d="M956.3,3733.4c56.6,11.6,86.2-16.2,102.8-56c17.5-41.9-11.3-59.8-51.6-66.6
		C990,3652.5,974.2,3690.5,956.3,3733.4z"/>
</g>
<g id="SPLINE_9467_">
	<path id="XMLID_12235_" class="st0" d="M1314.5,2691.4c37.7,9.3,60.2,21.8,77.5,18c62.4-14,108.8-43.8,115.4-102.1
		C1448.6,2632.8,1392.5,2657.3,1314.5,2691.4z"/>
</g>
<g id="SPLINE_9468_">
	<path id="XMLID_12234_" class="st0" d="M638.6,2621.9c-3.3-41.2-5.3-81.9-10.7-122.3c-1.8-13.5-11.1-26.9-20.3-38.4
		c-1.4-1.8-26,3.5-31.1,10.2C539.8,2519.7,582.8,2607,638.6,2621.9z"/>
</g>
<g id="SPLINE_9469_">
	<path id="XMLID_12233_" class="st0" d="M671,815c18-41.1,35.9-82.2,55.8-127.6C633.6,687.1,626,703.2,671,815z"/>
</g>
<g id="SPLINE_9470_">
	<path id="XMLID_12232_" class="st0" d="M325.1,4142.5c111.4-19.7,120-39.9,76.2-147.9C374.2,4047.2,353.7,4087.1,325.1,4142.5z"/>
</g>
<g id="SPLINE_9471_">
	<path id="XMLID_12231_" class="st0" d="M1089.8,3758.1c10.1,4,20.3,8,30.4,12c16.6-38.2,42.8-75.5,47.4-114.7
		c5.2-44.5-33.3-75.6-94.7-93.6C1154.3,3624.4,1146.3,3689.9,1089.8,3758.1z"/>
</g>
<g id="SPLINE_9472_">
	<path id="XMLID_12230_" class="st0" d="M2552.2,3538.8c8.1-5.5,16.1-10.9,24.2-16.4c-20.7-24.1-41.4-48.2-62.1-72.2
		c-13.3,10.1-35.5,18.7-38.2,30.5C2464.3,3531.9,2508,3536.7,2552.2,3538.8z"/>
</g>
<g id="SPLINE_9473_">
	<path id="XMLID_12229_" class="st0" d="M604,1699c-51.6,23-89.2,39.7-126.7,56.4c12.6,12.3,25.2,35.2,37.7,35.2
		C565.8,1790.6,599.8,1769.5,604,1699z"/>
</g>
<g id="SPLINE_9474_">
	<path id="XMLID_12228_" class="st0" d="M1928.6,1761.2c-43.1,23-79.7,42.5-133.6,71.2c34.9,10.4,68.2,31,88,24.2
		C1931,1840,1950.4,1804.2,1928.6,1761.2z"/>
</g>
<g id="SPLINE_9475_">
	<path id="XMLID_12227_" class="st0" d="M2441,890.2c-13.3,1.3-26.5,2.6-39.8,3.9c8.1,50.8,16.2,101.6,24.4,152.4c9-1,18-2,27-2.9
		C2448.7,992.5,2444.8,941.3,2441,890.2z"/>
</g>
<g id="SPLINE_9476_">
	<path id="XMLID_12226_" class="st0" d="M915.9,3577.9c-85.5-1.9-110.8,26-88.6,99.2C858.7,3641.9,885.4,3612,915.9,3577.9z"/>
</g>
<g id="SPLINE_9477_">
	<path id="XMLID_12225_" class="st0" d="M1847.5,1658.5c-92.3,8.8-110.3,41.7-85.1,98.6C1787.2,1728.3,1812,1699.6,1847.5,1658.5z"
		/>
</g>
<g id="SPLINE_9478_">
	<path id="XMLID_12224_" class="st0" d="M1830.4,3491.8c55.3-10.7,95.8-18.5,136.2-26.3c-0.7-7.9-1.4-15.7-2.1-23.6
		c-39.1,0-78.6-2.1-117.1,1.9C1840.6,3444.5,1837.5,3470.5,1830.4,3491.8z"/>
</g>
</svg>
