<?xml version="1.0" encoding="utf-8"?>
<!-- Generator: Adobe Illustrator 19.1.1, SVG Export Plug-In . SVG Version: 6.00 Build 0)  -->
<svg version="1.1" id="_x35_8" xmlns="http://www.w3.org/2000/svg" xmlns:xlink="http://www.w3.org/1999/xlink" x="0px" y="0px"
	 viewBox="137 164.5 2605 4350.8" style="enable-background:new 137 164.5 2605 4350.8;" xml:space="preserve">
<style type="text/css">
	.st0{fill:#FFFFFF;stroke:#000000;stroke-linecap:round;stroke-linejoin:round;stroke-miterlimit:10;}
</style>
<g id="SPLINE_13432_">
	<path id="XMLID_531_" class="st0" d="M2630.7,2871c-4.4-0.3-8.7-0.7-13.1-1c-12.8,21.7-25.3,43.4-38.5,65
		c-121.5,198.1-200.4,403.7-240.3,614.9c-25.7,136.3-34.5,273.4-17,411.6c16.7,132,52.7,260.6,107.7,387.5
		c23.1,53.4,23.1,53.7,110,52.8c21.5-0.2,43.1-1.4,64.5-0.7c25.1,0.8,31-6.6,30.9-21.7c-0.5-78.8,0.7-157.6,0.8-236.4
		c0.2-416.1,0.3-832.2,0.1-1248.2C2635.8,2886.9,2632.4,2878.9,2630.7,2871z"/>
</g>
<g id="SPLINE_13433_">
	<path id="XMLID_530_" class="st0" d="M2629,743.2c-4.3-1.5-8.6-3.1-12.9-4.6c-47.4,31.5-101.7,59.8-141,95
		c-127.3,114.3-195.4,245-233.4,382.6c-10.2,37.1-28.7,73.1-0.2,113c58.5,82,116.1,164.9,160.3,250.4
		c56.5,109.2,74.6,223.4,71.5,338.8c-0.3,10.8,2.9,21.6,5.3,38c17.8-9.9,28.7-14,35.6-20c67.7-59.4,115.5-124.5,119.8-199.3
		c3.6-61.7,1-123.6,1-185.5c-0.1-262.2-0.3-524.5-0.8-786.7C2634.3,757.7,2630.9,750.5,2629,743.2z"/>
</g>
<g id="SPLINE_13434_">
	<path id="XMLID_529_" class="st0" d="M515.1,4401.1c0-0.1,0-0.2,0-0.2c70.6,0,141.3-1.6,211.7,0.6c44.1,1.4,59.6-11.2,64.4-37.1
		c18.1-97.7,42.3-195,54.8-293c8.1-63.2,3.2-127.9-34.5-188.3c-21.3-34.1-47.4-66.8-107.5-80.8c-83.9-19.5-155.3-3.2-206,38.7
		c-64.9,53.7-122.8,111.3-176.9,169.9c-29.4,31.9-59.6,68.5-63.3,104.2c-9.1,87.3-2.7,175.3-3.5,263c-0.2,19,13.3,23.5,39.8,23.2
		C367.8,4400.6,441.5,4401.1,515.1,4401.1z"/>
</g>
<g id="SPLINE_13435_">
	<path id="XMLID_528_" class="st0" d="M916.1,1882.4c-3.5,2.7-6.9,5.5-10.4,8.2c2.9,12.7,5.1,25.5,8.7,38.2
		c41,142.7,82.2,285.5,123.5,428.2c19.3,66.5,37.6,133.2,59,199.5c38.7,119.9,129.7,225.1,228.5,327.3
		c34.7,35.9,78.1,68.6,122,100.1c25.3,18.2,56.1,12.8,67.4-10.8c10.7-22.4,21.8-47.2,17.3-69.7c-20.8-103.4-42-207.1-72.4-309.4
		c-44.1-148.6-90.8-298.3-214.1-429.3c-85.9-91.3-189.4-175.7-286.4-262.6C949.6,1893.2,930.7,1888.8,916.1,1882.4z"/>
</g>
<g id="SPLINE_13436_">
	<path id="XMLID_527_" class="st0" d="M1318.1,1178.9c-5.5,1.9-11.1,3.8-16.6,5.7c0,42.4-2.7,84.9,0.5,127.3
		c8.5,113.3,10.5,227.3,31.8,339.6c26.2,138.2,65.5,275.4,106.3,412.2c51.9,173.8,147.6,338.5,261.5,498.9
		c4.8,6.8,14.3,12.1,29.8,24.8c2.7-18.1,5.4-26.7,5.1-35.1c-6.1-144.4-4.5-289.2-21.1-433.1c-19.6-170.7-64.2-339.2-129.8-505.9
		c-54.7-138.8-129.6-271.3-227.8-398.8C1347.8,1201.5,1331.5,1190.7,1318.1,1178.9z"/>
</g>
<g id="SPLINE_13437_">
	<path id="XMLID_526_" class="st0" d="M2182.4,3336.8c5.4-0.1,10.7-0.2,16.1-0.4c4.4-6.9,10.8-13.5,12.7-20.6
		c10.4-38.2,23.1-76.4,28.5-114.9c14.5-103.1,26.2-206.4,37.9-309.6c21.8-190.8,11-380.6-62.9-566.5
		c-26.6-66.9-72.4-130.6-112-195.2c-8.2-13.4-27.6-23.8-48.8-41.4c-7.8,16.1-13.2,23.2-14.5,30.6c-12.6,73.1-36,146.4-34.4,219.5
		c3.2,144.3,9.7,289.2,34.4,432.4c29.2,169,78.9,336.4,120.5,504.5C2165.2,3295.9,2174.9,3316.3,2182.4,3336.8z"/>
</g>
<g id="SPLINE_13438_">
	<path id="XMLID_525_" class="st0" d="M2270.3,337.1c-3.7,0.1-7.4,0.2-11.1,0.3c-2.8,5-6.5,9.9-8.1,15
		c-10.8,35.1-20.3,70.4-31.8,105.5c-39,118.2-101.2,231.4-178.5,341.2c-25.4,36.1-60.9,71-72.1,109
		c-17.9,60.3-26.7,122.8-26.5,184.3c0.7,194.3,6.6,388.6,12.4,582.9c0.9,28.5,11.9,56.9,18.2,85.4c4.7,0,9.5,0.1,14.2,0.1
		c3.3-6.8,8-13.5,9.5-20.5c17.8-78.8,33.4-157.9,53.1-236.5c26.9-107.1,49-215.1,87.6-320.4c39-106.4,97.4-209.7,143.8-315
		c22.1-50.2,52.9-102.2,50.6-152.8c-4.9-108.2-28.5-216-45.4-323.9C2283.5,373.3,2275.8,355.3,2270.3,337.1z"/>
</g>
<g id="SPLINE_13439_">
	<path id="XMLID_524_" class="st0" d="M954.2,2609.4c6.6-2.3,13.1-4.5,19.6-6.8c-2.2-11.3-3.4-22.8-6.7-33.9
		c-11.2-38.1-23.7-76.1-34.8-114.2c-58.8-202.4-117-404.9-176.6-607.2c-5.6-19.1-12.3-41.5-31.1-55
		c-75.8-54.5-153.9-108-236.3-158.3c-56.2-34.3-129.5-42.9-205.6-36.9c-8.8,0.7-21.1,6.1-23.2,11c-1.7,3.9,9,10.4,15,15.4
		c22.8,18.6,52.6,35,67.6,55.9c39.9,55.4,79.1,111.5,108.3,169.5c50.8,101.1,92.3,204.1,140.5,305.8
		c48.6,102.5,87.7,208,182.8,298.2C830.4,2506.6,893.8,2557.3,954.2,2609.4z"/>
</g>
<g id="SPLINE_13440_">
	<path id="XMLID_523_" class="st0" d="M1623.7,3384.5c-9.3-36.2-16.3-72.7-28.5-108.5c-12.3-35.9-49.7-58.9-103.8-69.2
		c-34.4-6.5-60.3-3.1-62.4,26.1c-1.2,16.8-9,33.3-13,50c-24.9,103.3-52.8,205.8-102,306c-37.1,75.6-69.9,153.1-87.5,231.3
		c-28.9,128.3-12.2,256.7,36.9,382.4c12.1,30.9,40.1,59.5,64.3,87.9c6.8,8,25.8,11.6,39.2,17.2c8.2-10.2,21.5-20.1,23.5-30.8
		c4.5-23.6,1.1-47.9,4.9-71.6c17.6-110,35.5-219.9,55.3-329.8c17.5-97,40-193.4,97.4-284.9C1589.4,3525,1619.6,3457.3,1623.7,3384.5
		z"/>
</g>
<g id="SPLINE_13441_">
	<path id="XMLID_522_" class="st0" d="M1700.8,1544.3c3.6-0.7,7.2-1.3,10.8-2c0.5-7.2,2.5-14.4,1.3-21.4
		c-13.9-80.2-25.3-160.7-43.3-240.6c-34.8-154.7-63.8-310.4-113.4-463.2c-44.5-136.8-113.1-270.4-171.9-405.2
		c-15.4-35.4-33-70.5-51.8-105.2c-3.7-6.8-17.8-11.2-27.2-16.7c-6.5,7-14.9,13.6-18.7,21.1c-3.2,6.3-0.9,13.8-0.8,20.8
		c2.1,191.4,4.2,382.8,6.5,574.3c0.5,39.3-4.6,77.1,31,114.9c150,159.3,277.3,325.9,360.8,505.5
		C1687,1532.9,1695.1,1538.4,1700.8,1544.3z"/>
</g>
<g id="SPLINE_13442_">
	<path id="XMLID_521_" class="st0" d="M704.7,985.9c-3.3,1.9-6.6,3.8-9.9,5.7c1,5.7,1.4,11.4,3,17
		c43.9,152.5,83.9,305.5,133.5,457.2c27.3,83.4,64.9,165.9,108.7,246.3c41.2,75.6,108.4,140.5,234.4,169.6
		c34.1,7.9,50.1,4.8,47-20.5c-0.8-6.9,1.8-14.1,0.2-20.9c-23.3-94.2-42.7-189-71.8-282.5c-40.7-130.9-95.8-259.3-199.5-376.5
		c-58.3-65.9-124.7-127.8-211.4-179.6C728.6,995.7,716.2,991.1,704.7,985.9z"/>
</g>
<g id="SPLINE_13443_">
	<path id="XMLID_520_" class="st0" d="M1695,3595.1c-3.8-0.3-7.6-0.7-11.4-1c-6.9,8.1-15.7,15.8-20.4,24.4
		c-22,40.3-45.4,80.3-63.8,121.4c-68.4,152.6-85.4,309.5-81.8,467.1c2.5,109.9,65.9,158.1,204.4,172.1c78.8,7.9,85.2,4.8,94.3-47.4
		c1.7-9.9,2.4-19.9,2.9-29.8c10.2-196.6,6.8-392.5-71.7-584.6C1730.9,3676.3,1712.6,3635.8,1695,3595.1z"/>
</g>
<g id="SPLINE_13444_">
	<path id="XMLID_519_" class="st0" d="M2373.9,2501.4c5.7-0.2,11.5-0.5,17.2-0.7c2-12.2,5.6-24.5,5.7-36.7
		c0.4-101.7,6.4-203.6-1.5-305.1c-10.1-130.2-26.5-260.3-49.7-389.8c-17-95-53.1-188.1-121.7-274.2c-8.6-10.8-19.7-20.7-36.6-38.1
		c-8.1,17.7-13.6,26.6-16.2,35.9c-15.6,56.9-35.2,113.5-44.6,170.9c-12.9,77.9-32.2,156.5,6.4,234.2
		c35.3,71.1,72.5,141.9,102.7,213.9c50.3,119.9,117.9,237.4,127.7,363.3C2364,2483.9,2370.2,2492.6,2373.9,2501.4z"/>
</g>
<g id="SPLINE_13445_">
	<path id="XMLID_518_" class="st0" d="M1194.5,1277.9c5.5-13.2,8.9-17.6,8.9-21.9c-1.8-149.5-6.1-299-5.3-448.5
		c0.9-163.6,6.5-327.1,10.7-490.6c0.4-15.7-3-32.1-31.2-28.4c-43.9,5.8-98.8-20.1-131.8,18c-0.7,0.8-0.3,2-0.5,3
		c-8,52.6-20.4,105-23.1,157.7c-9.2,180.7-3.3,361.3,49.1,539.3c24,81.7,63,161.6,96.2,242.2
		C1170.9,1256.7,1181.1,1263.6,1194.5,1277.9z"/>
</g>
<g id="SPLINE_13446_">
	<path id="XMLID_517_" class="st0" d="M2627.4,1914.4c-12.3,11.4-20,16.9-24.9,23.3c-70,91.3-108.7,187.8-110.4,290
		c-0.8,45.9-0.5,91.7,0,137.6c1.5,146.5,3,292.9,5.6,439.4c0.2,8.8,6.6,19.8,16.1,25.5c4.4,2.6,29.4-2.7,34.8-8.5
		c37.5-40,88.2-75.1,87.8-127.8c-1.9-251.2-0.6-502.4-0.8-753.6C2635.4,1933.9,2631.6,1927.6,2627.4,1914.4z"/>
</g>
<g id="SPLINE_13447_">
	<path id="XMLID_516_" class="st0" d="M1770.9,309.9c-5,0.8-10,1.7-14.9,2.5c-5,29.4-11.4,58.6-14.9,88.1
		c-23.7,198.9-31.7,398.2-11.8,597.1c15.6,156,46.4,311.4,71.2,467c0.9,5.6,9.6,10.6,14.6,15.9c6-6.6,16.7-13,17.3-19.8
		c8.6-104.5,21.4-208.9,22-313.5c1-151.4-0.8-303-13.1-454.1c-9.9-122-37-243.5-57.1-365.1C1783.1,321.8,1775.5,316,1770.9,309.9z"
		/>
</g>
<g id="SPLINE_13448_">
	<path id="XMLID_515_" class="st0" d="M848.4,3487.7c1.6-11.1,4.9-17.9,3.1-24.1c-17.8-58.5-33.3-117.5-55.6-175.3
		c-49.4-127.8-135.1-244.5-253.9-351.8c-45.9-41.5-86.7-87.1-114.8-134.6c-33.8-57.2-48.9-118.9-78.2-177.4
		c-8.7-17.3-37-31.1-59.2-44.4c-4.3-2.6-32.3,4.7-32.1,6.7c3.6,38.4-23.2,79.4,24.2,114.2c113.8,83.7,172.7,184.9,210.7,291.4
		c32.5,91,56.1,183.3,86.8,274.5c29.6,88,95.5,161,220.4,206.6C813.6,3478.6,828.9,3482.1,848.4,3487.7z"/>
</g>
<g id="SPLINE_13449_">
	<path id="XMLID_514_" class="st0" d="M900.8,2729.5c-5.5,7.2-8.5,9.7-9.3,12.5c-1.3,4.9-1.5,9.9-1.7,14.9
		c-5.7,185.6-4.8,371.2,60.5,553c19.6,54.5,60,105.9,92.4,158.3c4.6,7.3,18.2,12.3,36.9,24.4c0-33.2,0.9-56.8-0.1-80.4
		c-7.5-169.4-12.2-338.8-24.6-508C1049.8,2832.6,995.2,2774.2,900.8,2729.5z"/>
</g>
<g id="SPLINE_13450_">
	<path id="XMLID_513_" class="st0" d="M773.4,2989.4c4-10.9,7.2-15.5,7-20c-4.3-100.6-1.5-201.7-15.7-301.8
		c-14.8-104.1-136.1-153.9-273.9-121.9c-28.1,6.5-43,15.8-35.7,37.8c11.5,35,16.9,70.7,27.7,105.8c21.2,69.2,56.2,134.1,136.9,185.3
		c32.7,20.8,59.6,45.3,89.5,67.9C728.4,2957.1,748.4,2971.3,773.4,2989.4z"/>
</g>
<g id="SPLINE_13451_">
	<path id="XMLID_512_" class="st0" d="M2444.2,697.9c5.5,1.3,11,2.5,16.5,3.8c67-41.2,125.9-86.8,170.5-140.1
		c2.7-3.2,2.3-7.8,2.3-11.7c0.5-78.7,0.2-157.4,1.7-236c0.4-21.6-13.9-27.2-44.8-26.3c-55.1,1.6-110.5,2.1-165.7,1
		c-36.6-0.8-43.9,9.1-40.3,30.6c16.7,98.8,31.5,197.7,47,296.6C2435.8,643.1,2440,670.5,2444.2,697.9z"/>
</g>
<g id="SPLINE_13452_">
	<path id="XMLID_511_" class="st0" d="M264.7,507.3c-7,12.6-10.8,16.3-10.8,19.9c-0.5,67.7-1,135.5-0.3,203.2
		c0.1,7.5,5.7,15.6,11.8,22.3c59.9,64.6,118.1,130,181.7,193c34.5,34.2,78.6,64.4,118.4,96.4c12.1-11.5,14.8-20.8,14.1-30
		c-4.2-50.7-7.9-101.5-14.7-152.1c-2.4-17.4-9.1-35.7-21.4-51.1c-52.2-65.4-105-130.6-162.2-194.2
		C349.3,579.3,308.3,547.2,264.7,507.3z"/>
</g>
<g id="SPLINE_13453_">
	<path id="XMLID_510_" class="st0" d="M1950.9,704.5c4.4,0.7,8.7,1.5,13.1,2.2c7.2-5.8,16-11,21.4-17.4
		c100.4-117.4,150-245.2,182-376.6c4.4-18.1-7.8-25.7-35.6-25.5c-76.7,0.6-153.4-0.1-230,1.7c-10.7,0.3-26.3,10.7-29.9,18.3
		c-4.6,9.8-0.3,21.7,1.8,32.5c18.5,95.6,37,191.3,56.4,286.9C1935.4,652.7,1943.9,678.6,1950.9,704.5z"/>
</g>
<g id="SPLINE_13454_">
	<path id="XMLID_509_" class="st0" d="M265.3,3087.5c-19.9,45.5-13,130.6,12,163.8c72.8,96.5,143.9,193.6,221.4,288.5
		c28.2,34.6,68.1,66.9,132.2,78.7c9.5,1.7,27.3,2.5,29.2-0.1c4.5-6,4.6-15,1.3-21.6c-12.4-25.6-27.2-50.7-40.6-76.1
		C554,3394,471.4,3272.2,354.1,3161.3C328.1,3136.8,297.7,3114.2,265.3,3087.5z"/>
</g>
<g id="SPLINE_13455_">
	<path id="XMLID_508_" class="st0" d="M727.1,1593.5c2.6-13.3,5-17.3,3.9-20.8c-31.7-103.3-67.3-205.7-139-301.5
		c-44.4-59.3-92.8-116.4-166.3-162.7c-28.1-17.7-63.2-22-96.5-7.9c-30.9,13-38.6,50.7-18.3,72.1c74.7,79.4,149.5,158.8,224.9,238
		c49.9,52.4,100.2,104.6,151.3,156.5C695.1,1575.5,708.6,1581.6,727.1,1593.5z"/>
</g>
<g id="SPLINE_13456_">
	<path id="XMLID_507_" class="st0" d="M1199.1,3572.7c5.5,0.6,11,1.3,16.5,1.9c4.4-7.4,10.1-14.7,13.1-22.3
		c34.2-88.8,69.5-177.4,101.4-266.6c31.7-88.7,34.9-176.1-46.6-256.4c-20.6-20.3-42.1-40.2-63.1-60.2c-5.2,0.9-10.4,1.8-15.6,2.8
		C1176.6,3172,1162.5,3372.3,1199.1,3572.7z"/>
</g>
<g id="SPLINE_13457_">
	<path id="XMLID_506_" class="st0" d="M910.5,989.8c5-2.4,10.1-4.8,15.1-7.2c-22.6-41.6-44.4-83.5-67.9-124.9
		C774.1,710.5,690,563.5,605.3,416.6c-3.6-6.3-14.2-10.9-21.6-16.4c-4.8,7.1-14.3,14.3-13.8,21.2c3.3,46.8,10.5,93.5,13,140.3
		c7.4,139.7,73.3,263.9,226.8,365.1C842.4,948.4,876.9,968.8,910.5,989.8z"/>
</g>
<g id="SPLINE_13458_">
	<path id="XMLID_505_" class="st0" d="M257.2,3878.4c4.9,1.1,9.7,2.1,14.6,3.2c18.3-16.5,36.3-33.2,55-49.6
		c51-44.8,103.7-88.9,152.4-134.8c9.5-8.9,12.5-27.5,4.6-36.3c-59-66.3-121.2-131.4-183.3-196.5c-8.5-8.9-22.6-15.6-43.2-29.4
		C257.2,3589.3,257.2,3733.9,257.2,3878.4z"/>
</g>
<g id="SPLINE_13459_">
	<path id="XMLID_504_" class="st0" d="M585.3,2405.7c-43.5-118.1-227.2-260-329.9-273.6c0,32.9-2.7,65.2,1.3,97.1
		c1.6,13.1,14,27.4,27.6,37.7c49.9,37.5,104,72.7,153.4,110.5C478.9,2409.1,525.6,2420.1,585.3,2405.7z"/>
</g>
<g id="SPLINE_13460_">
	<path id="XMLID_503_" class="st0" d="M938.8,615.7c7.7-9.1,11.5-11.6,11.5-14c2.2-98.6,4.6-197.2,4.4-295.8
		c0-5.8-20.5-16.1-32.3-16.7c-42.7-2-86,0.6-128.7-1.2c-41.9-1.7-47.2,8.2-33.7,31.5c52.7,91.2,103.6,182.8,155.8,274.1
		C919.7,600.2,928.2,605.7,938.8,615.7z"/>
</g>
<g id="SPLINE_13461_">
	<path id="XMLID_502_" class="st0" d="M437.5,2116.4c3.5-10.1,6.8-14.1,5.6-17.4c-30.5-86.2-58.9-172.7-93.5-258.1
		c-13.5-33.5-37.6-66.1-89.1-90.3c-3.9,8.9-7.6,13.3-7.6,17.8c-0.2,74.6-1.6,149.3,1.5,223.8c0.6,13.8,15.8,29.6,31.3,40.2
		c30.4,20.8,65.4,38.8,99.1,57.6C400.2,2098.6,416.8,2106.1,437.5,2116.4z"/>
</g>
<g id="SPLINE_13462_">
	<path id="XMLID_501_" class="st0" d="M1611,643.6c12.1-10.5,16.8-12.7,17.1-15.1c13.1-107,26.2-214,37.7-321.1
		c0.6-5.5-13.3-16.4-21.3-16.8c-47.2-2.3-94.7-2.4-142.1-3c-28.5-0.4-32,7.8-24.6,24.7c28.9,65.8,56,131.9,82.7,198.1
		C1577.3,552.1,1592.3,594.2,1611,643.6z"/>
</g>
<g id="SPLINE_13463_">
	<path id="XMLID_500_" class="st0" d="M611.2,376.5c94.4,166.7,188.7,333.5,283.9,500c2.1,3.6,14.6,4.7,22.9,7.2
		C951.3,788.5,730,406.7,611.2,376.5z"/>
</g>
<g id="SPLINE_13464_">
	<path id="XMLID_499_" class="st0" d="M464.5,550.3c4.8-1.5,9.7-3.1,14.5-4.6c-15.6-80.5-30.5-161.1-48.4-241.5
		c-1.4-6.1-23.7-13.5-37.3-14.5c-30.3-2.2-61.2-0.6-91.8-0.8c-47.9-0.4-57,8.2-39,37.7c3.9,6.5,8,13,13.3,19
		c53.9,61.2,107.8,122.4,162.4,183.3C445.1,536.7,455.6,543.2,464.5,550.3z"/>
</g>
<g id="SPLINE_13465_">
	<path id="XMLID_498_" class="st0" d="M267.8,1268.9c-4.4,1.6-8.8,3.1-13.1,4.7c0,72.1-0.8,144.3,1.4,216.3
		c0.2,6.5,18.2,15.1,30.6,18.4c11.8,3.1,27.2,0.1,40.9,0.5c79,2.2,95.9-10.9,66-58.2c-36.6-57.7-78-114.2-117.4-171.2
		C273.7,1275.9,270.6,1272.5,267.8,1268.9z"/>
</g>
<g id="SPLINE_13466_">
	<path id="XMLID_497_" class="st0" d="M265.2,2809.7c-27.6,92,28.9,192,123.2,219.7C373,2947.5,335.7,2874.8,265.2,2809.7z"/>
</g>
<g id="SPLINE_13467_">
	<path id="XMLID_496_" class="st0" d="M702.6,1638.1c5.8-19.1-172.9-217.4-212.2-235.4C481.6,1433.3,652.4,1622.8,702.6,1638.1z"/>
</g>
<g id="SPLINE_13468_">
	<path id="XMLID_495_" class="st0" d="M255.3,2379.7c0,34.1-2.9,68.3,2.6,102c1,6.3,36,14.7,54.4,13.9c13.4-0.6,37.4-15.8,35.9-22.7
		C340.2,2435,312.5,2403.1,255.3,2379.7z"/>
</g>
<g id="SPLINE_13469_">
	<path id="XMLID_494_" class="st0" d="M257.2,996.6c77-6.5,94-28.3,56.4-65.6c-10.9-10.8-20-22.5-31.4-33.1
		c-5.7-5.3-14.7-9.2-25.1-15.4C257.2,924,257.2,960.1,257.2,996.6z"/>
</g>
</svg>
