<?xml version="1.0" encoding="utf-8"?>
<!-- Generator: Adobe Illustrator 19.1.0, SVG Export Plug-In . SVG Version: 6.00 Build 0)  -->
<!DOCTYPE svg PUBLIC "-//W3C//DTD SVG 1.1//EN" "http://www.w3.org/Graphics/SVG/1.1/DTD/svg11.dtd">
<svg version="1.1" id="Layer_1" xmlns="http://www.w3.org/2000/svg" xmlns:xlink="http://www.w3.org/1999/xlink" x="0px" y="0px"
	 viewBox="-488 239.4 102.4 170.6" style="enable-background:new -488 239.4 102.4 170.6;" xml:space="preserve">
<style type="text/css">
	.st0{fill:#FFFFFF;stroke:#BABABA;stroke-width:0.1;stroke-linecap:round;stroke-linejoin:round;stroke-miterlimit:10;}
	.st1{fill:#FFFFFF;}
	.st2{fill:#BABABA;}
</style>
<g id="SPLINE_1329_">
	<path class="st0" d="M-389.9,308.1c0.2-0.5,0-1-0.4-1.3c-0.2-0.2-0.5-0.2-0.8-0.4c-1.5-0.7-2.9,0.2-4.4,0.3c-0.1,0-0.2,0.1-0.2,0.2
		c-0.1,0.2,0.1,0.3,0.3,0.4c1.3,0.7,2.8,1,4,1.5C-390.7,308.9-390.1,308.8-389.9,308.1z"/>
</g>
<g id="SPLINE_1328_">
	<path class="st0" d="M-390.1,336.5c-0.3-0.2-0.5-0.1-0.7,0c-0.8,0.5-1.5,1-2.3,1.4c-0.6,0.3-1.3,0.9-2,0.5c-0.7-0.3-1.3-0.2-2,0.1
		c-0.7,0.3-1.4,0.6-2.1,1c-0.7,0.4-1.4,0.2-1.9-0.3c-0.5-0.5-0.1-1,0.1-1.5c0.2-0.5,0.3-0.8-0.4-0.9c-1.6-0.2-3.2-0.1-4.8,0.6
		c-0.4,0.2-0.8,0.5-0.9,0.9c-0.4,1-0.9,1.7-2,1.7c-0.2,0-0.5,0.3-0.6,0.5c-0.3,0.3-0.5,0.7-0.8,1.1c-0.6,0.9-1.1,1.3-1.6,1.4
		c1.1-1.4,1.4-3,1.5-4.7c0-0.2,0.1-0.5-0.2-0.7c-0.3-0.2-0.4,0.2-0.6,0.3c-0.2,0.2-0.3,0.4-0.7,0.3c-0.1-0.7,0.1-1.3,0.1-1.9
		c0-1-0.5-1.3-1.3-0.8c-0.5,0.3-0.8,0.8-0.9,1.4c-0.2,0.6-0.4,1.2-1.2,1.3c-0.3,0-0.4,0.3-0.6,0.5c-0.4,0.6-0.5,1.3-0.7,2
		c-0.1,0.5-0.3,1.1-0.8,1.2c-0.8,0.3-1.1,0.9-1.1,1.6c-0.2,2-0.7,3.9-1.7,5.6c-0.3,0.6-0.1,0.9,0.5,1.1c0.4,0.1,0.8,0.3,1.2,0.5
		c2,1.2,3.6,2.9,5.7,4c0.4,0.2,0.8,0.4,1.3,0.4c1,0,2-0.1,2.9-0.1c0.2,0,0.4,0,0.5-0.3c0.1-0.3-0.1-0.4-0.3-0.5
		c-0.4-0.3-0.8-0.7-1.2-1.1c-0.2-0.3-0.3-0.5-0.3-0.9c2,1.2,4.1,2,6.5,1.7c0.7-0.1,1.4-0.4,2.1-0.4c0.7,0,1.3-0.3,1.7-0.9
		c0.6-0.8,0.6-0.8-0.3-1.1c-0.2-0.1-0.4-0.2-0.4-0.2c0.2-0.9-0.6-0.8-1.1-1.2c0.4,0,0.6,0,0.9,0c1,0,1.9,0,2.9-0.4
		c0.3-0.1,0.6-0.3,0.5-0.6c-0.2-0.9,0.3-0.9,0.9-1.1c0.8-0.2,1.6-0.4,2.3-0.7c0.7-0.3,1.3-0.8,1.7-1.5c0.1-0.2,0.3-0.4,0.2-0.5
		c-0.7-0.5-0.1-0.8,0.1-1.1c0.3-0.4,0.6-0.9-0.3-1c-0.2,0-0.5-0.1-0.3-0.5C-391.2,340.8-390.9,338.5-390.1,336.5z"/>
</g>
<g id="SPLINE_1327_">
	<path class="st0" d="M-391.6,301.5c0.1-0.6-0.2-1-0.7-1.3c-1-0.6-2.1-0.7-3.2-0.5c-0.8,0.2-1.7,0.2-2.5,1.1
		c1.3,0.1,2.2,0.6,3.1,1.2c0.7,0.4,1.5,0.5,2.3,0.4C-392,302.3-391.7,302-391.6,301.5z"/>
</g>
<g id="SPLINE_1326_">
	<path class="st0" d="M-392.3,312.7c0.3-0.5,0.3-1.1-0.1-1.5c-0.6-0.8-1.3-1.5-2.5-1.4c-0.6,0.1-1.3,0.1-2,0c1.3,0.8,2,2.3,3.3,3.1
		C-393.2,313.1-392.7,313.2-392.3,312.7z"/>
</g>
<g id="SPLINE_1325_">
	<path class="st0" d="M-392.4,316.9c0-1.3-0.4-1.8-1.5-2.3c-1.4-0.6-2.9-0.7-4.3-1c-0.4-0.1-0.4,0.2-0.3,0.4
		c0.1,0.3,0.3,0.6,0.6,0.7c1.2,0.6,1.8,1.6,2.4,2.8c0.5,1.1,1.3,1.5,2.2,1.2C-392.4,318.5-392.4,317.6-392.4,316.9z"/>
</g>
<g id="SPLINE_1324_">
	<path class="st0" d="M-394.4,325.7c0.5-0.1,0.8-0.4,0.8-1.2c-0.3-1.1-0.9-2.1-1.7-3.1c-0.3-0.3-0.5-0.1-0.5,0.3
		c0.2,1.1,0.1,2.2,0.4,3.3C-395.2,325.5-394.9,325.8-394.4,325.7z"/>
</g>
<g id="SPLINE_1323_">
	<path class="st0" d="M-393.9,297.1c0.2-0.6,0.1-1.2-0.4-1.7c-0.4-0.4-1-0.5-1.7-0.5c-0.8,0.1-1.7,0.3-2.5,0.7
		c-0.4,0.2-0.7,0.5-0.9,1c-0.2,0.5-0.1,0.8,0.5,0.6c0.9-0.2,1.7-0.1,2.5,0.2c0.4,0.1,0.8,0.2,1.3,0.3
		C-394.6,297.9-394.1,297.7-393.9,297.1z"/>
</g>
<g id="SPLINE_1322_">
	<path class="st0" d="M-396.9,306.2c0.9-0.1,1.4-0.8,1.4-1.6c-0.1-1.1-0.3-1.3-1.5-1.3c-0.3,0-0.6,0-0.9,0c-1.3,0.3-2.5,0.2-3.8,0.1
		c-0.2,0-0.3-0.1-0.4,0.1c-0.1,0.2,0.1,0.3,0.2,0.5c1.3,1.3,2.8,2.2,4.5,2.3C-397.2,306.2-397,306.2-396.9,306.2z"/>
</g>
<g id="SPLINE_1321_">
	<path class="st0" d="M-398.8,321.5c1.3,0,1.9-0.7,1.7-1.5c-0.6-2.6-2.5-3.9-4.4-5.1c-0.2-0.1-0.5-0.1-0.6,0.1
		c-0.2,0.3,0.1,0.4,0.2,0.6c0.1,0.2,0.3,0.5,0.4,0.7c0.5,1.3,0.9,2.5,1.4,3.8C-399.9,320.9-399.4,321.5-398.8,321.5z"/>
</g>
<g id="SPLINE_1320_">
	<path class="st0" d="M-398.1,289.3c0.2-0.5,0.2-0.9-0.2-1.3c-0.4-0.4-0.8-0.3-1.2,0c-1.2,0.7-2,2.1-3.5,2.3c-0.2,0-0.3,0.2-0.3,0.4
		c0,0.2,0.2,0.3,0.3,0.4c0.4,0.2,0.9,0.1,1.1,0.1c0.4,0,0.7,0,0.9,0C-399.7,291-398.7,290.6-398.1,289.3z"/>
</g>
<g id="SPLINE_1319_">
	<path class="st0" d="M-398.6,293.8c0.4-0.3,0.6-0.8,0.4-1.3c-0.2-0.5-0.6-0.7-1.1-0.7c-1.6,0-4.8,3.4-4.8,5.5
		c1.2-1.4,2.6-1.8,4-2.5C-399.6,294.5-399.1,294.2-398.6,293.8z"/>
</g>
<g id="SPLINE_1318_">
	<path class="st0" d="M-398.8,327.3c0.3-0.8,0.4-1.6-0.3-2.2c-0.9-0.8-1.6-1.6-2.3-2.9c-0.2,1-0.3,1.8-0.5,2.6
		c-0.1,0.6-0.2,1.2-0.1,1.8c0.2,0.8,0.6,1.3,1.4,1.4C-399.9,328.1-399.2,328.1-398.8,327.3z"/>
</g>
<g id="SPLINE_1317_">
	<path class="st0" d="M-400.2,311.3c0.8-0.1,1.3-0.6,1.3-1.4c0-1.2-0.4-1.9-1.2-2.4c-0.8-0.5-1.6-0.7-2.4-1
		c-0.3-0.1-0.7-0.5-0.9-0.2c-0.2,0.3,0.1,0.7,0.3,1.1c0.1,0.2,0.3,0.4,0.4,0.6c0.4,0.6,0.7,1.2,0.7,2
		C-402.1,310.8-401.2,311.4-400.2,311.3z"/>
</g>
<g id="SPLINE_1316_">
	<path class="st0" d="M-400.5,392.5c0.3-0.2,0.5-0.5,0.4-0.8c-0.1-0.4-0.5-0.3-0.7-0.3c-0.7,0.1-1.3-0.1-1.8-0.5
		c-0.4-0.2-0.8-0.4-1.2-0.4c-0.2,0-0.4,0.1-0.4-0.1c0-0.2,0.2-0.3,0.3-0.4c0.2-0.2,0.7-0.3,0.6-0.8c-0.1-0.4-0.6-0.4-0.9-0.5
		c-0.2-0.1-0.5-0.1-0.7,0c-1.2,0.4-2.5,0.3-3.8,0.4c-0.4,0.1-0.9,0.3-1.1-0.1c-0.2-0.5,0.3-0.7,0.6-1c0.2-0.2,0.3-0.4,0.3-0.6
		c-0.1-0.3-0.4-0.2-0.6-0.2c-1.1-0.1-2.2,0.2-3.1,0.8c-0.8,0.5-1.7,1.1-2.5,1.7c-0.4,0.3-0.8,0.5-1.3,0.2c-0.6-0.5-0.3-0.9,0.1-1.3
		c0.7-0.8,1.7-1.4,1.9-2.6c0.1-0.3,0.3-0.7,0-1c-0.2-0.2-0.4,0.2-0.7,0.2c-0.3,0-0.6,0.2-0.9,0.1c-1.1-0.1-1.9,0.6-2.5,1.4
		c-0.7,1.1-1.7,1.3-2.9,1.2c0-0.4,0.3-0.9-0.2-1.2c-0.4-0.2-0.7-0.1-1,0.2c-0.2,0.2-0.4,0.4-0.6,0.7c-0.4,0.5-0.7,1-1.1,1.5
		c-0.7,0.9-1.5,1.1-2.6,0.9c0.6-0.6,0.6-1.4,0.9-2.1c0.1-0.3,0.2-0.5,0-0.8c-0.9-1.2-0.9-1.4-0.2-2.7c0.3-0.5,0.1-0.7-0.3-0.6
		c-1.1,0.1-2.1,0.4-2.6,1.6c-0.3,0.7-0.5,1.4-0.7,2.1c-0.5-0.7-0.9-0.4-1.3,0c-0.3,0.4-0.4,0.9-0.6,1.3c-0.4,0.9-0.4,2-0.9,2.9
		c-1.3,2.3-3,4.1-5.4,4.9c-0.2,0.1-0.6,0.1-0.6,0.5c0,0.3,0.3,0.4,0.5,0.6c0.1,0,0.1,0.1,0.2,0.1c2.8,0.8,4.8,2.9,7.2,4.4
		c0.2,0.1,0.4,0.3,0.5,0.5c0.4,0.8,1,1.2,1.7,1.5c0.2,0.1,0.5,0.2,0.6-0.1c0.1-0.4,0.3-0.2,0.6-0.2c1.1,0.1,2.2,0.1,3.4-0.1
		c0.2,0,0.4-0.1,0.4-0.3c0-0.2-0.2-0.3-0.3-0.3c-0.5-0.2-1-0.5-1.4-0.9c-0.2-0.3-0.4-0.6-0.2-0.9c0.2-0.4,0.5-0.3,0.8-0.3
		c0.9,0.1,1.5,0.6,2.1,1.3c0.6,0.6,1.1,1.3,1.7,1.8c0.6,0.5,1.5,0.9,2,0.2c0.5-0.6,0.9-0.5,1.4-0.4c0.4,0,0.9,0,1.3-0.1
		c0.3-0.1,0.7-0.1,0.7-0.4c0-0.4-0.3-0.5-0.6-0.6c-0.6-0.2-0.8-0.8-0.5-1.2c0.4-0.7,0.3-1.4,0.2-2.2c0.8,0.2,1.3,1,2.1,1
		c1.6,0,3.2,0,4.7,0.5c0.3,0.1,0.7,0.1,0.8-0.3c0.2-0.3,0.1-0.7-0.1-1c-0.6-0.7-0.4-1.7-0.8-2.5c-0.1-0.2,0-0.4,0.2-0.3
		c0.8,0.2,1.5-0.6,2.3-0.3c0.9,0.3,1.5-0.1,2.2-0.6c0.2-0.2,0.5-0.5,0.3-0.8c-0.3-0.5,0-0.7,0.3-0.9c0.5-0.4,1-0.8,1.7-0.9
		C-402.1,393.4-401.3,393-400.5,392.5z"/>
</g>
<g id="SPLINE_1315_">
	<path class="st0" d="M-400.8,299.9c0.1-0.8-0.2-1.3-1-1.5c-0.4-0.1-0.7-0.2-0.9-0.2c-1.5,0-3.1,1.6-3.1,3.1c0,0.3,0,0.6,0.3,0.7
		c0.2,0.1,0.4-0.1,0.5-0.3c0.8-0.9,1.7-1.1,2.7-0.9C-401.7,301-400.8,300.4-400.8,299.9z"/>
</g>
<g id="SPLINE_1314_">
	<path class="st0" d="M-401.3,285.4c0-0.4,0.1-0.9-0.4-1.1c-0.5-0.1-0.9,0.1-1.1,0.6c-0.3,1-0.9,1.7-1.7,2.3
		c-0.2,0.1-0.5,0.3-0.4,0.5c0.1,0.3,0.4,0.1,0.6,0.1C-402.7,287.9-401.5,286.8-401.3,285.4z"/>
</g>
<g id="SPLINE_1313_">
	<path class="st0" d="M-403.9,322.3c0.7-0.5,0.6-1.3,0.4-2.1c-0.1-0.3-0.3-0.6-0.4-0.8c-0.5-1.6-2.3-1.9-3-3.3
		c-0.1,0-0.1,0.1-0.2,0.1c0,0.2,0,0.5,0,0.7c0.2,1.1,0.3,2.1,0.3,3.2c0,0.6,0.2,1.2,0.6,1.7C-405.6,322.4-404.4,322.7-403.9,322.3z"
		/>
</g>
<g id="SPLINE_1312_">
	<path class="st0" d="M-404.8,314.1c0.6-0.3,0.9-1.1,0.7-2c-0.3-1.1-0.9-1.8-1.8-2.3c-0.9-0.6-1.8-1-2.6-1.6
		c-0.6-0.4-1.1-0.4-1.8-0.2c1.4,1.7,2.5,3.5,3.5,5.4C-406.4,314.3-405.5,314.5-404.8,314.1z"/>
</g>
<g id="SPLINE_1311_">
	<path class="st0" d="M-405.5,293.9c0.4-0.9,0.9-1.8,0.8-3c0-0.1,0-0.2,0-0.4c0-0.8-0.6-1.4-1.2-1.3c-0.8,0.1-0.9,0.9-0.8,1.4
		c0.2,1,0.3,2.1,0.3,3.1c0,0.3,0.2,0.6,0.4,0.6C-405.8,294.4-405.6,294.1-405.5,293.9z"/>
</g>
<g id="SPLINE_1310_">
	<path class="st0" d="M-405.2,306c0.1-0.7,0-1.3-0.4-1.8c-0.8-1-1.8-1.5-3-1.7c-0.2,0-0.3,0-0.4,0c-0.3,0-0.5,0.1-0.6,0.4
		c-0.1,0.4,0.2,0.5,0.4,0.6c0.5,0.3,0.7,0.8,1,1.2c0.4,0.6,0.7,1.2,1.1,1.8c0.3,0.4,0.7,0.6,1.1,0.5
		C-405.6,306.9-405.3,306.5-405.2,306z"/>
</g>
<g id="SPLINE_1309_">
	<path class="st0" d="M-405.6,298.5c0.2-0.6-0.1-0.9-0.6-0.8c-0.8,0.2-2.4,2-2.5,2.9c0,0.2-0.1,0.5,0.3,0.4c0.1,0,0.2-0.1,0.3-0.2
		c0.6-0.8,1.5-1.2,2.2-1.8C-405.9,299-405.7,298.7-405.6,298.5z"/>
</g>
<g id="SPLINE_1308_">
	<path class="st0" d="M-405.8,325.4c0.1-1.1-0.5-1.9-1.2-2.6c-0.5-0.5-1.3-0.6-1.7-1.3c-0.1-0.1-0.2-0.1-0.3,0c-0.1,0.1,0,0.2,0,0.3
		c0.3,1.2,0.3,2.4,0.4,3.7c0.1,1,0.6,1.5,1.6,1.4C-406.3,326.9-405.8,326.4-405.8,325.4z"/>
</g>
<g id="SPLINE_1307_">
	<path class="st0" d="M-406.4,285.3c0.1-0.5,0-1.1-0.5-1.4c-0.4-0.3-1-0.2-1.4,0.1c-1.3,0.9-1.3,3.3,0.1,4.3c0.2-0.7,0.2-1.7,1-1.9
		C-406.5,286.4-406.5,285.8-406.4,285.3z"/>
</g>
<g id="SPLINE_1306_">
	<path class="st0" d="M-408.1,294.6c0.2-0.6,0.4-1.1,0.4-1.8c-0.1-0.6-0.3-1.1-0.8-1.3c-0.3-0.1-0.7-0.1-0.9,0.3
		c-0.3,0.6-0.1,1.1,0.2,1.5c0.2,0.3,0.6,0.6,0.5,1c0,0.2-0.2,0.5,0.1,0.6C-408.4,295.2-408.2,294.9-408.1,294.6z"/>
</g>
<g id="SPLINE_1305_">
	<path class="st0" d="M-407.9,297.7c0.1-0.3,0.3-0.6,0.1-1c-0.2-0.3-0.5-0.3-0.9-0.3c-0.8,0.1-1.6,1.1-1.6,2.3
		c0.1,0.2,0.1,0.6,0.2,1c0.1,0.2,0.2,0.4,0.4,0.4c0.3,0,0.3-0.2,0.3-0.5c-0.1-0.5,0.3-0.8,0.6-1.1
		C-408.4,298.3-408.1,298.1-407.9,297.7z"/>
</g>
<g id="SPLINE_1304_">
	<path class="st0" d="M-409.9,312.7c0.5-0.4,0.4-0.9,0.3-1.4c-0.1-0.3-0.2-0.6-0.4-0.9c-0.6-0.9-1.3-1.6-2.4-1.9c0.5,1,0.8,2,0.7,3
		c-0.1,0.6,0.1,1,0.6,1.3C-410.8,313-410.4,313-409.9,312.7z"/>
</g>
<g id="SPLINE_1303_">
	<path class="st0" d="M-409.7,305.7c0.1-0.6-0.1-1.1-0.5-1.4c-0.6-0.6-1.4-0.8-2.2-1.1c-0.2-0.1-0.4-0.3-0.5,0
		c-0.1,0.2,0,0.5,0.2,0.6c0.5,0.5,0.8,1.1,1.1,1.8c0.2,0.5,0.6,0.8,1.1,0.8C-410.2,306.2-409.8,306.1-409.7,305.7z"/>
</g>
<g id="SPLINE_1302_">
	<path class="st0" d="M-410.2,291.3c0.5-1.1,0.7-1.9,0.4-2.9c-0.1-0.3-0.1-0.7-0.6-0.7c-0.5,0-0.6,0.4-0.6,0.9
		C-411,289.5-410.5,290.3-410.2,291.3z"/>
</g>
<g id="SPLINE_1301_">
	<path class="st0" d="M-411.1,320.8c0.8-0.1,1.2-0.7,1.1-1.9c-0.1-2.1-1.1-3.7-2.7-5.1c0.3,1,0.2,1.8,0.1,2.7
		c-0.1,0.9-0.2,1.8-0.2,2.7C-412.7,320.3-412.1,320.9-411.1,320.8z"/>
</g>
<g id="SPLINE_1300_">
	<path class="st0" d="M-410.3,329.2c0.3-0.8,0.3-1.6,0.2-2.5c-0.1-1.1-0.6-1.9-1.2-2.7c0.2,1.1-0.3,1.8-0.9,2.4
		c-0.7,0.8-0.7,1.7-0.5,2.7c0.1,0.6,0.4,1.2,1.1,1.2C-410.9,330.3-410.5,329.8-410.3,329.2z"/>
</g>
<g id="SPLINE_1299_">
	<path class="st0" d="M-410.7,284.4c0.1-0.5,0.3-1.1-0.4-1.3c-0.5-0.2-1.2,0.3-1.3,1c-0.1,1.1,0.1,2.3-0.5,3.4
		C-411.5,286.9-411.1,285.7-410.7,284.4z"/>
</g>
<g id="SPLINE_1298_">
	<path class="st0" d="M-410.9,292c0-0.5-0.1-1-0.6-1.1c-0.5-0.1-0.9,0.2-1,0.8c-0.1,0.5-0.3,0.9-0.5,1.3c-0.1,0.2-0.5,0.2-0.3,0.5
		c0.1,0.3,0.4,0.2,0.7,0.3C-411.8,293.9-410.9,292.9-410.9,292z"/>
</g>
<g id="SPLINE_1297_">
	<path class="st0" d="M-410.9,298.4c0-0.3-0.1-0.6-0.1-0.8c-0.1-0.6-0.4-1.1-1.1-1.1c-0.7,0-1,0.4-1.2,1.1c-0.1,0.4-0.1,0.8,0,1.2
		c0.3,0.8,0.2,1.5-0.1,2.2c-0.1,0.2-0.3,0.6,0,0.8c0.3,0.2,0.6,0.1,0.9-0.2C-411.6,300.7-411.1,299.6-410.9,298.4z"/>
</g>
<g id="SPLINE_1296_">
	<path class="st0" d="M-412.8,282.6c0-0.6-0.2-1.1-0.8-1.1c-0.6-0.1-0.9,0.4-0.9,1c0,0.8-0.1,1.5-0.6,2.1c-0.1,0.2-0.2,0.4,0,0.6
		c0.1,0.1,0.3,0.1,0.5,0C-413.8,284.8-412.8,283.5-412.8,282.6z"/>
</g>
<g id="SPLINE_1295_">
	<path class="st0" d="M-413.5,290.2c0.3-0.2,0.6-0.4,0.4-0.9c-0.2-0.4-0.6-0.4-0.9-0.3c-0.8,0.1-1.4,0.9-1.5,2.2
		C-414.7,291-414.1,290.6-413.5,290.2z"/>
</g>
<g id="SPLINE_1294_">
	<path class="st0" d="M-413.2,296c0.2-0.3,0.4-0.6,0.1-0.9c-0.2-0.3-0.5-0.3-0.8-0.2c-0.4,0.1-0.6,0.4-0.6,0.8c0,0.7,0,1.4,0,2.1
		C-413.9,297.3-413.6,296.6-413.2,296z"/>
</g>
<g id="SPLINE_1293_">
	<path class="st0" d="M-414,310.3c0-0.9-0.1-1.7-0.7-2.5c0,1.2-0.7,2-1.3,2.7c-0.5,0.5-0.7,1.2-0.8,1.9c-0.1,0.8,0.4,1.7,1,1.8
		c0.6,0.1,1.3-0.4,1.5-1.2C-414,312.2-414,311.2-414,310.3z"/>
</g>
<g id="SPLINE_1292_">
	<path class="st0" d="M-414.1,325.5c0.7-1.5,0.3-4.1-0.9-5.4c0.1,1.1-0.3,1.9-1,2.6c-0.6,0.6-0.8,1.5-0.7,2.4
		c0.1,0.7,0.4,1.2,1.1,1.3C-415,326.5-414.4,326.3-414.1,325.5z"/>
</g>
<g id="SPLINE_1291_">
	<path class="st0" d="M-414.5,294.5c0.6-0.5,0.7-1.5,0.3-2c-0.4-0.4-1.3-0.3-1.8,0.2c-0.9,0.9-1.3,2-1.3,3.5c0,0.1,0,0.4,0,0.6
		c0,0.2,0.1,0.4,0.3,0.5c0.2,0,0.4-0.1,0.4-0.4C-416.3,295.8-415.3,295.2-414.5,294.5z"/>
</g>
<g id="SPLINE_1290_">
	<path class="st0" d="M-414.4,300.1c0.1-0.4,0-0.7-0.3-1c-0.4-0.2-0.7-0.1-1,0.2c-0.4,0.3-0.5,0.8-0.5,1.3c0,0.9,0.2,1.8,0.7,2.6
		c0.1-0.8,0.5-1.5,0.8-2.2C-414.7,300.8-414.5,300.5-414.4,300.1z"/>
</g>
<g id="SPLINE_1289_">
	<path class="st0" d="M-414.4,286.9c0-0.2-0.2-0.4-0.4-0.4c-0.5-0.2-0.9,0-1.2,0.4c-0.2,0.4-0.6,0.9-0.2,1.3
		c0.4,0.4,0.5-0.2,0.8-0.4c0.2-0.1,0.5-0.3,0.7-0.4C-414.6,287.2-414.4,287.1-414.4,286.9z"/>
</g>
<g id="SPLINE_1288_">
	<path class="st0" d="M-416.3,320.6c0.2-0.6,0.3-1.3,0.4-2.2c0-0.9-0.5-1.9-1-2.8c-0.1-0.1-0.2-0.3-0.3-0.2
		c-0.2,0.1-0.2,0.3-0.2,0.5c0.2,1-0.4,1.8-0.8,2.7c-0.2,0.5-0.4,0.9-0.5,1.5c0,0.7,0.1,1.3,0.8,1.6
		C-417.2,321.8-416.6,321.4-416.3,320.6z"/>
</g>
<g id="SPLINE_1287_">
	<path class="st0" d="M-416.6,308.1c0.4-0.4,0.7-0.9,0.6-1.5c-0.1-0.5-0.6-0.8-1-0.9c-1.2-0.1-2.3,0.2-3,1.3
		c-0.7,1.1-1.1,2.3-1.1,3.7c0,0.4,0.1,0.8,0.2,1.3c0.1,0.3,0.1,0.7,0.5,0.7c0.4,0,0.2-0.4,0.3-0.7c0.4-1.9,1.2-3.3,3.1-3.7
		C-417,308.4-416.8,308.2-416.6,308.1z"/>
</g>
<g id="SPLINE_1286_">
	<path class="st0" d="M-416.7,283.7c0.1-0.2,0.1-0.5,0.1-0.6c0-0.9-0.1-1.6-0.5-2.3c-0.4-0.7-1.4-1-2-0.6c-0.4,0.3-0.4,1.1,0.2,1.8
		c0.1,0.2,0.3,0.3,0.5,0.5c0.3,0.3,0.5,0.7,0.5,1.1c0,0.4-0.1,1.1,0.5,1.1C-416.9,284.8-416.8,284.2-416.7,283.7z"/>
</g>
<g id="SPLINE_1285_">
	<path class="st0" d="M-416.9,291.5c0.4-0.9,0.3-1.9-0.2-2.1c-0.5-0.3-1.5,0.2-1.9,1c-0.1,0.1-0.1,0.2-0.2,0.3
		c-0.4,1.1-0.6,2.2-0.7,3.5c0.1,0.2-0.2,0.6,0.2,0.8c0.4,0.2,0.5-0.3,0.7-0.6c0.3-0.4,0.5-1.1,0.9-1.3
		C-417.4,292.8-417.2,292.1-416.9,291.5z"/>
</g>
<g id="SPLINE_1284_">
	<path class="st0" d="M-417.4,286.8c0.3-0.4,0.2-0.8-0.2-1c-0.6-0.4-1.4,0-1.5,0.8c-0.1,0.5-0.2,0.9-0.4,1.3
		c-0.3,0.6-0.2,1.2,0.1,1.9C-419.1,288.5-418.2,287.7-417.4,286.8z"/>
</g>
<g id="SPLINE_1283_">
	<path class="st0" d="M-417.6,298.3c0.1-0.4,0-0.7-0.1-1.1c-0.2-0.4-0.3-0.6-0.8-0.6c-0.4,0-0.8,0.2-1,0.6c-0.2,0.4-0.2,0.8-0.2,1.2
		c0.2,1.3,0.8,2.4,1.6,3.4C-418,300.6-417.9,299.5-417.6,298.3z"/>
</g>
<g id="SPLINE_1282_">
	<path class="st0" d="M-420.3,327.6c1.1,0.1,2.1-1.4,1.7-2.7c-0.3-1.2-1.2-2.1-1.3-3.7c-0.9,1.4-1.5,2.6-1.9,3.9
		C-422.1,326.3-421.4,327.5-420.3,327.6z"/>
</g>
<g id="SPLINE_1281_">
	<path class="st0" d="M-420.7,319.6c0.9-1.5,1.2-3.3,1.6-5c-1.1,1.1-2.4,1.7-3.6,2.6c-0.4,0.3-0.6,0.8-0.7,1.3
		c-0.1,0.7-0.2,1.5,0.6,1.9C-421.9,320.7-421.1,320.4-420.7,319.6z"/>
</g>
<g id="SPLINE_1280_">
	<path class="st0" d="M-420.5,285.3c0.3-0.1,0.1-0.4,0.2-0.6c0-0.8-0.3-1.6-0.7-2.3c-0.4-0.6-0.9-0.9-1.6-0.8
		c-0.5,0.1-0.9,0.2-0.9,0.8c-0.1,0.5,0.2,0.9,0.6,1.1c0.7,0.4,1.4,0.9,1.9,1.5C-420.9,285.2-420.8,285.4-420.5,285.3z"/>
</g>
<g id="SPLINE_1279_">
	<path class="st0" d="M-421.1,290.9c0.5-1,0.7-2.1,0.3-3.2c-0.4-0.9-1.2-1.1-1.8-0.4c-0.3,0.3-0.6,0.7-0.6,1.1
		c-0.1,0.9-0.6,1.8-0.4,2.8c-0.3,1.6,0.6,2.8,1.2,4.1c0.1,0.2,0.3,0.5,0.6,0.4c0.3-0.1,0.2-0.3,0.1-0.5
		C-422.2,293.6-421.8,292.2-421.1,290.9z"/>
</g>
<g id="SPLINE_1278_">
	<path class="st0" d="M-421.3,301.6c0.2-0.5,0.2-1,0.2-1.5c0-1.7-1.2-3.5-2.7-4c-0.9-0.3-1.5,0.1-1.5,1.1c0,0.9,0.4,1.4,1,1.8
		c0.9,0.6,1.7,1.3,1.8,2.5c0,0.3,0.2,0.5,0.5,0.5C-421.6,302.1-421.4,301.9-421.3,301.6z"/>
</g>
<g id="SPLINE_1277_">
	<path class="st0" d="M-423.5,308.2c1-1.6,1.9-3.2,3.3-4.4c-2.1,0.2-4.1,0.7-5.6,2.5c-0.1,0.1-0.2,0.3-0.3,0.5
		c-0.2,0.6-0.6,1.3-0.1,1.8c0.5,0.6,1.3,0.5,1.9,0.2C-424,308.6-423.7,308.4-423.5,308.2z"/>
</g>
<g id="SPLINE_1276_">
	<path class="st0" d="M-422.1,334.2c0.7-1.9,1.1-3.9,0-5.8c-0.1-0.2-0.2-0.6-0.4-0.5c-0.3,0.1-0.2,0.4-0.3,0.7
		c-0.1,0.7-0.3,1.3-0.5,2c-0.2,0.7-0.4,1.4-0.4,2.2c0,0.5,0,1,0.2,1.4c0.2,0.3,0.4,0.5,0.8,0.5
		C-422.4,334.8-422.2,334.5-422.1,334.2z"/>
</g>
<g id="SPLINE_1275_">
	<path class="st0" d="M-422.1,341.8c0.1-0.5,0-1-0.4-1.3c-0.5-0.4-1.1-0.6-1.8-0.7c-1,0.2-2,0.4-3,0.6c-0.2,0-0.5,0-0.5,0.4
		c0,0.3,0.3,0.4,0.5,0.4c0.9,0,1.6,0.6,2.3,1.1c0.6,0.5,1.3,0.6,2,0.4C-422.5,342.6-422.2,342.3-422.1,341.8z"/>
</g>
<g id="SPLINE_1274_">
	<path class="st0" d="M-422.3,350.3c0.6-0.6,0.6-1.2,0.1-1.8c-0.6-0.7-1.4-0.9-2.2-0.9c-0.7,0.1-1.4,0.2-2.1,0.2
		c-0.4,0-0.4,0.2-0.2,0.4c0.2,0.2,0.4,0.4,0.5,0.4c1.1,0,1.6,0.9,2.3,1.6C-423.3,350.6-422.8,350.9-422.3,350.3z"/>
</g>
<g id="SPLINE_1273_">
	<path class="st0" d="M-422.7,345.9c0.3-0.2,0.4-0.5,0.4-1c0-0.4-0.2-0.6-0.6-0.7c-1-0.3-2.1-0.4-3,0.2c-0.7,0.5-1.4,0.9-2.3,0.6
		c-0.2-0.1-0.4,0-0.5,0.2c0,0.2,0.1,0.5,0.3,0.5c0.6,0,1.1,0.4,1.7,0.4c0.9,0,1.9-0.5,2.7,0C-423.4,346.2-423,346.1-422.7,345.9z"/>
</g>
<g id="SPLINE_1272_">
	<path class="st0" d="M-422.7,310.6c0.1-0.3,0.2-0.6,0-1.2c-0.9,1.1-2,1.8-2.8,2.7c-0.4,0.4-0.7,0.9-0.8,1.4
		c-0.1,0.7-0.1,1.5,0.6,1.9c0.6,0.4,1.4,0.2,1.9-0.4c0.6-0.7,1.1-1.5,1-2.5C-423,311.9-422.9,311.3-422.7,310.6z"/>
</g>
<g id="SPLINE_1271_">
	<path class="st0" d="M-423.3,337.2c0.3-0.5,0.3-1-0.1-1.4c-0.4-0.5-1-0.3-1.4,0c-0.4,0.3-0.6,0.7-0.8,1.1c-0.2,0.5-0.6,0.9-1.1,1
		c-0.3,0.1-0.8,0.2-0.7,0.6c0.1,0.4,0.6,0.5,0.8,0.5C-425.2,338.9-424,338.5-423.3,337.2z"/>
</g>
<g id="SPLINE_1270_">
	<path class="st0" d="M-424.3,324.9c0.3-0.7,0.5-1.5,0.5-2.3c0-0.5-0.1-0.9-0.1-1.4c0-0.2,0-0.5-0.3-0.5c-0.3-0.1-0.3,0.2-0.3,0.4
		c-0.3,0.5-0.8,0.8-1.2,1.1c-0.8,0.5-1,1.2-1.1,2.1c0,0.7,0.1,1.3,0.8,1.5C-425.2,325.9-424.6,325.7-424.3,324.9z"/>
</g>
<g id="SPLINE_1269_">
	<path class="st0" d="M-425,294.1c0.2,0.2,0.4,0.3,0.8,0.2c-0.5-1.3-0.8-2.6-1.5-3.7c-0.4-0.6-0.8-1.1-1.5-1.3
		c-0.7-0.2-1.8,0.3-1.9,0.8c-0.3,0.8,0.2,1.9,0.9,2.3c0.2,0.1,0.3,0.1,0.5,0.2C-426.8,293-425.7,293.3-425,294.1z"/>
</g>
<g id="SPLINE_1268_">
	<path class="st0" d="M-424.5,285.5c0-0.7-0.2-1.3-0.4-2c-0.3-0.9-0.9-1.4-1.9-1.3c-0.6,0-1.1,0.3-1.3,1c-0.3,0.9,0,1.6,0.7,2.2
		c0.3,0.3,0.7,0.7,1,1c0.3,0.3,0.5,0.6,0.5,1c0,0.3,0,0.7,0.4,0.7c0.3,0,0.5-0.3,0.6-0.6C-424.6,287-424.5,286.3-424.5,285.5z"/>
</g>
<g id="SPLINE_1267_">
	<path class="st0" d="M-424.5,270.2c0.1-0.8-0.3-1.3-0.9-1.6c-0.1-0.1-0.3-0.1-0.5-0.2c-0.9-0.3-1.7-0.1-2.5,0.2
		c0.7,0.3,1.2,0.7,1.5,1.5c0.3,0.9,1,0.9,1.7,0.9C-424.8,270.9-424.6,270.7-424.5,270.2z"/>
</g>
<g id="SPLINE_1266_">
	<path class="st0" d="M-425.9,354.2c0.5-0.3,0.7-0.8,0.7-1.4c-0.1-0.7-0.5-1.2-1.2-1.3c-1.3-0.3-2.8,0-4.1-0.7
		c-0.5-0.2-0.3,0.3-0.3,0.6c0.3,1.4,2.3,3.1,3.7,3.1C-426.6,354.4-426.2,354.4-425.9,354.2z"/>
</g>
<g id="SPLINE_1265_">
	<path class="st0" d="M-425.8,317.4c0.1-0.2,0.2-0.4,0-0.6c-0.2-0.2-0.3,0-0.5,0.1c-1.2,0.7-2.3,1.5-3.5,2.2c-0.7,0.4-1,1.1-1,1.9
		c0,1.1,0.7,1.8,1.6,1.5c0.9-0.3,1.8-0.8,2.1-1.8C-426.6,319.6-426.3,318.4-425.8,317.4z"/>
</g>
<g id="SPLINE_1264_">
	<path class="st0" d="M-425.8,300.9c0.1-0.1,0-0.3-0.1-0.4c-0.8-2-2.9-3.5-5.1-3.5c-0.7-0.1-1.3,0.3-1.9,0.7
		c-0.7,0.5-1.1,1.4-0.7,1.9c0.4,0.7,1.1,0.9,1.8,0.6c1.9-0.6,3.8-0.6,5.6,0.6C-426.1,300.9-426,301.1-425.8,300.9z"/>
</g>
<g id="SPLINE_1263_">
	<path class="st0" d="M-426.9,303.9c0.4-0.2,0.7-0.3,1-0.9c-0.8,0.1-1.5,0.1-2.2,0.2c-1.6,0.3-3.3,0.4-4.8,1.4
		c-0.7,0.5-1.2,1.1-1.3,2.1c-0.1,1.1,0.9,1.9,1.8,1.5c1.4-0.7,2.8-1.3,3.7-2.8C-428.2,304.6-427.6,304.2-426.9,303.9z"/>
</g>
<g id="SPLINE_1262_">
	<path class="st0" d="M-426.4,273.3c0.1-0.4-0.1-0.6-0.4-0.8c-0.9-0.8-1.9-0.2-2.8,0.1c0.5,0.3,0.8,0.7,1.2,1
		c0.4,0.3,0.8,0.4,1.2,0.3C-426.8,273.8-426.5,273.7-426.4,273.3z"/>
</g>
<g id="SPLINE_1261_">
	<path class="st0" d="M-426.4,295.5c0-0.2-0.1-0.3-0.3-0.4c-0.5-0.2-0.9-0.6-1.4-1c-0.9-0.7-1.8-1.1-3.1-1.2c-0.3-0.1-0.6,0.3-1,0.3
		c-0.7,0.1-1.1,0.4-1,1.2c0,0.8,0.5,1.3,1.2,1.3c1.7,0,3.4-0.3,5.2,0C-426.7,295.8-426.5,295.7-426.4,295.5z"/>
</g>
<g id="SPLINE_1260_">
	<path class="st0" d="M-427.5,277.2c0.4-0.4,0.2-1.4-0.5-2.1c-1-1.1-2.3-1.6-3.7-1.7c-0.5,0.1-0.9,0.1-1.4,0.2
		c-0.2,0-0.4,0.1-0.5,0.3c-0.1,0.3,0.2,0.3,0.4,0.4c0.6,0.3,1.2,0.6,1.7,1.1c0.6,0.6,1.1,1.1,1.7,1.7
		C-429.2,277.6-427.9,277.6-427.5,277.2z"/>
</g>
<g id="SPLINE_1259_">
	<path class="st0" d="M-427.8,261c0.1-0.7-0.2-1-0.7-1.2c-1.3-0.4-2.7,0.2-3.6,1.5c0.4,0,0.8-0.1,1.1-0.1c0.4,0,0.8,0.2,1.2,0.3
		c0.4,0.1,0.7,0.1,1.1,0.2C-428.3,261.8-427.9,261.7-427.8,261z"/>
</g>
<g id="SPLINE_1258_">
	<path class="st0" d="M-428.2,380.6c0.3-0.4,0.1-0.7-0.3-0.7c-0.6-0.1-1.3-0.1-1.9-0.1c-1.3-0.1-2.5,0-3.5,1
		c-0.3,0.3-0.7,0.3-1.1,0.3c-0.2,0-0.5,0-0.5-0.4c0-1-0.5-0.5-0.9-0.3c-0.3,0.1-0.5,0.4-0.8,0.5c-0.4,0.2-1,0.4-1.3,0.1
		c-0.4-0.4,0.1-0.7,0.3-1.1c0.1-0.2,0.2-0.4,0.1-0.6c-0.1-0.2-0.4-0.1-0.6-0.1c-1.1,0.2-1.9,0.7-2.5,1.7c-0.6,0.9-1.3,1.5-2.4,1.4
		c0.7-0.6,0.5-1.6,1.1-2.2c0.1-0.1,0.2-0.3,0.1-0.5c-0.1-0.2-0.3-0.2-0.5-0.2c-0.7,0-1.4,0.3-1.9,0.9c-0.5,0.6-1,1.1-1.8,1.3
		c-0.2,0-0.2,0.6-0.5,0.2c-0.2-0.2-0.1-0.5,0-0.7c0.4-1,0.9-1.9,1.3-2.9c0.1-0.2,0.4-0.6,0.1-0.8c-0.3-0.2-0.7-0.1-0.9,0.1
		c-0.6,0.6-1.4,0.7-2.1,1.1c-0.4,0.3-0.8,0.5-1,1c-0.1,0.3-0.2,0.6-0.6,0.6c-0.3,0-0.4-0.3-0.5-0.6c-0.5-1-0.8-1-1.4-0.1
		c-2,2.8-3.7,5.9-5.3,9.1c-0.4,0.8-0.3,1.1,0.6,1.2c0.2,0,0.4,0.1,0.6,0.2c1,0.5,1.8,1.3,2.5,2.2c1.1,1.4,2.4,2.5,4.2,2.6
		c0.4,0,0.7,0.2,1.1,0.3c1.1,0.3,2.3,0.3,3.4-0.2c0.5-0.2,0.6-0.5,0.1-0.8c-0.7-0.4-1.1-1-1.4-1.8c0.5-0.2,0.8,0,1.1,0.2
		c0.7,0.4,1.4,0.9,2.2,1c1.8,0.3,3.4-0.1,5-0.8c0.2-0.1,0.5-0.2,0.5-0.6c0-0.4-0.4-0.3-0.6-0.4c-0.3-0.1-0.7-0.1-0.9-0.3
		c-0.3-0.3-0.9-0.5-0.8-1c0.2-0.5,0.8-0.3,1.2-0.1c1.3,0.6,2.6,0.6,4,0.2c0.3-0.1,0.8,0,0.8-0.5c0-0.4-0.4-0.5-0.7-0.6
		c-0.3-0.1-0.6-0.3-0.6-0.6c0-0.4,0.3-0.7,0.6-0.7c1.3-0.3,2.2-1.3,3.1-2.2c0.2-0.2,0.4-0.4,0.3-0.7c-0.1-0.3-0.3-0.2-0.5-0.2
		c-0.2,0-0.4,0.1-0.5-0.2c-0.1-0.3,0-0.5,0.2-0.6c0.7-0.6,1.4-1.3,2.3-1.7C-429.1,381.9-428.7,381.2-428.2,380.6z"/>
</g>
<g id="SPLINE_1257_">
	<path class="st0" d="M-428.2,307.5c-0.1-0.1-0.1-0.1-0.2-0.2c-1.3,0.7-2.6,1.3-3.8,2c-0.9,0.5-1.3,1.7-0.9,2.3
		c0.4,0.6,1.6,0.5,2.3-0.3c0,0,0.1-0.1,0.1-0.1C-429.8,310-429,308.8-428.2,307.5z"/>
</g>
<g id="SPLINE_1256_">
	<path class="st0" d="M-428.5,337.3c0.2-0.8-0.1-1-0.7-1.2c-0.4-0.1-0.9,0-1.2,0.4c-1.1,1.1-2.3,1.8-3.8,2c-0.2,0-0.4,0-0.5,0.3
		c0,0.3,0.1,0.6,0.3,0.7c0.7,0.1,1.2,0.5,1.9,0.5C-430.3,339.9-429,339-428.5,337.3z"/>
</g>
<g id="SPLINE_1255_">
	<path class="st0" d="M-428.5,342.6c0-0.6-0.3-1-0.8-1.3c-0.5-0.2-1-0.3-1.5-0.3c-1.8-0.1-2.9,1.5-4.4,2.2c-0.3,0.2-0.1,0.4,0.1,0.6
		c0.3,0.2,0.6,0.4,1,0.2c1.1-0.4,2.3-0.3,3.5-0.1c0.4-0.1,0.8-0.1,1.2-0.2C-428.9,343.7-428.6,343.3-428.5,342.6z"/>
</g>
<g id="SPLINE_1254_">
	<path class="st0" d="M-429.5,266.3c1-0.4,1.3-1.4,0.7-2.3c-0.6-0.9-1.5-1.5-2.5-1.6c-2.3-0.2-4.4,0.5-6.7,0.6c0,0.1,0,0.2,0,0.2
		c0.1,0.1,0.2,0.2,0.4,0.2c1.8,0.5,3.5,1.3,5.1,2.4C-431.7,266.6-430.6,266.7-429.5,266.3z"/>
</g>
<g id="SPLINE_1253_">
	<path class="st0" d="M-428.8,358.8c0.4-0.5,0.2-1.2,0.1-1.8c-0.3-1.5-1.5-2.1-2.4-3.1c-0.1-0.1-0.3-0.4-0.5-0.1
		c-0.2,0.2,0,0.5,0.1,0.6c0.6,0.6,0.5,1.3,0.5,1.9c0,0.6,0,0.9,0,1.2c0,0.7,0.2,1.3,0.9,1.5C-429.7,359.1-429.2,359.2-428.8,358.8z"
		/>
</g>
<g id="SPLINE_1252_">
	<g>
		<path class="st1" d="M-432.3,318.3c-0.3,0-0.5-0.1-0.7-0.4c-0.4-0.7-0.4-1.4-0.1-2c0.3-0.5,0.6-0.9,1-1.2c1-0.9,2.3-1.8,3.7-2.5
			c-0.9,1.3-1.3,2.7-1.6,4.1c-0.2,0.8-0.9,1.5-1.8,1.9C-431.9,318.2-432.1,318.3-432.3,318.3z"/>
		<path class="st2" d="M-428.5,312.4c-0.7,1.3-1.1,2.6-1.4,3.9c-0.2,0.7-0.8,1.4-1.7,1.8c-0.2,0.1-0.4,0.1-0.6,0.1
			c-0.3,0-0.5-0.1-0.6-0.4c-0.4-0.7-0.4-1.3-0.1-1.9c0.3-0.5,0.6-0.9,1-1.2C-431,313.9-429.9,313.1-428.5,312.4 M-428.3,312.1
			L-428.3,312.1L-428.3,312.1z M-428.3,312.1c-1.4,0.7-2.6,1.6-3.7,2.5c-0.4,0.3-0.8,0.8-1,1.2c-0.4,0.7-0.3,1.4,0.1,2
			c0.2,0.3,0.4,0.4,0.7,0.4c0.2,0,0.4-0.1,0.6-0.2c0.8-0.4,1.5-1.1,1.8-1.9C-429.5,314.8-429.1,313.4-428.3,312.1L-428.3,312.1z"/>
	</g>
</g>
<g id="SPLINE_1251_">
	<path class="st0" d="M-429.2,334c0.2-0.6,0.3-1.2-0.2-1.6c-0.5-0.4-1-0.4-1.5,0c-0.4,0.2-0.7,0.6-1,0.9c-0.6,0.6-1.3,1-2.1,1.2
		c-0.2,0.1-0.5-0.2-0.5,0.2c0,0.3,0.1,0.5,0.3,0.7c0.6,0.4,1.4,0.6,2,0.7C-431,336-429.6,335.1-429.2,334z"/>
</g>
<g id="SPLINE_1250_">
	<path class="st0" d="M-430,271.2c0.8-0.3,1-0.9,0.5-1.6c-0.8-1.4-2-1.7-3.3-1.6c-0.7-0.1-1.3,0-1.9,0.1c-0.3,0.1-0.7,0-0.6,0.5
		c0,0.4,0.4,0.4,0.7,0.4c0.7,0,1.2,0.4,1.5,1C-432.4,271.2-431.4,271.6-430,271.2z"/>
</g>
<g id="SPLINE_1249_">
	<path class="st0" d="M-430.5,330.2c0.8-0.4,1.1-1.4,0.7-2.3c-0.3-0.6-1.1-0.7-1.8-0.3c-1.3,0.8-1.7,2.2-2,3.5
		c0.1,0.4-0.1,0.8,0.2,1c0.3,0.1,0.5,0,0.6-0.3C-432.2,330.9-431.4,330.5-430.5,330.2z"/>
</g>
<g id="SPLINE_1248_">
	<path class="st0" d="M-430.3,289.3c0.2-0.4,0.1-0.9-0.1-1.3c-0.5-1-1.7-1.5-2.9-1.1c-0.7,0.2-1.1,0.6-1,1.5
		c0.1,0.8,0.7,1.2,1.5,1.2c0.4,0,0.7-0.1,1.1-0.1c0.2,0,0.3,0,0.4,0C-431,289.5-430.6,289.7-430.3,289.3z"/>
</g>
<g id="SPLINE_1247_">
	<path class="st0" d="M-432.2,259.4c0.6-0.3,1-0.7,1-1.5c0-0.8-0.4-1.3-1-1.6c-1-0.5-1.9-0.2-2.9,0.3c-1.9,1-3.1,2.8-4.6,4.5
		c0.7,0.1,1.1-0.1,1.5-0.4c0.8-0.5,1.6-0.7,2.4-0.8C-434.5,259.9-433.3,259.9-432.2,259.4z"/>
</g>
<g id="SPLINE_1246_">
	<path class="st0" d="M-431.9,365.1c0.9-0.4,0.8-1.3,0.7-2.1c-0.1-0.8-0.4-1.5-1.1-2c-1-0.8-1.9-1.8-2.7-2.8c0.8,1.2,0.6,2.6,0.6,4
		c0,0.7,0.1,1.3,0.4,1.8C-433.4,364.9-432.6,365.4-431.9,365.1z"/>
</g>
<g id="SPLINE_1245_">
	<path class="st0" d="M-431.8,278.6c0.4-0.3,0.7-0.7,0.6-1.2c-0.1-0.8-0.7-1.1-1.3-1.3c-1.3-0.5-2.7-0.3-4.1-0.2
		c0.9,0.4,1.4,1.3,2.1,1.9c0.3,0.2,0.5,0.5,0.8,0.7C-433.1,279-432.5,279-431.8,278.6z"/>
</g>
<g id="SPLINE_1244_">
	<path class="st0" d="M-431.7,326.1c0.3-0.2,0.6-0.5,0.5-1c-0.2-0.5-0.6-0.7-1.1-0.8c-0.1,0-0.2,0-0.3,0c-0.6,0.1-2,2.3-1.9,3
		c0.1,0.3,0.2,0.5,0.5,0.3C-433.2,327.1-432.5,326.6-431.7,326.1z"/>
</g>
<g id="SPLINE_1243_">
	<path class="st0" d="M-431.5,282.8c0.4-0.5,0.5-1.5,0-2c-0.3-0.3-0.6-0.6-1-0.7c-1.2-0.4-2.4-0.8-3.6-1.2c-0.1,0.1-0.1,0.2-0.2,0.2
		c1.3,0.7,1.7,2.1,2.6,3.2c0.2,0.2,0.4,0.4,0.6,0.6C-432.5,283.2-432,283.3-431.5,282.8z"/>
</g>
<g id="SPLINE_1242_">
	<path class="st0" d="M-431.6,348.5c0.2-0.8,0-1.4-0.7-1.9c-0.6-0.4-1.3-0.8-1.8-0.6c-1.2,0.1-2.2,0.2-3.2,0.2c-0.2,0-0.5,0-0.6,0.3
		c0,0.3,0.2,0.3,0.4,0.4c1.2,0.3,2.1,1.1,2.9,2c0.4,0.5,0.9,0.6,1.5,0.6C-432.3,349.6-431.8,349.3-431.6,348.5z"/>
</g>
<g id="SPLINE_1241_">
	<path class="st0" d="M-432.4,302.1c0.2,0,0.4-0.1,0.4-0.4c0-0.3-0.2-0.4-0.5-0.4c-0.5-0.1-1.1-0.1-1.5-0.2
		c-0.9,0.1-1.7,0.1-2.5,0.2c-1.2,0.2-2.4,0.5-3.2,1.7c-0.2,0.3-0.6,0.6-0.3,1c0.3,0.5,0.6,1,1.2,1.1c1,0.1,2.1-0.1,3-0.8
		C-434.8,303.5-433.8,302.4-432.4,302.1z"/>
</g>
<g id="SPLINE_1240_">
	<path class="st0" d="M-433.6,296.4c0.3,0,0.4-0.2,0.3-0.5c-0.6-1.8-3.3-3.5-5.2-3.2c-0.9,0.2-1.4,0.7-1.5,1.4
		c0,0.9,0.4,1.3,1.3,1.3c1.5,0,3.1,0,4.4,0.9C-434,296.4-433.8,296.4-433.6,296.4z"/>
</g>
<g id="SPLINE_1239_">
	<path class="st0" d="M-433.2,353.9c0-1.1-0.4-1.9-1.3-2.5c-1.2-1-2.8-1-4.1-1.9c-0.1-0.1-0.3-0.1-0.3,0c-0.2,0.2,0,0.3,0.1,0.5
		c1.2,1.2,1.7,2.8,2,4.4c0.3,1.3,0.9,1.7,2.1,1.6C-433.6,355.8-433.2,355.2-433.2,353.9z"/>
</g>
<g id="SPLINE_1238_">
	<path class="st0" d="M-433.7,315c0.2-0.2,0.2-0.7-0.3-0.6c-1,0.2-2.1,0.3-2.9,0.9c-0.7,0.5-1,1.1-1,2.2c0,0.4,0.1,0.9,0.7,1.1
		c0.6,0.2,1.2,0.1,1.6-0.4C-435,317.1-434.6,315.9-433.7,315z"/>
</g>
<g id="SPLINE_1237_">
	<path class="st0" d="M-434.2,253.4c0.3-0.9,0.1-1.5-0.8-1.7c-1-0.3-2.2,0.3-2.8,1.3c-0.8,1.3-1.1,2.8-1.7,4.3
		c1.4-1.2,3.1-2,4.6-3.1C-434.5,254-434.3,253.7-434.2,253.4z"/>
</g>
<g id="SPLINE_1236_">
	<g>
		<path class="st1" d="M-436,286.1c-0.9,0-1.7-0.6-1.9-1.4c-0.1-0.3-0.1-0.5-0.2-0.8c-0.3-1.5-0.7-3-1.6-4.2
			c1.4,0.7,3.1,1.3,4.5,2.5c0.5,0.5,0.9,1.1,1,1.8c0.1,1.2-0.3,1.9-1.1,2.1C-435.6,286.1-435.8,286.1-436,286.1L-436,286.1z"/>
		<path class="st2" d="M-439.5,280c1.4,0.5,2.9,1.2,4.2,2.2c0.5,0.5,0.9,1,0.9,1.7c0.1,0.8,0,1.8-1.1,2.1c-0.2,0-0.4,0.1-0.6,0.1
			c-0.9,0-1.6-0.5-1.8-1.4c-0.1-0.3-0.1-0.5-0.2-0.8C-438.3,282.6-438.6,281.2-439.5,280 M-439.7,279.8c1.1,1.5,1.4,3.3,1.8,5
			c0.2,0.9,1,1.4,1.9,1.4c0.2,0,0.4,0,0.6-0.1c0.9-0.2,1.3-1,1.2-2.2c-0.1-0.7-0.4-1.3-1-1.8C-436.5,281-438.1,280.4-439.7,279.8
			L-439.7,279.8z"/>
	</g>
</g>
<g id="SPLINE_1235_">
	<path class="st0" d="M-434.7,330c0-0.6-0.2-1.3-0.9-1.4c-0.8-0.1-1.1,0.5-1.3,1.2c-0.1,0.4-0.2,0.8-0.1,1.2c0.1,1.1-0.4,2.1-0.9,3
		c-0.1,0.2-0.4,0.4-0.2,0.6c0.2,0.2,0.4,0,0.7,0C-436.1,334.2-434.7,332.2-434.7,330z"/>
</g>
<g id="SPLINE_1234_">
	<path class="st0" d="M-434.8,298.8c0.1-0.3-0.2-0.5-0.4-0.7c-1-0.9-2.2-1.1-3.5-1.2c-0.8,0-1.5,0.1-2.2,0.5
		c-0.7,0.4-1.2,1.4-0.9,2.1c0.3,0.7,1,0.6,1.6,0.6c0.1,0,0.2,0,0.3-0.1c1.3-0.7,2.6-1.6,4.2-1c0,0,0.1,0,0.2,0
		C-435.2,299-434.9,299.1-434.8,298.8z"/>
</g>
<g id="SPLINE_1233_">
	<path class="st0" d="M-435.6,311.2c0.2,0,0.6-0.1,0.6-0.5c0-0.3-0.2-0.5-0.5-0.7c-0.6-0.2-1.2-0.3-1.8-0.3c-0.8,0-1.5,0.1-2.2,0.5
		c-0.5,0.3-0.7,0.9-0.5,1.5c0.2,0.7,0.7,0.7,1.3,0.5C-437.7,311.8-436.7,311.3-435.6,311.2z"/>
</g>
<g id="SPLINE_1232_">
	<path class="st0" d="M-435.4,366.4c0-0.3,0.1-0.8-0.2-1.1c-0.7-0.8-1.5-1.5-2.3-2.1c-0.2-0.1-0.4-0.3-0.5-0.2
		c-0.2,0.1-0.1,0.4-0.1,0.6c0.3,1,0.3,1.9,0.1,2.9c-0.1,0.7,0.2,1.3,0.7,1.8c0.4,0.4,1,0.3,1.5,0.1
		C-435.5,368-435.4,367.2-435.4,366.4z"/>
</g>
<g id="SPLINE_1231_">
	<path class="st0" d="M-435.7,325.3c0.2-0.4,0.1-0.8-0.2-1.1c-0.3-0.3-0.8-0.2-1.1-0.1c-0.4,0.2-0.6,0.5-0.8,0.9
		c-0.4,0.9-0.4,2-0.5,3c0,0.1-0.1,0.3,0.1,0.5c0.1,0.1,0.2,0,0.3-0.1C-437.1,327.5-436.2,326.5-435.7,325.3z"/>
</g>
<g id="SPLINE_1230_">
	<path class="st0" d="M-437,359.5c0.2-0.8,0-1.6-0.4-2.3c-0.8-1.5-2.3-2.3-3.3-3.7c-0.2,0.4-0.1,0.6,0,0.7c0.7,1.1,0.8,2.2,0.8,3.5
		c0,0.7,0.1,1.4,0.4,2.1c0.3,0.7,0.9,1,1.6,0.9C-437.3,360.7-437.1,360.1-437,359.5z"/>
</g>
<g id="SPLINE_1229_">
	<path class="st0" d="M-438.5,273.9c0.9-0.1,1.6-1,1.5-1.9c-0.2-1-0.8-1.4-1.9-1c-0.8,0.3-1.5,0.4-2.3,0.3c-0.5,0-1,0-1.6,0
		c0.5,0.8,1.2,1.1,1.7,1.6C-440.4,273.8-439.5,274-438.5,273.9z"/>
</g>
<g id="SPLINE_1228_">
	<path class="st0" d="M-437.1,337.7c0-0.3-0.1-0.8-0.5-1c-0.6-0.3-1.2-0.3-1.7,0.1c-1.8,1.4-2.4,3.5-2.7,5.7c0,0.1,0,0.3,0.2,0.4
		c0.1,0,0.2-0.1,0.3-0.1c0.9-1.3,2.1-2,3.4-2.8C-437.4,339.5-437.1,338.8-437.1,337.7z"/>
</g>
<g id="SPLINE_1227_">
	<path class="st0" d="M-437.2,308.8c0.1-0.1,0.1-0.2,0-0.3c-0.8-1.1-1.7-2.1-3-2.2c-1,0-1.6,0.4-1.6,1c0,0.9,0.7,1.2,1.3,1.2
		c1-0.1,2-0.3,2.9,0.4C-437.5,309-437.3,308.9-437.2,308.8z"/>
</g>
<g id="SPLINE_1226_">
	<path class="st0" d="M-438.5,269.5c1.1-0.4,1.5-1.4,0.9-2.4c-0.3-0.5-0.7-0.7-1.2-0.9c-2.4-0.7-4.5,0.2-6.8,0.7c0,0-0.1,0-0.1,0
		c-0.2,0.1-0.4,0.2-0.4,0.4c0,0.2,0.3,0.2,0.4,0.2c1,0.1,1.7,0.6,2.5,1.2c0.7,0.6,1.5,1.2,2.6,1
		C-439.9,269.9-439.2,269.7-438.5,269.5z"/>
</g>
<g id="SPLINE_1225_">
	<path class="st0" d="M-438.1,288.2c0-0.4-0.1-0.8-0.3-1.1c-0.8-0.8-1.3-1.7-1.7-2.8c-0.2-0.6-0.4-0.4-0.6,0
		c-0.6,1.1-0.5,3.7,0.2,4.7c0.5,0.6,1.1,0.7,1.7,0.5C-438.2,289.3-438,288.8-438.1,288.2z"/>
</g>
<g id="SPLINE_1224_">
	<path class="st0" d="M-438.9,345.7c0.6-0.3,1-0.8,0.8-1.5c-0.2-0.7-0.8-0.7-1.4-0.6c-0.8,0.2-1.5,0.4-2.3,0.4
		c-0.4,0-0.4,0.2-0.3,0.5c0.2,0.8,1,1.5,1.9,1.5C-439.7,346.1-439.3,345.9-438.9,345.7z"/>
</g>
<g id="SPLINE_1223_">
	<path class="st0" d="M-439.3,371.4c0.8-0.2,1.3-1.2,0.7-2.1c-0.5-0.9-1.2-1.7-1.8-2.9c-0.3,1.6-0.5,2.8-0.3,4.1
		C-440.4,371.3-440,371.5-439.3,371.4z"/>
</g>
<g id="SPLINE_1222_">
	<path class="st0" d="M-438.8,249.5c0-0.4-0.1-0.8-0.4-1c-0.5-0.3-0.9-0.1-1.3,0.2c-0.8,0.6-1.2,1.4-1.7,2.5
		c0.9-0.2,1.8-0.4,2.6-0.6C-439.2,250.4-438.9,250-438.8,249.5z"/>
</g>
<g id="SPLINE_1221_">
	<path class="st0" d="M-439,263.4c0-0.3-0.1-0.7-0.4-0.7c-0.5-0.1-0.9,0.1-1.3,0.5c-0.4,0.4-0.7,1-1.3,1.1c-0.3,0.1-0.2,0.4,0,0.5
		c0.2,0.1,0.4,0.1,0.7,0.2c0.5,0,1-0.2,1.4-0.3C-439.3,264.4-439,264-439,263.4z"/>
</g>
<g id="SPLINE_1220_">
	<path class="st0" d="M-439.1,323.8c0.2-0.6,0.2-1.2-0.3-1.6c-0.5-0.3-1.3,0.2-1.5,0.9c-0.2,0.6-0.3,1.3-0.4,1.7
		c0,0.6-0.1,0.9,0.3,1.1c0.3,0.1,0.5-0.1,0.7-0.3C-439.9,325.1-439.3,324.6-439.1,323.8z"/>
</g>
<g id="SPLINE_1219_">
	<path class="st0" d="M-441.6,336.7c1.5-0.6,2.4-2.3,2.2-3.9c-0.1-1-0.5-1.4-1.3-1.2c-0.8,0.1-1.2,0.9-0.9,1.8
		c0.3,0.9,0.4,1.8,0,2.7C-441.7,336.3-441.8,336.5-441.6,336.7z"/>
</g>
<g id="SPLINE_1218_">
	<path class="st0" d="M-439.4,278.4c0.2-0.6,0.2-1.1-0.2-1.7c-0.3-0.4-0.7-0.6-1.1-0.7c-0.8-0.2-1.5-0.6-2.2-1.1
		c0.1,0.4,0,0.8,0,1.2c0,1.6,0.9,2.8,2.3,2.8C-440.2,279-439.7,279-439.4,278.4z"/>
</g>
<g id="SPLINE_1217_">
	<path class="st0" d="M-439.9,399.5c0-0.6-1.5-1.9-2.1-1.9c-3.1,0-6.1,0.2-9.2,0c-0.3,0-0.6,0-0.9,0.1c-0.3,0.1-0.4,0.2-0.3,0.6
		c0.2,0.9,1.3,1.7,2.1,1.7c3.1,0,6.2,0,9.3-0.1C-440.5,399.9-439.9,400.1-439.9,399.5z"/>
</g>
<g id="SPLINE_1216_">
	<path class="st0" d="M-441.9,364.1c0.8-0.3,1.8-2.1,1.4-2.7c-1-1.7-1.8-3.4-3.3-4.8c-0.3-0.3-0.6-0.6-1.3-0.4
		c0.9,0.7,0.8,1.5,0.9,2.4c0.1,1.4-0.2,2.8,0.3,4.1C-443.7,363.6-442.7,364.4-441.9,364.1z"/>
</g>
<g id="SPLINE_1215_">
	<path class="st0" d="M-443.6,260c2.1-0.5,3.2-4.3,2.7-6.1c-0.2-0.8-1.3-1.4-1.9-1.1c-0.6,0.2-0.9,1.4-0.5,2.2
		c0.6,1.2,0.6,2.4,0,3.6C-443.5,258.9-443.7,259.4-443.6,260z"/>
</g>
<g id="SPLINE_1214_">
	<path class="st0" d="M-441.3,330.8c0.5-0.8,0.5-1.7,0.4-2.7c-0.1-0.4-0.3-0.7-0.7-0.9c-0.4-0.2-0.6-0.1-0.6,0.3c0,0.6,0,1.1,0,1.7
		c0,0,0,0,0,0c0,0.4-0.1,0.9-0.1,1.3c0,0.3,0,0.6,0.3,0.7C-441.6,331.3-441.4,331.1-441.3,330.8z"/>
</g>
<g id="SPLINE_1213_">
	<path class="st0" d="M-442.1,263.6c0.6-0.4,0.8-0.9,0.7-1.7c-0.1-0.5-0.3-0.9-0.8-1c-0.7-0.1-1.3-0.1-1.7,0.6
		c-0.2,0.3-0.4,0.7-0.5,1.1c-0.3,0.8-0.5,1.6-1.3,2.2C-445.2,264.7-442.4,263.8-442.1,263.6z"/>
</g>
<g id="SPLINE_1212_">
	<path class="st0" d="M-441.7,349.8c0.6-0.4,0.7-1.3,0.1-2c-0.3-0.4-0.7-0.7-1.2-0.7c-0.7,0-1.2-0.2-1.8-1c0.1,0.7,0.6,2.8,0.8,3.1
		C-443.4,350-442.3,350.2-441.7,349.8z"/>
</g>
<g id="SPLINE_1211_">
	<path class="st0" d="M-441.8,323.3c0.7-1,0.6-2.6-0.1-3.4c-0.3-0.4-0.7-0.3-1.1-0.2c-0.3,0.1-0.6,0.4-0.4,0.8
		c0.3,1.1,0.3,2.4,0.8,3.7C-442.3,323.9-442,323.6-441.8,323.3z"/>
</g>
<g id="SPLINE_1210_">
	<path class="st0" d="M-443.1,370.8c0.9,0,1.3-0.7,1.3-1.9c0-0.7-0.3-1.3-0.9-1.6c-0.8-0.4-1.4-1.1-1.9-1.8
		c-0.2-0.2-0.3-0.5-0.6-0.6c-0.1,0.5,0.2,0.7,0.3,1.1c0.3,1,0.1,2,0.2,3C-444.8,370.1-444.1,370.9-443.1,370.8z"/>
</g>
<g id="SPLINE_1209_">
	<path class="st0" d="M-442,352.8c0.1-0.8-0.3-1.3-1-1.6c-0.9-0.3-1.7-0.6-2.4-1.4c-0.2-0.3-0.4-0.3-0.5,0.1c-0.5,1.6,0.7,4,2.2,4.4
		C-442.6,354.7-442,354.2-442,352.8z"/>
</g>
<g id="SPLINE_1208_">
	<path class="st0" d="M-443.4,315.8c1-1.1,1.3-2.5,1.7-4c-0.9,0.2-1.3,0.9-2.1,1.2c0.5-1.3,1.1-2.4,0.6-4c-0.2,0.4-0.3,0.6-0.4,0.8
		c-0.3,0.6-0.8,1.1-1.3,1.6c-0.2,0.2-0.5,0.3-0.8,0.2c-0.2-0.1-0.1-0.3-0.1-0.5c0-0.4,0.4-1-0.1-1.1c-0.4-0.1-0.7,0.5-0.9,0.9
		c-0.1,0.1-0.2,0.3-0.2,0.5c-0.7,2.5-2.2,4.3-4,5.9c-0.3,0.3-0.6,0.5-0.7,1c-0.1,0.4-0.1,0.8,0.4,0.5c0.7-0.3,1.3-0.2,2-0.2
		c2,0,4-0.5,5.9-1.3c0.5-0.2,0.5-0.5,0.1-0.8C-443.9,316.3-443.7,316.2-443.4,315.8z"/>
</g>
<g id="SPLINE_1207_">
	<path class="st0" d="M-443.9,339.8c1-0.6,1.7-1.5,1.5-2.9c0-0.4-0.1-0.8-0.6-0.8c-0.4,0-0.9,0.2-0.9,0.7c0,0.9-0.4,1.6-0.8,2.4
		c-0.2,0.3-0.3,0.7-0.2,1.2C-444.4,340.3-444.2,340-443.9,339.8z"/>
</g>
<g id="SPLINE_1206_">
	<path class="st0" d="M-442.7,284.9c0.1-0.2,0-0.4-0.2-0.5c-0.2-0.1-0.4,0-0.4,0.2c-0.3,0.7-0.9,1.1-1.3,1.6
		c-0.5,0.6-0.9,1.2-0.9,2.2c0,0.1,0.1,0.3,0.1,0.6c0.2,0.6,0.4,1.2,1.1,1.2c0.7,0,0.9-0.5,1.1-1.1
		C-442.7,287.7-443.1,286.2-442.7,284.9z"/>
</g>
<g id="SPLINE_1205_">
	<path class="st0" d="M-442.9,296.5c0.1-0.5,0.4-1.1,0-1.4c-0.4-0.2-0.6,0.5-1.1,0.7c0-0.6,0.2-1,0.4-1.4c0.3-0.6,0.5-1.2,0.4-1.9
		c-0.1-0.4,0-1-0.5-1c-0.5-0.1-0.6,0.4-0.7,0.8c-0.1,0.3-0.2,0.8-0.6,0.5c-0.9-0.7-1.1,0.2-1.3,0.7c-0.2,0.5-0.2,1.1-0.7,1.5
		c-0.3-0.3-0.2-0.7-0.2-1c0-0.3-0.2-0.5-0.5-0.6c-0.3-0.1-0.5,0.2-0.5,0.5c-0.9,2.7-0.3,5.2,1,7.5c0.3,0.5,0.6,0.5,1,0.2
		C-444.4,300.5-443.3,298.7-442.9,296.5z"/>
</g>
<g id="SPLINE_1204_">
	<path class="st0" d="M-443.1,333.6c-0.2-0.4-0.2-1-0.6-1.3c-0.3-0.2-0.6-0.1-0.8,0.1c-0.5,0.4-0.3,0.9-0.2,1.5
		c0.1,0.4,0.1,0.8,0.2,1.3c0,0.2,0,0.5,0.3,0.6c0.2,0.1,0.4-0.1,0.5-0.3C-443.4,335-443.2,334.4-443.1,333.6z"/>
</g>
<g id="SPLINE_1203_">
	<path class="st0" d="M-443.3,248.2c0-1-0.7-1.4-1.5-1c-1.1,0.5-1.4,1.6-1.5,2.6c0.1,1.3,0.4,2.5,0.7,3.7c0.1,0.2,0.1,0.4,0.4,0.3
		c0.2-0.1,0.2-0.2,0.1-0.4c-0.3-1.2,0.2-2.2,0.9-3C-443.6,249.8-443.3,249.1-443.3,248.2z"/>
</g>
<g id="SPLINE_1202_">
	<path class="st0" d="M-443.4,282.7c0.5-1,0.4-1.8-0.3-2.5c-0.5-0.6-1.1-1.1-1.8-1.4c-1.3-0.6-1.9-1.9-2.8-3.1
		c-1.3,2.3,0.2,6.7,2.4,7.5c0.2,0.1,0.4,0.1,0.6,0.2C-444.5,283.5-443.8,283.6-443.4,282.7z"/>
</g>
<g id="SPLINE_1201_">
	<path class="st0" d="M-444.9,344.9c1-0.7,1.4-2,1-3.1c-0.1-0.3-0.2-0.6-0.6-0.6c-0.9-0.1-1.6,0.4-1.9,1.3c-0.3,0.8-0.4,1.7-0.5,2.6
		c-0.1,0.6,0,1.3,0.6,1.7C-445.9,345.7-445.9,345.7-444.9,344.9z"/>
</g>
<g id="SPLINE_1200_">
	<path class="st0" d="M-444.2,274.3c0.2-0.7,0.1-1.3-0.4-1.9c-1-1.1-2.2-2-2.5-3.6c0-0.2-0.2-0.3-0.4-0.3c-0.3,0-0.2,0.3-0.2,0.4
		c-0.3,1.7-0.2,3.4,0.4,5.1c0.3,0.8,1,1,1.8,1.1C-444.9,275.1-444.4,274.9-444.2,274.3z"/>
</g>
<g id="SPLINE_1199_">
	<path class="st0" d="M-444.3,325c0.2-0.4,0.4-1-0.1-1.3c-0.5-0.3-1-0.2-1.3,0.3c-0.7,1-0.5,1.9,0,3.1
		C-445.4,326.1-444.6,325.7-444.3,325z"/>
</g>
<g id="SPLINE_1198_">
	<path class="st0" d="M-444.6,329.7c0-0.2,0-0.4-0.1-0.6c-0.2-0.4-0.4-0.9-0.9-0.9c-0.3,0-0.6,0.1-0.8,0.4c-0.2,0.4-0.2,0.9,0.1,1.3
		c0.3,0.4,0.4,0.9,0.5,1.5c0,0.2,0,0.5,0.3,0.5c0.3,0,0.4-0.2,0.5-0.4C-444.7,330.9-444.7,330.3-444.6,329.7z"/>
</g>
<g id="SPLINE_1197_">
	<path class="st0" d="M-444.6,256.2c0-0.6-0.1-1.1-0.6-1.4c-0.4-0.2-0.9-0.2-1.2,0.1c-0.5,0.4-0.4,0.9-0.3,1.4
		c0.2,0.8,0.6,1.5,1,2.2c0.1,0.2,0.2,0.4,0.4,0.4c0.2,0,0.3-0.3,0.3-0.5C-444.8,257.8-444.7,257-444.6,256.2z"/>
</g>
<g id="SPLINE_1196_">
	<path class="st0" d="M-445.4,337.1c0-0.1,0-0.1,0-0.2c-0.1-0.6-0.1-1.2-0.2-1.8c0-0.4-0.3-0.5-0.5-0.2c-0.5,0.6-1.1,1.3-1,2.3
		c0.1,0.6,0.2,1.4,1,1.4C-445.3,338.5-445.4,337.7-445.4,337.1z"/>
</g>
<g id="SPLINE_1195_">
	<path class="st0" d="M-446.9,263.4c0.8-1,1-2.3,0.8-3.6c-0.1-0.7-0.5-1.2-1.2-1.1c-0.7,0-1.1,0.5-1.1,1.3c0,0.6,0,1.2,0,1.8
		c0.1,1.1-0.3,1.9-1.1,2.6c-0.3,0.2-0.6,0.4-0.7,1C-448.8,265.1-447.7,264.5-446.9,263.4z"/>
</g>
<g id="SPLINE_1194_">
	<path class="st0" d="M-446.2,266.4c0.1-0.3,0.1-0.7-0.2-0.9c-0.5-0.3-0.9,0.1-1.2,0.4c-0.4,0.3-0.8,0.7-1.4,0.2
		c-0.1-0.1-0.3-0.1-0.5,0.1c-0.1,0.2,0,0.3,0.2,0.4c0.5,0.4,1,0.6,1.6,0.6c0.2,0,0.3,0,0.5-0.1C-446.8,267-446.3,267.1-446.2,266.4z
		"/>
</g>
<g id="SPLINE_1193_">
	<path class="st0" d="M-446.7,333.3c0.1-0.2,0.1-0.5,0.1-0.7c0-0.9-0.2-1.8-1.1-2.1c-0.6-0.2-1.3-0.4-1.6,0.4
		c-0.2,0.7,0.1,1.2,0.8,1.5c0.4,0.1,0.7,0.5,0.9,0.9c0.1,0.2,0.1,0.7,0.3,0.7C-446.9,334.1-446.8,333.7-446.7,333.3z"/>
</g>
<g id="SPLINE_1192_">
	<path class="st0" d="M-446.8,304.4c0-0.2,0.2-0.7-0.2-0.8c-0.4-0.1-0.4,0.5-0.5,0.8c-0.1,0.3-0.2,0.6-0.2,0.9
		c-0.4,2.1-1.3,3.8-2.5,5.4c-0.2,0.3-0.4,0.6-0.1,0.9c0.3,0.3,0.6,0.1,0.8-0.2c0.6-0.9,1-1.9,1.5-2.8
		C-447.3,307.3-446.8,306-446.8,304.4z"/>
</g>
<g id="SPLINE_1191_">
	<path class="st0" d="M-449.2,372.3c1.3,0.5,2.6-0.7,2.4-2.3c-0.3-1.7-1-3.4-1-5.2c0,0,0,0-0.3-0.1c-0.4,2.1-2.1,3.6-2,5.9
		C-450.1,371.4-449.9,372.1-449.2,372.3z"/>
</g>
<g id="SPLINE_1190_">
	<path class="st0" d="M-447.4,362.2c0.4-0.8,0.6-1.6,0.3-2.5c-0.3-1.1-0.7-2.1-0.4-3.3c0.1-0.4,0-0.8,0-1.2c-0.1,0-0.1-0.1-0.2-0.1
		c-0.3,1.4-1.4,2.2-2.1,3.4c-0.7,1.2-0.6,2.4,0,3.6C-449.3,363.1-447.9,363.1-447.4,362.2z"/>
</g>
<g id="SPLINE_1189_">
	<path class="st0" d="M-447.1,246.9c0.4-0.4,0.4-1.4-0.1-1.8c-0.4-0.4-1.3-0.2-1.6,0.4c-0.6,1.2-0.7,2.4-0.5,4
		C-448.6,248.3-447.8,247.6-447.1,246.9z"/>
</g>
<g id="SPLINE_1188_">
	<path class="st0" d="M-447.6,290.4c0.4-0.5,0.5-1.2,0.4-1.8c-0.5-2-1.3-4-2.6-5.6c-0.4-0.5-0.9-0.8-1.6-0.6c0.8,1.4,0.7,3,0.7,4.5
		c0,1-0.1,2,0.3,3c0.2,0.7,0.5,1.2,1.3,1.4C-448.5,291.4-448.1,290.9-447.6,290.4z"/>
</g>
<g id="SPLINE_1187_">
	<path class="st0" d="M-447.3,328.1c0.4-0.9,0-2.3-0.8-2.8c-0.2-0.1-0.5-0.4-0.7-0.1c-0.2,0.2,0.1,0.4,0.1,0.7
		c0.1,0.2,0.1,0.3,0.1,0.6c-0.1,0.4-0.2,0.8-0.3,1.2c-0.1,0.4-0.4,0.9,0.3,1.1C-447.9,328.9-447.5,328.6-447.3,328.1z"/>
</g>
<g id="SPLINE_1186_">
	<path class="st0" d="M-447.6,252.8c0-0.6-0.1-1-0.3-1.4c-0.3-0.5-0.7-0.7-1.2-0.5c-0.5,0.2-0.5,0.7-0.4,1.1
		c0.2,0.8,0.1,1.6-0.3,2.3c-0.2,0.3-0.4,0.7-0.1,1c0.3,0.3,0.7,0.1,1-0.1C-448,254.5-447.8,253.6-447.6,252.8z"/>
</g>
<g id="SPLINE_1185_">
	<path class="st0" d="M-447.8,347.5c0,0,0.1,0,0.2-0.1c-0.7-1.8-0.6-1.8-0.2-3.8c0.2-0.6,0.3-1.4-0.5-1.8c-0.7-0.3-1.3-0.1-1.7,0.6
		c-0.5,0.9-0.7,1.9-0.2,2.8C-449.7,346.3-449,347.2-447.8,347.5z"/>
</g>
<g id="SPLINE_1184_">
	<path class="st0" d="M-447.9,338.5c0-0.2-0.1-0.4-0.1-0.6c-0.1-0.7-0.7-0.9-1.2-1c-0.3-0.1-0.5,0.1-0.7,0.4
		c-0.2,0.6-0.2,1.1,0.3,1.5c0.4,0.3,0.5,0.7,0.3,1.2c-0.1,0.2-0.1,0.6,0.2,0.7c0.3,0.1,0.5-0.1,0.7-0.4
		C-448,339.8-448,339.1-447.9,338.5z"/>
</g>
<g id="SPLINE_1183_">
	<path class="st0" d="M-448.1,324.5c1.3-1,1-4,0.1-4.7c-0.5-0.4-0.9-0.4-1.3,0.2c-0.4,0.7-0.2,1.4,0.3,1.9
		C-448.4,322.7-448,323.4-448.1,324.5z"/>
</g>
<g id="SPLINE_1182_">
	<path class="st0" d="M-448.8,335.9c0.5-0.5,0.6-1.1,0.5-1.8c-0.1-0.5-0.5-0.7-1-0.7c-0.3,0-0.6,0.1-0.6,0.4
		c-0.2,0.8,0.3,1.3,0.6,1.9C-449.2,335.9-449.1,336-448.8,335.9C-448.9,335.9-448.8,335.9-448.8,335.9z"/>
</g>
<g id="SPLINE_1181_">
	<path class="st0" d="M-448.8,258.7c0.7-0.5,0.6-1.1,0.4-1.7c-0.2-0.4-0.6-0.8-1.1-0.7c-0.3,0-0.5,0.1-0.6,0.4
		c-0.1,0.3,0.1,0.5,0.3,0.7C-449.3,257.6-448.9,258-448.8,258.7z"/>
</g>
<g id="SPLINE_1180_">
	<path class="st0" d="M-448.4,350.2c-0.2,0.1-0.3,0.4-0.5,0.4c-1.2,0.3-2.1,1.3-2.9,2.2c-0.9,0.9-1.2,2.1-0.8,3.4
		c0.2,0.6,0.7,0.9,1.3,1c0.6,0.1,0.9-0.3,1.2-0.8c0.3-0.5,0.5-1,0.7-1.6C-449.1,353.3-448.9,351.8-448.4,350.2z"/>
</g>
<g id="SPLINE_1179_">
	<path class="st0" d="M-449.3,259.6c0-0.2,0-0.5-0.1-0.7c-0.1-0.4-0.4-0.5-0.6-0.1c-0.4,0.9-1.2,1.6-1.3,2.7c0,0.3-0.2,0.8,0.2,1
		c0.5,0.2,0.8-0.1,1.1-0.4C-449.4,261.3-449.4,260.5-449.3,259.6z"/>
</g>
<g id="SPLINE_1178_">
	<path class="st0" d="M-450.1,271.2c0.6-0.3,0.7-1,0.8-1.8c-0.3-1.1-0.6-2.3-1.4-3.3c-0.1-0.2-0.3-0.3-0.5-0.3
		c-0.2,0-0.4,0.1-0.2,0.3c0.5,0.7,0.1,1.3-0.1,2c-0.2,0.5-0.3,0.9-0.4,1.4c-0.1,0.6,0,1,0.5,1.4
		C-451.1,271.4-450.6,271.5-450.1,271.2z"/>
</g>
<g id="SPLINE_1177_">
	<path class="st0" d="M-450.3,335.6c0-0.3-0.2-0.7-0.5-0.7c-0.4,0-0.5,0.5-0.5,0.9c0,0.4,0.1,0.7,0.5,0.7
		C-450.4,336.5-450.3,336.1-450.3,335.6z"/>
</g>
<g id="SPLINE_1176_">
	<path class="st0" d="M-450.6,348.5c0.1-0.1,0.3-0.2,0.2-0.5c-0.1-0.2-0.3-0.1-0.5,0c-1.3,0.5-2.6,1-3.8,1.6
		c-1.2,0.6-2.2,1.5-2.2,2.7c-0.1,2,1.2,2.9,2.5,2.2c0.6-0.3,1.2-0.9,1.4-1.6C-452.6,351.2-452,349.6-450.6,348.5z"/>
</g>
<g id="SPLINE_1175_">
	<path class="st0" d="M-450.9,331.5c0.3-0.5,0.5-1,0.6-1.6c-0.1-0.6-0.3-1.4-1-1.6c-0.7-0.1-1.1,0.5-1.2,1.2
		c-0.2,1.1,0.1,2.2,0.6,3.2c0.1,0.2,0.3,0.3,0.5,0.3c0.3,0,0.3-0.3,0.3-0.5C-451.3,332.1-451.1,331.8-450.9,331.5z"/>
</g>
<g id="SPLINE_1174_">
	<path class="st0" d="M-450.5,338.6c0.2-0.6-0.4-1.7-0.8-1.7c-0.6-0.1-1,0.5-1,1.4c0.2,0.6,0.4,1.3,0.7,2c0,0.1,0.2,0.2,0.4,0.2
		c0.2,0,0.3-0.2,0.3-0.3C-450.9,339.6-450.7,339.1-450.5,338.6z"/>
</g>
<g id="SPLINE_1173_">
	<path class="st0" d="M-451.2,250.4c0.5-0.4,0.7-0.9,0.5-1.4c-0.3-0.6-0.9-0.5-1.4-0.3c-0.4,0.1-0.7,0.4-0.9,0.8
		c-0.5,0.8-0.8,1.7-0.8,2.9c0,0.2,0.1,0.6,0.1,1c0.1,0.5,0.4,0.7,0.8,0.7c0.8,0,0.9-0.6,0.9-1.3C-452,251.9-452,251-451.2,250.4z"/>
</g>
<g id="SPLINE_1172_">
	<path class="st0" d="M-450.8,255.3c0-0.2,0-0.5,0.1-0.8c-0.1-0.2,0.3-0.7-0.2-0.7c-0.3,0-1,1.2-1,1.5c0.1,0.3,0.3,0.4,0.6,0.4
		C-451.1,255.8-450.9,255.6-450.8,255.3z"/>
</g>
<g id="SPLINE_1171_">
	<path class="st0" d="M-450.8,245.5c0-0.6-0.6-1.3-1.3-1.3c-0.7,0-0.9,0.4-0.9,1.1c0.1,0.7,0.4,1.3,0.8,1.9c0.1,0.2,0.3,0.2,0.4,0.1
		C-451.3,246.8-450.8,246.3-450.8,245.5z"/>
</g>
<g id="SPLINE_1170_">
	<path class="st0" d="M-451.3,367.3c0.3-1.1,0.1-2.1-0.3-3.1c-0.4-1-0.8-2.1-0.8-3.3c0-0.2,0-0.5-0.4-0.8c-0.1,1.7-1.3,2.7-1.9,4.1
		c-0.3,0.9-0.5,1.8-0.3,2.7c0.1,1.1,0.7,1.6,1.7,1.6C-452.1,368.7-451.6,368.3-451.3,367.3z"/>
</g>
<g id="SPLINE_1169_">
	<path class="st0" d="M-451.1,257.8c0-0.6-0.1-1.2-0.8-1.4c-0.5-0.1-0.9,0-1.1,0.4c-0.9,1.8-0.8,3.6-0.2,5.4
		c0.1,0.2,0.2,0.4,0.4,0.3c0.2-0.1,0.2-0.3,0.2-0.5c-0.2-1,0.2-1.8,0.8-2.5C-451.3,259-451.1,258.4-451.1,257.8z"/>
</g>
<g id="SPLINE_1168_">
	<path class="st0" d="M-451.6,265.2c0.4-0.5,0.4-1,0.3-1.6c0-0.3-0.2-0.5-0.5-0.6c-0.3-0.1-0.5,0.1-0.7,0.3c-0.2,0.3-0.1,0.5,0,0.8
		C-452.1,264.4-451.9,264.7-451.6,265.2z"/>
</g>
<g id="SPLINE_1167_">
	<path class="st0" d="M-451.4,298.4c0.5-2.5,0.4-4.7-1.3-6.6c-0.1-0.2-0.2-0.5-0.5-0.4c-0.3,0.1-0.3,0.5-0.3,0.7
		c0.4,1.3,0,2.6,0,3.9c0,4.4,0,8.8,0,13.2c0,0.5,0,1-0.1,1.5c-0.3,2.2-0.6,4.3-1.1,6.5c-0.1,0.3-0.2,0.8,0.1,0.9
		c0.4,0.2,0.5-0.3,0.7-0.6c1.7-2.6,2.7-5.4,2.4-8.6c0-0.6,0-1.2-0.1-1.7C-451.9,304.3-452,301.3-451.4,298.4z"/>
</g>
<g id="SPLINE_1166_">
	<path class="st0" d="M-451.5,273.3c0.1-0.2-0.1-0.5-0.2-0.6c-0.2-0.1-0.3,0.2-0.4,0.4c-0.5,0.7-1,1.5-1.6,2.2
		c-0.7,1-1.1,2.1-1.3,3.2c-0.1,1.1,0.3,1.6,1.2,1.9c0.8,0.3,1.6-0.1,1.9-0.8c0.3-0.6,0.4-1.2,0.4-1.9
		C-451.5,276.2-451.7,274.7-451.5,273.3z"/>
</g>
<g id="SPLINE_1165_">
	<path class="st0" d="M-452.3,345.1c0.1,0.1,0.7,0.2,0.6-0.2c-0.3-1.1-0.2-2.2-0.6-3.2c-0.3-0.6-0.6-1-1.3-1c-0.7,0-1.2,0.5-1,1.1
		C-454.2,343.2-453,344-452.3,345.1z"/>
</g>
<g id="SPLINE_1164_">
	<path class="st0" d="M-451.8,327.1c0.6-0.5,0.6-2,0-2.5c-0.5-0.5-1.5-0.3-2.1,0.5c-0.7,0.9-1,2-0.9,3.2c0,0.8-0.1,1.6,0.5,2.3
		c0.1,0.1,0.2,0.3,0.4,0.3c0.2-0.1,0.2-0.3,0.2-0.5C-453.6,328.9-452.8,328-451.8,327.1z"/>
</g>
<g id="SPLINE_1163_">
	<path class="st0" d="M-452.7,336.2c0.4-0.4,0.3-0.9,0.3-1.4c0-0.3-0.1-0.5-0.3-0.6c-0.3-0.1-0.4,0.1-0.6,0.2
		c-1,0.8-1.1,2.2-0.1,3.5C-453.3,337.2-453.1,336.7-452.7,336.2z"/>
</g>
<g id="SPLINE_1162_">
	<path class="st0" d="M-453.4,323.1c0.4-0.5,0.5-1.1,0.6-1.7c-0.1-0.6-0.2-1.2-0.9-1.5c-0.4-0.1-0.7-0.1-1,0.3
		c-0.4,0.6-0.1,1.1,0.2,1.6c0.2,0.3,0.3,0.6,0.3,0.9c0,0.3,0,0.5,0.3,0.6C-453.7,323.4-453.6,323.3-453.4,323.1z"/>
</g>
<g id="SPLINE_1161_">
	<path class="st0" d="M-452.7,267.2c0-1.3-0.5-2.1-1.3-2.7c-0.2-0.1-0.3-0.3-0.5-0.2c-0.2,0.1-0.2,0.4-0.1,0.6
		c0.5,1.2,0,2.2-0.7,3.1c-0.4,0.5-0.7,1.1-0.8,1.7c-0.1,0.6-0.1,1.3,0.4,1.6c0.6,0.3,1.2,0,1.6-0.5
		C-453.2,269.7-452.8,268.4-452.7,267.2z"/>
</g>
<g id="SPLINE_1160_">
	<path class="st0" d="M-455,361c0.9-0.2,1.4-0.9,1.3-2.2c-0.1-1-0.5-2-0.6-3.1c-0.5,0.8-1.1,1.5-1.6,2.3c-0.4,0.6-0.6,1.3-0.5,2
		C-456.2,360.8-455.8,361.1-455,361z"/>
</g>
<g id="SPLINE_1159_">
	<path class="st0" d="M-453.8,289c0.9-2.4-0.6-4.6-0.2-7.1c-0.5,0.3-0.6,0.6-0.7,0.9c-0.6,1.6-1.3,3.1-2.3,4.4
		c-0.4,0.6-0.5,1.3-0.4,2c0.1,1.2,1,1.9,2.1,1.6C-454.4,290.6-454.1,289.8-453.8,289z"/>
</g>
<g id="SPLINE_1158_">
	<path class="st0" d="M-456,263.7c1.2,0.2,2.3-0.8,2.2-2c0-0.5-0.2-0.7-0.7-0.8c-0.5-0.1-0.7,0.3-0.7,0.6
		C-455.2,262.4-455.5,263-456,263.7z"/>
</g>
<g id="SPLINE_1157_">
	<path class="st0" d="M-453.9,399.6c0.1-0.3-0.1-0.4-0.2-0.5c-1.2-1.3-2.4-2.7-3.1-4.4c-0.7-1.5-1.7-2.6-3.1-3.3
		c-0.8-0.4-0.9-0.4-1.1,0.5c-0.2,0.8-0.4,0.9-1,0.4c-0.4-0.3-0.7-0.5-1.1-0.7c-1.2-0.5-2.6-0.3-3.9-0.9c-0.3-0.2-0.6,0.1-0.4,0.4
		c0.5,0.7,0.4,1.8,1.3,2.5c-0.7,0.2-1.2,0-1.7-0.2c-1.4-0.7-2.8-0.2-4.2,0.2c-0.4,0.1-0.5,0.4,0,0.7c0.2,0.1,0.4,0.2,0.5,0.3
		c0.7,0.3,0.8,0.8,0.3,1.4c-0.9,1.1-1.1,2.6-2.1,3.6c-0.2,0.2-0.3,0.5-0.1,0.8c0.2,0.3,0.5,0.2,0.8,0.1c0.6-0.3,1.3-0.5,1.9-0.4
		c0.3,0,0.6-0.2,0.8,0.2c0.2,0.4-0.2,0.6-0.4,0.8c-0.3,0.3-0.6,0.7-0.3,1.2c0.3,0.5,0.7,0.6,1.2,0.4c0.1,0,0.2-0.1,0.3-0.1
		c1-0.2,1.9-1,3-1c1.1,0,2.1,0.2,3-0.7c0.1-0.1,0.3-0.2,0.4,0c0.1,0.1,0.1,0.3-0.1,0.3c-0.2,0.1-0.3,0.3-0.2,0.5
		c0.1,0.2,0.3,0.2,0.5,0.2c0.8,0,1.6-0.1,2.3-0.5c1.9-1.3,4-2,6.3-1.7C-454.3,399.8-454.1,399.8-453.9,399.6z"/>
</g>
<g id="SPLINE_1156_">
	<path class="st0" d="M-454.2,254.8c0.1-0.3-0.2-0.5-0.4-0.6c-0.3-0.1-0.5-0.1-0.7,0.1c-0.1,0.2-0.1,0.5,0.1,0.7
		c0.3,0.3,0.4,0.6,0.6,1.1C-454.2,255.7-454.3,255.2-454.2,254.8z"/>
</g>
<g id="SPLINE_1155_">
	<path class="st0" d="M-454.3,275c0.3-1.1,0-2.1-0.3-3.3c-0.7,0.8-1.1,1.7-1.5,2.5c-0.3,0.5-0.4,0.9-0.1,1.4
		c0.2,0.3,0.6,0.4,0.9,0.4C-454.7,275.9-454.4,275.5-454.3,275z"/>
</g>
<g id="SPLINE_1154_">
	<path class="st0" d="M-454.7,313.6c0.4-0.1,0.4-0.9,0.4-1.4c0,0,0-0.1,0-0.1c0-2.1-0.7-4.1-0.2-6.2c0-0.1,0-0.3,0-0.5
		c-0.1-0.4,0-1.3-0.7-0.3c-0.2,0.3-0.4,0.1-0.5-0.2c-0.1-0.3-0.1-0.7-0.2-1c-0.1-0.6-0.2-1.2-0.6-1.7c-0.1-0.2-0.3-0.3-0.5-0.3
		c-0.2,0-0.2,0.2-0.2,0.4c-0.1,0.3,0,0.8-0.4,0.9c-0.4,0-0.6-0.4-0.8-0.7c-0.5-0.7-0.9-1.5-1.8-1.9c-0.5-0.2-0.9-0.2-0.8,0.6
		c0,0.5,0.1,1,0.3,1.4c0.1,0.3,0.3,0.7,0,0.9c-0.9,0.4-0.3,0.9-0.2,1.4c0.2,1,0.9,1.8,1.4,2.7c-0.4,0.3-0.9-0.1-1.1,0.4
		c-0.1,0.5,0.3,0.8,0.5,1.1c0.6,0.6,1.3,1.1,2,1.4c1,0.5,1.9,1.2,2.5,2.3C-455.4,313.1-455.2,313.8-454.7,313.6z"/>
</g>
<g id="SPLINE_1153_">
	<path class="st0" d="M-454.7,375.1c0.4-0.9,0.6-1.8,0.2-2.8c-0.2-0.5-0.2-1.4-0.8-1.3c-0.5,0-0.5,0.9-0.5,1.4
		c-0.2,2.3-1,4.4-2.1,6.4c-1.5,2.6-2.2,5.5-2.4,8.5c0,0.2,0,0.4,0,0.6c0,0.4,0.1,0.7,0.5,0.8c0.4,0.1,0.6-0.1,0.8-0.4
		c0.1-0.2,0.2-0.5,0.2-0.8c0.1-0.9,0.4-1.8,0.6-2.6C-457.1,381.7-456.2,378.3-454.7,375.1z"/>
</g>
<g id="SPLINE_1152_">
	<path class="st0" d="M-454.9,251.6c0.4-0.4,0.4-1,0.1-1.5c-0.3-0.5-0.8-0.5-1.2-0.3c-0.8,0.3-0.9,0.9-1,1.7c0.1,0.7,0.2,1.3,0.5,2
		c0.1,0.2,0.2,0.3,0.4,0.3c0.2,0,0.3-0.2,0.3-0.3C-456,252.6-455.4,252.2-454.9,251.6z"/>
</g>
<g id="SPLINE_1151_">
	<path class="st0" d="M-455.1,339.5c0.2,0,0.3-0.2,0.2-0.3c-0.4-0.8,0-1.6-0.1-2.4c-0.1-0.6-0.2-1.2-1-1.1c-0.8,0.1-0.6,0.7-0.6,1.4
		c-0.2,0.7,0.4,1.4,0.7,2.1C-455.7,339.4-455.4,339.5-455.1,339.5z"/>
</g>
<g id="SPLINE_1150_">
	<path class="st0" d="M-455.7,346c0.4,0.1,0.8,0.1,1.3,0c-0.7-0.8-1.4-1.3-2.2-1.7c-1.2-0.7-2.5-0.6-3.8,0c-0.8,0.4-1,1.2-0.7,2.1
		c0.3,0.9,0.9,0.9,1.6,0.7c0.4-0.1,0.8-0.3,1.2-0.6C-457.5,346-456.6,345.8-455.7,346z"/>
</g>
<g id="SPLINE_1149_">
	<path class="st0" d="M-455.4,258.5c0.3-0.6,0.4-1.3,0.3-2c-0.1-0.7-0.5-1.1-1.2-1.2c-0.6-0.1-1.2,0.1-1.5,0.8
		c-0.7,2,0.1,4.7,1.8,5.9C-456.2,260.1-456,259.9-455.4,258.5z"/>
</g>
<g id="SPLINE_1148_">
	<path class="st0" d="M-455.4,246c0.1-0.7-0.1-1.2-0.6-1.7c-0.6-0.7-1.8-0.5-2.1,0.4c-0.3,0.9-0.1,1.5,0.8,2.3
		c0.6,0.5,1.1,0.9,1,1.9C-455.7,247.9-455.5,246.8-455.4,246z"/>
</g>
<g id="SPLINE_1147_">
	<path class="st0" d="M-455.5,331.6c0.1-0.5,0-1-0.2-1.4c-0.3-0.5-0.7-0.7-1.2-0.3c-0.5,0.4-0.9,1-0.5,1.8c0.3,0.6,0.6,1.3,0.9,1.9
		c0.1,0.3,0.3,0.5,0.7,0.4C-455.8,333.1-455.7,332.4-455.5,331.6z"/>
</g>
<g id="SPLINE_1146_">
	<path class="st0" d="M-456.1,325.7c0.1-0.9,0.4-1.9,0.4-2.8c0-0.5,0-1-0.5-1.1c-0.5-0.1-0.9,0.2-1.1,0.7c-0.1,0.4-0.4,0.7-0.3,1.1
		c0.3,1.2,0.6,2.5,1.4,3.5C-456.3,326.7-456.2,326.2-456.1,325.7z"/>
</g>
<g id="SPLINE_1145_">
	<path class="st0" d="M-456.1,341.6c0.2-0.3,0.4-0.7,0.1-1c-0.8-1-1.4-2.3-2.6-3c-0.1,0.4-0.3,0.8-0.4,1.1c-0.3,1.3,0.5,2.9,1.7,3.3
		C-456.9,342-456.4,342-456.1,341.6z"/>
</g>
<g id="SPLINE_1144_">
	<path class="st0" d="M-459.6,282.4c1.2-0.3,3-2.8,2.8-4.2c0-0.1,0-0.3-0.1-0.3c-0.2-0.1-0.3,0.1-0.3,0.2c-0.3,0.6-0.9,0.8-1.4,1
		c-0.7,0.3-1.4,0.7-2,1.3c-0.4,0.4-0.4,0.9-0.2,1.5c0.2,0.4,0.5,0.6,0.9,0.6C-459.9,282.4-459.8,282.4-459.6,282.4z"/>
</g>
<g id="SPLINE_1143_">
	<path class="st0" d="M-457,273.6c0.1-0.2,0.3-0.5,0-0.7c-0.2-0.2-0.4,0-0.6,0c-1.3,0.6-2.4,1.6-3.5,2.7c-0.2,0.2-0.3,0.6-0.3,0.9
		c0,1.2,0.8,1.9,1.9,1.7c0.7-0.2,1.1-0.7,1.4-1.4C-457.7,275.8-457.3,274.7-457,273.6z"/>
</g>
<g id="SPLINE_1142_">
	<path class="st0" d="M-457,263.6c0-0.3,0.1-0.7-0.3-0.9c-0.4-0.2-0.5,0.3-0.6,0.6c-0.9,1.3-1.7,2.6-3.2,3.2
		c-0.3,0.1-0.5,0.4-0.7,0.6c-0.8,1.1-0.5,2.3,0.8,2.6c1.4,0.4,2.8-0.5,3.5-2c0.4-1.1,0.6-2.3,0.6-3.6
		C-457,264.1-457,263.8-457,263.6z"/>
</g>
<g id="SPLINE_1141_">
	<path class="st0" d="M-457.3,347.9c0-0.1-0.1-0.2-0.1-0.2c-0.9,0.7-2,0.9-3,1.1c-0.5,0.1-1,0.1-1.5,0.3c-0.8,0.3-1.2,1.1-1,2.1
		c0.2,0.9,0.6,1.2,1.6,1.2c1,0,1.7-0.5,2.3-1.3C-458.5,350-457.9,349-457.3,347.9z"/>
</g>
<g id="SPLINE_1140_">
	<path class="st0" d="M-458.3,367.5c1.7-2.3,1.5-4.8,0.8-7.4c-0.6,1.5-1.6,2.7-2.7,3.8c-0.7,0.7-1.2,1.6-1.4,2.7
		c-0.1,0.7-0.1,1.6,0.6,2c0.7,0.4,1.4,0.2,2-0.3C-458.7,368.1-458.5,367.8-458.3,367.5z"/>
</g>
<g id="SPLINE_1139_">
	<path class="st0" d="M-458.5,335.2c0.1-0.1,0.3-0.1,0.4-0.2c-0.9-1.5-0.5-3.1-0.4-4.7c0-0.2,0-0.5-0.1-0.7
		c-0.3-0.9-0.9-1.2-1.9-1.1c-0.8,0.2-1.1,0.5-1,1.6C-461.3,332.4-459.6,333.5-458.5,335.2z"/>
</g>
<g id="SPLINE_1138_">
	<path class="st0" d="M-458.6,255.3c0.1-0.3,0.2-0.7-0.1-0.9c-0.2-0.2-0.5-0.2-0.7-0.1c-0.4,0.1-0.4,0.5-0.4,0.9
		c0.1,0.5,0.3,1,0.6,1.5c0.1,0.1,0.2,0.4,0.4,0.3c0.2-0.1,0.2-0.3,0.2-0.5C-458.8,256-458.7,255.7-458.6,255.3z"/>
</g>
<g id="SPLINE_1137_">
	<path class="st0" d="M-458.9,250.6c0.2-0.7,0.4-1.3,0.2-2c-0.2-0.9-1-1.5-1.8-1.3c-0.7,0.2-1,0.9-0.7,1.9c0.2,0.9,0.4,1.8,0.8,2.5
		c0.5,0.8,0.8,1.9,2.2,2.1C-459.3,252.7-459.2,251.6-458.9,250.6z"/>
</g>
<g id="SPLINE_1136_">
	<path class="st0" d="M-460.1,287.5c1.2-1.2,1.6-2.9,2.5-4.5c-1.4,0.2-3.3,1.5-4.3,2.6c-0.6,0.8-0.7,1.7-0.2,2.2
		C-461.6,288.3-460.8,288.1-460.1,287.5z"/>
</g>
<g id="SPLINE_1135_">
	<path class="st0" d="M-459,288.4c0.1-0.2,0.5-0.4,0.1-0.7c-0.2-0.2-0.5,0.1-0.7,0.3c-0.6,0.7-1.2,1.4-1.8,2.1
		c-0.3,0.3-0.4,0.9-0.2,1.4c0.2,0.4,0.5,0.5,1,0.5c0.7,0.1,1-0.5,1.1-1.1C-459.2,290.1-459.3,289.2-459,288.4z"/>
</g>
<g id="SPLINE_1134_">
	<path class="st0" d="M-459.5,360.3c0.3-1.4,0-2.9,0.2-4.3c-0.4,0.4-0.8,1-1.3,1.3c-1.4,0.7-1.6,1.9-1.5,3.4
		c0.1,0.6,0.2,1.2,0.8,1.4c0.6,0.2,1.1-0.2,1.4-0.7C-459.7,361-459.6,360.6-459.5,360.3z"/>
</g>
<g id="SPLINE_1133_">
	<path class="st0" d="M-458.8,262.4c-0.7-1-0.8-2.2-1-3.4c-0.1-0.4-0.1-0.8-0.3-1.1c-0.5-0.8-1.3-1.2-2-0.9c-0.6,0.3-0.9,0.9-0.7,2
		C-462.5,260.4-460.5,262.2-458.8,262.4z"/>
</g>
<g id="SPLINE_1132_">
	<path class="st0" d="M-459.6,323.6c0.2-0.6,0.1-1.3-0.1-1.9c-0.1-0.5-0.4-0.7-0.9-0.8c-0.5,0-0.7,0.3-0.8,0.7
		c-0.5,1.4,0.3,3.7,1.8,4.4C-460,325.1-459.8,324.4-459.6,323.6z"/>
</g>
<g id="SPLINE_1131_">
	<path class="st0" d="M-460.3,337.7c0.2-0.5,0-0.8-0.2-1.1c-0.6-0.6-0.8-1.3-0.9-2c-0.1-0.4-0.2-0.8-0.3-1.2
		c-0.2-0.7-0.7-0.9-1.4-0.9c-0.6,0-1,0.5-1.1,1.1c-0.2,1.1,0.3,2.2,1.2,2.7C-462.2,336.9-461.3,337.3-460.3,337.7z"/>
</g>
<g id="SPLINE_1130_">
	<path class="st0" d="M-461.1,271.9c0.3-0.2,0.7-0.4,0.5-0.8c-0.2-0.4-0.6-0.4-0.9-0.3c-0.8,0.5-1.7,0.6-2.5,1.1
		c-0.6,0.4-0.9,1-0.9,1.8c0,0.7,0.3,1.1,0.9,1.1c0.8-0.1,1.3-0.4,1.5-1.1C-462.3,272.9-461.8,272.3-461.1,271.9z"/>
</g>
<g id="SPLINE_1129_">
	<path class="st0" d="M-460.9,314.2c0.5-1.2,0.4-2.4,0.2-3.6c-0.1-0.4-0.3-0.7-0.7-0.5c-0.7,0.3-0.9-0.1-0.9-0.8
		c0.1-1.6-0.1-3.2-0.6-4.6c-0.4-1.2-0.9-2.3-1-3.6c0-0.5,0-1.3-0.4-1.4c-0.5,0-0.9,0.7-1.1,1.3c-0.1,0.2-0.1,0.5-0.2,0.8
		c0,0.5-0.2,0.9-0.4,1.3c-0.1,0.2-0.2,0.5-0.5,0.5c-0.3,0-0.3-0.3-0.4-0.6c-0.3-0.9-0.7-1.9-1-2.8c-0.2-0.6-0.6-1-1.2-1.3
		c0.1,0.3,0.1,0.6,0.2,0.8c0.1,0.4,0,1-0.3,1.1c-0.3,0.2-0.6-0.3-0.8-0.5c-0.4-0.6-0.8-1.2-1.2-1.8c-0.4-0.6-0.8-1.1-1.4-1.4
		c-0.2-0.1-0.4-0.4-0.7-0.2c-0.2,0.2-0.1,0.5-0.1,0.8c0.1,0.8,0.5,1.5,0.5,2.3c0,0.2,0.1,0.5-0.2,0.6c-0.3,0.1-0.5-0.1-0.6-0.3
		c-0.3-0.6-0.8-0.9-1.3-1c-0.2-0.1-0.5-0.2-0.6-0.4c-1-1.2-2.4-0.9-3.6-1c-0.6,0-1.4,0.2-2.1,0.1c-0.3-0.1-0.7-0.1-0.9,0.2
		c-0.2,0.3-0.1,0.7,0.1,1c0.3,0.5,0.5,1.1,1,1.4c0.4,0.2,0.6,0.5,0.8,0.8c0.5,0.8,1.1,1.3,2,1.6c0.4,0.1,0.8,0.2,0.9,0.7
		c-0.8,0.2-1.5,0.3-2.2-0.1c-0.7-0.4-1-0.1-0.9,0.8c0.3,1.4,0.9,2.5,2.2,3.2c0.6,0.4,1.5,0.4,1.8,1.3c-0.3,0.4-1-0.1-1,0.5
		c0,0.4,0.2,0.8,0.6,1c0.2,0.1,0.4,0.2,0.6,0.3c0.7,0.2,1.4,0.5,2.1,0.7c0.5,0.2,1,0.4,1.3,1c-0.6,0.4-1.3,0.6-2.1,0.5
		c-0.6,0-1.2,0-1.7,0.1c-0.4,0-0.6,0.2-0.7,0.6c-0.1,0.4,0.1,0.6,0.5,0.7c0.2,0.1,0.5,0.2,0.7,0.4c0.7,0.8,1.4,1.7,2.6,1.6
		c0.2,0,0.4,0.2,0.5,0.3c0.9,0.9,1.8,0.7,2.7,0.1c0.5-0.3,1-0.6,1.6-0.5c-0.5,0.9-0.3,1.3,0.6,1.5c0.6,0.2,1.2,0.2,1.9,0
		c1.3-0.4,2.4-0.3,3.3,0.9c0.3,0.4,0.7,0.6,1.1,0.7c1,0.3,1.5-0.2,1.3-1.3c0-0.2-0.1-0.3-0.1-0.4
		C-461.5,316.5-461.4,315.3-460.9,314.2z"/>
</g>
<g id="SPLINE_1128_">
	<path class="st0" d="M-460.9,341.8c0.1,0,0.3-0.2,0.3-0.3c-0.1-0.2-0.2-0.2-0.4-0.2c-0.6,0.2-1.1,0.1-1.7-0.1
		c-0.8-0.2-1.5-0.6-2.2-0.9c-0.8-0.4-1.6-0.3-2.4,0.2c-0.6,0.4-0.8,0.9-0.5,1.7c0.4,1,1.2,1.3,2.1,1.3c0.2,0,0.4,0,0.7-0.1
		C-463.6,343.2-462.4,342.2-460.9,341.8z"/>
</g>
<g id="SPLINE_1127_">
	<path class="st0" d="M-461.1,380.8c0.1-0.2,0.4-0.3,0.3-0.6c-0.1-0.3-0.5-0.1-0.7-0.1c-0.5,0-0.6,0-0.3-0.7c0.6-1.4,0.9-3,0-4.4
		c-0.5-0.8-0.8-1.7-0.8-2.7c0-0.7-0.3-0.7-0.8-0.4c-0.6,0.4-0.9,1-1.2,1.6c-0.3,0.8-0.7,1.6-1,2.5c-0.1-0.2-0.2-0.2-0.2-0.3
		c-0.4-1.7-1.3-3.2-1.2-5c0-0.4,0-0.8-0.5-0.9c-0.5-0.1-0.6,0.3-0.7,0.7c-0.1,0.2-0.1,0.4-0.3,0.4c-0.3-0.2-0.3-0.6-0.4-0.9
		c-0.1-0.5-0.2-1-0.5-1.5c-0.5-0.8-1.1-1.6-1.2-2.6c0-0.3-0.3-0.6-0.6-0.6c-0.4,0-0.6,0.2-0.6,0.6c-0.1,0.3-0.1,0.7-0.2,1.2
		c-0.5-0.9-1.1-1.4-1.8-1.9c-0.7-0.6-1.5-1.1-2.1-1.9c-0.2-0.4-0.4-1.1-0.9-0.9c-0.5,0.2-0.2,0.9-0.2,1.3c0,1.3,0.4,2.6,0.5,4
		c0,0.2,0.3,0.8-0.4,0.6c-0.9-0.3-1-0.1-1,0.8c0,0.5,0,0.7-0.5,0.8c-0.7,0.1-0.8,0.4-0.3,1c0.4,0.5,0.9,0.9,1.3,1.4
		c0.3,0.4,0.7,0.8,0.6,1.3c-0.4,1.7,0.5,2.9,1.4,4c0.6,0.7,1.1,1.3,1.8,2.1c-0.7-0.2-1.1-0.5-1.5-0.8c-0.5-0.3-1-0.5-1.6-0.4
		c-0.9,0.2-1.1,0.7-0.5,1.4c0.3,0.4,0.5,0.8,0.7,1.2c0.4,0.7,0.4,1.6,1,2.3c0.5,0.5,0.6,1.4,0.4,2.1c-0.1,0.5-0.1,0.9,0.2,1.3
		c0.3,0.4,0.7,0.1,1,0c0.6-0.3,1.2-0.3,1.7,0c0.7,0.5,1.5,0.7,2.3,0.6c0.2,0,0.4,0,0.6,0.1c0.6,0.6,1.3,0.5,2.1,0.4
		c1.5-0.1,2.9-0.3,3.8,1.4c0.1,0.2,0.4,0.4,0.7,0.3c0.3-0.1,0.2-0.5,0.3-0.8c0-0.2,0-0.4-0.1-0.6
		C-463.2,385.6-462.1,383.2-461.1,380.8z"/>
</g>
<g id="SPLINE_1126_">
	<path class="st0" d="M-460.3,256.1c-0.5-1-0.7-2.2-1.8-2.6c-0.4-0.2-0.9-0.2-1.2,0.3c-0.3,0.4-0.5,0.8-0.3,1.4
		c0.2,0.5,0.6,0.5,1,0.5C-461.9,255.6-461,255.4-460.3,256.1z"/>
</g>
<g id="SPLINE_1125_">
	<path class="st0" d="M-461.3,354.5c0.2-0.3,0.4-0.6,0.2-1c-0.9,0.5-1.9,1.1-2.8,1.6c-0.6,0.4-1,0.9-1.1,1.8c-0.1,1.3,0.5,2,1.6,1.6
		c0.5-0.2,0.8-0.6,0.9-1.1C-462.3,356.3-461.9,355.4-461.3,354.5z"/>
</g>
<g id="SPLINE_1124_">
	<path class="st0" d="M-461.3,246.3c0.5-0.3,0.4-1,0.3-1.6c-0.1-0.5-0.5-0.6-0.9-0.6c-0.6,0-1,0.3-1.2,0.9c-0.5,1.1-0.2,2.4,0.8,3.4
		C-462.2,247.5-462.1,246.8-461.3,246.3z"/>
</g>
<g id="SPLINE_1123_">
	<path class="st0" d="M-462.7,264.5c0.5-0.4,0.8-0.8,0.9-1.6c-1.8,0-3.4,0.1-5.1,0.7c-0.5,0.2-0.9,0.4-1.3,0.8
		c-0.7,0.7-0.9,2.1-0.5,3c0.4,0.7,1.4,1,2.3,0.7c0.5-0.2,0.9-0.6,1.2-1C-464.4,266.1-463.7,265.2-462.7,264.5z"/>
</g>
<g id="SPLINE_1122_">
	<path class="st0" d="M-462.2,280.1c-0.1-0.1-0.2-0.2-0.2-0.3c-2.1,0.9-4.1,2-5.5,4.1c-0.3,0.5-0.4,1,0,1.6c0.4,0.5,0.9,0.7,1.5,0.6
		c0.5-0.1,1-0.3,1.2-0.8C-464.2,283.6-463.2,281.9-462.2,280.1z"/>
</g>
<g id="SPLINE_1121_">
	<path class="st0" d="M-462.9,277c0.1-0.5,0.7-1.1,0.3-1.4c-0.4-0.3-0.9,0.4-1.3,0.7c-0.9,0.6-1.3,1.4-1.2,2.6
		c0.1,0.5,0.2,0.9,0.8,0.9c0.7,0,1.2-0.3,1.3-1.1C-463,278.1-463,277.5-462.9,277z"/>
</g>
<g id="SPLINE_1120_">
	<g>
		<path class="st1" d="M-464.6,368.7c-0.3,0-0.6-0.1-0.7-0.3c-0.2-0.2-0.3-0.5-0.3-0.9c0-0.6,0.2-1,0.4-1.4c0.7-0.9,1.4-1.7,2.2-2.6
			l0.5-0.5l-0.2,1.3c-0.1,0.9-0.1,1.8-0.2,2.7C-463,368.1-463.5,368.6-464.6,368.7L-464.6,368.7z"/>
		<path class="st2" d="M-462.7,363.3c0,0.3,0,0.7-0.1,1c-0.1,0.9-0.1,1.8-0.2,2.7c-0.1,1.1-0.6,1.6-1.6,1.6c0,0,0,0-0.1,0
			c-0.3,0-0.5-0.1-0.7-0.3c-0.2-0.2-0.3-0.5-0.3-0.9c0-0.6,0.2-1,0.4-1.3c0.6-0.9,1.4-1.7,2.2-2.5
			C-462.9,363.5-462.8,363.4-462.7,363.3 M-462.6,363L-462.6,363L-462.6,363z M-462.6,363c-1,1-1.9,2-2.7,3.1
			c-0.3,0.4-0.4,0.9-0.4,1.4c0,0.8,0.4,1.2,1.1,1.2c0,0,0.1,0,0.1,0c1-0.1,1.6-0.6,1.7-1.7C-462.7,365.8-462.7,364.5-462.6,363
			L-462.6,363z"/>
	</g>
</g>
<g id="SPLINE_1119_">
	<path class="st0" d="M-462.3,331.1c-0.3-1.3-0.7-2.5-1-3.6c0-0.1-0.1-0.2-0.1-0.3c-0.3-0.6-0.7-1.1-1.4-0.9
		c-0.8,0.2-0.7,0.9-0.6,1.5C-465.3,329.1-463.7,330.8-462.3,331.1z"/>
</g>
<g id="SPLINE_1118_">
	<path class="st0" d="M-463.1,338.1c0-0.2-0.2-0.4-0.3-0.4c-1.2-0.1-1.7-1.2-2.4-2c-0.4-0.5-0.8-1-1.3-1.4c-0.4-0.3-0.8-0.4-1.2-0.1
		c-0.5,0.3-0.8,0.7-0.7,1.4c0.1,0.5,0.3,0.9,0.5,1.2c0.9,1.3,2.2,1.6,3.5,1.5c0.6,0,1,0,1.5,0C-463.3,338.4-463.1,338.4-463.1,338.1
		z"/>
</g>
<g id="SPLINE_1117_">
	<path class="st0" d="M-462.7,252.5c-0.8-0.9-0.8-2.2-1.3-3.2c-0.2-0.6-0.5-1-1.1-1.2c-0.9-0.3-1.6-0.1-2.2,0.6
		c-0.6,0.6-0.7,1.3-0.5,2.1c0.3,0.9,1,1,1.7,1.1C-464.9,251.9-463.8,251.9-462.7,252.5z"/>
</g>
<g id="SPLINE_1116_">
	<path class="st0" d="M-463.7,286.6c0-0.3,0-0.6-0.2-0.6c-0.2-0.1-0.3,0.2-0.4,0.3c-0.4,0.8-1.2,1.1-1.9,1.6c-0.4,0.3-0.9,0.5-1.3,1
		c-0.6,0.8-0.8,2-0.2,2.5c0.7,0.7,2,0.5,2.6-0.4c0.1-0.1,0.2-0.2,0.2-0.3C-464.3,289.3-464.1,287.9-463.7,286.6z"/>
</g>
<g id="SPLINE_1115_">
	<path class="st0" d="M-463.4,347.5c-0.6,0.4-1,0.6-1.4,0.8c-0.4,0.2-0.9,0.4-1.4,0.5c-0.5,0.2-1.1,0.2-1.6,0.4
		c-0.8,0.3-1.5,1.4-1.3,2.1c0.2,0.8,0.9,1.2,1.9,1c0.5-0.1,1-0.3,1.4-0.6C-464.7,350.7-464.1,349.2-463.4,347.5z"/>
</g>
<g id="SPLINE_1114_">
	<path class="st0" d="M-464.1,261.1c0.2-0.3,0-0.7-0.2-0.9c-1-1.4-2.5-1.9-4-2.2c-0.3,0.1-0.6,0.1-0.8,0.1c-0.7,0.2-1.3,0.5-1.3,1.4
		c0,0.9,0.4,1.3,1.2,1.5c1,0.3,1.9,0.2,2.9,0c0.5-0.1,1-0.2,1.5,0C-464.6,261-464.3,261.3-464.1,261.1z"/>
</g>
<g id="SPLINE_1113_">
	<path class="st0" d="M-465.5,363.7c0.7-1,0.5-2.4,1.2-3.4c-1.3,0.7-2.6,1.1-3.6,2.2c-0.6,0.7-0.7,1.8-0.2,2.2
		c0.5,0.4,1.6,0.2,2.2-0.5C-465.7,364.1-465.6,363.9-465.5,363.7z"/>
</g>
<g id="SPLINE_1112_">
	<path class="st0" d="M-465,353c-0.7-0.1-1.1,0.5-1.6,0.6c-0.5,0.2-1,0.4-1.5,0.6c-0.8,0.3-1.4,0.9-1.9,1.5c-0.4,0.5-0.6,1-0.3,1.6
		c0.3,0.6,0.8,0.9,1.4,0.9c1.2,0.1,2.1-0.5,2.5-1.8C-466,355.4-465.6,354.2-465,353z"/>
</g>
<g id="SPLINE_1111_">
	<path class="st0" d="M-466.4,347.3c0.6-0.7,1.5-1.1,2.1-2.2c-1.4,0.5-2.6,0.2-3.8,0c-1.2-0.2-2.6,0.6-3,1.6
		c-0.4,0.8-0.1,1.5,0.6,1.6C-469,348.4-467.5,348.5-466.4,347.3z"/>
</g>
<g id="SPLINE_1110_">
	<path class="st0" d="M-465.1,256.5c-0.7-1.6-1.5-3.2-3-4.2c-0.9-0.6-1.9-0.4-2.9,0.1c-0.5,0.3-0.7,0.7-0.7,1.3c0,0.6,0.3,1,0.8,1.2
		c0.3,0.2,0.7,0.3,1.1,0.3C-468.1,255.1-466.6,255.5-465.1,256.5z"/>
</g>
<g id="SPLINE_1109_">
	<path class="st0" d="M-467.9,280.5c0.7-0.5,1.4-1.2,1.3-2.3c-0.1-0.9,0-1.7,0.4-2.6c-1.3,0.3-3,2.9-2.9,4
		C-469.1,280.3-468.3,280.8-467.9,280.5z"/>
</g>
<g id="SPLINE_1108_">
	<path class="st0" d="M-465.4,332.3c-1.1-1.4-1.9-2.8-2.2-4.6c-0.1-0.7-0.7-0.9-1.3-0.8c-0.6,0-1,0.5-1.1,1.1
		c-0.2,1,0.1,1.9,0.7,2.6C-468.2,331.7-466.9,332.3-465.4,332.3z"/>
</g>
<g id="SPLINE_1107_">
	<path class="st0" d="M-467.9,271.8c0.4-0.9,1.3-1.2,1.9-1.7c-1.8,0.1-3.6-0.2-5.1,1.1c-0.7,0.6-1.2,1.6-1,2.4
		c0.1,0.6,0.5,1,1.1,1.1c1,0.1,1.7-0.4,2.1-1.3C-468.5,272.9-468.2,272.4-467.9,271.8z"/>
</g>
<g id="SPLINE_1106_">
	<path class="st0" d="M-468.2,339.5c0.3,0,0.4-0.3,0.1-0.5c-1-0.8-2-1.4-3.3-1.4c-0.2,0-0.3,0-0.5,0c-1.1,0.1-1.8,0.9-1.7,1.9
		c0.1,1,0.7,1.3,2,1.1C-470.5,340.3-469.5,339.5-468.2,339.5z"/>
</g>
<g id="SPLINE_1105_">
	<path class="st0" d="M-468.5,262.8c0,0,0-0.1,0-0.3c-1.6,0.1-3.1-0.7-4.8-0.3c-0.9,0.2-1.4,0.7-1.7,1.5c-0.2,0.4,0,0.9,0.4,1.2
		c0.7,0.6,1.4,0.6,2.2,0.4c0.1,0,0.3-0.1,0.4-0.2C-471,264.1-469.9,263.2-468.5,262.8z"/>
</g>
<g id="SPLINE_1104_">
	<path class="st0" d="M-469.6,343.8c0.2-0.1,0.3-0.2,0.3-0.4c0-0.2-0.2-0.2-0.4-0.2c-0.6,0.1-1-0.3-1.5-0.6c-0.5-0.3-1-0.5-1.5-0.5
		c-1.2,0-2.1,0.5-2.3,1.3c-0.2,0.7-0.1,1.4,0.5,1.9c0.7,0.6,1.6,0.7,2.3,0.2C-471.4,344.8-470.5,344.2-469.6,343.8z"/>
</g>
<g id="SPLINE_1103_">
	<path class="st0" d="M-469.5,282.5c0.1-0.3,0-0.7-0.3-0.8c-0.2-0.2-0.4,0.2-0.5,0.3c-0.2,0.1-0.4,0.3-0.6,0.4
		c-1.1,0.4-2,1.3-2.8,2.1c-0.5,0.5-0.8,1.1-0.8,1.8c-0.1,1,0.5,1.7,1.4,1.7c1.2,0,2-0.6,2.2-1.9c0.2-1,0.5-1.9,1.1-2.6
		C-469.7,283.1-469.5,282.8-469.5,282.5z"/>
</g>
<g id="SPLINE_1102_">
	<path class="st0" d="M-469.4,276.2c-1.5-0.2-2.5,0.4-3.5,1.2c-0.8,0.6-1.5,1.3-2.1,2.2c-0.5,0.7-0.5,2.1-0.1,2.5
		c0.5,0.4,1.5,0.2,2-0.7C-471.9,279.7-471.1,277.7-469.4,276.2z"/>
</g>
<g id="SPLINE_1101_">
	<path class="st0" d="M-470.8,335.3c0.7,0,0.5-0.4,0.2-0.8c-0.6-0.8-1.8-1.2-2.8-1c-0.7,0.2-1.2,0.6-1,1.4c0.1,0.8,0.7,1.1,1.5,1.1
		C-472.2,336.1-471.6,335.3-470.8,335.3z"/>
</g>
<g id="SPLINE_1100_">
	<path class="st0" d="M-471.9,355.2c0.7-1,1-2.1,1.1-3.4c-0.9,0.5-1.7,0.9-2.5,1.2c-0.3,0.1-0.6,0.3-0.9,0.6c-0.5,0.6-0.8,1.3-0.4,2
		c0.4,0.6,1.1,0.6,1.7,0.4C-472.4,355.9-472.1,355.6-471.9,355.2z"/>
</g>
<g id="SPLINE_1099_">
	<path class="st0" d="M-471.2,258c-0.1-0.4-0.3-0.6-0.5-0.7c-1.2-0.5-3.4-0.9-4.7,0.7c-0.2,0.3-0.6,0.5-0.5,1c0.2,0.6,0.5,0.9,1,1
		c0.7,0.2,1.4-0.1,2-0.6C-473.1,258.7-472.3,258.1-471.2,258z"/>
</g>
<g id="SPLINE_1098_">
	<path class="st0" d="M-471.9,347.7c0-0.3-0.1-0.4-0.3-0.3c-1,0.5-2.1,0.6-3.1,1.1c-0.5,0.3-0.6,0.9-0.5,1.5c0.1,0.5,0.6,0.5,1,0.6
		C-473.7,350.7-472,348.9-471.9,347.7z"/>
</g>
<g id="SPLINE_1097_">
	<path class="st0" d="M-472.2,267.2c0,0,0-0.1-0.1-0.4c-0.9,0.9-1.9,1-2.9,1.4c-0.6,0.2-1.2,0.4-1.6,0.8c-0.7,0.7-0.9,2-0.2,2.7
		c0.7,0.8,2,0.8,2.5-0.1C-473.7,270.2-473,268.6-472.2,267.2z"/>
</g>
<g id="SPLINE_1096_">
	<path class="st0" d="M-473.6,275.3c0-0.3-0.2-0.3-0.4-0.4c-1.6-0.9-4.5,0.2-5.1,2c-0.4,1.1,0.2,2.1,1.4,2.1c0.6,0,1.1-0.2,1.3-0.9
		c0.4-1.3,1-2.2,2.3-2.4C-473.9,275.7-473.6,275.6-473.6,275.3z"/>
</g>
</svg>
