<?xml version="1.0" encoding="utf-8"?>
<!-- Generator: Adobe Illustrator 19.1.0, SVG Export Plug-In . SVG Version: 6.00 Build 0)  -->
<!DOCTYPE svg PUBLIC "-//W3C//DTD SVG 1.1//EN" "http://www.w3.org/Graphics/SVG/1.1/DTD/svg11.dtd">
<svg version="1.1" id="Layer_1" xmlns="http://www.w3.org/2000/svg" xmlns:xlink="http://www.w3.org/1999/xlink" x="0px" y="0px"
	 viewBox="-488 239.4 102.4 170.6" style="enable-background:new -488 239.4 102.4 170.6;" xml:space="preserve">
<style type="text/css">
	.st0{fill:#FFFFFF;stroke:#BABABA;stroke-width:0.1;stroke-linecap:round;stroke-linejoin:round;stroke-miterlimit:10;}
</style>
<g id="SPLINE_1616_">
	<circle class="st0" cx="-433.5" cy="260.8" r="1"/>
</g>
<g id="SPLINE_1615_">
	<circle class="st0" cx="-434.8" cy="298.8" r="1"/>
</g>
<g id="SPLINE_1614_">
	<path class="st0" d="M-435.6,297.8c2.3-0.4,5.6,1.3,8.7,4.4c-0.1,0.2-0.2,0.3-0.3,0.5c-1.1,1.8-2.9,2.9-4.9,3.8
		c-0.1-0.2-0.3-0.3-0.4-0.5c-2-2.3-4-3.6-5.9-3.6l-0.4,0.6c1.9-0.1,4,1.1,6,3.4c0.1,0.2,0.3,0.3,0.4,0.5c-1.8,0.8-3.8,1.3-5.5,1.7
		c-0.9-1.1-2-1.7-3-2l-0.3,0.5c1,0.2,2,0.8,2.9,1.9c-1.9,0.4-3.5,0.6-4.5,0.6l-0.6,0.9c19.2-1.5,21.9-11.5,16.4-26.5l-0.7,1.1
		c0.2,0.5,0.5,1.2,0.8,2.1c-0.8-0.1-1.5-0.1-2.1,0.1l-0.2,0.3c0.7-0.1,1.4-0.1,2.3,0c0.6,1.5,1.2,3.3,1.6,5.3
		c-0.1-0.1-0.2-0.1-0.3-0.2c-2.3-1.2-4.4-1.7-5.9-1.4l-0.4,0.7c1.6-0.5,3.7-0.1,6.1,1.1c0.1,0.1,0.3,0.1,0.4,0.2
		c0.3,2.8,0.1,5.7-1.2,8.3c-3-3.1-6.2-4.7-8.7-4.2L-435.6,297.8z"/>
</g>
<g id="SPLINE_1613_">
	<path class="st0" d="M-434.8,260.4c1.7-1.7,5.3-2.1,9.6-1.4c0,0.2,0,0.4,0,0.6c0.1,2.1-0.7,4.1-1.9,5.9c-0.2-0.1-0.4-0.1-0.6-0.2
		c-2.9-0.8-5.3-0.6-6.9,0.4l0,0.7c1.5-1.2,3.9-1.4,6.9-0.6c0.2,0.1,0.4,0.1,0.6,0.2c-1,1.7-2.3,3.3-3.6,4.5
		c-1.4-0.3-2.6-0.3-3.6,0.1l0,0.5c1-0.4,2.2-0.5,3.5-0.2c-1.3,1.4-2.6,2.5-3.3,3.1l0.1,1.1c14.9-12.2,11.4-22-1.7-31.2l0.1,1.2
		c0.5,0.3,1.1,0.7,1.9,1.3c-0.7,0.4-1.3,0.8-1.7,1.3l0,0.4c0.5-0.5,1.1-0.9,1.9-1.3c1.3,0.9,2.9,2,4.4,3.5c-0.1,0-0.2,0-0.3,0
		c-2.6,0.3-4.6,1.1-5.7,2.2l0,0.8c1-1.3,3-2.2,5.7-2.6c0.1,0,0.3,0,0.5,0c1.8,2.1,3.4,4.6,3.8,7.4c-4.2-0.8-7.8-0.3-9.5,1.5
		L-434.8,260.4z"/>
</g>
<g id="SPLINE_1612_">
	<circle class="st0" cx="-408.2" cy="276.7" r="1"/>
</g>
<g id="SPLINE_1611_">
	<path class="st0" d="M-409.1,275.6c2.3-0.4,5.6,1.3,8.7,4.4c-0.1,0.2-0.2,0.3-0.3,0.5c-1.1,1.8-2.9,2.9-4.9,3.8
		c-0.1-0.2-0.3-0.3-0.4-0.5c-2-2.3-4-3.6-5.9-3.6l-0.4,0.6c1.9-0.1,4,1.1,6,3.4c0.1,0.2,0.3,0.3,0.4,0.5c-1.8,0.8-3.8,1.3-5.5,1.7
		c-0.9-1.1-2-1.7-3-2l-0.3,0.5c1,0.2,2,0.8,2.9,1.9c-1.9,0.4-3.5,0.6-4.5,0.6l-0.6,0.9c19.2-1.5,21.9-11.5,16.4-26.5l-0.7,1.1
		c0.2,0.5,0.5,1.2,0.8,2.1c-0.8-0.1-1.5-0.1-2.1,0.1l-0.2,0.3c0.7-0.1,1.4-0.1,2.3,0c0.6,1.5,1.2,3.3,1.6,5.3
		c-0.1-0.1-0.2-0.1-0.3-0.2c-2.3-1.2-4.4-1.7-5.9-1.4l-0.4,0.7c1.6-0.5,3.7-0.1,6.1,1.1c0.1,0.1,0.3,0.1,0.4,0.2
		c0.3,2.8,0.1,5.7-1.2,8.3c-3-3.1-6.2-4.7-8.7-4.2L-409.1,275.6z"/>
</g>
<g id="SPLINE_1610_">
	<path class="st0" d="M-392.5,399.5c1.6-21.6-5.5-55-55.1-40.1l1.6,1.2c1.4-0.5,5.4-1.8,10.5-2.7c-1,3.2-2.7,5.4-5,6.7l1,0.7
		c2.3-1.4,4-3.8,5.1-7c3.7-0.7,7.9-1.3,12.1-1.1c-0.2,0.6-0.3,1.2-0.5,1.8c-2,6.4-5.1,10.6-8.9,12l1.1,0.8c3.8-1.5,7-5.7,9.2-12.1
		c0.2-0.6,0.4-1.2,0.6-1.8c4.9,0.1,9.7,1.2,13.5,4.2c0.2,0.2,0.4,0.3,0.6,0.5c-4,9.1-9.5,15.2-14.8,15.9l0.8,0.6
		c5.7-0.7,11.1-6.9,14.7-16.1c4.8,4,7.6,9.9,9.3,15.8c-0.2,0.2-0.4,0.5-0.5,0.7c-4.1,5.1-8.5,7.7-12.5,7.5l1.6,1.1
		c3.7-0.3,7.8-3.1,11.8-8.1c0.1-0.2,0.2-0.3,0.4-0.5c0.9,4.3,1.1,8.7,1.1,12.2c-1.9,1.2-3.8,1.9-5.5,1.9l0.6,0.5
		c1.8,0,3.6-0.6,5.4-1.6c0.1,2.4,0.1,4.4,0.1,5.6L-392.5,399.5z"/>
</g>
<g id="SPLINE_1609_">
	<path class="st0" d="M-393.8,317.2l-2.1,1.2c-0.1,1-0.3,2.5-0.6,4.3c-1.2-0.9-2.5-1.5-3.7-1.8l-0.6,0.4c1.3,0.4,2.6,1.1,3.8,2.1
		c-0.3,3-0.9,6.8-2.1,10.5c-0.1-0.2-0.2-0.4-0.3-0.5c-2.8-4.2-5.9-6.9-8.8-7.8l-1.3,0.8c3.2,0.6,6.5,3.1,9.4,7.4
		c0.2,0.2,0.3,0.5,0.5,0.7c-2,5-5,9.9-9.4,13c-2.4-8-6.4-13.6-11.1-15l-0.9,0.5c4.4,1.4,8.3,7.2,10.9,15.3c-0.3,0.2-0.6,0.4-1,0.6
		c-3.5,2-7.6,2.4-11.7,2c-0.1-0.4-0.2-0.8-0.2-1.2c-1.3-5.7-3.7-9.8-6.8-11.5l-1.2,0.7c3.3,1.4,5.8,5.4,7.1,11.3
		c0.1,0.4,0.2,0.8,0.2,1.1c-3.8-0.2-7.6-1.1-10.9-2.1c-0.7-2.7-1.8-4.8-3.5-6.2l-0.9,0.5c1.6,1.3,2.8,3.3,3.4,5.9
		c-3.7-1.1-6.6-2.3-8.3-3l-1.8,1.1C-411.5,362.4-397.9,347.8-393.8,317.2z"/>
</g>
<g id="SPLINE_1608_">
	<path class="st0" d="M-393.8,402.1l-2.2-1.6c-1.1,0.4-2.8,0.8-4.8,1.3c0.4-1.7,0.4-3.3,0.2-4.8l-0.7-0.5c0.2,1.5,0.1,3.2-0.5,5.1
		c-3.3,1-7.5,2-11.9,2.5c0.1-0.2,0.3-0.4,0.4-0.6c3.2-5,4.7-9.4,4.2-12.9l-1.4-1.1c0.9,3.7-0.3,8.3-3.5,13.4
		c-0.2,0.3-0.4,0.6-0.6,0.8c-6.1,0.1-12.5-0.8-17.8-4.1c7.5-6.2,11.6-13.1,10.7-18.7l-0.9-0.7c0.8,5.3-3.6,12.2-11.1,18.6
		c-0.4-0.2-0.7-0.5-1.1-0.7c-3.6-2.8-5.9-6.9-7.3-11.4c0.4-0.3,0.8-0.5,1.1-0.8c5.7-4.1,8.8-8.5,9-12.7l-1.3-1
		c0.2,4.3-2.8,8.9-8.6,13c-0.4,0.2-0.7,0.5-1.1,0.7c-1.5-4.1-2.2-8.5-2.6-12.4c2.7-2,4.4-4.4,5.1-6.9l-1-0.7
		c-0.5,2.5-2.1,4.8-4.8,6.7c-0.6-4.8-0.6-8.9-0.5-10.7l-1.9-1.5C-449.3,403.4-427.9,411.3-393.8,402.1z"/>
</g>
<g id="SPLINE_1607_">
	<circle class="st0" cx="-396.2" cy="397.9" r="1.1"/>
</g>
<g id="SPLINE_1606_">
	<path class="st0" d="M-397,316.2l1.6-1c-16.9-8.6-46.2-14.4-51.3,30.7l1.5-0.9c0.1-1.5,0.5-5,1.4-9.2c2.1,1.9,3.4,3.9,3.7,6.1
		l0.9-0.5c-0.4-2.2-1.7-4.4-3.9-6.3c0.7-3.2,1.7-6.8,3.2-10.2c0.4,0.3,0.9,0.7,1.3,1c4.4,3.7,6.7,7.6,6.7,11.1l1-0.6
		c0-3.5-2.3-7.5-6.6-11.4c-0.4-0.4-0.8-0.7-1.3-1.1c1.8-3.9,4.3-7.5,8-9.5c0.2-0.1,0.4-0.2,0.6-0.3c5.9,6.3,9,12.8,7.9,17.3l0.7-0.4
		c1.3-4.8-1.9-11.3-8-17.3c4.9-2.5,10.6-2.8,16-2.1c0.1,0.2,0.3,0.5,0.4,0.7c2.6,5,3.3,9.4,1.9,12.6l1.4-0.9
		c0.9-3.1,0.1-7.3-2.5-12.2c-0.1-0.2-0.2-0.3-0.3-0.5c3.8,0.8,7.4,2.1,10.3,3.3c0.3,2,0.2,3.7-0.3,5.1l0.6-0.4
		c0.6-1.4,0.7-3.1,0.5-4.9C-399.6,315-398.1,315.7-397,316.2z"/>
</g>
<g id="SPLINE_1605_">
	<circle class="st0" cx="-398.4" cy="389.4" r="2.2"/>
</g>
<g id="SPLINE_1604_">
	<circle class="st0" cx="-397.9" cy="317.7" r="1"/>
</g>
<g id="SPLINE_1603_">
	<circle class="st0" cx="-400.5" cy="272.6" r="1"/>
</g>
<g id="SPLINE_1602_">
	<circle class="st0" cx="-403.3" cy="376.9" r="4.1"/>
</g>
<g id="SPLINE_1601_">
	<circle class="st0" cx="-400.8" cy="328.1" r="1"/>
</g>
<g id="SPLINE_1600_">
	<circle class="st0" cx="-401" cy="275.2" r="0.5"/>
</g>
<g id="SPLINE_1599_">
	<circle class="st0" cx="-401.1" cy="268.4" r="0.5"/>
</g>
<g id="SPLINE_1598_">
	<circle class="st0" cx="-403.1" cy="324.4" r="1.9"/>
</g>
<g id="SPLINE_1597_">
	<path class="st0" d="M-402.3,262l0.5-0.8c-9.8,0.2-24.6,4.6-16.2,26.3l0.5-0.8c-0.3-0.8-1-2.4-1.5-4.3c1.3,0.3,2.4,0.9,3.1,1.8
		l0.3-0.5c-0.7-0.9-1.8-1.5-3.2-1.8c-0.5-1.6-0.9-3.5-1-5.5c0.3,0,0.6,0.1,0.8,0.2c2.8,0.6,4.8,1.8,5.7,3.3l0.3-0.5
		c-0.9-1.5-2.9-2.8-5.7-3.5c-0.3-0.1-0.6-0.1-0.9-0.2c-0.1-2.2,0.2-4.5,1.4-6.3c0.1-0.1,0.1-0.2,0.2-0.3c4.1,1.4,7.1,3.6,7.8,5.9
		l0.2-0.4c-0.7-2.5-3.6-4.6-7.8-5.8c1.6-2.3,4.2-3.9,6.8-4.9c0.1,0.1,0.2,0.1,0.3,0.2c2.4,1.6,3.7,3.5,3.9,5.2l0.4-0.7
		c-0.3-1.6-1.8-3.3-4.1-4.9c-0.1,0-0.2-0.1-0.2-0.1c1.9-0.6,3.9-0.9,5.5-1c0.6,0.8,1,1.6,1.1,2.4l0.2-0.3c-0.1-0.8-0.4-1.6-0.9-2.3
		C-403.7,262.1-402.9,262-402.3,262z"/>
</g>
<g id="SPLINE_1596_">
	<circle class="st0" cx="-402.3" cy="262.9" r="0.5"/>
</g>
<g id="SPLINE_1595_">
	<circle class="st0" cx="-403.6" cy="335.9" r="1.9"/>
</g>
<g id="SPLINE_1594_">
	<circle class="st0" cx="-403" cy="267.3" r="1"/>
</g>
<g id="SPLINE_1593_">
	<circle class="st0" cx="-403.4" cy="280.7" r="1"/>
</g>
<g id="SPLINE_1592_">
	<circle class="st0" cx="-403.5" cy="388.6" r="1.1"/>
</g>
<g id="SPLINE_1591_">
	<circle class="st0" cx="-405" cy="272.9" r="1.5"/>
</g>
<g id="SPLINE_1590_">
	<circle class="st0" cx="-405.5" cy="395.6" r="2.2"/>
</g>
<g id="SPLINE_1589_">
	<circle class="st0" cx="-405.6" cy="316.5" r="1.9"/>
</g>
<g id="SPLINE_1588_">
	<circle class="st0" cx="-404.4" cy="277.8" r="0.5"/>
</g>
<g id="SPLINE_1587_">
	<circle class="st0" cx="-404.9" cy="367.2" r="1.1"/>
</g>
<g id="SPLINE_1586_">
	<circle class="st0" cx="-405.5" cy="283" r="0.5"/>
</g>
<g id="SPLINE_1585_">
	<circle class="st0" cx="-406.1" cy="264.3" r="1"/>
</g>
<g id="SPLINE_1584_">
	<circle class="st0" cx="-406.2" cy="266.6" r="0.5"/>
</g>
<g id="SPLINE_1583_">
	<circle class="st0" cx="-406.8" cy="339.8" r="1"/>
</g>
<g id="SPLINE_1582_">
	<circle class="st0" cx="-407.5" cy="280" r="1.5"/>
</g>
<g id="SPLINE_1581_">
	<circle class="st0" cx="-408" cy="320.4" r="1"/>
</g>
<g id="SPLINE_1580_">
	<circle class="st0" cx="-408.4" cy="399.5" r="1.1"/>
</g>
<g id="SPLINE_1579_">
	<circle class="st0" cx="-408.2" cy="284.2" r="0.5"/>
</g>
<g id="SPLINE_1578_">
	<circle class="st0" cx="-411.5" cy="332.3" r="2.9"/>
</g>
<g id="SPLINE_1577_">
	<circle class="st0" cx="-411.5" cy="363.8" r="2.2"/>
</g>
<g id="SPLINE_1576_">
	<circle class="st0" cx="-410.6" cy="270.9" r="1"/>
</g>
<g id="SPLINE_1575_">
	<circle class="st0" cx="-411.6" cy="267" r="1.9"/>
</g>
<g id="SPLINE_1574_">
	<circle class="st0" cx="-412" cy="378.4" r="2.2"/>
</g>
<g id="SPLINE_1573_">
	<circle class="st0" cx="-411.6" cy="283.3" r="1.5"/>
</g>
<g id="SPLINE_1572_">
	<circle class="st0" cx="-413.5" cy="275.7" r="1.9"/>
</g>
<g id="SPLINE_1571_">
	<circle class="st0" cx="-414" cy="369.1" r="1.1"/>
</g>
<g id="SPLINE_1570_">
	<circle class="st0" cx="-414.9" cy="341.2" r="1"/>
</g>
<g id="SPLINE_1569_">
	<circle class="st0" cx="-415.8" cy="347" r="1.9"/>
</g>
<g id="SPLINE_1568_">
	<circle class="st0" cx="-414.7" cy="272.2" r="0.5"/>
</g>
<g id="SPLINE_1567_">
	<circle class="st0" cx="-417.4" cy="316.3" r="3.6"/>
</g>
<g id="SPLINE_1566_">
	<circle class="st0" cx="-415.6" cy="281.2" r="1.2"/>
</g>
<g id="SPLINE_1565_">
	<circle class="st0" cx="-417.5" cy="390.2" r="3.3"/>
</g>
<g id="SPLINE_1564_">
	<circle class="st0" cx="-416" cy="268.1" r="0.5"/>
</g>
<g id="SPLINE_1563_">
	<circle class="st0" cx="-416.3" cy="285.8" r="0.9"/>
</g>
<g id="SPLINE_1562_">
	<circle class="st0" cx="-417.7" cy="400.1" r="2.2"/>
</g>
<g id="SPLINE_1561_">
	<circle class="st0" cx="-417.2" cy="271.2" r="1"/>
</g>
<g id="SPLINE_1560_">
	<circle class="st0" cx="-417.5" cy="278.7" r="0.9"/>
</g>
<g id="SPLINE_1559_">
	<circle class="st0" cx="-417.9" cy="281.1" r="0.5"/>
</g>
<g id="SPLINE_1558_">
	<circle class="st0" cx="-419.2" cy="323.8" r="1.9"/>
</g>
<g id="SPLINE_1557_">
	<circle class="st0" cx="-418.1" cy="274.5" r="0.5"/>
</g>
<g id="SPLINE_1556_">
	<circle class="st0" cx="-418.6" cy="361.3" r="1.1"/>
</g>
<g id="SPLINE_1555_">
	<path class="st0" d="M-418.6,373.6c1.3-1.8,0.9-4.4-0.9-5.8c-1.8-1.3-4.4-0.9-5.8,0.9c-1.3,1.8-0.9,4.4,0.9,5.8
		C-422.5,375.9-419.9,375.4-418.6,373.6z"/>
</g>
<g id="SPLINE_1554_">
	<circle class="st0" cx="-420.4" cy="335.7" r="1.9"/>
</g>
<g id="SPLINE_1553_">
	<circle class="st0" cx="-422.2" cy="342.1" r="2.9"/>
</g>
<g id="SPLINE_1552_">
	<circle class="st0" cx="-421.5" cy="348.9" r="1"/>
</g>
<g id="SPLINE_1551_">
	<circle class="st0" cx="-423.3" cy="398.5" r="1.1"/>
</g>
<g id="SPLINE_1550_">
	<circle class="st0" cx="-425" cy="382.4" r="2.2"/>
</g>
<g id="SPLINE_1549_">
	<circle class="st0" cx="-425.8" cy="314.2" r="1"/>
</g>
<g id="SPLINE_1548_">
	<circle class="st0" cx="-428.4" cy="329.4" r="3.6"/>
</g>
<g id="SPLINE_1547_">
	<circle class="st0" cx="-427.6" cy="361.7" r="2"/>
</g>
<g id="SPLINE_1546_">
	<circle class="st0" cx="-427" cy="294.8" r="1"/>
</g>
<g id="SPLINE_1545_">
	<circle class="st0" cx="-427.2" cy="261.3" r="1"/>
</g>
<g id="SPLINE_1544_">
	<circle class="st0" cx="-427.2" cy="348.6" r="1"/>
</g>
<g id="SPLINE_1543_">
	<circle class="st0" cx="-427.4" cy="322.2" r="1"/>
</g>
<g id="SPLINE_1542_">
	<circle class="st0" cx="-427.5" cy="297.4" r="0.5"/>
</g>
<g id="SPLINE_1541_">
	<circle class="st0" cx="-427.7" cy="264.4" r="0.5"/>
</g>
<g id="SPLINE_1540_">
	<circle class="st0" cx="-427.6" cy="290.6" r="0.5"/>
</g>
<g id="SPLINE_1539_">
	<circle class="st0" cx="-428.3" cy="390.6" r="1.1"/>
</g>
<g id="SPLINE_1538_">
	<circle class="st0" cx="-428.4" cy="255.5" r="0.5"/>
</g>
<g id="SPLINE_1537_">
	<path class="st0" d="M-428.8,284.2l0.5-0.8c-9.8,0.2-24.6,4.6-16.2,26.3l0.5-0.8c-0.3-0.8-1-2.4-1.5-4.3c1.3,0.3,2.4,0.9,3.1,1.8
		l0.3-0.5c-0.7-0.9-1.8-1.5-3.2-1.8c-0.5-1.6-0.9-3.5-1-5.5c0.3,0,0.6,0.1,0.8,0.2c2.8,0.6,4.8,1.8,5.7,3.3l0.3-0.5
		c-0.9-1.5-2.9-2.8-5.7-3.5c-0.3-0.1-0.6-0.1-0.9-0.2c-0.1-2.2,0.2-4.5,1.4-6.3c0.1-0.1,0.1-0.2,0.2-0.3c4.1,1.4,7.1,3.6,7.8,5.9
		l0.2-0.4c-0.7-2.5-3.6-4.6-7.8-5.8c1.6-2.3,4.2-3.9,6.8-4.9c0.1,0.1,0.2,0.1,0.3,0.2c2.4,1.6,3.7,3.5,3.9,5.2l0.4-0.7
		c-0.3-1.6-1.8-3.3-4.1-4.9c-0.1,0-0.2-0.1-0.2-0.1c1.9-0.6,3.9-0.9,5.5-1c0.6,0.8,1,1.6,1.1,2.4l0.2-0.3c-0.1-0.8-0.4-1.6-0.9-2.3
		C-430.3,284.3-429.4,284.2-428.8,284.2z"/>
</g>
<g id="SPLINE_1536_">
	<circle class="st0" cx="-428.8" cy="285.1" r="0.5"/>
</g>
<g id="SPLINE_1535_">
	<circle class="st0" cx="-429.4" cy="253" r="1"/>
</g>
<g id="SPLINE_1534_">
	<circle class="st0" cx="-429.2" cy="267" r="0.5"/>
</g>
<g id="SPLINE_1533_">
	<circle class="st0" cx="-429.5" cy="289.4" r="1"/>
</g>
<g id="SPLINE_1532_">
	<circle class="st0" cx="-429.9" cy="302.9" r="1"/>
</g>
<g id="SPLINE_1531_">
	<circle class="st0" cx="-430.8" cy="318.3" r="1.9"/>
</g>
<g id="SPLINE_1530_">
	<circle class="st0" cx="-429.7" cy="259.5" r="0.5"/>
</g>
<g id="SPLINE_1529_">
	<circle class="st0" cx="-430.9" cy="263.1" r="1.5"/>
</g>
<g id="SPLINE_1528_">
	<circle class="st0" cx="-432.1" cy="344" r="2.9"/>
</g>
<g id="SPLINE_1527_">
	<circle class="st0" cx="-432.5" cy="383.4" r="3.3"/>
</g>
<g id="SPLINE_1526_">
	<circle class="st0" cx="-431.5" cy="295.1" r="1.5"/>
</g>
<g id="SPLINE_1525_">
	<circle class="st0" cx="-430.9" cy="300" r="0.5"/>
</g>
<g id="SPLINE_1524_">
	<circle class="st0" cx="-432.5" cy="268.1" r="1.5"/>
</g>
<g id="SPLINE_1523_">
	<circle class="st0" cx="-433.5" cy="365.5" r="2.5"/>
</g>
<g id="SPLINE_1522_">
	<circle class="st0" cx="-433" cy="255.9" r="1.5"/>
</g>
<g id="SPLINE_1521_">
	<circle class="st0" cx="-432.1" cy="305.1" r="0.5"/>
</g>
<g id="SPLINE_1520_">
	<circle class="st0" cx="-432.6" cy="286.4" r="1"/>
</g>
<g id="SPLINE_1519_">
	<circle class="st0" cx="-432.3" cy="249.9" r="0.5"/>
</g>
<g id="SPLINE_1518_">
	<circle class="st0" cx="-433" cy="360.5" r="1.1"/>
</g>
<g id="SPLINE_1517_">
	<circle class="st0" cx="-432.8" cy="288.8" r="0.5"/>
</g>
<g id="SPLINE_1516_">
	<circle class="st0" cx="-434" cy="302.2" r="1.5"/>
</g>
<g id="SPLINE_1515_">
	<circle class="st0" cx="-434.8" cy="392.2" r="2.2"/>
</g>
<g id="SPLINE_1514_">
	<circle class="st0" cx="-434.6" cy="250.1" r="1"/>
</g>
<g id="SPLINE_1513_">
	<circle class="st0" cx="-434.9" cy="272.9" r="0.9"/>
</g>
<g id="SPLINE_1512_">
	<circle class="st0" cx="-434.8" cy="306.4" r="0.5"/>
</g>
<g id="SPLINE_1511_">
	<circle class="st0" cx="-435.3" cy="323.2" r="1"/>
</g>
<g id="SPLINE_1510_">
	<circle class="st0" cx="-437" cy="336.8" r="2.2"/>
</g>
<g id="SPLINE_1509_">
	<path class="st0" d="M-435.3,275.2l-0.1-0.9c-0.7-0.5-2.1-1.4-3.7-2.7c1.3-0.5,2.5-0.6,3.5-0.3l0-0.5c-1.1-0.3-2.3-0.2-3.7,0.4
		c-1.3-1.1-2.8-2.4-3.9-3.9c0.3-0.1,0.5-0.2,0.8-0.3c2.7-1.1,5-1.3,6.6-0.5l0-0.6c-1.6-0.7-4-0.6-6.7,0.4c-0.3,0.1-0.5,0.2-0.8,0.3
		c-1.4-1.8-2.4-3.8-2.5-6c0-0.1,0-0.2,0-0.3c4.2-1.2,7.9-1.1,9.7,0.4l0-0.4c-2-1.6-5.6-1.7-9.8-0.3c0-2.9,1.2-5.6,2.8-7.9
		c0.1,0,0.3,0,0.4,0c2.9,0,5,0.7,6.2,2.1l0-0.8c-1.2-1.1-3.3-1.7-6.2-1.7c-0.1,0-0.2,0-0.3,0c1.3-1.6,2.7-2.9,3.9-4
		c1,0.3,1.7,0.7,2.3,1.3l0-0.4c-0.5-0.6-1.2-1-2.1-1.4c0.8-0.7,1.5-1.3,1.9-1.7l-0.1-1C-445,250.1-454.6,262.2-435.3,275.2z"/>
</g>
<g id="SPLINE_1508_">
	<circle class="st0" cx="-436.9" cy="268.7" r="1.2"/>
</g>
<g id="SPLINE_1507_">
	<circle class="st0" cx="-436.5" cy="246.1" r="0.5"/>
</g>
<g id="SPLINE_1506_">
	<circle class="st0" cx="-438.8" cy="373.8" r="3.3"/>
</g>
<g id="SPLINE_1505_">
	<circle class="st0" cx="-437.1" cy="293" r="1"/>
</g>
<g id="SPLINE_1504_">
	<circle class="st0" cx="-438.3" cy="263" r="1.9"/>
</g>
<g id="SPLINE_1503_">
	<circle class="st0" cx="-438.1" cy="289.2" r="1.9"/>
</g>
<g id="SPLINE_1502_">
	<circle class="st0" cx="-438" cy="330.7" r="1.7"/>
</g>
<g id="SPLINE_1501_">
	<circle class="st0" cx="-438.1" cy="305.4" r="1.5"/>
</g>
<g id="SPLINE_1500_">
	<circle class="st0" cx="-437.6" cy="251.4" r="0.5"/>
</g>
<g id="SPLINE_1499_">
	<circle class="st0" cx="-438.7" cy="257.4" r="1"/>
</g>
<g id="SPLINE_1498_">
	<circle class="st0" cx="-438.8" cy="249.4" r="1"/>
</g>
<g id="SPLINE_1497_">
	<circle class="st0" cx="-440" cy="297.9" r="1.9"/>
</g>
<g id="SPLINE_1496_">
	<circle class="st0" cx="-438.8" cy="270" r="0.5"/>
</g>
<g id="SPLINE_1495_">
	<circle class="st0" cx="-439.3" cy="387.1" r="1.1"/>
</g>
<g id="SPLINE_1494_">
	<circle class="st0" cx="-440" cy="267.7" r="0.9"/>
</g>
<g id="SPLINE_1493_">
	<circle class="st0" cx="-441.8" cy="254.8" r="1.9"/>
</g>
<g id="SPLINE_1492_">
	<circle class="st0" cx="-440.9" cy="334.6" r="1"/>
</g>
<g id="SPLINE_1491_">
	<circle class="st0" cx="-441.6" cy="380.9" r="1.1"/>
</g>
<g id="SPLINE_1490_">
	<circle class="st0" cx="-441.2" cy="294.3" r="0.5"/>
</g>
<g id="SPLINE_1489_">
	<circle class="st0" cx="-441.4" cy="260.8" r="0.5"/>
</g>
<g id="SPLINE_1488_">
	<circle class="st0" cx="-442.4" cy="344.1" r="1.7"/>
</g>
<g id="SPLINE_1487_">
	<circle class="st0" cx="-442.1" cy="303.3" r="1.2"/>
</g>
<g id="SPLINE_1486_">
	<circle class="st0" cx="-443.5" cy="363" r="2"/>
</g>
<g id="SPLINE_1485_">
	<circle class="st0" cx="-442.5" cy="290.3" r="0.5"/>
</g>
<g id="SPLINE_1484_">
	<circle class="st0" cx="-442.8" cy="308" r="0.9"/>
</g>
<g id="SPLINE_1483_">
	<circle class="st0" cx="-442.8" cy="264.7" r="0.5"/>
</g>
<g id="SPLINE_1482_">
	<circle class="st0" cx="-443.8" cy="293.4" r="1"/>
</g>
<g id="SPLINE_1481_">
	<circle class="st0" cx="-444" cy="261.5" r="1"/>
</g>
<g id="SPLINE_1480_">
	<circle class="st0" cx="-444.1" cy="300.8" r="0.9"/>
</g>
<g id="SPLINE_1479_">
	<circle class="st0" cx="-444.4" cy="303.3" r="0.5"/>
</g>
<g id="SPLINE_1478_">
	<circle class="st0" cx="-444.6" cy="296.7" r="0.5"/>
</g>
<g id="SPLINE_1477_">
	<circle class="st0" cx="-444.7" cy="258.2" r="0.5"/>
</g>
<g id="SPLINE_1476_">
	<path class="st0" d="M-453.8,348.8c16.1-27.2,5.2-40.2-20.1-46.9l0.8,1.9c0.9,0.2,2.1,0.5,3.6,0.9c-0.9,0.9-1.5,1.9-1.9,3l0.2,0.6
		c0.4-1,1.2-2,2.2-3c2.5,0.6,5.6,1.5,8.6,2.9c-0.2,0.1-0.3,0.2-0.5,0.2c-3.8,1.9-6.4,4.2-7.5,6.6l0.5,1.2c0.8-2.6,3.3-5.1,7.3-7.1
		c0.2-0.1,0.4-0.2,0.7-0.3c4,2.2,7.8,5.2,10,9.3c-6.9,1.2-12.1,3.9-13.8,7.7l0.3,0.8c1.7-3.5,7-6.2,14-7.5c0.1,0.3,0.3,0.6,0.4,0.9
		c1.3,3.2,1.2,6.7,0.4,10.1c-0.3,0-0.7,0-1,0.1c-4.9,0.5-8.6,2-10.4,4.5l0.4,1c1.6-2.6,5.2-4.3,10.2-4.7c0.3,0,0.6-0.1,1-0.1
		c-0.6,3.2-1.8,6.3-3,9c-2.3,0.3-4.2,1-5.5,2.2l0.3,0.8c1.3-1.2,3-2,5.3-2.2c-1.3,2.9-2.6,5.3-3.4,6.6L-453.8,348.8z"/>
</g>
<g id="SPLINE_1475_">
	<circle class="st0" cx="-450.2" cy="328.7" r="0.8"/>
</g>
<g id="SPLINE_1474_">
	<circle class="st0" cx="-451.2" cy="323.7" r="1.6"/>
</g>
<g id="SPLINE_1473_">
	<path class="st0" d="M-473.1,405.9c28.1-7.9,29.1-23.6,16.5-44.4l-0.7,1.8c0.5,0.7,1.1,1.7,1.8,2.9c-1.2,0.1-2.2,0.3-3.2,0.8
		l-0.2,0.5c0.9-0.4,2.1-0.6,3.4-0.6c1.3,2,2.8,4.6,4,7.5c-0.2-0.1-0.3-0.1-0.5-0.2c-3.8-1.2-7-1.3-9.2-0.4l-0.4,1.1
		c2.3-1.2,5.5-1.2,9.4-0.1c0.2,0.1,0.4,0.1,0.7,0.2c1.3,4,1.9,8.5,0.7,12.7c-5.3-3.6-10.6-5.1-14.1-3.7l-0.3,0.8
		c3.4-1.2,8.6,0.4,14.1,4c-0.1,0.3-0.2,0.6-0.3,0.8c-1.2,2.9-3.5,5.3-6.2,7.1c-0.2-0.2-0.5-0.4-0.7-0.6c-3.6-2.8-7-4.1-9.7-3.7
		l-0.4,1c2.7-0.7,6.2,0.5,9.8,3.4c0.2,0.2,0.5,0.4,0.7,0.6c-2.5,1.8-5.2,3.1-7.8,4.1c-1.7-1.3-3.4-2-5-2l-0.3,0.8
		c1.6,0,3.2,0.7,4.8,1.9c-2.6,1.1-4.9,1.8-6.3,2.2L-473.1,405.9z"/>
</g>
<g id="SPLINE_1472_">
	<circle class="st0" cx="-451" cy="333.5" r="0.8"/>
</g>
<g id="SPLINE_1471_">
	<circle class="st0" cx="-453.4" cy="377.8" r="1.5"/>
</g>
<g id="SPLINE_1470_">
	<circle class="st0" cx="-453.4" cy="381.8" r="0.8"/>
</g>
<g id="SPLINE_1469_">
	<circle class="st0" cx="-455.4" cy="337.1" r="2.5"/>
</g>
<g id="SPLINE_1468_">
	<circle class="st0" cx="-455.9" cy="328.5" r="2.5"/>
</g>
<g id="SPLINE_1467_">
	<circle class="st0" cx="-455.4" cy="390.7" r="1.5"/>
</g>
<g id="SPLINE_1466_">
	<circle class="st0" cx="-455.5" cy="371.7" r="0.8"/>
</g>
<g id="SPLINE_1465_">
	<circle class="st0" cx="-456.4" cy="345.8" r="1.5"/>
</g>
<g id="SPLINE_1464_">
	<circle class="st0" cx="-456" cy="322.3" r="0.8"/>
</g>
<g id="SPLINE_1463_">
	<circle class="st0" cx="-456.2" cy="315.3" r="0.8"/>
</g>
<g id="SPLINE_1462_">
	<path class="st0" d="M-455.8,349.5l-0.6-1.3c-1.4-0.3-4.1-1-7.2-2.1c1.7-1.5,3.5-2.3,5.2-2.4l-0.3-0.8c-1.8,0.2-3.7,1.1-5.4,2.6
		c-2.6-0.9-5.6-2.1-8.3-3.8c0.3-0.3,0.7-0.7,1-1c3.5-3.2,6.9-4.8,9.8-4.5l-0.4-0.9c-2.9-0.2-6.4,1.3-10.1,4.4
		c-0.4,0.3-0.7,0.6-1.1,1c-3.1-1.9-5.8-4.5-7.2-7.8c-0.1-0.2-0.1-0.4-0.2-0.5c5.8-4.2,11.5-6.2,15.2-4.9l-0.3-0.7
		c-3.9-1.4-9.6,0.5-15.2,5c-1.6-4.4-1.2-9.3-0.1-13.7c0.2-0.1,0.4-0.2,0.6-0.2c4.4-1.7,8.2-1.8,10.7-0.3l-0.5-1.3
		c-2.5-1.1-6.1-0.8-10.4,0.9c-0.1,0.1-0.3,0.1-0.4,0.2c1.1-3.1,2.5-6.1,3.8-8.3c1.7-0.1,3.1,0.2,4.2,0.8l-0.2-0.5
		c-1.1-0.6-2.5-0.9-4-0.9c0.8-1.6,1.5-2.8,2-3.7l-0.6-1.5C-484.8,316.3-492.8,340.3-455.8,349.5z"/>
</g>
<g id="SPLINE_1461_">
	<circle class="st0" cx="-457.7" cy="386.7" r="0.8"/>
</g>
<g id="SPLINE_1460_">
	<circle class="st0" cx="-457.9" cy="394.7" r="0.8"/>
</g>
<g id="SPLINE_1459_">
	<circle class="st0" cx="-458.7" cy="370.5" r="1.5"/>
</g>
<g id="SPLINE_1458_">
	<circle class="st0" cx="-459.2" cy="312.2" r="1.6"/>
</g>
<g id="SPLINE_1457_">
	<circle class="st0" cx="-460" cy="379.6" r="2.3"/>
</g>
<g id="SPLINE_1456_">
	<circle class="st0" cx="-459" cy="363.8" r="0.8"/>
</g>
<g id="SPLINE_1455_">
	<path class="st0" d="M-459.2,362.4l0.5-1.4c-14.6,3.1-35.3,14.1-16.5,43.9l0.5-1.3c-0.8-1.2-2.1-3.2-3.4-5.9c2,0.1,3.7,0.6,5,1.6
		l0.3-0.8c-1.3-1-3.1-1.6-5.2-1.7c-1.2-2.3-2.4-5-3.1-7.9c0.4,0,0.9,0,1.3,0c4.4,0.1,7.6,1.2,9.4,3.2l0.3-0.9
		c-1.8-2-5.1-3.2-9.5-3.4c-0.4,0-0.9,0-1.3,0c-0.9-3.3-1.1-6.8,0.2-9.9c0.1-0.2,0.1-0.3,0.2-0.5c6.5,0.9,11.6,3.2,13.3,6.4l0.2-0.6
		c-1.8-3.4-6.8-5.7-13.4-6.3c1.8-4,5.1-7,8.7-9.3c0.2,0.1,0.4,0.2,0.6,0.2c4,1.7,6.6,4,7.4,6.6l0.4-1.2c-1-2.3-3.6-4.4-7.6-6
		c-0.1-0.1-0.3-0.1-0.4-0.2c2.7-1.4,5.6-2.4,7.9-3.1c1.1,1,1.9,2.1,2.3,3.2l0.2-0.5c-0.4-1.1-1.1-2.2-2.1-3.2
		C-461.3,363-460,362.7-459.2,362.4z"/>
</g>
<g id="SPLINE_1454_">
	<circle class="st0" cx="-461.7" cy="390.9" r="2.3"/>
</g>
<g id="SPLINE_1453_">
	<circle class="st0" cx="-461.1" cy="326.3" r="1.6"/>
</g>
<g id="SPLINE_1452_">
	<circle class="st0" cx="-462" cy="340.4" r="1.9"/>
</g>
<g id="SPLINE_1451_">
	<circle class="st0" cx="-463.1" cy="318.5" r="2.5"/>
</g>
<g id="SPLINE_1450_">
	<circle class="st0" cx="-461.6" cy="397.4" r="0.8"/>
</g>
<g id="SPLINE_1449_">
	<circle class="st0" cx="-464.2" cy="366.9" r="1.5"/>
</g>
<g id="SPLINE_1448_">
	<circle class="st0" cx="-464.2" cy="386.6" r="1.5"/>
</g>
<g id="SPLINE_1447_">
	<circle class="st0" cx="-463.8" cy="370.5" r="0.8"/>
</g>
<g id="SPLINE_1446_">
	<circle class="st0" cx="-464.2" cy="343.5" r="0.8"/>
</g>
<g id="SPLINE_1445_">
	<circle class="st0" cx="-467.3" cy="332.4" r="3.1"/>
</g>
<g id="SPLINE_1444_">
	<circle class="st0" cx="-466.8" cy="397" r="2.3"/>
</g>
<g id="SPLINE_1443_">
	<circle class="st0" cx="-465.4" cy="309" r="0.8"/>
</g>
<g id="SPLINE_1442_">
	<circle class="st0" cx="-467.2" cy="340.7" r="1.5"/>
</g>
<g id="SPLINE_1441_">
	<circle class="st0" cx="-468.8" cy="310.5" r="1.6"/>
</g>
<g id="SPLINE_1440_">
	<circle class="st0" cx="-469" cy="378.1" r="1.5"/>
</g>
<g id="SPLINE_1439_">
	<circle class="st0" cx="-471.6" cy="372.7" r="2.9"/>
</g>
<g id="SPLINE_1438_">
	<circle class="st0" cx="-471.9" cy="386.2" r="2.9"/>
</g>
<g id="SPLINE_1437_">
	<circle class="st0" cx="-471.1" cy="324" r="1.6"/>
</g>
<g id="SPLINE_1436_">
	<circle class="st0" cx="-473.4" cy="395" r="1.8"/>
</g>
<g id="SPLINE_1435_">
	<circle class="st0" cx="-473.1" cy="402.2" r="1.4"/>
</g>
<g id="SPLINE_1434_">
	<circle class="st0" cx="-472.7" cy="314.2" r="0.8"/>
</g>
<g id="SPLINE_1433_">
	<circle class="st0" cx="-473.2" cy="330.8" r="0.8"/>
</g>
<g id="SPLINE_1432_">
	<circle class="st0" cx="-473.2" cy="337.5" r="0.8"/>
</g>
<g id="SPLINE_1431_">
	<circle class="st0" cx="-473.9" cy="305.5" r="0.8"/>
</g>
<g id="SPLINE_1430_">
	<circle class="st0" cx="-474.8" cy="381.3" r="0.8"/>
</g>
<g id="SPLINE_1429_">
	<circle class="st0" cx="-475.7" cy="311.8" r="1.6"/>
</g>
<g id="SPLINE_1428_">
	<circle class="st0" cx="-477.2" cy="321.7" r="3.1"/>
</g>
<g id="SPLINE_1427_">
	<circle class="st0" cx="-476.9" cy="333.3" r="1.6"/>
</g>
<g id="SPLINE_1426_">
	<circle class="st0" cx="-477.1" cy="391.8" r="1.4"/>
</g>
<g id="SPLINE_1425_">
	<circle class="st0" cx="-476.9" cy="395.6" r="0.8"/>
</g>
<g id="SPLINE_1424_">
	<circle class="st0" cx="-477.8" cy="375.6" r="0.8"/>
</g>
<g id="SPLINE_1423_">
	<circle class="st0" cx="-478.8" cy="380.6" r="1.5"/>
</g>
<g id="SPLINE_1422_">
	<circle class="st0" cx="-479.1" cy="385.8" r="0.8"/>
</g>
<g id="SPLINE_1421_">
	<circle class="st0" cx="-479.8" cy="328.6" r="0.8"/>
</g>
</svg>
