<?xml version="1.0" encoding="utf-8"?>
<!-- Generator: Adobe Illustrator 19.1.0, SVG Export Plug-In . SVG Version: 6.00 Build 0)  -->
<!DOCTYPE svg PUBLIC "-//W3C//DTD SVG 1.1//EN" "http://www.w3.org/Graphics/SVG/1.1/DTD/svg11.dtd">
<svg version="1.1" id="Layer_1" xmlns="http://www.w3.org/2000/svg" xmlns:xlink="http://www.w3.org/1999/xlink" x="0px" y="0px"
	 viewBox="-488 239.4 102.4 170.6" style="enable-background:new -488 239.4 102.4 170.6;" xml:space="preserve">
<style type="text/css">
	.st0{fill:#FFFFFF;stroke:#BABABA;stroke-width:0.1;stroke-linecap:round;stroke-linejoin:round;stroke-miterlimit:10;}
	.st1{fill:#FFFFFF;}
	.st2{fill:#BABABA;}
</style>
<path class="st0" d="M-441.3,370.5c0,1.6,0,3.2,0,4.8c0,1.1,0.2,1.4,1.1,1.1c3.6-1.3,7-7.6,6.7-12.4c-0.1-1.3-0.5-1.9-1.5-1.8
	c-1.2,0.2-2.3,0.3-3.5,0.6c-2.8,0.8-2.9,0.9-2.9,4.6C-441.3,368.4-441.3,369.5-441.3,370.5C-441.3,370.5-441.3,370.5-441.3,370.5z"
	/>
<path class="st0" d="M-448.6,375.2C-448.6,375.2-448.6,375.2-448.6,375.2c0-3.1,0-6.1,0-9.2c0-1.3-0.3-2.1-1.3-2.3
	c-2.7-0.6-5.3-0.3-7.8,1.6c-0.9,0.7-1.2,1.5-0.9,2.9c0.8,3.1,1.5,6.3,2.6,9.2c1.3,3.4,2.9,6.6,5.6,8.5c1.3,0.9,1.7,0.7,1.7-1.3
	C-448.5,381.5-448.6,378.3-448.6,375.2z"/>
<path class="st0" d="M-428,371.6c-1,1.6-1.6,3.4-1.9,5.5c-0.7,5.6,0.1,11.1,0.1,16.9c0.9-0.6,1.1-1.5,1.5-2.3
	c2.5-5.8,3-12.1,2.5-18.6C-426.1,370.4-426.2,370.4-428,371.6C-428,371.6-428,371.6-428,371.6C-428,371.6-428,371.6-428,371.6
	c0.1-0.3,0.2-0.7,0.4-0.9c2.4-2,1.9-5.1,1.6-8c-0.1-0.7-0.3-1.6-0.9-0.7c-1.4,1.9-2.8,3.8-3.2,6.5
	C-430.6,371.6-430.3,372.1-428,371.6C-428.1,371.6-428.1,371.6-428,371.6C-428.1,371.6-428.1,371.6-428,371.6z"/>
<path class="st0" d="M-389.5,257c0.2-1.5-0.2-2.9-0.4-4.3c-0.1-0.7-0.1-1.6-0.7-1.8c-0.6-0.2-1,0.5-1.4,1.1
	c-2.6,4.1-2.8,8.8-1.9,13.8c0.1,0.7,0.2,1.6,0.8,1.8c0.7,0.2,1.2-0.6,1.6-1.4C-389.9,263.3-389.5,260.2-389.5,257z"/>
<path class="st0" d="M-389.4,393.2c-0.1-1.8-0.2-3.6-0.5-5.4c-0.1-0.6-0.1-1.6-1-1.2c-1.1,0.6-2.1,1.3-2.4,3.1
	c-0.6,3.8-0.3,7.4,0.7,11c0.4,1.3,0.9,2.5,1.7,3.4c0.6,0.6,1,0.7,1-0.6C-389.8,400.1-389.7,396.7-389.4,393.2z"/>
<path class="st0" d="M-389.7,349.4c0-1.8,0-3.6,0-5.5c0,0,0,0,0,0c0-2,0-3.9,0-5.9c0-1.1-0.3-1.8-1.1-2.2c-0.9-0.4-1.8-0.9-2.6-1.3
	c-0.8-0.4-1.2-0.2-1.2,1c0,3.7-0.2,7.4,0.7,11c0.4,1.7,1.1,3.2,2.3,4.2C-390.3,351.9-389.7,351.5-389.7,349.4z"/>
<path class="st0" d="M-389.7,318.3c0-0.7,0-1.3,0-2c0-0.9-0.2-1.4-1-1.1c-5.6,2.3-8,7.9-7.1,14.9c0.1,1.1,0.6,1.3,1.4,1.1
	c2.5-0.7,4.4-2.6,5.4-5.6C-390.1,323.4-389.7,320.9-389.7,318.3z"/>
<path class="st0" d="M-391,334.6c0.6,0.3,1.3,0.3,1.2-0.7c-0.1-1.4,0.9-2.9-0.2-4.1c-0.1-0.1-0.2-0.1-0.3,0c-1.2,1.1-3,1.2-4,3.1
	C-393.2,333.5-392.1,334.1-391,334.6z"/>
<path class="st0" d="M-390.6,277c0.4,0.3,0.8,0.5,0.8-0.3c-0.2-3.2,0.9-6.5-0.3-10.1c-0.7,1.3-1.2,2.2-1.7,3.2
	C-393.2,272.5-392.7,275.3-390.6,277z"/>
<path class="st0" d="M-394.8,389.7c1.7-6.2,5-11.7,4.9-18.9C-395.1,379.1-396.9,386-394.8,389.7z"/>
<path class="st0" d="M-390.2,312.9c0.6-0.8,0.5-1.7-0.2-2.2c-0.7-0.5-1.6-1.7-2.3-0.3c-0.7,1.4-1.2,3.1-1.9,5.1
	C-392.7,315-391.3,314.3-390.2,312.9z"/>
<path class="st0" d="M-394.6,376c4-4.6,6-13.2,4.3-19.2C-392.1,363.3-394.8,369-394.6,376z"/>
<path class="st0" d="M-391.8,301.7c0.1-0.5,0-1-0.4-1.3c-0.4-0.3-0.8,0.1-1.1,0.4c-1.4,1.3-2.1,3.2-2.8,5.1
	c-0.9,2.3-0.9,2.3,1.2,2.3c0.6-0.2,1.7,0.5,2-0.7C-392.4,305.6-392.2,303.6-391.8,301.7z"/>
<path class="st0" d="M-392.5,354.6c0-0.6,0.1-1.3-0.6-1.2c-1.4,0.2-2.8,0.9-4.1,1.8c-0.9,0.6-0.3,2.1-0.4,3c0,1,0,1.8,0,2.6
	c0,0.5,0.1,1,0.7,0.8C-395.5,361.2-392.5,356.5-392.5,354.6z"/>
<path class="st0" d="M-394.2,254.1c1.3-2.9,1.8-6,1.7-9.3c0-0.7-0.4-1-0.9-1c-0.5,0-1.1,0.1-1.1,0.9
	C-394.6,247.9-394.8,251-394.2,254.1z"/>
<path class="st0" d="M-392.8,291.3c-0.2-1.1-0.3-2.5-0.6-3.8c-0.1-0.8-0.3-1.7-1-1.9c-0.8-0.2-1,1-1.3,1.7
	c-1.4,3.4-1.5,7.1-1.8,10.8c-0.1,0.8-0.3,1.7,0.3,2.2c0.7,0.6,1.4-0.1,2-0.7C-393.3,297.6-393.1,294.6-392.8,291.3z"/>
<path class="st0" d="M-393.9,402.1c-0.5-2.8-0.8-5.3-1.6-7.7c-0.3-0.9-0.6-1.9-1.3-2.5c-0.4-0.4-0.7-0.5-0.8,0.3
	C-397.9,395.4-397.5,400.6-393.9,402.1z"/>
<path class="st0" d="M-395.1,269c0.5-0.4,0.3-1.2,0.3-1.8c-0.2-5.2-2.9-8.7-5.1-12.5c-0.5-0.8-0.8-0.3-0.9,0.3
	c-0.1,0.5-0.1,1-0.1,1.6c0.3,4.6,1.8,8.5,4.6,11.5C-396,268.6-395.7,269.5-395.1,269z"/>
<path class="st0" d="M-395,347.9c0.4-1-0.1-2-0.3-2.9c-0.1-0.6-0.3-1.1-0.5-1.6c-0.3-0.7-0.6-2-1.3-1.8c-0.8,0.2-0.2,1.5-0.4,2.2
	c0,0.5,0,1,0,1.4c-0.1,1.7,1,2.1,1.8,2.8C-395.5,348.2-395.2,348.3-395,347.9z"/>
<path class="st0" d="M-397,380c1.2-6.5,2.4-12.9,3.7-19.6c-3.1,2.2-4.9,5.2-4.7,9.9C-397.8,373.5-397.4,376.7-397,380z"/>
<path class="st0" d="M-395.4,259.3c0.4-0.3,0.2-0.9,0.2-1.5c-0.2-2.5-0.8-4.8-2.3-6.7c-0.4-0.5-0.9-1.2-1.6-0.7
	c-0.7,0.4-0.6,1.3-0.6,2.1c0,0.8,0.2,1.5,0.5,2.2c0.7,1.6,1.8,2.8,2.8,4C-396,259-395.8,259.6-395.4,259.3z"/>
<path class="st0" d="M-397.5,281.9c1.2-1.5,1.8-7.2,1-9c-0.2-0.4-0.4-0.9-0.9-0.8c-0.4,0.1-0.5,0.6-0.6,1c-0.3,1.8-0.7,3.7-0.7,5.6
	c0,1-0.1,2,0.3,3C-398.1,282.2-397.9,282.5-397.5,281.9z"/>
<path class="st0" d="M-399.7,274.7c0.4-1.9,1.7-3.8,1-5.6c-0.7-1.9-2-3.4-3.1-5C-401.7,267.8-401.1,271.4-399.7,274.7z"/>
<path class="st0" d="M-399.5,285.1c0.2-2.6-0.3-5.1-0.8-7.5c-0.8-3.8-2-7.4-4.2-10.2c-0.3-0.4-0.7-1-1.1-0.7c-0.5,0.2-0.4,1-0.4,1.5
	c-0.1,6.5,1.3,12.5,4.1,17.9c0.6,1.1,1,3.1,2,2.8C-399.1,288.4-399.6,286.3-399.5,285.1z"/>
<path class="st0" d="M-403.1,327.9c1.1-1.3,1.3-2.9,0.8-4.5c-0.5-1.7-1.8-1.1-2.8-0.9c-3.8,0.6-3.8,0.7-3.9,5.7c0,1.2,0,2.3,0,3.5
	c0,0.7,0.1,1.4,0.5,1.8c0.5,0.4,0.9-0.3,1.3-0.7C-405.8,331.1-404.5,329.4-403.1,327.9z"/>
<path class="st0" d="M-402.5,392.7c0-2.5,0.1-4.3,0-6.1c0-1.2,0.5-2.9-0.6-3.3c-1-0.4-1.7,1.1-2.3,2.1c-0.3,0.5-0.5,1.1-0.7,1.7
	c-0.2,0.6-0.2,1.1,0.2,1.6C-405,389.8-403.9,391-402.5,392.7z"/>
<path class="st0" d="M-407.2,309c3.4-1.3,4.8-3.5,4.7-7.5c0-1.5-0.5-1.5-1.3-1C-405.9,302-407.4,305.9-407.2,309z"/>
<path class="st0" d="M-402.5,355.1c0-1.8,0-3.1,0-4.3c0-0.6,0-1.3-0.4-1.6c-0.5-0.4-0.8,0.3-1.1,0.6c-0.7,0.6-1.4,1.2-2.1,1.8
	c-2.9,2.5-2.9,3.1,0.1,5.3C-402.6,359.7-402.6,359.7-402.5,355.1z"/>
<path class="st0" d="M-402.5,403.9c0-0.6,0-1.2,0-1.7c0-0.5,0.2-1.3-0.3-1.5c-0.4-0.2-0.7,0.3-1,0.6c-1.2,1.3-2.3,2.7-3.2,4.4
	c-0.2,0.4-0.6,1.1,0,1.2c1.4,0.2,2.8,0.6,4.1-0.2C-402.1,406.2-402.7,404.8-402.5,403.9z"/>
<g>
	<path class="st1" d="M-404.2,381.5c-0.4,0-0.5-0.6-0.5-1.1c-0.1-3,0.6-5.9,2.1-8.5l0.1,2.1c0,1.7,0,3.4,0,5.1
		c0,1.1-0.5,1.6-1.1,2.1C-403.8,381.4-404,381.5-404.2,381.5L-404.2,381.5z"/>
	<path class="st2" d="M-402.6,371.9L-402.6,371.9 M-402.6,371.9c0,2.4,0,4.8,0,7.1c0,1-0.5,1.6-1,2c-0.2,0.2-0.4,0.3-0.6,0.3
		c-0.3,0-0.4-0.3-0.5-1C-404.8,377.2-404,374.5-402.6,371.9 M-402.6,371.8C-402.6,371.8-402.6,371.8-402.6,371.8
		C-402.6,371.8-402.6,371.8-402.6,371.8C-402.6,371.8-402.6,371.8-402.6,371.8C-402.6,371.8-402.6,371.8-402.6,371.8
		C-402.6,371.9-402.6,371.9-402.6,371.8C-402.6,371.9-402.6,371.9-402.6,371.8C-402.6,371.9-402.6,371.9-402.6,371.8
		C-402.7,371.9-402.7,371.9-402.6,371.8c-1.6,2.7-2.3,5.5-2.2,8.6c0,0.5,0.1,1.1,0.6,1.1c0.2,0,0.4-0.1,0.7-0.3
		c0.6-0.5,1.1-1,1.1-2.1c0-1.7,0-3.4,0-5.1c0-0.7,0-1.4,0-2c0,0,0,0,0,0C-402.5,371.9-402.5,371.8-402.6,371.8L-402.6,371.8
		C-402.6,371.8-402.6,371.8-402.6,371.8L-402.6,371.8z"/>
</g>
<path class="st0" d="M-402.6,257.7c0-3.2,0-6.4,0-9.7c-0.1,0-0.3-0.1-0.4-0.1c-0.4,1-0.9,2-1.3,3
	C-405.6,253.9-405.1,256.1-402.6,257.7z"/>
<path class="st0" d="M-403.3,319.9c1-0.3,0.8-1.5,0.7-2.3c-0.1-1.2-0.8-0.9-1.4-0.6c-1.5,0.6-2.7,1.5-3.7,3.7
	C-406,320.6-404.7,320.3-403.3,319.9z"/>
<path class="st0" d="M-402.7,365.7c1.3-3-0.2-5.4-2.8-6.2c-1.9-0.5-3.8-0.4-5.7-0.4c-0.6,0-1.1,0.2-1.2,1.2
	c-0.1,1.2-0.3,2.3-0.3,3.5c0.2,7.7,3.4,14,5.3,21c0.3-0.3,0.4-0.3,0.4-0.4c0.1-0.3,0.2-0.5,0.2-0.8
	C-405.7,377.5-405.2,371.3-402.7,365.7z"/>
<path class="st0" d="M-406.3,350.3c1.4-0.2,3.5-3.4,3.5-5.1c0-1.1-0.5-1.7-1.2-2.2c-0.4-0.3-0.7-0.1-0.8,0.4c-0.4,2.2-1.3,4-1.9,6
	C-406.9,349.9-407,350.4-406.3,350.3z"/>
<path class="st0" d="M-403,245.5c0.4-1,0.2-1.7-0.9-1.8c-1.3-0.1-2,0.3-1.9,2.3c0.1,1.5,0,3,0,4.6c0.1,0,0.2,0.1,0.3,0.1
	C-404.6,249-403.7,247.3-403,245.5z"/>
<path class="st0" d="M-404.3,292.1c0.5-0.2,1.4-0.3,1.3-1.3c-0.1-1.2-0.5-2.4-1.2-3.3c-0.2-0.3-0.6-0.2-0.8,0.1
	c-1.1,2-3.5,2.7-3.7,6C-407.1,293.1-405.7,292.6-404.3,292.1z"/>
<path class="st0" d="M-406.1,401.6c1-1.8,3.5-2.5,3-5.1c-0.4-2.2-2.3-3.5-3.5-5.1c-0.1-0.1-0.2-0.2-0.3-0.3
	c-0.5-0.6-0.9-0.5-1.1,0.4c-0.9,3.4-2.2,6.7-2,10.5c0,0.6,0,1.2,0,1.7c0,0.5-0.2,1.3,0.4,1.6c0.5,0.2,0.8-0.4,1.1-0.7
	C-407.7,403.6-406.8,402.7-406.1,401.6z"/>
<path class="st0" d="M-403.5,265.9c0.8-0.2,0.3-1.9,0.2-2.9c-0.1-0.8-0.3-1.6-0.5-2.3c-0.3-1.1-0.8-2.7-1.5-2.6
	c-0.9,0.2-0.2,1.8-0.4,2.5c0,1.1-0.1,2,0,2.7C-405.4,264.7-404.5,266.1-403.5,265.9z"/>
<path class="st0" d="M-404.2,298.1c1.1-2.2,1.1-2.1-0.7-3.4c-1.3-0.9-1.7,0.1-2.1,1.3c-0.4,1.3-0.7,2.7-0.7,4.2c0,0.4,0,0.7,0,1.1
	c0.1,0.6,0.1,1.3,0.5,1.5c0.5,0.2,0.7-0.6,0.9-1C-405.5,300.6-404.8,299.3-404.2,298.1z"/>
<path class="st0" d="M-405.7,342.6c0.2-0.8-0.1-1.4-0.5-1.9c-1.6-2-3.7-1.5-5.1,1.3c-1.6,3.1-1.9,6.6-2.2,10.2
	c0.1,1.2-0.1,2.9,0.8,3.3c0.9,0.5,1.7-0.8,2.4-1.6c0.1-0.1,0.2-0.3,0.4-0.5C-407.8,350.3-406.7,346.4-405.7,342.6z"/>
<path class="st0" d="M-408.1,318.9c1.2-0.7,2.4-4.2,2.2-5.8c-0.1-0.8-0.5-0.9-1.1-0.8c-0.8,0.3-1.9,0.3-2.2,1.7
	c-0.4,1.6-0.2,3.3,0.3,4.9C-408.8,319.4-408.4,319.1-408.1,318.9z"/>
<path class="st0" d="M-406.3,282.3c0.3-0.4,0.5-0.9,0.2-1.4c-1-2.4-1.4-5.1-2.5-7.3c-0.7-1.4-1.2-1.1-1.6,0.3
	c-0.7,2.3-0.9,4.6-0.9,7.1c0,0.4,0,0.7,0,1.1c0.1,1.2-0.4,2.8,0.6,3.4c1,0.5,2-0.5,2.9-1.3C-407.1,283.6-406.7,283-406.3,282.3z"/>
<path class="st0" d="M-406.9,249.5c0-1.2,0-2.3,0-3.5c-0.1-1.9-1.9-3.1-3.2-2.2c-0.3,0.2-0.3,0.6-0.2,0.9c0.9,2,1.7,4,3.2,5.8
	C-407,250-406.9,249.8-406.9,249.5z"/>
<path class="st0" d="M-406.9,263c0-7.2-1.7-12.9-4.8-18c-0.8-1.2-1.7-1.4-2.7-1.1c-1.1,0.3-0.7,1.6-0.7,2.5c-0.1,1.7,0.1,3.3,0.4,5
	c0.9,6.4,3.4,11.6,6.3,16.6c0.2,0.3,0.4,0.8,0.8,0.6c0.4-0.2,0.3-0.7,0.3-1.1C-407.1,265.8-407,264-406.9,263z"/>
<path class="st0" d="M-409,309.9c1.1-2.2,1.5-4.4,0.3-7.4c-0.9,2.5-1.3,4.6-1.6,6.8c-0.1,0.5-0.3,1.1,0.2,1.4
	C-409.6,310.9-409.3,310.4-409,309.9z"/>
<path class="st0" d="M-408.7,288.6c0.1-0.7,0.4-1.8-0.2-2.2c-0.6-0.4-1.1,0.6-1.4,1.2c-1.1,2-1.4,4.5-2.1,7.3
	C-410.3,293.1-409.2,291.1-408.7,288.6z"/>
<path class="st0" d="M-410.6,394.4c2.1-6.2,2.4-5.5-0.4-9.4c-0.3-0.5-0.7-1.4-1.3-0.9c-0.6,0.4-0.4,1.3-0.3,2
	C-412.4,389-411.5,391.7-410.6,394.4z"/>
<path class="st0" d="M-410.6,326.4c-0.2-0.6,0.4-1.7-0.4-2.1c-0.6-0.3-1.2,0.6-1.7,1.1c-2.2,2.4-3.2,5.7-3.7,9.3
	c-0.2,1.1,0.2,1.5,1,1.1c1.5-0.6,2.7-2.1,4-3c0.2-0.1,0.3-0.6,0.3-0.9C-410.8,330.1-410.7,328.4-410.6,326.4z"/>
<path class="st0" d="M-411.6,310.5c1.5-3.8,1.2-7.8,0.8-11.8c-0.1-0.8,0-1.8-0.7-2.3c-2.1,2.6-3.7,8.1-3.6,11.6c0,1,0.2,1.9,0.7,2.7
	C-413.4,312.7-412.5,312.7-411.6,310.5z"/>
<path class="st0" d="M-409.9,382.3c-0.8-3.4-1.1-6.8-3-9.9C-413.3,377.1-412.1,381-409.9,382.3z"/>
<path class="st0" d="M-410.9,335.8c0-0.4,0.1-0.9-0.2-1.2c-0.4-0.3-0.6,0.2-0.9,0.4c-0.9,0.7-1.8,1.3-2.7,2
	c-0.4,0.3-0.8,0.7-0.4,1.4c0.3,0.6,0.5,1.4,1.2,1.4C-412.9,339.9-411,337.3-410.9,335.8z"/>
<path class="st0" d="M-411.8,321.6c1-0.2,1.2-0.7,0.8-1.9c-1-3.1-1.9-3.5-4-1.8c-0.7,0.6-1.4,1.1-2.1,1.8c-0.9,0.8-1.9,1.5-2.6,3.3
	C-416.9,322.4-414.3,322-411.8,321.6z"/>
<path class="st0" d="M-412,268.7c0.8-0.5,0.6-1.3,0.3-2.1c-0.4-1.2-0.6-2.7-1.8-3.2c-0.1,0-0.4,0.1-0.4,0.2
	c-0.9,2.7-2.5,4.9-3.4,8.2C-415.3,270.7-413.6,269.7-412,268.7z"/>
<path class="st0" d="M-413.5,287.4c1-1.4,1.7-3.1,1.6-5.1c-0.1-2-0.5-2.3-1.8-1.2c-0.6,0.5-1.1,1.1-1.7,1.3c-2.3,0.7-2.8,2.7-2.5,6
	c0.1,0.4-0.5,1.9,0.4,2.4c0.7,0.5,1.4-0.6,2.1-1.2C-414.9,288.9-414.1,288.2-413.5,287.4z"/>
<path class="st0" d="M-412.6,291.4c0.5-1.8-0.2-1.8-1.2-1.5c-2.9,0.9-5.1,4.5-5.3,9.2c0,0.5-0.1,1.2,0.6,1.4
	c0.8,0.2,3.9-1.7,4.2-2.7C-413.7,295.7-413.2,293.5-412.6,291.4z"/>
<path class="st0" d="M-412.6,406.1c1.5-3.2,1.4-9.9,0-12.6C-412.6,397.6-412.6,401.6-412.6,406.1z"/>
<path class="st0" d="M-413.2,279c0.2-0.3,0.4-0.6,0.3-0.9c-0.2-0.5-0.6-0.4-1.1-0.4c-1.1,0.3-2.3,0.9-3.4,1.8
	c-0.6,0.4-0.6,1.5-0.6,2.4c0,0.1,0.4,0.3,0.5,0.2C-415.9,281.2-414.3,280.7-413.2,279z"/>
<path class="st0" d="M-414.7,262.5c0.2-0.7,0.1-1.4-0.2-2.1c-0.8-1.9-1.6-3.8-2.5-5.7c-1.2-2.4-1.6-2.3-2.8,0
	c-2.8,5.2-4.1,10.9-4.2,17.8c0,0.3,0.2,1.1,0.2,2c0,2.1,0.6,2.2,1.9,1.2C-418.4,272.7-416.1,268.1-414.7,262.5z"/>
<path class="st0" d="M-415.3,302.4c0.2-1.5-0.2-1.8-1-1.3c-0.5,0.3-1,0.5-1.6,0.7c-1,0.4-1.5,1-0.5,2.2c0.7,0.8,0.8,2.9,1.7,2.6
	c0.8-0.2,0.8-2.2,1.1-3.3C-415.4,302.9-415.4,302.4-415.3,302.4z"/>
<path class="st0" d="M-415.5,253.2c-0.7-2.8-0.3-5.2-0.7-7.5c-0.1-0.8-0.1-1.7-0.9-1.8c-1-0.1-2.1-0.4-3.1,0.3
	c-0.4,0.3-0.2,0.9-0.1,1.4C-419.6,248.8-418.1,251.2-415.5,253.2z"/>
<path class="st0" d="M-420.5,353.1c3.6-1.8,5.7-7.8,4.4-12.4c-0.3-1.1-0.7-1.8-1.6-0.5c-0.8,1.1-1.6,2.3-2.6,3.1
	c-1.7,1.3-2.3,3.1-1.9,5.5c0,1-0.1,2,0,3C-422,353.1-421.5,353.6-420.5,353.1z"/>
<path class="st0" d="M-416.2,327.7c0.1-2.7-0.1-3-1.8-2.4c-2.5,0.8-2.5,0.8-1.3,3.8c0.4,0.9,0.8,1.8,1.2,2.6
	c0.5,0.9,0.8,0.8,1.2-0.2C-416.5,330.2-416.2,328.8-416.2,327.7z"/>
<path class="st0" d="M-419.9,379.2c1.7-3.8,3.5-13,3.2-16.8c-0.3-2.9-1-5.4-3.2-6.7c-0.8-0.5-1.1-0.3-1.2,0.8
	c-0.4,4.6-0.9,9.1-0.6,13.7C-421.5,373.3-421.4,376.4-419.9,379.2z"/>
<path class="st0" d="M-418.3,403.6c1.2-0.2,1.7-1.3,1.6-3c-0.1-0.8-0.2-1.8-0.3-2.8c-0.1-1-0.5-1-1-0.5c-1,0.9-2.1,1.7-2.9,2.9
	c-0.7,1.1-0.9,2.5-0.4,3.6c0.5,1.1,1.3,0.1,2,0C-419,403.8-418.7,403.6-418.3,403.6z"/>
<path class="st0" d="M-417.7,383.8c0.4,0.5,1,0.6,1-0.3c-0.1-3.3,0.9-6.6-0.3-10.4c-1.1,3-1.5,5.6-1.5,8.3
	C-418.4,382.3-418.2,383.2-417.7,383.8z"/>
<path class="st0" d="M-416.9,392.3c0.3-4.6-1.9-7.6-4.2-11.1c0,5.4,0,10.3,0,15.2c0,0.6,0,1.4,0.8,1.2
	C-418.8,397.3-417,394.4-416.9,392.3z"/>
<path class="st0" d="M-417.8,311.8c0.9-2.8,0-4.7-1.3-6.6c-0.8-1.1-1.3-0.8-1.7,0.5c-1,3.3-1.5,6.7-1.6,10.2c0,0.6,0,1.2,0,1.7
	c0.1,0.6,0.1,1.5,0.5,1.7c0.6,0.3,0.8-0.5,1.2-1C-419.3,316.5-418.6,314.2-417.8,311.8z"/>
<path class="st0" d="M-418.6,288.2c-0.1-0.6-0.1-1.3-0.2-1.9c-0.1-0.4-0.3-0.7-0.8-0.5c-1.6,0.9-3.5,5.8-3.2,8.1
	c0.2,1.4,0.8,1.3,1.4,0.8C-419.5,293.4-418.8,291-418.6,288.2z"/>
<g>
	<path class="st1" d="M-422.6,283C-422.6,283-422.6,283-422.6,283c-0.2-4.5,2.7-9,7-10.7c-1.1,3-2.7,5.1-4.4,7.2
		C-420.9,280.6-421.7,281.8-422.6,283C-422.5,283-422.6,283-422.6,283C-422.6,283-422.6,283-422.6,283z"/>
	<path class="st2" d="M-415.6,272.4L-415.6,272.4 M-415.6,272.4c-1.7,4.4-4.6,7-7,10.6C-422.8,278.5-419.9,274-415.6,272.4
		 M-415.6,272.3C-415.6,272.3-415.6,272.3-415.6,272.3C-415.6,272.3-415.6,272.3-415.6,272.3c-4.3,1.7-7.3,6.2-7.1,10.7
		c0,0,0,0.1,0.1,0.1c0,0,0,0,0,0c0,0,0.1,0,0.1,0c0.8-1.2,1.7-2.4,2.5-3.5c1.6-2.1,3.3-4.2,4.4-7.1c0,0,0,0,0,0
		C-415.5,272.3-415.6,272.3-415.6,272.3L-415.6,272.3C-415.6,272.3-415.6,272.3-415.6,272.3L-415.6,272.3z"/>
</g>
<path class="st0" d="M-418.8,338.5c1-2.8-0.2-8.7-2-10.7c-0.8-0.8-0.9-0.3-1,0.6c-0.3,2.3-0.3,4.6-0.3,7c0,1.2,0,2.3,0,3.5
	c0,0.9-0.3,2.2,0.5,2.5c0.8,0.3,1.6-0.6,2.1-1.4C-419.2,339.6-419,339.1-418.8,338.5z"/>
<path class="st0" d="M-422.5,287.6c1.3-0.3,3.4-4.9,3.2-6.8c-0.8,0.9-1.6,1.8-2.4,2.6c-0.7,0.8-1.3,1.6-1.6,2.8
	C-423.4,287-423.4,287.8-422.5,287.6z"/>
<path class="st0" d="M-422.8,306.4c1.9-1.9,3.3-7.4,3-11.9c-1,1-2.4,1.7-2.6,3.3C-422.7,300.5-423,303.4-422.8,306.4z"/>
<path class="st0" d="M-420.1,253c0.5-1.2-0.2-4.1-1.1-4.8c-0.5-0.4-0.8,0.1-0.9,0.5c-1.1,3.1-2,6.2-2.1,10
	C-422.2,257.1-421,255.2-420.1,253z"/>
<path class="st0" d="M-425.3,294.6c1.2-0.9,1.9-4.2,1.1-5.8c-0.3-0.6-0.6-1.1-1.2-0.3c-0.8,1.2-1.3,2.5-1.5,3.9
	c0,0.9,0.2,1.7,0.7,2.3C-425.9,294.9-425.6,294.8-425.3,294.6z"/>
<path class="st0" d="M-424.7,315.8c0.1-2.8,0.5-5.7,0.4-8.5c0-2.5,0.2-5-0.6-7.3c-0.2-0.6-0.4-1.3-0.9-1.5c-0.6-0.2-0.8,0.7-1,1.2
	c-1.1,2.1-2.1,4.2-2.8,6.4c-0.2,0.7-0.5,1.3-0.2,2.1c1.1,3,2.4,5.8,4.2,8.1c0.2,0.3,0.4,0.6,0.7,0.4
	C-424.7,316.6-424.7,316.1-424.7,315.8z"/>
<path class="st0" d="M-425.1,252.5c0.1-0.9-0.2-1.8-0.4-2.7c-0.1-0.7-0.5-1.1-1.1-1.1c-0.6,0-0.9,0.4-1.1,1.1
	c-0.4,2.3-0.8,4.5-1.2,6.8c-0.1,0.7-0.1,1.3,0.8,1C-426.4,257.1-425.1,254.9-425.1,252.5z"/>
<path class="st0" d="M-425.7,347.6c0.2-5.6,0.9-11.3,0.3-16.9c-0.2-1.5-0.7-1.8-1.7-0.9c-2.1,1.9-2.5,4.8-2.5,8.8
	c-0.1,2.9,0.9,6.3,2.8,9.3c0.2,0.3,0.5,0.7,0.8,0.6C-425.7,348.4-425.7,347.9-425.7,347.6z"/>
<path class="st0" d="M-427.7,358.7c1.6-0.7,2-1.8,1.9-3.8c-0.2-4.1-2.4-6.7-4-9.8c-0.6,0.6-0.5,1.3-0.5,1.9c0,3.1,0,6.3,0,9.4
	C-430.2,359.5-430.6,359.9-427.7,358.7z"/>
<path class="st0" d="M-425.8,401.9c0.1-1,0.3-2.3-0.6-3c-0.9-0.7-1.7,0-2.5,0.6c-1.3,0.9-1.6,2.3-1.4,4c0,0.7,0,1.4,0,2
	c0,0.8,0.4,1.1,1,1C-427.6,406.2-425.9,403.9-425.8,401.9z"/>
<path class="st0" d="M-427.6,280.8c1.7-1.5,3.7-8.4,1.2-11.4c-0.7,3.5-1.4,6.8-2.1,10.1c-0.1,0.5-0.2,1,0.1,1.4
	C-428.1,281.3-427.8,281-427.6,280.8z"/>
<path class="st0" d="M-428,326.1c1.4-1.4,2.1-3.1,1.9-5.4c-0.3-3.6-1.9-6-4.2-8.8c0,2.2,0,3.8,0,5.3c0,2.5,0,5.1,0,7.6
	c0,0.8,0,1.8,0.6,2.1C-429,327.3-428.5,326.6-428,326.1z"/>
<path class="st0" d="M-430.1,398.8c3.4-0.8,4.6-3.6,3.7-9.2C-428.1,392.5-429.7,395.2-430.1,398.8z"/>
<path class="st0" d="M-426.9,297.1c0.4-1.1-0.2-2-0.9-2.5c-0.8-0.6-1.1,0.4-1.4,1.1c-0.7,1.6-1.2,3.3-1.4,5.1
	c0.1,0.7-0.1,1.4,0.3,1.9c0.3,0.4,0.5,0,0.7-0.2C-428.6,300.7-427.7,298.9-426.9,297.1z"/>
<path class="st0" d="M-430.4,274.6c0.7-0.2,1.8-0.3,1.5-1.8c-0.2-1.3-1-1.9-2-1.7c-2.9,0.5-5.6,1.6-7.9,4.8
	C-435.8,275.5-433.1,275.5-430.4,274.6z"/>
<path class="st0" d="M-429.8,253.9c0-0.9,0.2-2.1-0.5-2.6c-0.7-0.4-1.2,0.6-1.7,1.2c-2.7,3.2-3.9,7.5-5.8,12.2
	c2.5-1.3,4.4-2.6,6-4.6C-430.5,258.5-429.8,256.4-429.8,253.9z"/>
<path class="st0" d="M-430.2,279.3c0.1-0.9-0.5-1.2-1.1-1.4c-1.5-0.7-3-0.9-4.3-1c-0.6,0-0.9,0-1.2,0c-3.7-0.1-6.7,1.3-8,6.3
	c-0.2,0.6-0.7,1.2-0.4,1.8c0.4,0.7,1,0.4,1.6,0.3c4.1-0.8,8.1-2.5,12.2-3.8C-430.4,281.1-430.3,280.2-430.2,279.3z"/>
<path class="st0" d="M-430.4,290.5c0-0.4,0.1-1-0.3-1.1c-0.4-0.1-0.6,0.3-0.8,0.6c-0.8,1.6-2.2,2.9-1.4,5.2c0.1,0.3,0.2,0.7-0.2,0.6
	c-1.4-0.1-1.1,1.5-1.1,2.3c0.1,2.5,0.6,5,1.9,7.7c0.2-2.7,0.2-4.8,0-6.9c-0.1-0.6-0.3-1.2,0.2-1.8
	C-430.7,295.3-430.7,292.9-430.4,290.5z"/>
<path class="st0" d="M-437.9,259.5c3.5-2.4,5.8-9.7,5.5-14.4c-0.1-1.1-0.6-1.3-1.3-0.9c-1.9,0.9-3,2.8-3.6,5.2
	C-438,252.6-438,255.9-437.9,259.5z"/>
<path class="st0" d="M-432.8,318.2c0-1.2,0-2.3,0-3.5c0,0,0,0,0,0c0-1.2,0.1-2.5,0-3.7c-0.2-2.2-0.5-4.3-1.7-6
	c-0.3-0.4-0.6-0.8-1-0.6c-0.5,0.2-0.4,0.8-0.4,1.3c0,1.8-0.1,3.5,0,5.2c0.2,2.7,0.4,5.4,1.5,7.8c0.3,0.6,0.5,1.6,1.1,1.3
	C-432.6,319.7-432.8,318.8-432.8,318.2z"/>
<path class="st0" d="M-433,287.4c0.5-1.3,0.2-1.9-0.9-1.8c-5.2,0.4-9.7,6.4-9.7,13.2c-0.1,1.5,0.3,3.1,0.8,4.6
	c0.5,1.4,1,1.8,1.8,0.1c1.4-3.3,3.1-6.2,4.8-9.2C-435.1,292-434,289.8-433,287.4z"/>
<path class="st0" d="M-433.2,327.5c0.2-1.1,0.4-2.4-0.1-3.4c-1.8-2.9-2.6-6.4-4-9.6c-0.6-1.3-1.3-2.5-2.3-3.5c-1-1-1.6-0.9-2.3,0.5
	c-2.4,4.6-3.8,9.5-3.8,15.7c-0.1,1.7,0.2,3.9,0.8,6c1.4,4.8,1.9,5.1,5.4,3.1C-436.4,334.8-434,332.2-433.2,327.5z"/>
<path class="st0" d="M-433.4,343.2c-0.2-1.2,0-2.5-0.3-3.8c-0.2-0.7-0.3-1.3-1-0.6c-2.1,2.1-4.3,4.2-6.4,6.3
	c-0.9,0.9-1.3,2.1-1.2,3.6c0.2,2.6,0.5,5.2,0.7,7.8c0.2,2.6,0.4,2.8,2.1,1.4C-435.4,354.6-433.5,349.6-433.4,343.2z"/>
<path class="st0" d="M-433.8,359.3c0.3-1.6,0.5-3.3,0.3-5c0-0.4-0.1-0.9-0.5-1c-0.3-0.1-0.5,0.2-0.7,0.5c-1.3,2.4-2.8,4.7-4.2,7.2
	c1.4-0.3,2.8-0.6,4.3-0.8C-434.2,360.1-433.9,359.9-433.8,359.3z"/>
<g>
	<path class="st1" d="M-441.2,275.3C-441.2,275.3-441.2,275.3-441.2,275.3C-441.2,275.3-441.2,275.2-441.2,275.3
		c2.6-8.3,7.5-12.2,12.5-15.3C-431,266.5-435,271.3-441.2,275.3C-441.2,275.3-441.2,275.3-441.2,275.3z"/>
	<path class="st2" d="M-428.7,260L-428.7,260 M-428.7,260c-2.6,7-6.9,11.6-12.5,15.2C-438.6,267.3-433.9,263.3-428.7,260
		 M-428.7,259.9C-428.7,259.9-428.7,259.9-428.7,259.9C-428.7,259.9-428.7,259.9-428.7,259.9C-428.7,259.9-428.7,259.9-428.7,259.9
		C-428.7,259.9-428.7,259.9-428.7,259.9C-428.7,259.9-428.7,259.9-428.7,259.9C-428.7,259.9-428.7,259.9-428.7,259.9
		C-428.7,259.9-428.7,259.9-428.7,259.9C-428.7,259.9-428.7,259.9-428.7,259.9c-5,3.1-10,7-12.6,15.3c0,0,0,0.1,0,0.1c0,0,0,0,0.1,0
		c0,0,0,0,0.1,0c6.2-3.9,10.2-8.8,12.6-15.3c0,0,0,0,0,0C-428.6,260-428.6,259.9-428.7,259.9L-428.7,259.9
		C-428.7,259.9-428.7,259.9-428.7,259.9L-428.7,259.9z"/>
</g>
<path class="st0" d="M-434.6,395.9c1.1-4.6,1.6-9.3,0.6-14.1c-1.2,1.7-1.8,3.7-2.1,5.8c-0.4,2.7-0.5,5.5,0.4,8.1
	c0.1,0.4,0.2,0.9,0.6,0.9C-434.8,396.7-434.7,396.2-434.6,395.9z"/>
<path class="st0" d="M-434,378c0.4-1.2,0.5-2-0.8-1.8c-2.2,0.2-4.2,1.4-5.8,3.4c-0.3,0.4-0.6,0.8-0.4,1.3c0.8,2.3,1.6,4.7,2.9,6.5
	c0.3,0.4,0.8,0.9,0.9-0.1C-436.7,384-435.2,381.1-434,378z"/>
<path class="st0" d="M-436.5,245.4c0.2-0.4,0.4-1-0.1-1.3c-0.7-0.5-1.4-0.3-2.1-0.1c-0.4,0.1-0.6,0.5-0.5,1c0.3,1.6,0.1,3.3,0.9,5
	C-437.5,248.4-437,246.9-436.5,245.4z"/>
<path class="st0" d="M-436.5,400.8c0.2-3.1-1.2-6.2-3.2-7.3c-1-0.6-1.6-0.5-1.5,1.2c0.1,1.7,0,3.4,0,5c0,1.5,0.1,3.1,0,4.6
	c-0.2,2.2,0.5,2.8,2.1,2.7c0.9-0.1,1.4-0.5,1.8-1.6C-436.9,404-436.6,402.4-436.5,400.8z"/>
<path class="st0" d="M-436.7,312.7c-0.6-3.7,0.3-7-0.4-10.3C-439.2,303.9-439.1,308.9-436.7,312.7z"/>
<path class="st0" d="M-439.7,261.2c0.8-0.7,1-1.6,0.9-2.7c0-0.9,0-1.7-0.3-2.5c-0.2-0.6-0.5-0.8-0.9-0.3c-2,3-4.4,5.5-6,9
	c-0.2,0.4-0.6,0.9-0.1,1.3c0.3,0.3,0.6-0.1,0.9-0.3C-443.4,264.3-441.6,262.8-439.7,261.2z"/>
<path class="st0" d="M-437.7,393.1c-1.1-2.8-1.8-5.5-3.3-7.9C-441.7,390.1-441.4,391-437.7,393.1z"/>
<path class="st0" d="M-439.5,253.1c0.1-0.3,0.3-0.7,0.1-1c-0.2-0.3-0.4-0.2-0.6-0.2c-2.9,0.5-5.5,4.9-5,8.9
	C-443.8,259.7-440,254.3-439.5,253.1z"/>
<path class="st0" d="M-439.1,263.8c-0.1-0.5,0.1-1.8-0.8-1.1c-1.7,1.4-3.2,3.2-3.9,5.7c-0.1,0.5-0.2,1,0.5,1
	C-441.9,269.3-439.2,265.8-439.1,263.8z"/>
<path class="st0" d="M-440.7,251.1c1.2-0.9,1.3-1.8,0.2-3.1c-0.7-0.8-1.5-1.1-2.5-0.7c-1.7,0.8-3.4,3.7-3.4,6.1
	c0.1,0.5-0.2,1.5,0.7,0.9C-444,253.3-442.3,252.2-440.7,251.1z"/>
<path class="st0" d="M-441.7,272.4c0.2-0.9,0.1-1.4-0.8-1.3c-3.1,0.1-7.2,4.3-8,8.3c-0.3,1.3,0,1.5,0.9,1.1c2.2-1,4.4-2.2,6.1-4.4
	C-442.7,275-442.1,273.9-441.7,272.4z"/>
<path class="st0" d="M-444.9,312.5c1.8-3.3,1.8-6.8,0.6-10.3c-1-3-2.7-5.3-4.2-7.9c-0.8-1.3-1.2-1-1.6,0.3c-0.8,2.8-1.1,5.6-1,8.8
	c0,0.7-0.1,1.7,0,2.6c0.3,3.8,0.9,7.5,2.3,10.8c0.2,0.5,0.5,1.2,0.8,1.3c0.5,0.2,0.5-0.8,0.8-1.2
	C-446.4,315.4-445.7,313.9-444.9,312.5z"/>
<path class="st0" d="M-444.6,268c0-0.8-0.1-1-0.6-0.9c-1.5,0.2-3.6,3-3.7,4.9c0,0.6-0.1,1.4,0.7,1.2
	C-447.1,272.9-444.7,269.3-444.6,268z"/>
<path class="st0" d="M-448.2,250.3c1.4-0.2,3.1-4.2,2.6-5.8c-0.2-0.6-0.6-0.6-1-0.6c-3.7-0.6-4-0.4-5.4,4.1
	c-0.1,0.2-0.1,0.4-0.2,0.6c-0.6,2-0.4,2.2,1.6,2.2C-450,250.6-449.1,250.4-448.2,250.3z"/>
<path class="st0" d="M-446.6,262.4c0.5-1.5,0.8-3,0.8-4.7c0-0.9-0.3-1.2-0.9-0.7c-3.1,2-4.5,8.2-2.8,12.2
	C-448.2,267.1-447.4,264.8-446.6,262.4z"/>
<path class="st0" d="M-449.7,286.4c1.8-1.4,3.1-3.5,4.1-6.3c-2.2,0.6-4.1,1.6-5.7,3.1c-1,0.9-0.8,2.7-0.3,3.8
	C-451,287.9-450.2,286.8-449.7,286.4z"/>
<path class="st0" d="M-448.2,394.6c-0.1-0.5-0.2-1.4-0.3-2.4c-0.1-1-0.5-1.2-1.1-0.5c-3.1,3.7-5.1,8.2-5.8,13.7
	c-0.1,0.6-0.1,1.4,0.4,1.5c1.2,0.3,2.5,0.8,3.4-0.7C-449.5,402.9-448.3,399.3-448.2,394.6z"/>
<path class="st0" d="M-448.4,256.7c0.4-0.7,0.6-1.4,0-2.1c-0.4-0.5-0.7-1.5-1.5-1.2c-0.7,0.3-1,1.1-1.1,2c-0.1,0.6-0.1,1.3-0.1,2
	c0.1,0.8-0.3,2.1,0.4,2.4c0.7,0.3,1.1-1,1.6-1.6C-448.9,257.7-448.7,257.2-448.4,256.7z"/>
<path class="st0" d="M-450.4,350.2c1.5,0.7,1.9,0.4,1.8-1.6c-0.2-4.9-0.2-9.8-0.4-14.6c-0.1-3.2-0.4-6.4-1.3-9.4
	c-0.3-1.1-0.7-1.5-1.6-0.6c-1.5,1.6-3.1,3-4.6,4.7c-2.1,2.4-3,5.5-3,9.1c0,1.3-0.2,2.8,0.6,3.8C-456.4,345-453.9,348.5-450.4,350.2z
	"/>
<path class="st0" d="M-450.3,389.5c0.4-0.6,0.1-1.2-0.4-1.4c-1.1-0.5-1.7-2.4-3.1-2c-0.1,0-0.2,0.5-0.3,0.8c-0.4,2-1.1,4-1,6.1
	c0,0.8,0,1.6,0.2,2.4c0.1,0.6,0.4,1.3,0.9,0.5C-452.8,393.8-451.6,391.7-450.3,389.5z"/>
<path class="st0" d="M-450.7,355.4c0.3-0.7,0.1-1.2-0.4-1.7c-2.1-2.1-4.2-4.4-6.3-6.5c-0.4-0.4-0.8-0.7-1.2-0.9
	c-0.7,0-0.7,0.4-0.7,0.9c0,5,0,10.1,0.1,15.1c0,0.9,0.3,1.6,1.2,1.2C-454.7,362-452.2,359.4-450.7,355.4z"/>
<path class="st0" d="M-452.2,275.6c1.1-1.8,1.3-3.9,1.3-6.2c0-1.2,0-2.4-0.3-3.7c-0.3-1.3-0.6-1.2-1.2-0.3c-2.1,2.8-3,6-1.5,9.8
	c0.2,0.5,0,1.3,0.5,1.5C-452.7,276.8-452.5,276.1-452.2,275.6z"/>
<path class="st0" d="M-452.3,322.4c0.4-0.6,1.2-1.2,0.8-1.9c-0.4-0.7-1.2-0.4-1.9-0.1c-1.7,0.8-3.2,2.4-4.7,3.7
	c-0.7,0.6-1.1,1.4-1,2.5c-0.2,1.7,0.3,1.9,1.3,1.2C-455.7,326.3-453.8,324.8-452.3,322.4z"/>
<path class="st0" d="M-455,319.6c1.1,0.2,2.9-1.8,2.6-3.1c-0.3-1.7-0.7-3.3-1.7-4.9c-0.9,2.4-1.2,4.7-1.4,7.1
	C-455.5,319.1-455.4,319.5-455,319.6z"/>
<path class="st0" d="M-452.6,295c0.1-2.5-0.3-2.9-1.7-2c-0.6,0.4-1.2,1-1.9,1.5c-0.6,0.4-0.7,1-0.5,1.8c0.5,1.3,0.6,3.3,1.8,3.4
	c1,0.1,1.4-1.8,1.9-3C-452.8,296-452.7,295.3-452.6,295z"/>
<path class="st0" d="M-452.8,253.1c0,0,0.2-0.6-0.3-0.8c-0.6-0.2-3,1-3.1,1.8c-0.1,1.5,0.2,3,0.7,4.4c0.1,0.4,0.5,0.1,0.7-0.2
	C-454,256.8-453,255.5-452.8,253.1z"/>
<path class="st0" d="M-453.5,288.7c0.6-0.3,0.5-1,0.5-1.9c0-1.5-0.7-2.4-2-2.2c-1.7,0.3-4,3.4-4.1,5.7c-0.1,1.4,0.2,2.2,1.4,1.4
	C-456.2,290.8-455,289.4-453.5,288.7z"/>
<path class="st0" d="M-453,264.5c1.2-1.4,0.7-2.7-0.2-4c-0.7-1-1.2-0.9-1.5,0.5c-0.3,2-0.5,4-0.2,6.3
	C-454,266.5-453.7,265.3-453,264.5z"/>
<path class="st0" d="M-454,245c0.2-0.3,0.4-0.8,0.3-1.2c-0.1-0.7-0.7-0.3-1-0.4c-1.7,0-3.2,1.3-3.8,3.3c-0.3,0.9-0.1,1.3,0.6,1.1
	C-456.3,247.4-455,246.5-454,245z"/>
<path class="st0" d="M-453.7,248.9c0.1-0.8-0.3-1.2-0.8-1c-1,0.3-1.9,0.8-2.8,1.3c-0.5,0.3-0.5,0.9-0.4,1.5c0.2,0.7,0.3,1.6,1.2,1.6
	C-455.5,252.2-453.7,250-453.7,248.9z"/>
<path class="st0" d="M-455,383.6c0.1,0,0.1-0.6,0-0.8c-1.1-2.8-1.7-6-3.8-8.3c0,2.6,0,5.2,0,7.8c0,0.7,0.1,1.3,0.8,1.4
	C-457,384-456,384.2-455,383.6z"/>
<path class="st0" d="M-456.6,283c2.5-2.7,3-6,1.5-9.6c-0.4-0.9-0.8-1.3-1.3-0.1c-0.9,2.7-2.1,5.4-2.1,8.6c0.1,0.6-0.3,1.5,0.3,1.9
	C-457.6,284.2-457.1,283.5-456.6,283z"/>
<path class="st0" d="M-457,405.6c0.9-2.1,1.2-4.4,1.1-6.4c0.1-4.3-0.8-8-1.6-11.7c-0.1-0.7-0.2-1.8-0.8-1.7
	c-0.7,0.1-0.4,1.2-0.4,1.8c-0.1,4.6,0.1,9.2-0.3,13.8c-0.1,1.3-0.2,2.8,0.3,4.1c0.2,0.5,0.4,1.1,0.9,1.1
	C-457.3,406.7-457.2,406.1-457,405.6z"/>
<path class="st0" d="M-456.9,264.2c0.9-0.7,0.4-1.8,0.6-2.9c-0.1-1.6-0.1-3.2-0.7-4.8c-0.3-0.8-0.7-1.6-1.2-0.3
	c-0.7,1.9-1.5,3.8-1.5,5.9c0,0.8-0.3,1.9,0.5,2.3C-458.5,264.9-457.6,264.7-456.9,264.2z"/>
<path class="st0" d="M-456.4,267.8c0.2-1.8-0.4-2.2-1.5-2c-1.2,0.2-1.9,1.2-2.4,2.4c-0.5,1.2-0.7,2.5-1.2,3.6
	c-0.9,2.1,0.1,3.4,1,4.8c0.5,0.7,0.9,0.4,1.4-0.3C-457.4,273.8-456.6,270.9-456.4,267.8z"/>
<path class="st0" d="M-457.1,320.2c1.2-3.9,0.9-7.6-0.7-11.5c-0.8,0.9-0.8,1.8-0.9,2.7c-0.5,2.8-0.4,5.6,0,8.4
	c0.1,0.6-0.3,1.7,0.5,1.8C-457.7,321.7-457.3,320.9-457.1,320.2z"/>
<path class="st0" d="M-461,306.6c0-2.2,0-4.4,0-6.5c0-0.8-0.1-1.5-1-1.1c-2,1.1-4.3,2.1-5.6,4.2c-0.7,1.2,1,3.5,1.5,5.4
	c0.1,0.3,0.2,0.5,0.2,0.8c0.7,2.4,1.6,4.6,2.8,6.7c0.3,0.6,0.6,1.4,1.3,1.2c0.6-0.2,0.4-1.1,0.5-1.7
	C-460.9,312.6-461,309.6-461,306.6z"/>
<path class="st0" d="M-461.1,264.1c0.1-1.7,0.4-3.4-0.6-5.3c-1.4,2.9-2.3,5.7-2.4,8.9c0,0.8,0.2,1.7,0.4,2.5c0.1,0.4,0.3,1,0.8,1
	c0.4-0.1,0.4-0.6,0.5-1C-461.8,268.2-461.2,266.2-461.1,264.1z"/>
<path class="st0" d="M-462,295.1c0.8-1,1-2.3,0.3-3.3c-0.7-1.1-1.2,0.3-1.8,0.7c-0.4,0.3-0.8,0.8-1.2,1.2c-1.1,1.3-2.2,2.6-2.4,5.1
	C-465.2,297.6-463.4,296.8-462,295.1z"/>
<path class="st0" d="M-462,251.9c0.1-0.8-0.1-1.9-0.5-2.9c-0.2-0.4-0.4-1-0.8-1c-0.5,0-0.5,0.7-0.6,1.2c-0.3,2.3-0.4,4.6,0.2,6.9
	c0.1,0.4,0.2,0.9,0.6,1c0.4,0.1,0.5-0.5,0.6-0.9C-462.3,254.9-462,253.6-462,251.9z"/>
<path class="st0" d="M-462.4,322.6c0.1-0.9-0.2-1.7-0.4-2.5c-0.1-0.4-0.2-0.9-0.6-0.9c-0.6,0-0.5,0.7-0.6,1.1
	c-0.2,1.8-0.4,3.7-0.6,5.6c0,0.4-0.1,0.8,0.3,0.9c0.2,0,0.6-0.1,0.8-0.2C-462.6,325.5-462.5,324.1-462.4,322.6z"/>
<path class="st0" d="M-463.1,333.3c0-1.3,0.1-2.1,0-3c-0.1-1.2-0.3-1.9-1.4-0.9c-1.5,1.3-1.4,2.5-0.5,4.1c0.5,0.9,0.8,2.7,1.6,2.5
	C-462.6,335.7-463.2,334-463.1,333.3z"/>
<path class="st0" d="M-463.1,393.4c0-0.9-0.2-1.3-1-1c-2.9,1.1-4.8,4.2-4.8,8.2c0,0.9,0,1.9,0,2.8c0,3.6,0,3.7,3,3.7
	c0.6-0.5,2,0.8,2.2-1.1C-463.4,401.8-463.2,397.6-463.1,393.4z"/>
<path class="st0" d="M-463,376.8c-0.1-0.7-0.1-1.8-0.2-2.8c-0.1-0.6,0.2-1.7-0.6-1.8c-0.6,0-0.8,0.9-1.1,1.5
	c-1.2,3.6-1,7.4-0.4,11.1c0,0.3,0.1,0.8,0.4,0.8c0.4,0,0.5-0.5,0.7-0.8C-463.3,382.4-463.1,379.8-463,376.8z"/>
<path class="st0" d="M-463.4,366.3c1.1-7.2,0.8-14.4,0.2-21.5c-0.3-3.2-0.4-3.2-3-2.7c-2.4,0.4-2.4,0.4-2.4,3.5c0,3.5,0,7,0,10.5
	c0,0-0.1,0-0.1,0c0,2.4,0,4.8,0,7.2c0,3.1,0,6.3,0.7,9.3c0.2,0.7,0.2,1.8,0.9,1.9c0.7,0.1,1-0.8,1.4-1.4
	C-464.3,371.1-463.8,368.7-463.4,366.3z"/>
<path class="st0" d="M-463.7,289.5c0.6-1,0.7-1.8,0.2-3c-1-2.5-1.8-5.2-2.7-7.8c-0.7-2-1.5-3.9-2.6-5.6c-0.3-0.5-0.7-1-1.2-1.1
	c-0.4,0-0.3,0-0.9,1.1c-2,4.2-2,8.9-1.5,13.6c0.3,2.8,0.9,5.4,2.4,7.5c0.4,0.6,0.9,1.5,1.7,0.6C-466.8,293.1-465,291.6-463.7,289.5z
	"/>
<path class="st0" d="M-464.4,339.8c0.8-0.6,0-1.9-0.4-2.7c-0.6-1.4-1.2-3.7-2.4-3.3c-1.1,0.4-1.1,2.7-1.3,4.3
	c0.1,0.9-0.3,2.1,0.5,2.5C-466.8,341.2-465.5,340.6-464.4,339.8z"/>
<path class="st0" d="M-466.7,328.5c1.9-3.5,2.3-7.4,1.9-11.5c-0.3-3.5-0.9-7-3.2-10.1c-0.1,0.7-0.2,0.9-0.2,1.2
	c-0.1,6.6-0.3,13.1-0.4,19.7c0,0.7-0.4,1.8,0.4,2.1C-467.5,330.1-467.1,329.2-466.7,328.5z"/>
<path class="st0" d="M-465.3,264.6c1.5-4.5,0.7-10.8-1.5-13.5c-0.8-1-1.3-1.1-1.5,0.6C-468.9,256.5-467.1,260.4-465.3,264.6z"/>
<path class="st0" d="M-466.7,271.4c0.8,0,0.7-1,0.7-1.7c0-2.1-0.6-3.9-1.6-5.8c-0.5,2.1-0.7,4-0.4,6
	C-467.9,270.7-467.4,271.4-466.7,271.4z"/>
<path class="st0" d="M-467.7,391.7c1.2-1.6,1.3-6.9,0.3-8.7c-0.2-0.3-0.4-0.8-0.8-0.6c-0.3,0.2-0.3,0.6-0.3,1c0,1.2,0,2.5,0,3.7
	c0,0,0,0,0,0c0,1.4,0,2.8,0,4.1c0,0.4,0,0.8,0.4,0.8C-468,392-467.8,391.8-467.7,391.7z"/>
<path class="st0" d="M-469.4,250.7c0.4-1.5,0.8-3,0.7-4.9c-0.1-0.5,0.5-1.9-0.7-1.9c-0.8-0.1-2.1-0.6-2.3,0.8
	c-0.4,2-0.3,4.2,0.4,6.2c0.2,0.5,0.5,1,1,1C-469.7,251.8-469.6,251.2-469.4,250.7z"/>
<path class="st0" d="M-469.1,265.5c0.3-2.3,0.8-4.8-0.1-7.1c-0.2-0.5-0.4-1.2-0.9-1.1c-0.5,0-0.6,0.7-0.7,1.3
	c-0.3,1.6-0.6,3.3-0.7,5.2c0,0.4,0,1.1,0.2,1.7c0.2,1,0.3,2.5,1.3,2.5C-469,267.9-469.2,266.4-469.1,265.5z"/>
<path class="st0" d="M-471.9,302c0.8-0.6,0.9-1.6,0.8-2.6c-0.5-4.5-2-8.3-4.5-11.4c-1.1-1.4-1.5-1.3-2.4,0.6c-1.7,3.8-2,8-2,12.3
	c0,1.5,0,2.9,0,4.4c-0.1,2,0.6,2.2,1.8,1.5C-476,305.3-474,303.6-471.9,302z"/>
<path class="st0" d="M-472.5,321.3c0.4-4.6,0.8-8.7,0.8-13c0-1.6-0.5-2.2-1.6-1.3c-1.2,0.9-2.4,1.9-3.7,2.6
	c-1.4,0.7-1.3,1.5-0.6,2.9C-476.3,315.6-474.6,318.4-472.5,321.3z"/>
<path class="st0" d="M-473.4,276.5c0.5-2.4,0.8-4.9,0.7-7.3c0-0.5,0.1-1.1-0.4-1.3c-0.5-0.2-0.6,0.5-0.8,0.9
	C-475.5,271.5-474.4,274-473.4,276.5z"/>
<path class="st0" d="M-473.1,379.5c-0.1-4.4,0.5-8.7,0.3-12.6c0-2.3,0-4.2,0-6c0-2.8-1.4-4.9-3.5-5.2c-2.4-0.4-4.5,0.3-6.5,2.1
	c-1.1,1-1.6,2.2-1.7,3.8c-0.4,6,0.8,11.1,4.7,14.8c1.7,1.6,3.7,2.8,5.6,4.1C-473.5,381-473.1,380.9-473.1,379.5z"/>
<path class="st0" d="M-473.6,263.7c0.8,0.5,0.8-0.2,0.8-0.9c0-3.2-0.2-6.4-1-9.5c-0.2-0.8-0.5-1.5-0.8-2.2c-0.2-0.4-0.4-0.8-0.8-0.7
	c-0.4,0.1-0.4,0.6-0.5,1c-0.4,1.9-0.7,3.8-0.7,5.6C-476.7,259.6-475.2,262.8-473.6,263.7z"/>
<path class="st0" d="M-477.5,348.8c3.6-1.7,5.1-5.2,4.5-10.6C-474.3,341.8-476.1,345.1-477.5,348.8z"/>
<path class="st0" d="M-473.1,403.4c-0.1-0.7,0.3-1.8-0.4-2c-0.5-0.2-0.8,0.9-1.1,1.4c-0.5,0.8-1,1.7-1.5,2.6
	c-0.4,0.9-0.5,1.6,0.6,1.7C-473.6,407.2-473.2,406.6-473.1,403.4z"/>
<path class="st0" d="M-474.9,352.9c2.3-0.9,2.6-1.7,1.7-5c-1.5,2.4-3.8,3.2-5.4,5.7C-477.2,353.8-476,353.3-474.9,352.9z"/>
<path class="st0" d="M-474.2,336.1c2.1-2,2.1-8.6,0.9-11.1c-0.2-0.3-0.3-0.7-0.6-0.5c-0.2,0.1-0.4,0.5-0.5,0.8
	C-475.1,328.9-474.7,332.4-474.2,336.1z"/>
<path class="st0" d="M-473.7,398.4c0.8-2.8,0.6-5.6,0.3-8.5c-0.9,2.6-1.6,5.3-1.5,8.2c0,0.5-0.1,1.1,0.4,1.2
	C-474,399.5-473.9,398.9-473.7,398.4z"/>
<g>
	<path class="st1" d="M-473.7,285.2C-473.7,285.2-473.8,285.2-473.7,285.2c-2.7-2.2-3.8-8.3-2.1-11.8
		C-474.1,277.3-473.8,281.2-473.7,285.2C-473.7,285.2-473.7,285.2-473.7,285.2C-473.7,285.2-473.7,285.2-473.7,285.2z"/>
	<path class="st2" d="M-475.8,273.5c1.6,3.8,1.9,7.6,2.1,11.7C-476.4,283-477.5,277-475.8,273.5 M-475.8,273.4
		C-475.9,273.4-475.9,273.4-475.8,273.4c-1.8,3.6-0.7,9.6,2,11.9c0,0,0,0,0.1,0c0,0,0,0,0,0c0,0,0.1-0.1,0.1-0.1
		C-473.8,281.2-474.1,277.3-475.8,273.4C-475.8,273.4-475.8,273.4-475.8,273.4C-475.8,273.4-475.8,273.4-475.8,273.4L-475.8,273.4z"
		/>
</g>
<path class="st0" d="M-474.5,385.2c0.1-0.6,0-1.1-0.4-1.6c-1.5-2.3-2.8-2.3-4.3,0.1c-2.4,3.9-3.1,8.6-3.2,14.3c0,1.6,0.2,4,0.6,6.3
	c0.2,1.2,0.1,2.6,1.7,2.7c1.5,0.1,2.4-0.5,2.7-2.4c0.2-1.3,0.6-2.5,0.8-3.8C-475.7,395.7-475.7,390.3-474.5,385.2z"/>
<path class="st0" d="M-477.2,344c2.3-8.7,1.9-17.2-1.4-25.5c0.5-0.3,0.8,1.2,1,0c0.3-1.4-1.2-5.6-2.2-6.3c-0.3-0.2-0.6-0.4-0.9,0
	c-0.3,0.4-0.2,0.8,0,1.2c0.4,0.9,0.8,1.8,1.3,2.6c-0.6-0.1-0.9-0.4-1.2-0.7c-0.3-0.4-0.6-0.9-1-1.2c-1.1-1.1-2.2-0.6-2.4,1.2
	c-0.2,1.4-0.3,2.8-0.3,4.1c0,11.2,0,22.4,0,33.7c0,0.6-0.2,1.4,0.4,1.8c0.5,0.3,0.9-0.3,1.3-0.7C-479.9,351.5-478.2,348-477.2,344z"
	/>
<path class="st0" d="M-478.4,257.7c0.7-5-0.7-9.5-3.6-11.3C-481.4,250.6-480.3,254.2-478.4,257.7z"/>
<path class="st0" d="M-478.8,275.2c0.3-5.5-2.3-11.9-5.3-13.6C-483.7,267.1-481.1,270.8-478.8,275.2z"/>
<path class="st0" d="M-480.7,380.7c0.1-0.8,0.5-1.6-0.2-2.2c-0.9-0.8-1.9-0.7-2.9-0.3c-0.8,0.3-0.5,1.4-0.5,2.1c0,2.9,0,5.8,0,8.7
	c0,2,0,3.9,0.8,6.3C-482.9,390-481.6,385.4-480.7,380.7z"/>
<path class="st0" d="M-481.1,305.5c-0.1-5.4,0.5-10.3-0.7-15.1c-0.3-1.1-0.7-2-1.4-2.7c-0.6-0.6-1.1-0.9-1.1,0.6
	c-0.1,3.8-0.2,7.6,0.5,11.3C-483.4,301.6-482.9,303.7-481.1,305.5z"/>
<path class="st0" d="M-479.7,257.6c-1.7-2.6-2.5-5.4-4.4-7.2C-484.7,254.4-483.3,256.8-479.7,257.6z"/>
</svg>
