<?xml version="1.0" encoding="utf-8"?>
<!-- Generator: Adobe Illustrator 19.1.1, SVG Export Plug-In . SVG Version: 6.00 Build 0)  -->
<svg version="1.1" id="_x34_1" xmlns="http://www.w3.org/2000/svg" xmlns:xlink="http://www.w3.org/1999/xlink" x="0px" y="0px"
	 viewBox="137 164.5 2605 4350.8" style="enable-background:new 137 164.5 2605 4350.8;" xml:space="preserve">
<style type="text/css">
	.st0{fill:#FFFFFF;stroke:#000000;stroke-miterlimit:10;}
</style>
<g id="SPLINE_10160_">
	<path id="XMLID_12533_" class="st0" d="M1457.6,1869.1c-5.1,26.9-12.3,53.8-14.5,80.9c-1.6,20.3-23.6,50.2,10.8,59.1
		c31.1,8,61.5-15.9,67.6-39.3c15.9-61.3,45.7-110.4,113.5-145.2c29.7-15.2,33.3-50.8,8.2-73.4c-31.8-28.5-62.2-5.2-84.1,14.8
		c-36.2,33.1-68.3,69.1-102.2,103.9c20.4-57,52.1-113.9-5-169.8c-42.5-41.5-91-39-107.8,11.9c-28.7,87-22.8,173.6,28.4,262.7
		C1410.8,1937.6,1418.5,1894.7,1457.6,1869.1z"/>
</g>
<g id="SPLINE_10161_">
	<path id="XMLID_12532_" class="st0" d="M290.7,2626.5c-7.2,2.7-14.4,5.4-21.7,8.1c13.6,164.8,75.9,318.8,166.9,465.8
		c31.6,51,68.2,100.6,125.6,135.5c45.4,27.6,92.3,38.5,135.9-4.6c62.3-61.8,61.3-144.3-9.2-201.3
		c-119.1-96.4-226.6-200.1-316.7-316.1C347.7,2683.1,317.8,2655.5,290.7,2626.5z"/>
</g>
<g id="SPLINE_10162_">
	<path id="XMLID_12531_" class="st0" d="M369.5,2498.4c39.3,209.2,163.3,350.6,341.5,463.1c33.2,20.9,81,33.8,119.8,12
		c41.6-23.4,30.9-65.8,18.2-96.8c-32.9-80.1-72.8-158.3-113.7-235.9c-8.8-16.7-30.4-35.3-50.8-40.3
		C582.1,2575.5,474.4,2564.4,369.5,2498.4z"/>
</g>
<g id="SPLINE_10163_">
	<path id="XMLID_12530_" class="st0" d="M440.5,2281.4c167.4-67.2,327.2-101.4,494.2-111.6c39.2-2.4,59.7-16.9,66.6-49.5
		c5.1-24.2,13.7-49.2,28.2-70.3c34.1-49.4,6.2-72.7-46.9-90.8c-37.9-12.9-76.5-18.2-115.6-10.7
		C655.3,1988.8,514.2,2092.8,440.5,2281.4z"/>
</g>
<g id="SPLINE_10164_">
	<path id="XMLID_12529_" class="st0" d="M848.4,2276c-155-21-278.8,39.2-395.5,114.6c-23,14.8-57.6,33.3-5.3,53.3
		c65.6,25.2,131.6,49.9,198.9,71.9c72.9,23.8,132.5,11.4,183.2-43c45.6-48.9,95.9-96.8,172.5-116.9c23.1-6.1,48.1-14.1,43.1-40.3
		c-5-26.3-28.6-38-57.9-39C941.9,2274.8,896.5,2276,848.4,2276z"/>
</g>
<g id="SPLINE_10165_">
	<path id="XMLID_12528_" class="st0" d="M652,625c-57.9-68,0.9-201-161.7-237.1c-10.5-2.3-18.9-12.2-27.4-19.2
		c-102.2-84.5-102.1-84.6-180.6,15.8c-58.4,74.7,36.1,256.1,143.7,274.1c13.9,2.3,31,0.9,43.9-3.9c45.9-16.9,88.9-14.8,128.8,9.9
		C644.8,693.2,655.8,675.9,652,625z"/>
</g>
<g id="SPLINE_10166_">
	<path id="XMLID_12527_" class="st0" d="M2067.6,2298.1c-93.4-143.7-186.1-287.6-280.8-430.7c-12.6-19.1-33.6-38.2-64.7-35
		c-49.6,5-122.7,120.1-103.7,160.2C1697,2158.3,1858.5,2246.7,2067.6,2298.1z"/>
</g>
<g id="SPLINE_10167_">
	<path id="XMLID_12526_" class="st0" d="M333.7,2170.1c71.5-54.7,119.1-111.7,191.6-144.8c136.8-62.4,201.6-160.2,214.2-285.2
		c2.3-22.4,9.9-47.1-14.5-62.8c-29.5-18.9-58.3-2.5-83.4,10.7c-121.2,63.9-205.2,154.3-258.6,262.3
		C350.7,2015.8,313.6,2082.9,333.7,2170.1z"/>
</g>
<g id="SPLINE_10168_">
	<path id="XMLID_12525_" class="st0" d="M371.6,3167.5c-26.2,54.2-38.5,96.6-75.6,127.8c-39.8,33.4-66.7,80.7-31.4,114.2
		c54.8,51.9,83.5,132.1,186.9,141.1c8.5,0.7,18.2-2,26.3-5c42.3-15,81.6-13.4,121,8.3c35.3,19.4,57.9,1.4,50.5-25.2
		c-18.5-66.8-64.9-128.7-48.1-201.8c1-4.2-16.8-15.8-26.5-16.4C472.9,3304.6,426.5,3241.8,371.6,3167.5z"/>
</g>
<g id="SPLINE_10169_">
	<path id="XMLID_12524_" class="st0" d="M2242.9,1853c-10.3,70,13.5,150.7,21.6,232.2c1.6,16.5,6.4,38,33.8,37.8
		c20.2-0.1,27.4-17.8,33.9-31.4c32-66.9,63.7-134,94.8-201.2c30.6-66.2,38.5-134.9,33.8-205.2c-4-59.3-37.8-105.8-109.6-109.6
		c-67.6-3.5-81,49.1-92.9,94.1C2243.5,1726.2,2240,1783.1,2242.9,1853z"/>
</g>
<g id="SPLINE_10170_">
	<path id="XMLID_12523_" class="st0" d="M2276.9,2645.5c-93.9,197.1-77.9,396.8-37.4,597.2c12.5,61.9,57,45.6,86.8,16.3
		c63.3-62.4,112.5-135.8,86.4-219C2371.3,2908.3,2304.2,2782.3,2276.9,2645.5z"/>
</g>
<g id="SPLINE_10171_">
	<path id="XMLID_12522_" class="st0" d="M1863.5,2380c-110-2.1-209.4,22.4-292.3,83.8c-65.8,48.7-82.2,126.8-36.6,165.4
		c57,48.3,135.8,43.2,208-11.3c69-52.1,140.6-101.9,209.6-154.1c22.4-17,77.2-18.4,62.1-52.5c-12.6-28.4-60.5-27.5-96.3-30.9
		C1900,2378.6,1881.7,2380,1863.5,2380z"/>
</g>
<g id="SPLINE_10172_">
	<path id="XMLID_12521_" class="st0" d="M2214.3,2267.6c-7-43.5-11.5-77.4-17.9-111.1c-17.5-91-48.2-184.4-23.1-274.1
		c24.8-88.7-23.5-127-105-161.4c-49.2-20.8-78-11.5-81.1,32.8c-9.9,140.3-4.9,279.2,77.1,408.2
		C2094.8,2210,2137.6,2244.7,2214.3,2267.6z"/>
</g>
<g id="SPLINE_10173_">
	<path id="XMLID_12520_" class="st0" d="M2153.9,2675.5c-32.9-4.7-40.3,3.9-45.8,12.3c-83.5,126.9-169,253.1-248.6,381.6
		c-31.6,51,38.2,110,115.2,101.3c48.6-5.5,81.2-30.3,106.1-63.9C2182.3,2969.2,2103.7,2816.3,2153.9,2675.5z"/>
</g>
<g id="SPLINE_10174_">
	<path id="XMLID_12519_" class="st0" d="M1090.1,2721.2c31.1,1.5,64.7,14.3,76.8-22.2c6.8-20.6,9.5-41.1-19.8-50.8
		c-73.8-24.4-92-73.7-92.7-132.5c-0.3-27.6-16.5-48-50.7-54.7c-44.1-8.7-213.5,93.6-204.1,127.9c21,76.8,28.5,158.5,93.7,223.1
		c13.4,13.3,26.9,31.5,49.4,28.7c27.9-3.5,21.4-27.4,23.9-43.2C976.3,2735.1,1018.8,2711.2,1090.1,2721.2z"/>
</g>
<g id="SPLINE_10175_">
	<path id="XMLID_12518_" class="st0" d="M2642.4,506.1c1.6-57,4.6-102.4-50.3-142.3c-119.9-87-116.7-89.9-219.3,11.4
		c-65.5,64.7-59.8,110.4,19,161.9c11.6,7.6,22.9,16.8,30.2,27.3c39.8,57.4,81.1,73.4,167,43.4C2669.7,579.7,2628.8,535,2642.4,506.1
		z"/>
</g>
<g id="SPLINE_10176_">
	<path id="XMLID_12517_" class="st0" d="M2361.6,2616.7c24.4,211.9,68.7,417.9,280.7,590.6c0-103.3,0.1-187.3,0-271.3
		c0-26.4-13.1-48.5-35.5-66.7C2513.9,2793.6,2434,2709.7,2361.6,2616.7z"/>
</g>
<g id="SPLINE_10177_">
	<path id="XMLID_12516_" class="st0" d="M1694.5,3454.3c3.1,21,1.5,61.2,51,65.9c47.2,4.5,51.2-33.4,60.3-62.5
		c7.4-24,14-49.4,29.2-70.2c33-44.9,86.3-67.9,134.3-24.5c71.5,64.7,100.3,38.4,129.6-25.1c8-17.4,31.6-29.7,45.9-45.5
		c43.5-48.1,22.1-108.3-10-138.3c-34.8-32.6-47.4,34.1-79.7,46.7c-16.1,6.2-29.5,23.8-44.5,24.2c-126.3,2.8-179.9,100.2-276.6,140.8
		C1694.8,3382.2,1693.4,3412.5,1694.5,3454.3z"/>
</g>
<g id="SPLINE_10178_">
	<path id="XMLID_12515_" class="st0" d="M566.6,1589.1c-3.7-27.1,1.9-58.5-13.1-80.4c-33.6-49.3-76.5-92.1-90.8-151.7
		c-8.8-36.8-58-30.8-87.8-6.7c-40.9,33.1-79.8,68.2-114.6,105.7c-40.4,43.5-24.1,77.9,42.2,80.8c94.4,4,133,47.5,148.9,116.2
		c4.8,20.7-10.9,53.9,20.2,59.3c34.3,6,54.7-25.5,77-44.9C574.8,1644.6,568.1,1616.5,566.6,1589.1z"/>
</g>
<g id="SPLINE_10179_">
	<path id="XMLID_12514_" class="st0" d="M2095.7,2529.3c-148.1,28.7-245.4,106.2-317.9,207.3c-36.4,50.7-88.5,106.5-10.3,158.8
		c45,30.1,138.1-10.8,178.2-84C1996.5,2718.7,2042.1,2624.1,2095.7,2529.3z"/>
</g>
<g id="SPLINE_10180_">
	<path id="XMLID_12513_" class="st0" d="M999.9,1243.9c5.4,151.7,42.8,290.3,162,404.9c21.2,20.4,46.2,44.2,84.6,31.5
		c39.4-13.1,62.9-39.5,62.4-75.4c-0.2-19.5,0.4-43.8-12.5-57.7C1201.3,1444.3,1073.1,1363.7,999.9,1243.9z"/>
</g>
<g id="SPLINE_10181_">
	<path id="XMLID_12512_" class="st0" d="M2052.4,533.2c10.6-55.2,35.6-102.6,76.8-142.7c37.6-36.6,12.5-67.6-16.1-92.3
		c-32.2-27.9-59.9-2.1-84.8,16.1c-20.3,14.7-37.6,35-67.4,35.3c-118.6,1.3-174.1,86.8-259.6,131.8c-32.6,17.1-28.9,53.3-20.4,83.4
		c6.1,21.7,12.2,46.8,44.1,51.8c36,5.7,43.6-21.1,55.6-40.5C1881.4,413.2,1881.3,413.2,2052.4,533.2z"/>
</g>
<g id="SPLINE_10182_">
	<path id="XMLID_12511_" class="st0" d="M2516.4,1302c-53.8,58.1-127,94.8-181.3,147c-19.8,19-50.9,54.4,11.5,57.8
		c125.2,6.8,171.1,69.6,189.8,159c7.3,34.9,24.9,42.4,58.1,13c35.4-31.3,64.5-200.5,26.1-220.2
		C2548.6,1421.9,2534.5,1367,2516.4,1302z"/>
</g>
<g id="SPLINE_10183_">
	<path id="XMLID_12510_" class="st0" d="M1083.2,1183.8c-34.4,1.3-27.9,22.8-22.4,37.7c44.1,120.6,140.9,205.5,273.5,264.2
		c22,9.7,47.4,8.8,67-7.7c19.4-16.3,19.6-36.8,9.5-55.5c-15.8-29.4-40.5-56-52.5-86.2c-18.7-46.9-21.3-99.1-107.6-98.1
		C1188.3,1238.8,1139.4,1202.4,1083.2,1183.8z"/>
</g>
<g id="SPLINE_10184_">
	<path id="XMLID_12509_" class="st0" d="M1431.2,3669.5c-115.1,2.5-272.6,104.2-301.7,189.8c-6.9,20.3-14.4,48,27.1,34.1
		c96.7-32.3,200.3-40,298.5-64.3c58.7-14.5,73.1-66.3,66.8-111.5C1515.9,3674.7,1468,3669.6,1431.2,3669.5z"/>
</g>
<g id="SPLINE_10185_">
	<path id="XMLID_12508_" class="st0" d="M790.4,1032.4C731.1,947,678.4,871.5,642.2,789.2c-11.1-25.3-29.6-49.4-50.1-70.5
		c-23.9-24.7-57.1-40.3-96.1-22.8c-40.7,18.3-61.7,45.9-51.7,86.8C469.1,885.3,640.4,1014,790.4,1032.4z"/>
</g>
<g id="SPLINE_10186_">
	<path id="XMLID_12507_" class="st0" d="M1035.7,916.2c66.3-53.7,131.3-92.8,201.3-127.4c69.1-34.1,95.8-134.8,62.1-194.8
		c-19.2-34.2-47.7-44.4-86.9-22.8C1131,615.9,1000,808.5,1035.7,916.2z"/>
</g>
<g id="SPLINE_10187_">
	<path id="XMLID_12506_" class="st0" d="M1108.6,994.4c76.2-30.5,156.7-48.1,236.6-49.8c82.1-1.8,128.1-25.5,154-88.1
		c10.4-25.1,41.2-46.7,16.6-74.5c-25.6-28.8-64.5-21-100.3-17C1251.8,783.5,1169.3,877.7,1108.6,994.4z"/>
</g>
<g id="SPLINE_10188_">
	<path id="XMLID_12505_" class="st0" d="M246.3,1991.8c8.2,1.1,16.4,2.3,24.6,3.4c72.8-95.8,150.5-189.8,146.5-311
		c-1.3-38.9-11.5-74.5-51-98.9c-49.9-30.9-117.5-15.5-118.8,29.4C243.9,1740.3,246.3,1866.1,246.3,1991.8z"/>
</g>
<g id="SPLINE_10189_">
	<path id="XMLID_12504_" class="st0" d="M1604.5,3354.3c64.4-7.9,109.6-56.8,169.9-82.9c29.2-12.6,69.8-31.6,47.7-68.8
		c-18.7-31.4-55.9-46-98.7-39.4c-56.2,8.7-113.9,15.9-166.6,32.9c-55.6,17.9-150,26.3-136.4,86.7
		C1433.8,3342.9,1529.9,3338.6,1604.5,3354.3z"/>
</g>
<g id="SPLINE_10190_">
	<path id="XMLID_12503_" class="st0" d="M1020.6,1564.5c1.5-94.1-62.9-175.5-77.3-266.7c-2.5-16-4.4-39.1-32.8-37.7
		c-25.4,1.3-31.8,22.5-32.9,39.4c-7,103.9-13.6,207.7-17,311.7c-0.7,21.4,9.4,44.5,20.6,64.4c25.1,44.4,61,44.5,96.8,8.5
		C1012.4,1649.7,1018.7,1607.5,1020.6,1564.5z"/>
</g>
<g id="SPLINE_10191_">
	<path id="XMLID_12502_" class="st0" d="M1281.2,1178.8c49.7,1.4,89-15.5,116.1-48.6c17.6-21.5,38.2-37.7,66.6-48.9
		c28.8-11.3,71.2-19.5,53.2-56.6c-15.5-31.8-55.4-39.2-92.7-33.7c-65.5,9.6-133.3,17.1-193.7,38.1c-47.6,16.6-138.8,17.6-123.9,76.6
		c14.4,56.8,98.5,64.9,165.4,73C1275.1,1178.9,1278.2,1178.6,1281.2,1178.8z"/>
</g>
<g id="SPLINE_10192_">
	<path id="XMLID_12501_" class="st0" d="M874.1,726.8c-2-26.8-0.2-47.3-5.8-66.4c-10.8-37.5-29.1-73.7-84.8-76
		c-61.2-2.5-74.7,36.3-80.1,74.5c-15.7,109.4,19,206.5,113.5,286.9c11.9,10.1,25.3,26.9,44.5,15.7c9.1-5.3,11.8-22.4,11-33.8
		C867.9,858.4,854.3,789.2,874.1,726.8z"/>
</g>
<g id="SPLINE_10193_">
	<path id="XMLID_12500_" class="st0" d="M1406.5,3177.1c52.8-15,102.2-32.3,153.7-42.7c55.4-11.2,113.2-14.1,169.2-23.9
		c67.5-11.8,85.3-60.3,97-105.7c6.7-25.8-18.3-44.2-55.3-47.3C1609.2,2943.7,1451.6,3036.7,1406.5,3177.1z"/>
</g>
<g id="SPLINE_10194_">
	<path id="XMLID_12499_" class="st0" d="M782.8,1779.7c-0.5,0-1,0-1.5,0c0,19.9-1.9,40,0.5,59.7c2.7,22.6-25.2,56.3,15.3,65
		c28.6,6.1,65.1-5.7,95.4-15.2c14-4.4,24.8-21.4,31.6-34.5c30.4-58.9,77.9-88.5,157.3-64.9c36.7,10.9,55.7,0.8,69.1-28.2
		c16.7-36.2,5.4-62.6-31.2-84.4c-44.9-26.8-64,3.8-88.1,25.5c-65.6,59.2-124.4,60.2-171.5,7.5c-19.6-21.9-10-74.6-55.2-63.3
		c-40.8,10.2-17.1,57.3-21.4,88C781.1,1749.7,782.8,1764.8,782.8,1779.7z"/>
</g>
<g id="SPLINE_10195_">
	<path id="XMLID_12498_" class="st0" d="M1059.8,4070.9c34.8,146.4,137.7,237.3,276.3,306.2c15.2,7.6,34.8,15.7,51.2,6
		c20.1-11.8,16.3-31.9,10.3-48.3c-18.4-49.9-38.8-99.3-59-148.7c-7.2-17.5-21.7-32-44.4-33.7
		C1210.4,4146,1144.1,4104.8,1059.8,4070.9z"/>
</g>
<g id="SPLINE_10196_">
	<path id="XMLID_12497_" class="st0" d="M1670.4,3569.1c-4.4-8.9-13.5-19.8-15.1-31.5c-14.8-107.1-121.5-137.5-217.4-176.5
		c-20.5-8.4-44.4-23.6-66.3-5.6c-20,16.4-7.6,38.4-1,56.5c32.7,89.2,102.5,156.1,193.1,209.3c18.5,10.8,39,31,63.7,15.2
		C1651.2,3621.3,1663.1,3597.3,1670.4,3569.1z"/>
</g>
<g id="SPLINE_10197_">
	<path id="XMLID_12496_" class="st0" d="M948.7,919.8c51-107.6,108.5-198.7,136.8-299.4c4.4-15.7-2.3-34.4-7.6-50.9
		c-12.6-39.4-49-56.4-94.7-56.6c-50.4-0.2-67,32.7-69.2,65.6c-4.7,71.7-3.8,143.7-3.9,215.6C910.1,832.7,908,872.2,948.7,919.8z"/>
</g>
<g id="SPLINE_10198_">
	<path id="XMLID_12495_" class="st0" d="M1656.3,280.3c-71.7-7.6-144,12.6-206.7,57.1c-56.2,40-48.8,61.6,16.8,93
		c101.2,48.4,176.9,11.7,250.5-41.5c33-23.9,110.7-23,88.8-76.7c-18.3-44.8-82.7-28.3-129.1-31.9
		C1673.6,280.1,1670.6,280.3,1656.3,280.3z"/>
</g>
<g id="SPLINE_10199_">
	<path id="XMLID_12494_" class="st0" d="M1445.9,3894.1c-117.9,0.6-213,44.8-309.1,86.6c-31.7,13.8-35.2,30.5-7.2,51.9
		c62.2,47.5,181.1,51,249.9,7.3c28.5-18.1,58.1-35.6,89.4-50.2c31.9-14.9,72.8-27.1,63.3-63
		C1522.3,3889,1475.5,3898.7,1445.9,3894.1z"/>
</g>
<g id="SPLINE_10200_">
	<path id="XMLID_12493_" class="st0" d="M474.1,3673.4c-0.3,67.7,196.5,254,274.6,260c31,2.4,39.9-9.9,27-31.2
		c-55.2-90.9-110.5-181.7-168.1-271.5c-16.6-25.8-46.1-41.6-83.6-29.8C485,3613.2,473.3,3641.1,474.1,3673.4z"/>
</g>
<g id="SPLINE_10201_">
	<path id="XMLID_12492_" class="st0" d="M836.9,1414.3c0-15,1.2-30-0.3-44.9c-1.9-19,8-44.7-20.2-53c-28.7-8.5-41,15.8-54.6,31.2
		c-44.2,50.4-96.6,96.3-128.3,153.8c-23.9,43.3-43.4,90.2,20.7,117.7c68,29.2,117.3-5.5,149.5-52.2
		C835.8,1520.4,839.3,1467.2,836.9,1414.3z"/>
</g>
<g id="SPLINE_10202_">
	<path id="XMLID_12491_" class="st0" d="M874,3702.8c-7.9-61.5,20.2-131.8-37.8-190.5c-33.5-33.9-67.3-43.8-95.9,4.6
		c-48,81.2-21.2,241.1,51.9,302.6c18.4,15.4,35.8,43.1,63.5,36.2c32.7-8.1,15.9-38.6,17.7-59.4C875.8,3766.6,874,3736.7,874,3702.8z
		"/>
</g>
<g id="SPLINE_10203_">
	<path id="XMLID_12490_" class="st0" d="M1652.2,667c2.8-69-52.2-131.5-127.9-153.3c-28.5-8.2-55.2-20.6-83.1-30.4
		c-18.8-6.6-38.6-21.5-58.6-7.7c-20.6,14.2-6.3,32.9,0.7,48.5c28.6,63.5,70.2,121.6,114,178.5c19.3,25.1,41.7,58.1,82.9,47.9
		C1627.3,738.7,1642,699.3,1652.2,667z"/>
</g>
<g id="SPLINE_10204_">
	<path id="XMLID_12489_" class="st0" d="M1052.6,3803.8c68.9-43.5,139.5-81.4,199.8-128.2c57.9-45,74.6-106.9,61.3-172
		c-5.9-28.9-22.1-46-62.9-29.4C1151.3,3514.7,1035.7,3701.2,1052.6,3803.8z"/>
</g>
<g id="SPLINE_10205_">
	<path id="XMLID_12488_" class="st0" d="M962.8,3795.9c28.3-51.2,50.8-105.4,86.6-152.7c37.8-49.9,45.6-101.3,43.1-156.8
		c-1.6-36.6-17.7-64-65.7-68.2c-46.2-4.1-78.5,16.6-85.8,52.3C919,3578,921.6,3685.8,962.8,3795.9z"/>
</g>
<g id="SPLINE_10206_">
	<path id="XMLID_12487_" class="st0" d="M1040.7,3274.7c-107-35-196.9-27.3-279.9,18.1c-64,35-89.2,101-56.6,133.8
		c31.8,32,138.4,22.9,184.2-16.8C937.6,3367.3,985.5,3323.7,1040.7,3274.7z"/>
</g>
<g id="SPLINE_10207_">
	<path id="XMLID_12486_" class="st0" d="M1344,3103.5c72.7-52.3,139.7-101.2,207.8-149.1c52.9-37.2,55.2-86,49.8-137.1
		c-4.7-43.3-31.3-49.2-74.4-30.4C1431.3,2828.3,1328.9,2997.3,1344,3103.5z"/>
</g>
<g id="SPLINE_10208_">
	<path id="XMLID_12485_" class="st0" d="M1024.9,365.8c-68-15.9-119.7-10.7-170.7-9c-63.3,2-119.8,19.8-157,64.4
		c-32.4,38.8-40.3,85,8.3,114c42.2,25.1,106.4,29.3,140.1-10.3C894.4,467.7,958.8,423.3,1024.9,365.8z"/>
</g>
<g id="SPLINE_10209_">
	<path id="XMLID_12484_" class="st0" d="M450,1282.6c7.4-1.2,20.2-1.3,30.8-5.4c91.9-35.4,149-107.8,234.7-150.5
		c19.5-9.8,5.7-24.8-14.6-32.3c-86.3-31.9-271.8,15.7-319.7,82.5c-18.1,25.3-23.8,51.6-5.9,77.8C390,1276.4,416.8,1281.9,450,1282.6
		z"/>
</g>
<g id="SPLINE_10210_">
	<path id="XMLID_12483_" class="st0" d="M2636.5,1759c-139.5,121.7-217.6,247.1-220,416.8c49-48.9,78.8-96.3,126.1-122.4
		C2675.5,1980.1,2644.6,1877.4,2636.5,1759z"/>
</g>
<g id="SPLINE_10211_">
	<path id="XMLID_12482_" class="st0" d="M2458.1,4415.6c50.9,0,87.4,2.1,123.4-0.7c27.3-2.1,66.1-13.1,34.8-40.2
		c-45.3-39.2-47.2-83.6-49.3-131c-0.7-17-1.3-37.3-29.4-40.4c-21.8-2.4-31.8,12.6-39.1,26.1c-16.9,31.2-52.8,46.8-79.9,69.7
		c-34.6,29.3-127.2,26-100.4,87.1C2343.1,4443.2,2420.2,4406.6,2458.1,4415.6z"/>
</g>
<g id="SPLINE_10212_">
	<path id="XMLID_12481_" class="st0" d="M529.2,1401.7c0.3,8.2,5.5,30.3,35.3,40.1c33.3,11,58.5-3.5,80.7-21.5
		c77.4-63,93-154.6,153.3-226.4c19.9-23.7-21.6-25.6-45.2-22.7C665.9,1182.2,527.7,1315,529.2,1401.7z"/>
</g>
<g id="SPLINE_10213_">
	<path id="XMLID_12480_" class="st0" d="M1038,2898.4c-8.3,80.9,25.6,153.9,82,221.1c9.9,11.7,23.4,24.1,44.2,21.1
		c14.8-2.1,18.4-14.2,16.3-23.4c-20.4-91-8.1-183.4-19.3-274.5c-4.5-36.7-42.3-58.7-82.9-56.7c-43.8,2.2-36.4,39.3-39.9,65.3
		C1036.4,2866,1038,2881.1,1038,2898.4z"/>
</g>
<g id="SPLINE_10214_">
	<path id="XMLID_12479_" class="st0" d="M2312.5,1284.4c-76.9,0-148.3,8.1-211.3,42.7c-63.8,35.1-61.2,58.9,8,89.6
		c95.8,42.5,165.2,6.5,232.8-47.8c24.8-19.9,76.5-28.2,63.7-63C2392.5,1269.6,2342.6,1290.4,2312.5,1284.4z"/>
</g>
<g id="SPLINE_10215_">
	<path id="XMLID_12478_" class="st0" d="M726,4029.8c-72.5-37.7-123.7-32.8-173.8-27.2c-63.2,7.1-114.3,31.8-139.7,82.7
		c-17.1,34.1-21.5,70.2,18.4,94.8c37.8,23.2,75.5,7.1,106.6-14.6C601.1,4121,663.3,4075.1,726,4029.8z"/>
</g>
<g id="SPLINE_10216_">
	<path id="XMLID_12477_" class="st0" d="M1254.2,3063.4c37.9-66.9,70.5-132.8,116.5-194.4c28.5-38.1,14.4-82.7-9.7-122
		c-14.5-23.7-25.4-57.7-65.6-53.8c-39,3.8-47,38-50.7,64C1230.6,2858.4,1238.3,2959.6,1254.2,3063.4z"/>
</g>
<g id="SPLINE_10217_">
	<path id="XMLID_12476_" class="st0" d="M2212.9,4346.9c67.8-26.3,127.3-72,189.3-113.2c21.4-14.2,6.6-35.2-19.2-37
		c-96.4-6.7-194.8-16.3-278.1,38.8c-56.7,37.5-49.8,69.9,18.3,91.5C2148.2,4334.9,2175.3,4338.7,2212.9,4346.9z"/>
</g>
<g id="SPLINE_10218_">
	<path id="XMLID_12475_" class="st0" d="M1626.3,1056.2c-28,4.1-39.3,25.7-55.3,43.1c-25.6,27.9-39,58.4-12.2,89.2
		c46,52.9,99,100.4,174.4,126.3c16.2,5.5,34.8,15.1,50,1.1c12-11.1,0.7-23.1-6.6-33.7c-38.8-56.4-67.4-116.4-93.9-177.3
		C1673.6,1083.8,1658.6,1064.4,1626.3,1056.2z"/>
</g>
<g id="SPLINE_10219_">
	<path id="XMLID_12474_" class="st0" d="M388,4417.3c19.6,0,31.8,0.7,43.8-0.1c35.3-2.5,81.4,12,103-14.2
		c25.9-31.6-33-40.3-42.9-64.6c-5.7-14.1-12.6-27.9-16.7-42.3c-6.1-21.4-4.3-46.6-39.4-52.7c-34.5-5.9-47.1,14.3-61.3,34.5
		c-8.8,12.6-23.2,22.6-35.1,33.7c-30.1,28-109,36.2-85.1,83.4C277.1,4439.8,347.4,4408.7,388,4417.3z"/>
</g>
<g id="SPLINE_10220_">
	<path id="XMLID_12473_" class="st0" d="M1012.3,4142.7c-20.4,76.3,14.1,133.5,24.6,193.1c14.4,81.2,79.6,87.4,158.3,80.9
		c50.9-4.2,55.6-21.4,26.5-52.1C1155.4,4294.7,1089.5,4224.6,1012.3,4142.7z"/>
</g>
<g id="SPLINE_10221_">
	<path id="XMLID_12472_" class="st0" d="M2629.6,2806.3c40.9-184.2,16.6-222.8-187-311.3C2469.4,2611.7,2515.7,2715.2,2629.6,2806.3
		z"/>
</g>
<g id="SPLINE_10222_">
	<path id="XMLID_12471_" class="st0" d="M596.4,4339.3c23.9,0.2,42.4-4.9,52.4-17.6c50.7-64,100.3-128.6,148.9-193.7
		c5.2-7,6.7-21.1,1.6-27.2c-12.4-14.6-31.9-8.6-49.5-5c-80.1,16.3-188.7,112.8-200,179.2C544.2,4308.1,553,4334.7,596.4,4339.3z"/>
</g>
<g id="SPLINE_10223_">
	<path id="XMLID_12470_" class="st0" d="M1244.5,2075.1c-53.6-79.1-87.5-174.3-174.6-243.8c-33.6-26.8-61-7-83.1,15.9
		c-25.5,26.4-14.2,47.8,20.3,58.8c67.3,21.5,95,64.5,106.6,119.4c8.2,38.8,34.6,69.3,79.6,85
		C1225,2121.5,1247.1,2114.9,1244.5,2075.1z"/>
</g>
<g id="SPLINE_10224_">
	<path id="XMLID_12469_" class="st0" d="M1787.9,4185.3c-30.5-47.2-67-106.8-107.4-164.5c-14.2-20.2-20.7-66.2-62-45
		c-33.4,17.2-77.2,54.2-57,92.4c36.5,68.9,100.8,122.2,184.8,155.3C1769.8,4232.8,1796.3,4232.5,1787.9,4185.3z"/>
</g>
<g id="SPLINE_10225_">
	<path id="XMLID_12468_" class="st0" d="M1354.2,2313.6c-41.1,98.7-51.2,181-21.6,264.6c9.3,26.1,3.2,71.3,50.8,66.8
		c42-4,69.1-38.9,71.3-77.1c1.3-21.9,0.6-45.7-8.3-65.9C1420.9,2444,1390.8,2387.5,1354.2,2313.6z"/>
</g>
<g id="SPLINE_10226_">
	<path id="XMLID_12467_" class="st0" d="M1747.9,1394c-7.5-19.5-26.1-22.3-43.5-23.8c-77.1-6.5-143.6,12.1-195.9,60.2
		c-28.8,26.5-44.6,56.7-9.3,86c36,29.9,74.9,27.1,111-3.6c35.8-30.4,72.8-59.8,108.8-90.1C1729.5,1414,1738.1,1403.9,1747.9,1394z"
		/>
</g>
<g id="SPLINE_10227_">
	<path id="XMLID_12466_" class="st0" d="M1294,2453.6c-2.1-38.8-1-61.4-5.1-83.3c-4.2-22.6-29.8-33.4-42.7-13.1
		c-38.7,60.8-102.3,111.7-113.3,183.7c-3.9,25.5,10.6,42.3,39.9,51.7c29.1,9.3,52.4,5.9,71.2-15.9
		C1280.3,2534.8,1301,2489.4,1294,2453.6z"/>
</g>
<g id="SPLINE_10228_">
	<path id="XMLID_12465_" class="st0" d="M1979.9,898.3c-97.6,59.9-163.3,116.4-201.3,191.7c-14.2,28.2-41.2,63.2,15.3,81.7
		c54.5,17.9,86-5,101.7-47.4C1921.1,1055.6,1946.8,987.1,1979.9,898.3z"/>
</g>
<g id="SPLINE_10229_">
	<path id="XMLID_12464_" class="st0" d="M1088.7,3195.5c-8-12.2-16.1-25.4-25.3-38.2c-30.5-42.7-61.6-85-91.8-127.8
		c-12.2-17.3-13.5-53.6-51.5-31c-28.4,16.9-86.6,35.5-63.5,69.9c41.1,61.3,82.9,129.6,182.8,143.2
		C1058.5,3214.3,1081.7,3224.7,1088.7,3195.5z"/>
</g>
<g id="SPLINE_10230_">
	<path id="XMLID_12463_" class="st0" d="M2643.1,1146.3c0.6-62.7-9.6-80.3-44-81.1c-44.7-0.9-135.9,84.6-133.5,126.9
		c2.1,38.3,28.8,62.2,74.8,57.9C2615.8,1242.9,2648.3,1202.9,2643.1,1146.3z"/>
</g>
<g id="SPLINE_10231_">
	<path id="XMLID_12462_" class="st0" d="M2076.8,1062.1c-5.7-30.8-11-60.2-16.7-89.5c-2.8-14.5-4.1-33-27.4-32.2
		c-12,0.4-28,10.8-34.2,20.3c-41.8,64-60.5,134.4-73.1,205.3c-4,22.5,23.8,53,48.8,28.6C2014.7,1155,2077.3,1123,2076.8,1062.1z"/>
</g>
<g id="SPLINE_10232_">
	<path id="XMLID_12461_" class="st0" d="M2004.3,3803c-114.5,53.6-161.2,127.8-211,199.8c-13.6,19.7-29.3,42.4,0.7,59.5
		c31.8,18.1,67.2,13.2,87.2-13.7C1933.8,3977.7,1974.3,3902.3,2004.3,3803z"/>
</g>
<g id="SPLINE_10233_">
	<path id="XMLID_12460_" class="st0" d="M1310.4,1863.4c-3.2-14-3.1-32.3-11.8-47.3c-14.2-24.6-34.9-53.7-70-51.4
		c-36.4,2.4-34.1,37.5-38.7,60.2c-14.4,71.4,19.7,130.6,76,182.9c9.8,9.1,20.9,21.4,37.1,15.5c22.4-8.1,13.1-25.7,9.1-39
		C1300.8,1945.2,1297.1,1906.2,1310.4,1863.4z"/>
</g>
<g id="SPLINE_10234_">
	<path id="XMLID_12459_" class="st0" d="M2104.8,692.5c46.8-54.4,93.2-105.1,134.9-158.1c29.1-37,16.6-76.6-25.4-97.5
		c-47.6-23.7-59.6,20.3-75.3,43.1C2094.1,545.3,2064,613.7,2104.8,692.5z"/>
</g>
<g id="SPLINE_10235_">
	<path id="XMLID_12458_" class="st0" d="M2642.7,4065.9c0.6-62.1-9.3-76-49.7-74.9c-51.4,1.4-125.2,61.1-123.6,103.5
		c1.3,35.2,20.9,66.2,69.1,63.3C2607.3,4153.7,2650.1,4123.9,2642.7,4065.9z"/>
</g>
<g id="SPLINE_10236_">
	<path id="XMLID_12457_" class="st0" d="M1946.9,787c-89.8-13.8-154.5-20.3-212.9-48.2c-28.9-13.8-57.7,4.2-75.2,27
		c-18.7,24.3-14.4,47.7,11.2,66.7c41.4,30.8,89.4,41.6,141.1,20.4C1850.6,836.6,1887.6,816.1,1946.9,787z"/>
</g>
<g id="SPLINE_10237_">
	<path id="XMLID_12456_" class="st0" d="M2113.8,3576.6c58.7-59.5,137.5-107.3,145.3-190.2c1.8-19.3,3.5-42.6-24.7-51.2
		c-27-8.3-46.2,7.5-61.3,23.1C2111.6,3421.9,2099.8,3495.7,2113.8,3576.6z"/>
</g>
<g id="SPLINE_10238_">
	<path id="XMLID_12455_" class="st0" d="M1817,1441.1c-111.5,24.8-208.8,107.4-212.3,169.8c-1.3,22.5-2.4,47.2,30.5,56.4
		c31.9,9,50.6-5.8,64-28.6C1735.6,1576.5,1773.1,1514.7,1817,1441.1z"/>
</g>
<g id="SPLINE_10239_">
	<path id="XMLID_12454_" class="st0" d="M1696.7,2316.8c-15.3-45.5-58.1-67.8-109.6-78.9c-35.8-7.8-80.8-39.5-108.2-8.5
		c-29.1,33,17.9,62.5,39.4,91.2c9.5,12.7,18.7,25.8,30.1,37.2c29.4,29.5,60.5,10.4,89.9-0.3
		C1661.7,2349.1,1693.9,2347.7,1696.7,2316.8z"/>
</g>
<g id="SPLINE_10240_">
	<path id="XMLID_12453_" class="st0" d="M2366.9,788.7c56.8,2.5,98-1.2,113.6-44.5c7.9-22,17.7-45.9-8.2-62.5
		c-43.5-27.9-86.6-15.7-124.8,9.5c-38,25.1-122.8,21.7-109.8,70.5C2245,789.3,2328.8,783,2366.9,788.7z"/>
</g>
<g id="SPLINE_10241_">
	<path id="XMLID_12452_" class="st0" d="M1438.6,1190.8c-26.9,11.6-64.7,29.9-51.6,57.4c20.6,43.4,17.7,108.5,79.9,121.3
		c29.6,6.1,93.6-20.4,106.7-64.7C1580.6,1281.2,1469.8,1189.4,1438.6,1190.8z"/>
</g>
<g id="SPLINE_10242_">
	<path id="XMLID_12451_" class="st0" d="M2031.6,665.4c-1.9-47.4-42.8-113.9-88.4-138c-26.1-13.8-54.9-26.5-82.7-5
		c-25.8,19.9-23.6,46.2-6.8,68.7c34,45.6,86.6,76.3,140.3,104.1C2028.7,713.3,2035.3,693.9,2031.6,665.4z"/>
</g>
<g id="SPLINE_10243_">
	<path id="XMLID_12450_" class="st0" d="M2236.1,1554.4c4.4-31-4.2-58.6-40.1-69.2c-50.1-14.8-93.8-51.1-151.7-40
		c-20.8,4-14.6,25.7-3.8,38.2c27.9,32.4,56.9,64.1,86.7,95.3c17.7,18.5,30.8,49.5,68.3,37.8
		C2226.8,1606.9,2227.3,1576.6,2236.1,1554.4z"/>
</g>
<g id="SPLINE_10244_">
	<path id="XMLID_12449_" class="st0" d="M2335.9,3714.1c-12.2,16.5-77.1-25-66.3,29c9.6,48.2,132.7,98.2,192.5,88.4
		c21-3.4,43.5-6.9,52.6-24.6c10.2-19.8-9.8-31.8-23.8-44.3C2451.8,3727.8,2403.9,3710,2335.9,3714.1z"/>
</g>
<g id="SPLINE_10245_">
	<path id="XMLID_12448_" class="st0" d="M1824.8,1543.5c-54.9,63.5-103.9,112.4-109.5,179.6c-2.6,30.7,16.5,54.2,54.8,59.8
		c43.3,6.4,63-19.1,65.8-47.8C1841.6,1677.1,1849.8,1618,1824.8,1543.5z"/>
</g>
<g id="SPLINE_10246_">
	<path id="XMLID_12447_" class="st0" d="M1912.8,1528.9c-52.8,67.5-52.7,265.1,0.3,317.5C1978.1,1686,1978.1,1640.9,1912.8,1528.9z"
		/>
</g>
<g id="SPLINE_10247_">
	<path id="XMLID_12446_" class="st0" d="M1766.9,4289.4c-86-14.7-152.2,3.8-216.6,30c-34.3,14-66.5,34.4-46.8,68.8
		c21.3,37.1,64.4,31.9,101.4,16.7C1667.2,4379.4,1712.3,4337.2,1766.9,4289.4z"/>
</g>
<g id="SPLINE_10248_">
	<path id="XMLID_12445_" class="st0" d="M1982,854.2c-118.2-8.8-183.3,39.3-252.9,76.7c-24.2,13-60,26.7-32.3,57.7
		c26.1,29,64.2,30.4,96.2,8C1852.1,955.2,1907.9,910.4,1982,854.2z"/>
</g>
<g id="SPLINE_10249_">
	<path id="XMLID_12444_" class="st0" d="M2263.6,1147.8c4.2-80.8-42.8-142.9-99.4-201.6c-9-9.3-21.3-21.5-37.4-12.3
		c-7.8,4.4-10.3,16.7-12.4,25.9C2090.8,1062.6,2125.3,1106.6,2263.6,1147.8z"/>
</g>
<g id="SPLINE_10250_">
	<path id="XMLID_12443_" class="st0" d="M2147.2,3833.9c-33.7,114.7-14.6,166.5,71.7,206c15,6.9,31.9,21.2,48,8.4
		c8-6.3,6.4-23,5.4-34.8C2265.6,3940.6,2229.6,3880.7,2147.2,3833.9z"/>
</g>
<g id="SPLINE_10251_">
	<path id="XMLID_12442_" class="st0" d="M2065.1,3835c-62.1,85.5-108.5,153.7-127,232.5c-2.6,10.9-0.3,28.1,8.3,33.9
		c17.4,11.9,32.3-2,46.1-11.7C2081.5,4026.9,2089.9,3946.3,2065.1,3835z"/>
</g>
<g id="SPLINE_10252_">
	<path id="XMLID_12441_" class="st0" d="M2242.5,3660.9c65.9,30.3,129.8,21.9,191.3,22.2c38.3,0.2,78.6-6.3,71-48.6
		c-7.3-40.5-41.9-62.7-91.8-52.4C2351.8,3594.8,2295.2,3617.4,2242.5,3660.9z"/>
</g>
<g id="SPLINE_10253_">
	<path id="XMLID_12440_" class="st0" d="M255.1,3248.9c95.7-69.2,94.3-245.2,0-346.6C255.1,3018.8,255.1,3131.8,255.1,3248.9z"/>
</g>
<g id="SPLINE_10254_">
	<path id="XMLID_12439_" class="st0" d="M1576.9,4198.3c-32.4-34.2-65.2-73-103.9-107.3c-13.7-12.1-31.9,5.9-45.9,15.2
		c-56,37.2,3.2,66.3,10.3,98.9c2.1,9.7,5.1,20.2,11.4,28.3c12.9,16.8,11.2,53.4,50,40.1C1533.8,4261.6,1566.7,4240.4,1576.9,4198.3z
		"/>
</g>
<g id="SPLINE_10255_">
	<path id="XMLID_12438_" class="st0" d="M2035.4,3544.9c-15.5-39.1-28.1-83.7-67.2-117.3c-24.8-21.4-56.3-31.3-90.1-12.4
		c-38.2,21.3-24.5,49-5.6,72.2c28.9,35.5,67,64.3,113,85.3C2018.5,3587.7,2037.8,3583.7,2035.4,3544.9z"/>
</g>
<g id="SPLINE_10256_">
	<path id="XMLID_12437_" class="st0" d="M2153.9,742.4c76.8-31.7,133.3-54.1,188.8-78.1c36.8-16,55.2-41.5,31.7-73.5
		c-24.4-33.2-62-26.2-95.1-9.5C2213.6,614.3,2188.8,670,2153.9,742.4z"/>
</g>
<g id="SPLINE_10257_">
	<path id="XMLID_12436_" class="st0" d="M1947.3,3778.2c-87.8,0.5-148.7,14.8-205.5,35.8c-44.7,16.5-62.2,53.1-32.3,87.1
		c30.6,34.8,70.6,19,101.4-5.9C1852.9,3861.1,1892.6,3825.2,1947.3,3778.2z"/>
</g>
<g id="SPLINE_10258_">
	<path id="XMLID_12435_" class="st0" d="M934.7,4174.3c-39.1,66.2-48.2,131.9-41.3,198.6c4.1,39.6,39.2,46.7,78.6,41.8
		c47.1-5.9,33.7-33.6,25.8-57.2C977.3,4296.3,955.8,4235.4,934.7,4174.3z"/>
</g>
<g id="SPLINE_10259_">
	<path id="XMLID_12434_" class="st0" d="M2302.8,823.1c-12.3,3.2-64.4-19.7-73.4,17.6c-7,29.3,42.8,35.6,72.6,46.4
		c2.8,1,6,1.7,8.1,3.3c51.5,41.2,110.3,32.8,169.5,16c13.9-3.9,13.5-15.7,6.1-24.8C2446.8,833.9,2393.4,811.1,2302.8,823.1z"/>
</g>
<g id="SPLINE_10260_">
	<path id="XMLID_12433_" class="st0" d="M1917.1,3702.4c-47.7-30.8-100-35.1-146.8-49.3c-32.3-9.7-65.2-15.7-92,9.9
		c-16.1,15.4-12.3,32.3-1.8,48.8c18.4,28.9,46.8,47.9,87.2,44.2C1817.8,3751.2,1866.1,3732.6,1917.1,3702.4z"/>
</g>
<g id="SPLINE_10261_">
	<path id="XMLID_12432_" class="st0" d="M825,4222.5c-58.1,41-76.6,94-117.6,133.7c-13.2,12.8-29.4,28.8-14.8,47
		c13.5,16.8,37.7,13,58.5,13.3c49.4,0.9,83.9-14.2,84.6-59.3C836.3,4315.6,845.2,4273.2,825,4222.5z"/>
</g>
<g id="SPLINE_10262_">
	<path id="XMLID_12431_" class="st0" d="M1852.6,3549.7c-29.4,1.1-54.8,0.2-68.6,21c-9.9,14.9-2,28.7,7.9,41.5
		c18.4,23.9,171.8,62.4,199.8,50.3c12.3-5.3,19.6-15,12.4-23.8C1966.5,3592.2,1920.4,3554.7,1852.6,3549.7z"/>
</g>
<g id="SPLINE_10263_">
	<path id="XMLID_12430_" class="st0" d="M2643.2,787.9c-16.1-32.4,32.3-105.1-40-105.3c-71.5-0.2-50.1,72-49.6,116
		c0.4,38,23.1,90.6,62.1,88.6c53.6-2.7,16.2-56.2,27.4-86.1C2644,798.9,2643.2,796.3,2643.2,787.9z"/>
</g>
<g id="SPLINE_10264_">
	<path id="XMLID_12429_" class="st0" d="M437.1,913.9c-27.8-46.6-80.4-64.5-137.8-72.1c-35.3-4.7-47.3,19-44.3,43.8
		c6.6,54.5,55,75.6,112.2,79.1C401.6,966.8,428.2,946.5,437.1,913.9z"/>
</g>
<g id="SPLINE_10265_">
	<path id="XMLID_12428_" class="st0" d="M2644.9,2418.7c-11.2-24.8,17.3-71-37.1-70.1c-50.5,0.9-109.2,28.1-112.4,72.1
		c-3.5,46.8,63.8,58.1,106.6,63C2659.9,2490.3,2634.7,2443.7,2644.9,2418.7z"/>
</g>
<g id="SPLINE_10266_">
	<path id="XMLID_12427_" class="st0" d="M1555.4,1689c9.6-86.2-62.9-104.3-115.1-135.1c-24.8-14.6-53.4-15.2-66.9,12.6
		c-10.7,22.1-8.9,48.6,22.5,56.5c48.2,12.1,88,30.3,115.9,65.5c8.3,10.5,21.8,20.1,37.2,10.6C1557,1694.1,1559,1682.4,1555.4,1689z"
		/>
</g>
<g id="SPLINE_10267_">
	<path id="XMLID_12426_" class="st0" d="M398.4,3651.9c1.4-36.9-16.6-57.8-63.1-56.6c-54,1.3-84.6,24.9-86.4,68.6
		c-2,47.3,43.7,45.8,82.4,47.4C381.8,3713.2,400.6,3689.3,398.4,3651.9z"/>
</g>
<g id="SPLINE_10268_">
	<path id="XMLID_12425_" class="st0" d="M2189.3,3624.1c72.2-13.3,119.4-40.7,167.2-65.9c28.8-15.1,37.3-41.6,18.6-65.4
		c-21.1-26.8-54.5-19.9-79.8-4.6C2243.4,3519.8,2209.3,3562.2,2189.3,3624.1z"/>
</g>
<g id="SPLINE_10269_">
	<path id="XMLID_12424_" class="st0" d="M328.8,686.7c-38.8,5.4-81.5,10.7-78.5,59.2c2.1,33.4,16.6,57.9,63.4,56.7
		c54.4-1.3,81.6-26.1,82.9-69.9C397.6,697.4,370.7,686.5,328.8,686.7z"/>
</g>
<g id="SPLINE_10270_">
	<path id="XMLID_12423_" class="st0" d="M1128.7,2406.4c30.6-23.1,119.3-125.6,126.2-147.5c2.8-9,7-21.1,2.2-27.7
		c-9.8-13.2-26.9-5.9-40.9-2.7C1126.5,2249,1091.6,2320.3,1128.7,2406.4z"/>
</g>
<g id="SPLINE_10271_">
	<path id="XMLID_12422_" class="st0" d="M246.9,1054.1c-2.2,37.1-25.8,78.3,36.3,88.7c41.6,6.9,62.5-18.3,57.5-49.3
		c-6.9-43.1-10.9-104.8-66-110.7C220,977,263.1,1033.5,246.9,1054.1z"/>
</g>
<g id="SPLINE_10272_">
	<path id="XMLID_12421_" class="st0" d="M2366.4,308.8c-4.8-35.9-38.2-28.5-62.3-27.8c-39.2,1.2-93.4-11.2-94.6,42.9
		c-0.7,29.6,10.5,68.6,56,63C2314.3,381,2342.5,343.1,2366.4,308.8z"/>
</g>
<g id="SPLINE_10273_">
	<path id="XMLID_12420_" class="st0" d="M343.2,3865.9c31.4-8.3,71-13.5,64.1-44.7c-9.5-43-51.9-66.1-103.5-72
		c-34.9-4-52.7,15-46.1,41.3C267.3,3829.1,294.9,3857.2,343.2,3865.9z"/>
</g>
<g id="SPLINE_10274_">
	<path id="XMLID_12419_" class="st0" d="M2643.3,3663.7c-12.8-22.1,23-74.6-24.9-74.5c-45.8,0-67.2,52.4-73.3,91.5
		c-5.7,36.3,26.6,66.6,64.9,69.8c53.8,4.4,25-37.9,32.9-59.6C2645.4,3684.1,2643.3,3676.2,2643.3,3663.7z"/>
</g>
<g id="SPLINE_10275_">
	<path id="XMLID_12418_" class="st0" d="M2349.1,2388.8c-3.6-27.1-16.9-53.2-58.8-49.2c-46.8,4.5-62.5,35.7-62,70
		c0.4,28.9,14.5,57.5,57,52.1C2329.1,2456.2,2347.5,2427.2,2349.1,2388.8z"/>
</g>
<g id="SPLINE_10276_">
	<path id="XMLID_12417_" class="st0" d="M1964.3,743.7c-21.1-50.4-57.8-74.8-101.7-92.3c-32.8-13-69-14.3-84.7,17.7
		c-17.2,34.8,15.4,49.8,50.1,56.1C1868.6,732.7,1910.2,736.6,1964.3,743.7z"/>
</g>
<g id="SPLINE_10277_">
	<path id="XMLID_12416_" class="st0" d="M2635.1,2109.2c-49.6,34.5-83.6,76.4-106.4,124.5c-5.3,11.2-12.6,24.1-0.1,34.3
		c13,10.6,27.5,1.7,41.3-2.1C2671.2,2238.1,2636.5,2169.1,2635.1,2109.2z"/>
</g>
<g id="SPLINE_10278_">
	<path id="XMLID_12415_" class="st0" d="M1428.6,2286.2c-7.2,5.5-15.2,9.3-19.1,15c-14.5,20.6,26.8,127.8,52.3,138.5
		c20.2,8.4,35.4,0.9,48-10.9c21.6-20.2,16.6-42.1,1-62.3C1488.3,2337.2,1467.2,2306.7,1428.6,2286.2z"/>
</g>
<g id="SPLINE_10279_">
	<path id="XMLID_12414_" class="st0" d="M249.2,3938.2c14.1,29.4-18.6,82.8,59,87.5c29.9,1.8,44.8-12.4,39.5-37.4
		c-9.3-44-17.9-95.6-76.5-107.2C238,3874.5,253.4,3914.5,249.2,3938.2z"/>
</g>
<g id="SPLINE_10280_">
	<path id="XMLID_12413_" class="st0" d="M1143.2,2140.6c-50.7,3-93,17.6-99.1,66.2c-2.5,19.7,14.9,35.8,38.6,31.4
		c52-9.6,91-39.4,109.9-77.8C1201.4,2142.7,1164.5,2142.9,1143.2,2140.6z"/>
</g>
<g id="SPLINE_10281_">
	<path id="XMLID_12412_" class="st0" d="M590.1,278.2c-29.1,11.3-87.2-15.9-87.2,22.8c0,35.2,58.3,45.1,100.6,47.8
		c39.8,2.6,82.7-16.8,77.9-46.9C675,262.3,622,288.4,590.1,278.2z"/>
</g>
<g id="SPLINE_10282_">
	<path id="XMLID_12411_" class="st0" d="M1613.3,2199.9c19.4-5.9,60.8,10.3,53-21.2c-7.3-29.3-30.3-66.8-72.7-68
		c-33.3-1-80.5,22.8-76.8,50.9C1521.7,2200,1575.6,2194.3,1613.3,2199.9z"/>
</g>
<g id="SPLINE_10283_">
	<path id="XMLID_12410_" class="st0" d="M2067,1288c61.3-18,123.3-19.6,149.2-64.1c9.8-16.8-26.7-53.3-53.2-48.3
		C2101.8,1187.2,2086,1234.1,2067,1288z"/>
</g>
<g id="SPLINE_10284_">
	<path id="XMLID_12409_" class="st0" d="M2630.4,995.2c-6-28.5-22.2-50.9-52.1-47.2c-40.3,5-84.6,15.2-95,56.3
		c-4,15.7,6.2,32.5,28.9,29.1C2554.6,1027,2600.9,1025.2,2630.4,995.2z"/>
</g>
<g id="SPLINE_10285_">
	<path id="XMLID_12408_" class="st0" d="M1991.2,1502.9c-19.7,44.5-14.4,86.5,12.9,122.7c17.4,23.1,55.8,26.9,80.7,9.8
		c25.9-17.8-3.4-35.5-16.4-50.3C2043.8,1557.1,2017.1,1530.3,1991.2,1502.9z"/>
</g>
<g id="SPLINE_10286_">
	<path id="XMLID_12407_" class="st0" d="M248.9,2359.7c6.4,22-20,60.5,35.3,60.5c39.1,0,56.6-26,55.1-56.3
		c-1.4-30.1-21.3-53.7-59.6-54.4C237,2308.7,249.7,2338,248.9,2359.7z"/>
</g>
<g id="SPLINE_10287_">
	<path id="XMLID_12406_" class="st0" d="M2225.9,4133c-20.8-21.9-37.5-49.3-68.5-46.5c-44.9,4-55,40.4-65.9,70.5
		c-6.4,17.8,6.3,29.6,28.9,24.6C2159,4173.1,2200.9,4167,2225.9,4133z"/>
</g>
<g id="SPLINE_10288_">
	<path id="XMLID_12405_" class="st0" d="M472.9,3963.3c24.7-15.1,80.6-5.5,82.4-46.9c0.9-21.3-32.9-35.9-63-28.4
		c-32,8-79.2,5.4-78.4,46.9C414.3,3958.3,439.8,3965.7,472.9,3963.3z"/>
</g>
<g id="SPLINE_10289_">
	<path id="XMLID_12404_" class="st0" d="M2581.4,3869.4c-27.7,16.9-85.2,7.9-89.8,53.8c-2,19.8,25.5,27.2,47.6,22.8
		c37-7.3,82-10.4,90.2-49.9C2633.9,3874,2610.3,3868.4,2581.4,3869.4z"/>
</g>
<g id="SPLINE_10290_">
	<path id="XMLID_12403_" class="st0" d="M2219.3,4408c-64.3-43.6-121.5-54.8-186.5-68.3C2054.7,4432.8,2125.9,4420.3,2219.3,4408z"
		/>
</g>
<g id="SPLINE_10291_">
	<path id="XMLID_12402_" class="st0" d="M1264.5,378.7c-7.3-22.6-17.3-48.1-55-46.4c-33.4,1.5-42.5,24.3-40.8,48.4
		c1.7,24.4,14.5,44,47.9,44.3C1250.6,425.3,1261.9,405.9,1264.5,378.7z"/>
</g>
<g id="SPLINE_10292_">
	<path id="XMLID_12401_" class="st0" d="M929.7,1131c29.1-2.7,46.5-15.1,44.9-38.8c-1.7-25.2-17.7-43.1-51.1-42.1
		c-28.7,0.8-43.9,16.5-43.9,39.2C879.5,1116,898.1,1129.9,929.7,1131z"/>
</g>
<g id="SPLINE_10293_">
	<path id="XMLID_12400_" class="st0" d="M1220.5,3240.5c-26.2,7.3-37.3,25.6-34.4,50.4c2.6,22,14.5,39.4,45.3,36
		c33.4-3.7,43.4-24.2,40.2-49.1C1268.8,3255.9,1255.3,3241,1220.5,3240.5z"/>
</g>
<g id="SPLINE_10294_">
	<path id="XMLID_12399_" class="st0" d="M1756.9,4415.8c37.2-1.9,64.6-15.4,69.7-47.4c2.4-15.1-14.7-22.6-30.5-18.1
		c-33.1,9.5-75.9,13.9-82.4,48.6C1710.5,4416.7,1739.3,4414.5,1756.9,4415.8z"/>
</g>
<g id="SPLINE_10295_">
	<path id="XMLID_12398_" class="st0" d="M939.2,4037.2c26.8-4,40.3-18.8,38.6-41.7c-1.7-23.1-17.6-37.4-46.9-36.2
		c-26.4,1.1-35.7,16.6-35.2,36.2C896.1,4017.9,907.8,4033.6,939.2,4037.2z"/>
</g>
<g id="SPLINE_10296_">
	<path id="XMLID_12397_" class="st0" d="M2150.4,3715.2c-1.7-25.2-17.7-43.1-51.1-42.1c-28.7,0.8-43.9,16.5-43.9,39.2
		c0,26.7,18.6,40.6,50.2,41.8C2134.6,3751.3,2152,3739,2150.4,3715.2z"/>
</g>
<g id="SPLINE_10297_">
	<path id="XMLID_12396_" class="st0" d="M1968,4260.3c-1.7-25.2-17.7-43.1-51.1-42.1c-28.7,0.8-43.9,16.5-43.9,39.2
		c0,26.7,18.6,40.6,50.2,41.8C1952.3,4296.4,1969.7,4284,1968,4260.3z"/>
</g>
<g id="SPLINE_10298_">
	<path id="XMLID_12395_" class="st0" d="M2122.8,812.4c-1.7-25.2-17.7-43.1-51.1-42.1c-28.7,0.8-43.9,16.5-43.9,39.2
		c0,26.7,18.6,40.6,50.2,41.8C2107,848.5,2124.4,836.2,2122.8,812.4z"/>
</g>
<g id="SPLINE_10299_">
	<path id="XMLID_12394_" class="st0" d="M1957,1366.8c-1.7-25.2-17.7-43.1-51.1-42.1c-28.7,0.8-43.9,16.5-43.9,39.2
		c0,26.7,18.6,40.6,50.2,41.7C1941.2,1402.9,1958.6,1390.5,1957,1366.8z"/>
</g>
<g id="SPLINE_10300_">
	<path id="XMLID_12393_" class="st0" d="M1404.4,2136.6c-1.7-25.2-17.7-43.1-51.1-42.1c-28.7,0.8-43.9,16.5-43.9,39.2
		c0,26.7,18.6,40.6,50.2,41.7C1388.6,2172.7,1406,2160.4,1404.4,2136.6z"/>
</g>
</svg>
