<?xml version="1.0" encoding="utf-8"?>
<!-- Generator: Adobe Illustrator 19.1.0, SVG Export Plug-In . SVG Version: 6.00 Build 0)  -->
<!DOCTYPE svg PUBLIC "-//W3C//DTD SVG 1.1//EN" "http://www.w3.org/Graphics/SVG/1.1/DTD/svg11.dtd">
<svg version="1.1" id="_x35_5" xmlns="http://www.w3.org/2000/svg" xmlns:xlink="http://www.w3.org/1999/xlink" x="0px" y="0px"
	 viewBox="823 -1895.8 2605 4350.8" style="enable-background:new 823 -1895.8 2605 4350.8;" xml:space="preserve">
<style type="text/css">
	.st0{fill:#FFFFFF;stroke:#000000;stroke-linecap:round;stroke-linejoin:round;stroke-miterlimit:10;}
</style>
<g id="SPLINE_13092_">
	<path id="XMLID_1344_" class="st0" d="M2357.8,936.6c1.2,10.6,1.5,17.7,2.8,24.8c16.9,93.5,183.6,158.3,316.2,118.3
		c80.1-24.2,145.1-64.1,188.2-116c35.9-43.3,41.4-89.5,5.6-132.2c-30.7-36.5-69.3-71.8-114.3-101.2c-33.1-21.7-48.4-39.7-39-70.3
		c28.3-91.6-110.9-209.9-307.9-152.1c-68,20-101.9,56.5-88.3,97.9c6.4,19.5,16.5,26.1,49.1,17.8c46.3-11.8,95.3-14.4,136,9.5
		c39.1,23,50.4,51.5,34.4,85.2c-13.9,29.4-36.4,53.4-86.7,56.7c-53,3.4-110.3,1.5-142.1-29.8c-32.1-31.7-59.2-67.3-75.1-103.7
		c-36.4-83.2,39.1-175.8,157.6-202.5c198-44.6,360.2,13.3,406.2,145.3c4.1,11.6,3.6,24.2,9.9,35.1c9,15.5,17.5,33,34.7,44.2
		c110.6,71.7,156.4,157.6,127.4,256.4c-16.1,54.7-48.9,107.4-73.8,160.2c-2.1,0.3,4.3,0.6,7.7-1.3c62.7-35.4,132.7-66.9,185.6-107.7
		c82.8-63.8,93.9-140.4,36.3-214.4c-34.5-44.2-89.5-81.7-133.8-122.8c-10.4-9.6-19.1-21.7-21-33.1c-5.8-34.6-3.5-69.9-12.3-104.1
		c-17.1-66.8-53.6-128.9-147-167c-127.4-51.9-258.6-36.7-385.7,0.9c-64.3,19-112.6,51.8-141,95.5c-4.7,7.2-20.7,12.6-33.3,16.2
		c-60.3,17.2-128.3,27.1-180.6,51.3c-114,52.7-116,174.2-12.1,234.9c27.5,16.1,37.5,34.8,24.4,59.3c-30,56.2,2.2,108.9,82.1,138.8
		C2226.9,948.7,2289,949.8,2357.8,936.6z"/>
</g>
<g id="SPLINE_13093_">
	<path id="XMLID_1343_" class="st0" d="M2190.2-1111.8c-36.4-29.7-100.2-38.8-154.7-25.3c-49,12.2-80.5,42.2-73.1,78.7
		c4.7,23.4,11.1,52.9,34.7,67.3c51.6,31.5,63,43.5,39.2,87c-4.7,8.7-9.7,21.1-3.7,27.8c29.3,33.4,71.5,55.7,133.8,60.4
		c26.4,2,54.4,6.9,77.3,15.4c132.5,49.4,251.9,13.4,270-83.6c3.2-17.1,13.1-24.3,37-30.9c68.6-18.9,98.3-56.8,103.4-102.7
		c4.2-38.6-10.5-76.2-65.6-95.3c-37.7-13-35.2-25.8-27.9-47.2c49.2-144.4-67-248.5-293.8-261c-169-9.3-323.4,19.4-458.1,87
		c-150.1,75.3-178.1,178.3-60.6,274.5c51.9,42.5,54.2,73.6,28.1,122c-65,120.5,13.8,209.5,204.9,243.8
		c139.4,25,280.8,18.3,422.1,7.9c0.9-0.1,1.3-2.9,2.9-6.6c-14.3-0.8-28-1-41.5-2.4c-67-7-135.7-10.3-200.4-22.4
		c-108.5-20.3-203-58.1-216-137.9c-7.6-46.3-35.2-85.7-57.6-127.7c-10.5-19.8-18.7-40.5-23.6-61.3c-19.6-82.4,35.5-137.8,156.5-166
		c127.2-29.7,230.4,1.4,324.4,51.7c48.4,25.9,57.5,62.9,32.4,100.6c-42.9,64.7-99.2,89.2-218.1,94.5c-42.8,1.9-67.8-12.6-75.7-38.3
		c-12.3-39.5,3.2-69.2,38.6-81.3C2148.1-1091,2168.4-1102.1,2190.2-1111.8z"/>
</g>
<g id="SPLINE_13094_">
	<path id="XMLID_1342_" class="st0" d="M2412.5,1912.9c-0.2-1.6-0.4-3.3-0.6-4.9c-20.9-1.3-42-1.9-62.8-3.9
		c-57.3-5.7-116-8.3-171.2-18.8c-106.2-20.3-203-55.1-219.6-133.1c-10.9-51-38.1-96.5-64.6-143.3c-9.2-16.2-14.4-33.6-18.5-50.8
		c-19.9-82.7,33.4-138.7,154.7-166.9c126.3-29.4,231.2-0.1,325.3,51c49.2,26.6,58.7,63.3,32.5,102.8c-29,43.9-75.5,73.7-148.4,86.9
		c-113.4,20.6-161.1-5.3-143.6-80.7c0.2-0.9,0-2,0.8-2.7c11.8-10,21.7-21.5,36.1-29.6c20.2-11.4,43.8-20.2,67-30.6
		c-45.2-30.2-111-37.6-163.1-22.3c-45.9,13.5-73.3,43.1-65.1,79.2c5.1,22.5,10.6,50.9,33.3,64.6c51.4,30.9,63.5,46.4,38.6,89.6
		c-4.8,8.3-7.9,22.6-0.8,27.2c29,19.3,59,47,94.4,51.2c60.4,7.3,113.9,22.1,168.9,36.9c12.8,3.5,27.4,4.9,41.3,5.9
		c84.2,5.6,142.1-19.9,165.7-72.8c4.3-9.7,8.7-19.6,9.5-29.6c1.4-16.3,9.9-25.7,35.9-31.9c44.6-10.6,73.7-33.2,90.5-62.2
		c36.3-62.6,10.2-107-89.4-152.3c5.4-18.9,11.2-37.7,16.2-56.6c29.7-113.3-70-208.4-244.1-229.2c-192-22.9-366.7,6.3-519.7,83.6
		c-138.2,69.8-163.8,165.8-73.2,258.5c24.1,24.6,71.4,44.9,77.5,70.3c6.1,25.4-29.4,54.1-40.8,82.3
		c-35.1,86.9,4.8,158.5,111.1,198.8c32.6,12.3,68.9,22,105.3,28.4c132.3,23.4,267,17.5,401.5,10.1
		C2399.9,1917.5,2406.1,1914.6,2412.5,1912.9z"/>
</g>
<g id="SPLINE_13095_">
	<path id="XMLID_1341_" class="st0" d="M2385.2,269.4c8.1,1.3,9.7,1.9,10.9,1.6c5.3-1.2,10.6-2.5,15.5-4.1
		c123.8-40.6,249.8-57.5,383.8-19.4c16.7,4.8,42.8,2.5,60.6-2.5c35-9.8,61.7-27.1,64.5-53.7c3.1-29.2-29.5-43.5-61.5-58
		c-18.2-8.2-30.7-7.6-47.7,2.9c-22.3,13.7-47.4,26.6-74.6,35.6c-48.3,16-83.5,6.9-100.6-25.8c-9.3-17.8-13.6-37.6-13.4-56.5
		c0.4-43.7,41.2-71.5,107.7-65.3c61.8,5.8,125.2,17.1,180.7,35.2c91.4,29.8,128.3,88.4,105.9,153.6c-9.1,26.6-29.4,51.5-41,77.8
		c-4.7,10.5-3.9,23.6,1.3,34c22,44.3,67,88.2,65.8,131.8c-1.9,74.9,37.1,133,99.4,193c73.2,70.5,106.8,152.1,88.5,238.6
		c-22.6,106.4-123.5,178.4-255.3,235.8c-20.8,9-42.2,17.4-54,22.2c31.9,45.6,65.7,86.6,89.4,130c17,31.1,25.9,37.5,71.4,22.1
		c13.7-4.6,29-9.6,38-17.2c56.6-48,111.9-96.6,166.8-145.4c5.2-4.6,5.5-12.2,5.5-18.5c0.4-261.8,0.6-523.6-0.2-785.4
		c0-9.7-7.2-23.4-18.4-28.5c-41.1-19-83.7-37.2-128.7-51.8c-33.9-11-49-24.9-35.6-48.6c4.8-8.5,14-15.9,20.1-24.2
		c53.1-72,76.8-145,4.6-217.5c-100.2-100.4-341.8-140.2-503.1-82.3c-66.8,24-122.3,55.2-136.1,109.2c-7.8,30.6-34,55.6-75.7,73.6
		c-15.8,6.8-30.5,17.5-38.4,28.6C2338.4,151.2,2359.4,211.1,2385.2,269.4z"/>
</g>
<g id="SPLINE_13096_">
	<path id="XMLID_1340_" class="st0" d="M979.8,103.9c6.2-0.4,9.5,0,11.5-0.9c152.9-68.8,263.4-51.2,398.3,9.1
		c62.8,28.1,76.3,73.5,46.7,117.3c-40.7,60.2-116.6,84.8-212,88.8c-35,1.5-68.4-7.3-74.1-32c-5.3-23-4.5-47.8,3.2-70.5
		c3.2-9.5,31.3-15.4,48-22.9c7-3.1,14.4-5.9,21-9.4c30.5-16.1,29.6-24.7-6.4-34.9c-50.9-14.5-101.8-16.2-149.4,5.9
		c-47.1,21.9-50.3,54.3-42.2,86.9c4.3,17.2,11.4,39.1,29.8,49c59.3,31.8,67.2,43.2,39.3,90.6c-4.1,6.9-7.7,17.2-2.9,22.6
		c30.6,33.8,71.3,58.5,136.8,61.3c23.7,1,48.9,5.9,69.6,13.5c127,46.7,261.6,27.2,279.1-87c1.2-7.9,15.5-18,27.6-21.7
		c70-21.5,105-57.4,109-106.4c4-48.3-21.3-86.4-94.6-106.4c-3.4-0.9-5.4-3.9-8.2-5.9c4.5-12.9,9.2-25.3,13.1-37.9
		c34.9-112.7-36.8-204.2-189.4-237.8c-147.3-32.4-290.8-17.2-430.7,20.4c-9.7,2.6-22,11.1-22.1,17C979.2-24.2,979.8,39,979.8,103.9z
		"/>
</g>
<g id="SPLINE_13097_">
	<path id="XMLID_1339_" class="st0" d="M1126,2022.6c-6.8,6.8-14.7,14-21.6,21.7c-32.3,35.3-27.3,52.3,22.4,77.9
		c92.6,47.8,181.3,42.7,252.9-20.2c28.1-24.7,55.1-27.2,98.1-26.5c162.3,2.7,229.3-22.2,278-123c24.9-51.5-47.4-114.5-135.4-122.4
		c4.3,44.1-43.2,65.7-93.6,83.2c-33.1,11.5-70.6,18.9-107.5,24.2c-57.9,8.2-118.7,11.5-161.4-21.9c-41.7-32.7-22.9-70-3.3-104.8
		c32.8-58.3,92.4-68,166.8-28.3c21.3,11.4,40.8,24.2,61.4,36.5c39.5-34.8,35-57.7-18.9-76.4c-34.3-11.9-73.2-19.3-111.2-25.4
		c-21.3-3.4-28.9-8.3-34.5-22.1c-18.7-46.5-66.4-76.5-138.2-87.8c-41.6-6.5-83-3.5-111.2,21.4c-25.7,22.7-9.5,45,10.3,63.9
		c59.4,56.5,25.1,103.5-62.9,132.4c-13.9,4.6-28.8,12.8-34.8,21.7c-33.2,49.2-17.7,96.6,45.4,132.2
		C1056,1995.3,1091.2,2007.5,1126,2022.6z"/>
</g>
<g id="SPLINE_13098_">
	<path id="XMLID_1338_" class="st0" d="M1120.8-581.2c-10.3,10.4-18.3,17.9-25.4,25.7c-31.6,34.8-27.3,49.6,21,75.5
		c95.2,50.9,190.1,42.1,264.1-26.5c18.7-17.3,34.4-21.6,68-20.1c176.7,8,255.2-23.1,299.8-125.2c22.3-51.2-51.7-113.1-135.9-119.1
		c2.4,38.4-34.3,61.1-80.6,77.2c-34.5,12-71.7,22.6-109.7,27.9c-59.5,8.4-124.8,15.8-170.9-18.8c-48.1-36.1-23-76.8,0.7-114.4
		c30.6-48.5,82.5-57.5,148.1-26.6c25.8,12.2,47.9,27.7,71.6,41.6c39.9-25.9,41.4-51.8-2.7-69c-36.7-14.3-79.8-22.3-121.2-30.7
		c-21-4.2-32.1-8.8-38.5-23.9c-20.6-48.5-71.9-78-147.7-88.3c-38.5-5.2-74.2,0.9-99.6,21.4c-25.6,20.6-12.5,41.5,4.8,61.5
		c5.5,6.4,11.6,12.6,16.8,19.1c30.7,38.4,22.7,78.2-34.7,98.6c-53,18.8-59.5,44.2-56.1,76.6c0.9,8.2,2.6,16.9-0.4,24.7
		c-21.8,56.6,32.5,82.2,98.4,103.3C1099.6-587.6,1108.5-585,1120.8-581.2z"/>
</g>
<g id="SPLINE_13099_">
	<path id="XMLID_1337_" class="st0" d="M2348.7-1664.7c1.2,9,1.8,16.1,3.1,23.3c16.4,95.1,185.4,161,317.9,119.4
		c86.2-27.1,156.6-69.7,196.6-128.5c30.7-45,23.5-89.9-12.6-132.2c-7.2-8.4-27.1-17.5-41.3-17.5c-236.5-1.1-473-0.7-709.5-1.1
		c-28.5-0.1-36.5,8.5-36.8,25.1c-0.6,41.2,28.1,72.2,78.7,95.2C2207-1652.8,2275.2-1649.3,2348.7-1664.7z"/>
</g>
<g id="SPLINE_13100_">
	<path id="XMLID_1336_" class="st0" d="M2439.8-103.8c7.6-0.7,12-0.4,12.9-1.3c50.1-56.2,125.2-92.9,214.5-120.1
		c12.1-3.7,21.7-21,20.3-31.3c-6.7-49.8,5.2-97.2,36.6-142.2c11.3-16.3,8.5-27.6-5.9-42.7c-91.3-95.1-97.5-193-17.7-292.8
		c3.4-4.2,4.5-9.2,6.7-13.8c-2.5-1.9-5.1-3.8-7.6-5.7c-23.7,8.6-49.4,15.6-70.7,26.2c-40.2,20-78.8,41.6-116.2,63.9
		c-8.7,5.2-10.9,15.7-13.8,24.1c-10.5,30.2-12.1,63-32.1,90.2c-23,31.1-62.1,57.2-94.9,86.2c70.8,46.5,73.6,110.6,77.1,172.3
		C2452.4-229.3,2443.4-167.2,2439.8-103.8z"/>
</g>
<g id="SPLINE_13101_">
	<path id="XMLID_1335_" class="st0" d="M1949.3-453.3c75.6-35.4,110.7-60.1,130.8-92.5c28-45.2,1.6-82.2-71.6-87.4
		c-50.6-3.6-103.3,3.5-154.8,7.3c-7.8,0.6-19.9,9.4-20.2,14.7c-3.4,52.9-37.6,95.1-96.2,123.1c24.5,38.1,55,71.9,68,108.3
		c27.7,77.5-15.9,148.1-67.1,216.6c-19.7,26.3-15.1,32.3,31.3,30.3c79.4-3.4,152-20.6,215.8-51.6c86.4-42.1,111.9-99.4,65.1-162.8
		C2023.2-384,1984.2-417.1,1949.3-453.3z"/>
</g>
<g id="SPLINE_13102_">
	<path id="XMLID_1334_" class="st0" d="M2642.9,1429.7c33.2,29.4,70.6,54,92.2,83.5c33.3,45.4,22.5,94.2-7,139
		c-28.5,43.4-65.6,84.4-100.8,128.8c87-7.7,169.6-22.9,241.6-57c74.6-35.3,99.2-85.6,63-140.6c-22.4-34.1-55.1-65.4-83.8-98.8
		c109.9-74.2,71.4-224.3-7.6-280.8c-60.7-43.4-181.6-53.8-238.9-25.6C2697.2,1258.9,2758.1,1342.2,2642.9,1429.7z"/>
</g>
<g id="SPLINE_13103_">
	<path id="XMLID_1333_" class="st0" d="M2625.5-1164.5c97.7,37.8,129.7,94.3,115.6,162.8c-12.3,59.7-57,110.8-108.3,159.7
		c-5.8,5.5-10.3,11.5-16.6,18.7c56.2,1.4,154.2-17.6,213.5-40.4c109.4-41.9,138-101.8,80.6-175.2c-20.9-26.7-48.3-51.3-72.9-77.1
		c79.6-56.5,78.9-124.3,58.6-193.7c-14.2-48.6-48.6-90.3-118.9-114.8c-60.6-21.1-122.2-19.3-186.5-1.8
		C2723.5-1314,2722.3-1240.3,2625.5-1164.5z"/>
</g>
<g id="SPLINE_13104_">
	<path id="XMLID_1332_" class="st0" d="M3282.9-63.6c3.4-0.8,6.7-1.7,10.1-2.5c0-42.8-1.1-85.7,0.5-128.5
		c0.6-16.6-8.1-25.6-29.5-35.5c-25.1-11.6-53.7-27.8-61.4-45.5c-9.2-21.1-19.8-26.9-52-28.4c-135-6-211.7-56.2-216.7-139.1
		c-0.6-11,3.5-22.2,1.6-33c-1.9-11.1-7-22.3-13.4-32.7c-19.4-31.4-44.3-61.6-59.5-93.7c-23.1-48.7-22.7-98.9-0.9-149.8
		c-138.6,27.8-200.7,129.1-127.9,204c16.4,16.9,37.6,32.3,59.4,46.5c17.4,11.3,23.7,20.6,19.1,38.1c-8.8,33.2-12.6,67.6-10.7,101.3
		c4.3,78.2,59.2,133.8,178.9,159.3c85.7,18.2,162.6,47.6,228.8,87.5C3235.8-99.7,3258.5-81,3282.9-63.6z"/>
</g>
<g id="SPLINE_13105_">
	<path id="XMLID_1331_" class="st0" d="M3293-900.7c-21.8,10.4-32.1,16.5-44,20.8c-55.6,19.7-108.7,45-168.1,56.9
		c-135,27.2-198.6,120.7-127.1,199.4c12.2,13.4,29.7,24.7,41,38.4c8.5,10.3,14.1,22.5,15.4,34.2c3.1,28.2-2.2,57.1,4.9,84.8
		c23.1,89.2,128.8,113.3,257.4,82.6c7.9-1.9,19-8.7,18.7-12.8c-2.9-36.7,16.6-73.2-36.7-106.8c-129.2-81.6-122.6-172,8.6-251.2
		c6.2-3.8,13.4-7,18.5-11.3c4.9-4.2,10.8-9.3,10.9-14.1C3293.4-817.4,3293-854.7,3293-900.7z"/>
</g>
<g id="SPLINE_13106_">
	<path id="XMLID_1330_" class="st0" d="M945.3,1591.2c26.2-12.7,45.8-23.2,66.7-32.2c119.4-51.7,256.2-59.4,333.9,44.9
		c4.2,5.7,20,12.5,28.3,11.5c81.7-10,139.4,17.4,191.2,51.5c27.2,17.9,48.6,39.6,79,64.8c15.9-24.8,31.2-45.8,42.8-67.6
		c16.2-30.4,10.2-56.8-32.4-78.6c-19.1-9.8-38.2-24.7-43.5-39.4c-11.2-30.9-16.5-63.2-18.4-95c-2.5-42.1-17.2-59.7-78.4-74.7
		c-23.6-5.8-48.9-10.5-73.9-11.7c-96-4.7-183.6,2.9-237.9,65.3c-26.9,30.9-74.1,47.5-127.8,54.1c-33.3,4.1-67.6,5.3-100.7,10
		c-10.9,1.6-26.8,9.9-27.5,15.7C943.5,1535,945.3,1560.5,945.3,1591.2z"/>
</g>
<g id="SPLINE_13107_">
	<path id="XMLID_1329_" class="st0" d="M3292.3,1732.1c-19.8,8.5-30.5,13.8-42.1,17.8c-49.7,17.2-97.2,39-150.1,50
		c-152.3,31.7-208.5,129-118.4,214.1c9.6,9.1,23.4,16.6,30.6,26.3c7.2,9.6,10.8,20.9,12.2,31.7c4.2,33.6-1.7,68.8,11.3,100.8
		c33.5,82.2,133.1,89.5,235.3,70.4c7.2-1.3,15.2-5.7,18.7-10c17-21.1-2.3-98.3-28-116.2c-115.6-80.5-113.2-164.7,6.6-242.7
		c8.8-5.8,22.4-12.5,22.8-19C3293.4,1816.4,3292.3,1777.4,3292.3,1732.1z"/>
</g>
<g id="SPLINE_13108_">
	<path id="XMLID_1328_" class="st0" d="M1412.3,854.1c60.8,26.7,85.7,63.8,94.5,104.4c8.4,38.8,8.6,78.4,10.5,117.7
		c0.7,15.1,4.9,21.6,31.8,18.9c91.7-9.1,176.6,6,257.2,33.9c9.8,3.4,20,6.4,31.7,10.1c0.6-4.8,1.3-6,0.7-6.6
		c-5.4-5.3-11.1-10.5-16.5-15.8c-67.7-66.5-105.8-136.6-54.4-215c9.3-14.2,8.5-21.9-5.3-33.7c-67.5-57.6-103.4-122.9-91.3-195.3
		c6.4-38.3,26.9-75.6,43.4-119.8c-25,9.4-49.4,15.7-68.1,26.3c-41.3,23.5-80.2,48.8-119,74.1c-6,3.9-9.9,11.5-9.2,17.1
		C1527.5,741.1,1498.8,802.9,1412.3,854.1z"/>
</g>
<g id="SPLINE_13109_">
	<path id="XMLID_1327_" class="st0" d="M1002.3-1044.6c12.8-3.4,18.3-4.3,22.9-6.1c130.4-51.3,248.3-33.8,312,52.5
		c4.5,6.1,24.2,11.7,35.7,10.9c49.6-3.7,95.1,3.8,131.1,24.2c39,22,71.8,48.6,107.2,73.4c6.9,4.9,12.9,10.3,25.6,20.5
		c16.7-27.1,32.1-48.5,43.1-70.7c14.6-29.5,4.8-53.7-32.9-76.6c-25.2-15.3-44.1-38.3-53.6-60.1c-10.5-24.2-8.3-50.8-9.4-76.5
		c-1.7-39.3-18-56.9-73.9-71c-71.1-18-145-20.5-215.8-2.9c-32.3,8.1-66.7,23.8-85,42.3c-42.6,43.2-99.4,65.8-176.3,71.4
		c-10.9,0.8-28.1,8.2-29.5,13.8C999.8-1083,1002.3-1065.7,1002.3-1044.6z"/>
</g>
<g id="SPLINE_13110_">
	<path id="XMLID_1326_" class="st0" d="M2384.1,2127.5c22,36.1,47.8,65.3,57,96.5c12.6,43,13.3,87.5,17.6,131.4
		c1.2,12.2,1.1,22,26.1,21.8c59.6-0.5,119.1,0.1,178.7-0.5c26.2-0.3,38.7-9.4,34.2-27c-13.1-50.7,3.2-98.8,33.5-145
		c11.2-17.1,10.5-29.1-5.1-45.3c-91.4-95.1-96.8-193.2-17-292.9c3.3-4.1,3.8-9.2,9.1-22.5c-33.1,11.8-57.9,18.1-78.2,28.3
		c-41.3,20.7-80.5,43.2-119.7,65.6c-6.7,3.8-13.2,10.8-13.1,16.2C2508.5,2027.6,2467.6,2088,2384.1,2127.5z"/>
</g>
<g id="SPLINE_13111_">
	<path id="XMLID_1325_" class="st0" d="M1870.8,570.2c-60.2,19.2-92.8,46.5-100.3,85.7c-9.3,48.5,7.9,95.3,48.4,134.3
		c43.3,41.7,44.4,79.1,25.3,126.6c-36.4,90.6,23.2,159.2,147.4,183.9c95.3,19,190.6,14.7,283.4-8.1c18.7-4.6,35-13.3,52.8-20.3
		c-5.5-6.2-6.7-9.3-9.7-10.6c-10.5-4.7-21.5-8.8-32.5-13c-96.2-36.1-189.2-74.7-253.6-135.6c-34-32.1-51.5-66.7-34.6-106.7
		c2.9-6.7-7.1-18.4-16.4-24.2c-57.4-35.9-92-78.8-100.2-130.3C1876.4,626.5,1874.4,600.9,1870.8,570.2z"/>
</g>
<g id="SPLINE_13112_">
	<path id="XMLID_1324_" class="st0" d="M1789.5,2376.8c82.4,0,157-0.8,231.5,0.4c28.1,0.4,40.2-7.6,49.2-23.2
		c20.9-36.2,12.9-71.6-13.6-103.7c-29-35.2-65.8-67.7-100.5-102.8c6.8-2.9,19.1-6.1,27.1-11.8c35.2-25.7,76.9-49.3,101.8-78.9
		c37.6-44.6,4.2-85.2-72.9-90.2c-49.4-3.2-100.7,4.6-150.9,9.1c-7.8,0.7-19.6,9.6-19.8,14.9c-2.1,53.2-37.6,94.8-106.2,127.5
		C1839.9,2195.8,1837.5,2282.8,1789.5,2376.8z"/>
</g>
<g id="SPLINE_13113_">
	<path id="XMLID_1323_" class="st0" d="M1867.4,174.9c61.8-54.2,90-114.3,82.1-181c-9-75.9-137-121.2-239.6-83
		c59.8,70.8,68.8,142.3-2.9,211.7c2,2.9,2.5,4.9,4.3,6.2c7.8,5.3,16.1,10.3,23.9,15.5c58.5,39.3,91.7,85.3,88.2,141
		c-4.8,75.3-66.6,132.6-140,186.3c-9.6,7-18.6,14.3-29.4,22.6c70.3,15.7,224.4-28.1,285.5-81.6
		C2047.9,317.8,1951.6,246.7,1867.4,174.9z"/>
</g>
<g id="SPLINE_13114_">
	<path id="XMLID_1322_" class="st0" d="M2356.9-580.9c-21.8,2.8-37.2,3.7-51.5,6.7c-107.3,22.5-175,71.2-218.1,137.2
		c-12.7,19.4-11.8,31.9,14.4,47.4c79.5,47.1,98.5,107.3,50.9,170c-23.4,30.8-59.3,57.7-89.6,86.4c-6.3,5.9-17,11.3-18.7,17.7
		c-9.6,35.8,69.9,82.2,124,69.2c35.4-8.5,75.2-23,95-42.5c68.5-67.5,100.1-143,63-222.8c-19.2-41.3-54.4-79.5-84.6-122.2
		C2308.9-466.7,2357.9-512.2,2356.9-580.9z"/>
</g>
<g id="SPLINE_13115_">
	<path id="XMLID_1321_" class="st0" d="M3186.4,2299.7c-13.8-1.2-39-3.1-64-5.7c-91.7-9.4-155.8-45.8-173.5-102.1
		c-6.7-21.2-1.9-43.9-4.7-65.7c-1.4-11.2-4.7-23.3-13-32.9c-63.1-72.6-96.6-148.3-64.9-231.9c1.4-3.7-0.9-8-2.9-21.8
		c-43.8,26.9-82.6,46.6-113.5,70.5c-53.9,41.8-57.7,88.8-14.3,135.5c18.1,19.4,41.5,37.1,65.7,53.6c17,11.5,23.2,20.6,19.3,37.9
		c-8.4,36.9-12.3,74.8-10.1,112.1c2.5,41.1,23.2,80.2,72.2,108.3c18.1,10.4,46.4,17.9,70.5,18.5c93.4,2.1,186.9,1,280.4,0.9
		c8.9,0,17.8-1.3,23.5-1.7C3235.2,2351.7,3214,2329.1,3186.4,2299.7z"/>
</g>
<g id="SPLINE_13116_">
	<path id="XMLID_1320_" class="st0" d="M2914.5-1452.4c30.5,42.6,64.3,81.8,86.9,123.6c19.7,36.4,33.1,42.7,85.9,20.8
		c14.2-5.9,29.3-12.3,39.1-20.9c54-47,106.8-94.6,159.2-142.4c5.3-4.8,7.3-12.1,7.3-18.2c0.4-97.3-0.5-194.7,0.5-292
		c0.2-22.9-23.6-18.4-43.6-19.4c-23.7-1.2-27.2,6.6-25.4,20.6c13.4,101.6-43.5,185.6-159,252.7
		C3016.3-1499.1,2960.7-1475.2,2914.5-1452.4z"/>
</g>
<g id="SPLINE_13117_">
	<path id="XMLID_1319_" class="st0" d="M1735.6,1187.7c-147.2-24.3-291-34.6-436.8-14.9c-149.4,20.2-257.9,72.8-307.3,169.8
		c-2.9,5.6-8.7,13.6-15.6,14.9c-47.7,9.2-26.6,29.4-24.6,48.2c47.3-6.7,89.7-16.7,132.5-17.6c49.4-1,73.7-15.7,97.7-41.7
		c92.6-100.2,237.6-116.9,381.6-46.4c15.3,7.5,30.3,15.2,46,23.1C1651.4,1277.8,1691.5,1234.9,1735.6,1187.7z"/>
</g>
<g id="SPLINE_13118_">
	<path id="XMLID_1318_" class="st0" d="M1605-1282.4c38.7-41.7,78.9-85.1,124.5-134.3c-76.6-7.3-145.6-16.5-215.3-20
		c-137.7-6.9-272.2,1-391.2,53.2c-102,44.8-139.1,102.8-112,174.9c65.7-5.9,139,1.2,170-54.1c8.6-15.4,31.3-28.3,50.7-40.2
		c64-39.1,139.5-53.9,222.7-32.1C1505.9-1321.5,1553.1-1300.8,1605-1282.4z"/>
</g>
<g id="SPLINE_13119_">
	<path id="XMLID_1317_" class="st0" d="M1408.7-1748.1c116,66,99.1,155.3,104.5,243.9c114.8-13,218.5,4.6,317.7,40.3
		c-5.5-9.9-13.6-16.9-21-24.3c-59.5-59.8-98.9-123.9-59.3-194.5c15.8-28,5.5-44-12.6-68.3c-31.3-42.2-74.1-52.1-142.6-51.6
		c-75.5,0.5-142.4,2.3-183.3,50.5C1411.5-1751.4,1410.8-1750.6,1408.7-1748.1z"/>
</g>
<g id="SPLINE_13120_">
	<path id="XMLID_1316_" class="st0" d="M1818.8-1798.8c7.7,9,10.2,14.6,15.8,18.1c28,17.8,25.3,37,14.3,59.6
		c-11.4,23.4-18.2,48.1-21.4,72.6c-8.9,69.5,42.9,121.9,143.9,145c101.6,23.3,203.2,18.3,302.4-7.2c16.6-4.3,30.3-13.3,51.2-22.8
		c-21.7-8.6-35.2-13.4-47.6-19c-64.5-29.5-132.8-56.3-192.1-89.7c-70.3-39.6-119.4-88.5-97.3-156.6
		C1932-1798.8,1879.3-1798.8,1818.8-1798.8z"/>
</g>
<g id="SPLINE_13121_">
	<path id="XMLID_1315_" class="st0" d="M1110.9,1148.4c1.8,1.7,3.6,3.3,5.5,5c14.3-4.9,28.2-10.3,42.9-14.6
		c61.9-18.2,125.2-41,194.2-29.9c44.6,7.2,51.7-6,60.1-25.5c25.3-58.9,0.7-112.7-43.9-163.4c-22.8-26-51.3-49.8-77-74.5
		c102.3-66.6,133-107.1,112.7-151.2c-14.6,1.9-30,2.9-44.3,6c-110.6,23.3-178.4,74.2-220.7,142.4c-10.6,17.2-6.7,27.4,14.7,40.2
		c86.7,51.9,103.1,114.5,47.5,181.9c-19.2,23.2-45.8,43.9-69.3,65.6C1126.3,1136.6,1118.3,1142.4,1110.9,1148.4z"/>
</g>
<g id="SPLINE_13122_">
	<path id="XMLID_1314_" class="st0" d="M955.9,1135.3c93.8-11.2,176.2-77.9,162.1-136.2c-7.2-29.9-27.3-59.4-49.1-86.6
		c-19.8-24.6-49.8-45.8-76.5-69.6c12.7-5.3,23.6-9.3,33.7-14c52-24.1,92.7-53.9,109.3-95.1c12.1-30.1-6.1-56-50.9-66.6
		c-24.6-5.8-52.2-6.8-78.7-8.6c-32.2-2.3-43.4,7.1-43.7,28.8c-1.6,142.3-5.4,284.5-8.2,426.7
		C953.6,1121.2,955.2,1128.1,955.9,1135.3z"/>
</g>
<g id="SPLINE_13123_">
	<path id="XMLID_1313_" class="st0" d="M1099.2-1445.3c19.8-6.7,31.5-10.9,43.7-14.7c65.4-20,131.8-43.1,206.1-32.4
		c36.3,5.2,45.8-3.1,54-20.4c25.7-54.2,10-105.7-30.2-154c-25.9-31.1-58-60.1-88.1-90.7c20.7-11.5,41.6-23.1,62.5-34.8
		c-2-2.8-4-5.7-6-8.5c-47.3,0-95,2-142-0.6c-46.5-2.5-50.2,20.3-64.5,38.3c-14,17.7-11.4,30.2,13,45.2
		c86.9,53.4,101.9,113.6,44.9,182C1168.2-1506.2,1135.1-1479.6,1099.2-1445.3z"/>
</g>
<g id="SPLINE_13124_">
	<path id="XMLID_1312_" class="st0" d="M1380-222.1c46.6,6.4,91.2,7.2,127.3,18.9c47.2,15.4,79.4,8.5,111.6-13.5
		c10.7-7.3,22.5-14,32.8-21.5c74.1-53.9,83.8-118.2,26.4-179.9c-7.7-8.2-19.6-19.7-31.3-20.6c-59.7-4.8-120-6.5-186-9.6
		C1485-363.3,1451.5-290.5,1380-222.1z"/>
</g>
<g id="SPLINE_13125_">
	<path id="XMLID_1311_" class="st0" d="M2175.4,2376.9c43.4,0,85.8-1.6,127.7,0.5c40,2,48.6-9.6,46.3-32.4
		c-5.5-54.5-30.9-104.1-80.4-148.4c-8.8-7.9-17.5-15.8-27.8-25.2c68.6-31.8,110.8-71.8,123.7-123.3c6.3-25.3-2.1-30.5-40-23.3
		c-117.8,22.4-190.9,74.7-233.7,147.6c-9.1,15.5-6.2,24.8,13.1,35.5c43.4,23.9,74,54.4,79.5,91.3
		C2187.4,2322.9,2179,2347.5,2175.4,2376.9z"/>
</g>
<g id="SPLINE_13126_">
	<path id="XMLID_1310_" class="st0" d="M1390.5,2376.7c86.7,0,161.5,0.6,236.1-0.6c11.8-0.2,25.3-7.6,34.5-13.8
		c74.3-51,82.6-127.6,20.1-185c-6.8-6.3-18.1-13.9-28.5-14.6c-58.5-4.3-117.3-6.7-183.9-10.1
		C1490.8,2234.2,1463.6,2305.6,1390.5,2376.7z"/>
</g>
<g id="SPLINE_13127_">
	<path id="XMLID_1309_" class="st0" d="M1348.7,2249.1c-16.4-2-23-3.7-29.3-3.5c-189.1,7.9-340.9-84-338.7-205.1
		c0.4-20.4-9.6-36.7-50.5-50.6c0,48.7-0.3,92.1,0.5,135.5c0.1,4.9,4.8,11.6,10.8,14.3c38.2,17,36.6,42.2,39.3,68.1
		c7.9,75.3,80.5,121.8,185.3,112.1c50.8-4.7,99.1-23.8,146.4-39.1C1327,2276.1,1334.4,2262.2,1348.7,2249.1z"/>
</g>
<g id="SPLINE_13128_">
	<path id="XMLID_1308_" class="st0" d="M2882.6-1516.7c93-37,174.5-77.4,228.1-137.9c34.4-38.7,49.3-80.2,38.2-124.4
		c-2-7.9-17.3-19.8-27.7-20.4c-43.6-2.5-87.7-1.4-131.6-1.8c-23.6-0.2-24.7,7.9-25,21.4c-1.3,45.5,1.3,92-12.3,136.2
		C2939.4-1601.5,2908.2-1561.7,2882.6-1516.7z"/>
</g>
<g id="SPLINE_13129_">
	<path id="XMLID_1307_" class="st0" d="M2985-1043.1c15.8-17.8,28.2-37.5,48.1-53.2c56.8-44.9,135.5-52.3,219-48.1
		c18.3,0.9,39.8,6,40.3-13.1c1.1-36.3,0.3-72.6,0.3-112.6c-90.6,10-170.3,27.2-240.9,57.9c-33.2,14.4-64.3,33.4-87.3,54.5
		C2926.6-1122.9,2939.3-1070,2985-1043.1z"/>
</g>
<g id="SPLINE_13130_">
	<path id="XMLID_1306_" class="st0" d="M2992.9,1558.8c2.1-1.2,5.1-2.2,6.2-3.7c3-4.1,5-8.4,7.6-12.6
		c26.4-43.2,74.6-71.2,144.5-80.6c35.5-4.8,72.9-5,109.5-5c23.7,0,33.2-4.1,32.4-20.2c-1.4-28.4,1.4-56.9-1.2-85.2
		c-0.5-6-18.7-17.4-24.6-16.4c-100.2,17.1-198.3,37.7-273.4,87.9C2932.3,1464.4,2943.5,1530.9,2992.9,1558.8z"/>
</g>
<g id="SPLINE_13131_">
	<path id="XMLID_1305_" class="st0" d="M2328.8,26.8c-75.3-7.3-157-4.9-229.1,25.4c-27.6,11.6-59,31.8-64.2,50.8
		c-8.4,31.2-14.5,59.1-65.5,74.9c27.3,20,51.3,37.4,79.9,58.3c21.7-41,62.6-65.8,115.6-81.4c34.5-10.2,72.1-16,107.4-25.2
		c10.8-2.8,24-9.4,26.7-15.9C2310.8,86.3,2318.6,58.4,2328.8,26.8z"/>
</g>
<g id="SPLINE_13132_">
	<path id="XMLID_1304_" class="st0" d="M3275,1605c-8.4-22.6-9.7-39.2-21.1-52c-7.9-8.8-30.2-17.7-45.6-17.4
		c-126,2.7-206.5,60.9-202.4,141.9c1.1,22.2,14.8,29.4,47.1,26.4c71.3-6.6,131.5-28.2,183-59.3
		C3254.4,1633.5,3264.2,1616.3,3275,1605z"/>
</g>
<g id="SPLINE_13133_">
	<path id="XMLID_1303_" class="st0" d="M3269.9-996.4c-2.3-1.5-4.6-3-6.9-4.5c-4-14.4-3.3-30.4-13.6-42.6
		c-8.4-10-29.6-21.5-45.4-21.7c-124.6-1.5-213.4,61-206.4,141.4c1.8,20.9,13.4,29.7,47.3,26.5c71.4-6.7,131.2-28.4,182.8-59.4
		C3245.5-967.4,3256.1-983.1,3269.9-996.4z"/>
</g>
<g id="SPLINE_13134_">
	<path id="XMLID_1302_" class="st0" d="M2034.9,363.7c-0.3,37.3,4.5,40.3,60.1,33.7c66-7.9,121-29.7,170.5-58.1
		c37.2-21.3,43.1-76.3,8.5-99.3c-9.1-6-27.4-8.9-41.4-8.7C2114.3,233.3,2035.5,286.6,2034.9,363.7z"/>
</g>
<g id="SPLINE_13135_">
	<path id="XMLID_1301_" class="st0" d="M986.3-468c0,33.3-3.1,64.9,1.2,96.1c2.5,18.2,10.5,38.7,26.7,53
		c66.2,58.4,257.2,47.6,310.9-16.4c4-4.8,4.4-12.2,2-17.4c-0.9-2-14.8-3-22.2-2.2c-70.4,7.6-133.3-6.5-187.2-33.3
		C1072.5-410.5,1034-438.5,986.3-468z"/>
</g>
<g id="SPLINE_13136_">
	<path id="XMLID_1300_" class="st0" d="M985,349.9c-6.8,0.9-13.6,1.7-20.4,2.6c0,67.7-1.1,135.5,1.5,203.1
		c0.3,7.9,19.4,19.5,33.4,22.7c149.7,34.8,303.8,26.7,457.8,17.2c2.1-0.1,4-2.1,12.7-7c-21.9-1.4-37.9-1.7-53.3-3.7
		c-80-10.4-162.8-15.8-239.2-33.1C1058.8,524.8,996.9,467,998.8,383C999,372.1,989.8,361,985,349.9z"/>
</g>
<g id="SPLINE_13137_">
	<path id="XMLID_1299_" class="st0" d="M1014.1-1485.8c61-26.8,95.6-60.2,99-105.1c3.2-42.1-50.5-112.5-99-129.1
		C1014.1-1642.8,1014.1-1567.2,1014.1-1485.8z"/>
</g>
</svg>
